M48
; DRILL file {tscircuit} date 2026-09-29T00:12:24.797Z
; FORMAT={-:-/ absolute / metric / decimal}
; #@! TF.CreationDate,2026-09-29T00:12:24.797Z
; #@! TF.GenerationSoftware,tscircuit
; #@! TF.FileFunction,Plated,1,2,PTH
FMAT,2
METRIC
; #@! TA.AperFunction,Plated,PTH,ComponentDrill
T10C0.799998
; #@! TA.AperFunction,Plated,PTH,ComponentDrill
T11C1.000000
; #@! TA.AperFunction,Plated,PTH,ComponentDrill
T12C0.300000
%
G90
G05
T10
X-43.5741Y-4.3251
G85X-42.974Y-4.325
X-39.4943Y-4.3251
G85X-38.694Y-4.325
X-39.4943Y4.3251
G85X-38.694Y4.325
X-43.5741Y4.3251
G85X-42.974Y4.325
T11
X7.7500Y17.0000
X4.2500Y17.0000
X19.7500Y17.0000
X16.2500Y17.0000
X31.7500Y20.0000
X28.2500Y20.0000
X9.2500Y-25.0000
X12.7500Y-25.0000
X21.2500Y-25.0000
X24.7500Y-25.0000
T12
X22.4000Y-8.0000
X22.9000Y-3.2190
X12.6790Y-4.8000
X23.7810Y8.4190
X2.2116Y12.7969
X6.2194Y14.0750
X15.3230Y6.1790
X13.6060Y6.0070
X-27.2000Y13.6000
X-26.9600Y11.4430
X-41.0850Y-2.1130
X-36.7400Y-6.4950
X18.6660Y-15.8514
X18.6660Y-14.3640
X15.3454Y-15.5127
X15.3340Y-14.2000
X13.8399Y-18.3654
X-29.0540Y1.8400
X-28.5530Y4.5520
X-32.6994Y-0.0041
X-32.4322Y2.0797
X-15.6000Y10.9190
X-11.9000Y5.2044
X-10.1104Y4.8038
X-14.3130Y17.7140
X-10.1994Y-4.2999
X-2.2082Y-6.0650
X-11.0868Y-4.8614
X3.0289Y-13.7140
X5.4934Y-14.9905
X6.5435Y-15.0591
X-10.7763Y-2.5564
X3.4783Y0.4756
X-13.0600Y-8.9060
X17.7550Y-2.6770
X-11.8252Y-2.4396
X-2.6066Y7.6560
X-11.8460Y-17.6140
X-4.7877Y-14.4654
X-3.1986Y-9.8994
X6.4350Y4.1890
X-15.8842Y-4.4626
X-19.3876Y12.8820
X-15.4632Y-2.6727
X-19.9570Y-4.4720
X-22.0534Y-3.5446
X-23.0906Y-3.8827
X-14.3445Y1.1163
X-16.8417Y3.1645
X-14.4313Y1.8849
X-15.9256Y3.1944
X-2.8889Y1.9537
X-0.2510Y0.0669
X-0.3625Y-1.0552
X-0.3625Y-2.9552
X-5.5755Y1.6979
X-23.8245Y-16.8125
X-7.4499Y1.3613
X0.3590Y0.4102
X0.8778Y0.1000
X2.9811Y-0.8122
X-4.8558Y-1.8487
X-1.0000Y-4.0248
X2.9500Y-9.8891
X2.8640Y-8.1679
X-20.3799Y-21.9044
X-20.9783Y-23.1829
X-13.2538Y-16.1752
X-8.2190Y-13.2320
X-7.5614Y-10.1016
X-7.6939Y-8.4850
X-16.6570Y-20.3000
X-17.4896Y-24.6603
X-12.9010Y-20.0250
X-7.0420Y-14.2440
X-7.5490Y-10.9662
X-9.2495Y-7.5485
X-2.2572Y-21.5824
X-0.5570Y-24.5136
X-1.0861Y-13.8152
X-0.9141Y-10.3750
X-9.4912Y-5.6861
X-14.3191Y0.0665
X-12.5283Y1.6901
X-12.5501Y-0.2932
X-14.8750Y-1.0000
X-12.5283Y2.4901
X-13.7283Y3.9901
X-7.8250Y2.5000
X-6.7721Y3.4544
X-8.3625Y2.0448
X-12.0001Y-1.2365
X-4.2750Y0.1000
X-3.6000Y1.0250
X-26.6166Y-7.5949
X-27.9500Y-7.8000
X-13.8480Y-5.8790
X-12.0068Y0.3894
X-5.1959Y0.7189
X-4.2000Y3.3750
X-4.1395Y8.2379
X-8.6220Y8.2170
X20.8891Y-18.3598
X23.1790Y-17.3350
X-0.8050Y-9.0620
X-2.5500Y-9.2000
X-16.7898Y12.0608
X-14.7820Y11.3740
X12.6070Y-15.1000
X7.1150Y-17.2140
X-24.3034Y-11.2311
X-23.7420Y-23.0090
X-18.3290Y-22.6710
X-23.3000Y-11.9250
X-27.5120Y-1.0970
X-21.1900Y8.3910
X-37.2259Y-2.4106
X-39.4000Y2.0750
X-30.9750Y2.1000
X-39.9500Y2.1000
X-39.5000Y1.2500
X-37.2000Y5.0000
X-37.2250Y-3.0000
X-36.6890Y-5.6043
X-13.0216Y8.2061
X-10.8590Y8.2530
X-31.9150Y-2.1501
X-31.9160Y-4.4973
X-16.2283Y-2.4302
X-16.3283Y-0.9099
X-16.1283Y1.7901
X-16.1297Y0.0562
X-6.5733Y5.9387
X-9.6200Y5.9035
X-30.2849Y-2.1351
X-29.9911Y-3.3055
X-15.6500Y-21.9640
X-16.6844Y-24.7857
X19.1920Y-18.8500
X20.7970Y-17.5475
X-18.0197Y-20.3953
X-19.0053Y-20.0239
X-24.6436Y-8.8125
X-21.8809Y-8.6359
X-12.0320Y1.0938
X-9.2832Y-2.0000
X-10.5230Y-5.3783
X-8.7049Y-4.9887
X-37.2110Y2.5920
X-36.0300Y-2.5340
X-4.6165Y7.5771
X-9.3950Y7.4450
X-7.4577Y-0.8539
X-4.4616Y1.6469
X-2.5600Y2.9531
X-4.3409Y2.2236
X-20.9637Y-3.9030
X-5.6390Y-14.7840
X-8.1619Y-14.8792
X-27.0010Y-12.3024
X-26.9000Y-19.0000
X-4.2250Y-21.5000
X-3.3180Y-22.8600
X-0.3500Y-18.5000
X-0.1820Y-16.0170
X-4.9000Y-18.9500
X-1.9265Y-22.6818
X4.0250Y-6.6910
X-4.6136Y-13.0067
X10.0000Y-2.6000
M30