%TF.GenerationSoftware,tscircuit,circuit-json-to-gerber,0.0.104*%
%TF.CreationDate,2026-09-29T00:12:24.734Z*%
%TF.SameCoordinates,Original*%
%TF.FileFunction,Copper,L1,Top*%
%TF.FilePolarity,Positive*%
%FSLAX46Y46*%
%MOMM*%
G04 Gerber Fmt 4.6, Leading zero omitted, Abs format (unit mm)*
G04 Created by tscircuit (builder) date 2026-09-29T00:12:24.734Z*
G01*
%LPD*%
G75*
G04 APERTURE MACROS START*
%AMHORZPILL*
0 Horizontal pill (stadium) shape macro*
0 Parameters:*
0 $1 = Total width*
0 $2 = Total height*
0 $3 = Circle diameter (equal to height)*
0 $4 = Circle center offset
0 21 = Center Line(Exposure, Width, Height, Center X, Center Y, Rotation)*
0 1 = Circle(Exposure, Diameter, Center X, Center Y, Rotation)*
21,1,$1-$3,$2,0.0,0.0,0.0*
1,1,$3,0.0-$4,0.0*
1,1,$3,$4,0.0*%
%AMVERTPILL*
0 Vertical pill (stadium) shape macro*
0 Parameters:*
0 $1 = Total width*
0 $2 = Total height*
0 $3 = Circle diameter (equal to width)*
0 $4 = Circle center offset
0 21 = Center Line(Exposure, Width, Height, Center X, Center Y, Rotation)*
21,1,$1,$2-$3,0.0,0.0,0.0*
1,1,$3,0.0,0.0-$4*
1,1,$3,0.0,$4*%
%AMROUNDRECT*
0 Rectangle with rounded corners*
0 $1 Corner radius*
0 $2 $3 $4 $5 $6 $7 $8 $9 X,Y Position of each corner*
0 Polygon box body*
4,1,4,$2,$3,$4,$5,$6,$7,$8,$9,$2,$3,0*
0 Circles for rounded corners*
1,1,$1+$1,$2,$3*
1,1,$1+$1,$4,$5*
1,1,$1+$1,$6,$7*
1,1,$1+$1,$8,$9*
0 Rectangles between the rounded corners*
20,1,$1+$1,$2,$3,$4,$5,0*
20,1,$1+$1,$4,$5,$6,$7,0*
20,1,$1+$1,$6,$7,$8,$9,0*
20,1,$1+$1,$8,$9,$2,$3,0*%
G04 APERTURE MACROS END*
G04 aperture START LIST*
%ADD10C,0.150000*%
%ADD11C,0.350012*%
%ADD12C,0.500000*%
%ADD13C,0.187500*%
%ADD14C,0.237500*%
%ADD15C,0.250000*%
%ADD16C,0.200000*%
%ADD17C,0.300000*%
%ADD18C,0.262500*%
%ADD19C,0.275000*%
%ADD20C,0.200000*%
%ADD21C,0.225000*%
%ADD22C,0.287500*%
%ADD23C,0.400000*%
%ADD24C,0.212500*%
%ADD25C,0.200337*%
%ADD26C,0.325000*%
%ADD27C,0.312500*%
%ADD28C,0.231335*%
%ADD29C,0.208291*%
%ADD30C,0.208291*%
%ADD31C,0.162500*%
%ADD32C,0.206349*%
%ADD33C,0.300000*%
%ADD34C,0.350000*%
%ADD35C,0.200225*%
%ADD36C,0.218470*%
%ADD37C,0.362500*%
%ADD38C,0.200033*%
%ADD39C,0.218279*%
%ADD40C,0.337500*%
%ADD41C,0.200080*%
%ADD42C,0.175000*%
%ADD43C,0.425000*%
%ADD44C,0.450000*%
%ADD45C,0.375000*%
%ADD46C,0.437500*%
%ADD47C,0.280010*%
%ADD48C,0.350000*%
%ADD49C,0.475000*%
%ADD50R,0.664997X0.280010*%
%ADD51R,0.465498X0.196007*%
%ADD52R,1.199998X1.999996*%
%ADD53R,0.839998X1.399997*%
%ADD54C,0.100000*%
%ADD55C,0.090000*%
%ADD56R,1.099998X0.599999*%
%ADD57R,0.769998X0.419999*%
%ADD58R,0.999998X0.650011*%
%ADD59R,0.699999X0.455008*%
%ADD60R,3.499993X1.599997*%
%ADD61R,2.449995X1.119998*%
%ADD62C,0.072000*%
%ADD63R,3.099994X3.099994*%
%ADD64R,2.169996X2.169996*%
%ADD65R,0.850011X0.200000*%
%ADD66R,0.595008X0.140000*%
%ADD67R,0.200000X0.850011*%
%ADD68R,0.140000X0.595008*%
%ADD69C,0.629996*%
%ADD70R,0.622300X1.104900*%
%ADD71R,0.435610X0.773430*%
%ADD72R,0.532003X1.072007*%
%ADD73R,0.372402X0.750405*%
%ADD74R,0.850011X0.350012*%
%ADD75R,0.595008X0.245008*%
%ADD76VERTPILL,1.199998X1.799996X1.199998X0.299999*%
%ADD77HORZPILL,1.799996X1.199998X1.199998X0.299999*%
%ADD78VERTPILL,1.199998X1.999996X1.199998X0.399999*%
%ADD79HORZPILL,1.999996X1.199998X1.199998X0.399999*%
%ADD80R,1.299997X0.299999*%
%ADD81R,0.909998X0.210000*%
%ADD82R,1.406677X3.499206*%
%ADD83R,0.984674X2.449444*%
%ADD84R,1.199998X1.399997*%
%ADD85R,0.839998X0.979998*%
%ADD86R,0.999998X0.750011*%
%ADD87R,0.699999X0.525008*%
%ADD88R,0.999998X1.399540*%
%ADD89R,0.699999X0.979678*%
%ADD90C,2.000000*%
%ADD91C,0.150000*%
%ADD92R,0.806475X0.864006*%
%ADD93R,0.564533X0.604804*%
%ADD94R,0.864006X0.806475*%
%ADD95R,0.604804X0.564533*%
%ADD96R,0.499999X0.540004*%
%ADD97R,0.349999X0.378003*%
%ADD98R,1.410005X1.350010*%
%ADD99R,0.987003X0.945007*%
%ADD100R,0.540004X0.499999*%
%ADD101R,0.378003X0.349999*%
%ADD102R,0.799998X0.899998*%
%ADD103R,0.559999X0.629999*%
%ADD104R,0.899998X0.799998*%
%ADD105R,0.629999X0.559999*%
%ADD106C,1.400000*%
%ADD107C,0.058500*%
%ADD108C,0.108000*%
%ADD109C,0.600000*%
%ADD110C,0.001000*%
%TD*%
G04 aperture END LIST*
D50*
X-04157478Y-19000002D03*
D50*
X-04157478Y-19500128D03*
D50*
X-04157478Y-20000000D03*
D50*
X-04157478Y-20500126D03*
D50*
X-04157478Y-20999998D03*
D50*
X-01842522Y-19000002D03*
D50*
X-01842522Y-19500128D03*
D50*
X-01842522Y-20000000D03*
D50*
X-01842522Y-20500126D03*
D50*
X-01842522Y-20999998D03*
D52*
X-03000000Y-20000000D03*
D56*
X-16649990Y-22949960D03*
D56*
X-16649990Y-22000000D03*
D56*
X-16649990Y-21050040D03*
D56*
X-19350010Y-21050040D03*
D56*
X-19350010Y-22000000D03*
D56*
X-19350010Y-22949960D03*
D58*
X001999998Y-11949960D03*
D58*
X001999998Y-10050040D03*
D58*
X000000002Y-11000000D03*
D60*
X-09000000Y-18400054D03*
D60*
X-09000000Y-21599946D03*
D63*
X-10000127Y000000000D03*
D65*
X-13425063Y-02599944D03*
D65*
X-13425063Y-02200148D03*
D65*
X-13425063Y-01800098D03*
D65*
X-13425063Y-01400048D03*
D65*
X-13425063Y-00999998D03*
D65*
X-13425063Y-00599948D03*
D65*
X-13425063Y-00200152D03*
D65*
X-13425063Y000199898D03*
D65*
X-13425063Y000599948D03*
D65*
X-13425063Y000999998D03*
D65*
X-13425063Y001400048D03*
D65*
X-13425063Y001799844D03*
D65*
X-13425063Y002199894D03*
D65*
X-13425063Y002599944D03*
D67*
X-12600071Y003424936D03*
D67*
X-12200021Y003424936D03*
D67*
X-11799971Y003424936D03*
D67*
X-11399921Y003424936D03*
D67*
X-11000125Y003424936D03*
D67*
X-10600075Y003424936D03*
D67*
X-10200025Y003424936D03*
D67*
X-09799975Y003424936D03*
D67*
X-09399925Y003424936D03*
D67*
X-09000129Y003424936D03*
D67*
X-08600079Y003424936D03*
D67*
X-08200029Y003424936D03*
D67*
X-07799979Y003424936D03*
D67*
X-07399929Y003424936D03*
D65*
X-06574937Y002599944D03*
D65*
X-06574937Y002199894D03*
D65*
X-06574937Y001799844D03*
D65*
X-06574937Y001400048D03*
D65*
X-06574937Y000999998D03*
D65*
X-06574937Y000599948D03*
D65*
X-06574937Y000199898D03*
D65*
X-06574937Y-00200152D03*
D65*
X-06574937Y-00599948D03*
D65*
X-06574937Y-00999998D03*
D65*
X-06574937Y-01400048D03*
D65*
X-06574937Y-01800098D03*
D65*
X-06574937Y-02200148D03*
D65*
X-06574937Y-02599944D03*
D67*
X-07399929Y-03424936D03*
D67*
X-07799979Y-03424936D03*
D67*
X-08200029Y-03424936D03*
D67*
X-08600079Y-03424936D03*
D67*
X-09000129Y-03424936D03*
D67*
X-09399925Y-03424936D03*
D67*
X-09799975Y-03424936D03*
D67*
X-10200025Y-03424936D03*
D67*
X-10600075Y-03424936D03*
D67*
X-11000125Y-03424936D03*
D67*
X-11399921Y-03424936D03*
D67*
X-11799971Y-03424936D03*
D67*
X-12200021Y-03424936D03*
D67*
X-12600071Y-03424936D03*
D69*
X-17659902Y-06405000D03*
X-17659902Y-06405000D02*
X-19279914Y-06405000D01*
X-19279914Y-06405000D03*
D69*
X-17659902Y-05135000D03*
X-17659902Y-05135000D02*
X-19279914Y-05135000D01*
X-19279914Y-05135000D03*
D69*
X-17659902Y-03865000D03*
X-17659902Y-03865000D02*
X-19279914Y-03865000D01*
X-19279914Y-03865000D03*
D69*
X-17659902Y-02595000D03*
X-17659902Y-02595000D02*
X-19279914Y-02595000D01*
X-19279914Y-02595000D03*
D69*
X-24720086Y-06405000D03*
X-24720086Y-06405000D02*
X-26340098Y-06405000D01*
X-26340098Y-06405000D03*
D69*
X-24720086Y-05135000D03*
X-24720086Y-05135000D02*
X-26340098Y-05135000D01*
X-26340098Y-05135000D03*
D69*
X-24720086Y-03865000D03*
X-24720086Y-03865000D02*
X-26340098Y-03865000D01*
X-26340098Y-03865000D03*
D69*
X-24720086Y-02595000D03*
X-24720086Y-02595000D02*
X-26340098Y-02595000D01*
X-26340098Y-02595000D03*
D70*
X-26050294Y-08700028D03*
D70*
X-27949706Y-08700028D03*
D70*
X-27949706Y-11299972D03*
D70*
X-27000508Y-11299972D03*
D70*
X-26050294Y-11299972D03*
D72*
X-31949960Y-01149096D03*
D72*
X-31000000Y-01149096D03*
D72*
X-30050040Y-01149096D03*
D72*
X-30050040Y001149096D03*
D72*
X-31000000Y001149096D03*
D72*
X-31949960Y001149096D03*
D74*
X-32899926Y-04649986D03*
D74*
X-32899926Y-04000000D03*
D74*
X-32899926Y-03350014D03*
D74*
X-35100074Y-03350014D03*
D74*
X-35100074Y-04000000D03*
D74*
X-35100074Y-04649986D03*
D72*
X016050040Y-16149096D03*
D72*
X017000000Y-16149096D03*
D72*
X017949960Y-16149096D03*
D72*
X017949960Y-13850904D03*
D72*
X017000000Y-13850904D03*
D72*
X016050040Y-13850904D03*
%ADD111C,1.199998*%
D111*
X-43574130Y-04325112D03*
X-43574130Y-04325112D02*
X-42974131Y-04325112D01*
X-42974131Y-04325112D03*
D111*
X-39494306Y-04325112D03*
X-39494306Y-04325112D02*
X-38694308Y-04325112D01*
X-38694308Y-04325112D03*
D111*
X-39494306Y004325112D03*
X-39494306Y004325112D02*
X-38694308Y004325112D01*
X-38694308Y004325112D03*
D111*
X-43574130Y004325112D03*
X-43574130Y004325112D02*
X-42974131Y004325112D01*
X-42974131Y004325112D03*
D80*
X-38325957Y001750060D03*
D80*
X-38325957Y001249934D03*
D80*
X-38325957Y000750062D03*
D80*
X-38325957Y000249936D03*
D80*
X-38325957Y-00249936D03*
D80*
X-38325957Y-00750062D03*
D80*
X-38325957Y-01249680D03*
D80*
X-38325957Y-01750060D03*
D110*
G36*
X-38975892Y002899969D02*
X-37675869Y002899969D01*
X-37675869Y002899969D01*
X-37675869Y003199968D01*
X-37675869Y003199968D01*
X-37676022Y003199968D01*
X-37676022Y003199968D01*
X-37676022Y003499942D01*
X-37676022Y003499942D01*
X-38976044Y003499942D01*
X-38976044Y003499942D01*
X-38976044Y003199943D01*
X-38976044Y003199943D01*
X-38975892Y003199943D01*
X-38975892Y003199943D01*
X-38975892Y002899969D01*
X-38975892Y002899969D01*
G37*
D110*
G36*
X-37675869Y-02899994D02*
X-38975841Y-02899994D01*
X-38975841Y-02899994D01*
X-38975841Y-03199994D01*
X-38975841Y-03199994D01*
X-38975841Y-03200019D01*
X-38975841Y-03200019D01*
X-38975841Y-03500018D01*
X-38975841Y-03500018D01*
X-37675869Y-03500018D01*
X-37675869Y-03500018D01*
X-37675869Y-03200019D01*
X-37675869Y-03200019D01*
X-37675869Y-03199994D01*
X-37675869Y-03199994D01*
X-37675869Y-02899994D01*
X-37675869Y-02899994D01*
G37*
D110*
G36*
X-38975841Y-02700172D02*
X-37675869Y-02700172D01*
X-37675869Y-02700172D01*
X-37675869Y-02400173D01*
X-37675869Y-02400173D01*
X-37675869Y-02400148D01*
X-37675869Y-02400148D01*
X-37675869Y-02100148D01*
X-37675869Y-02100148D01*
X-38975841Y-02100148D01*
X-38975841Y-02100148D01*
X-38975841Y-02400148D01*
X-38975841Y-02400148D01*
X-38975841Y-02400173D01*
X-38975841Y-02400173D01*
X-38975841Y-02700172D01*
X-38975841Y-02700172D01*
G37*
D110*
G36*
X-38975994Y002099970D02*
X-37676022Y002099970D01*
X-37676022Y002099970D01*
X-37676022Y002399995D01*
X-37676022Y002399995D01*
X-37676047Y002399995D01*
X-37676047Y002399995D01*
X-37676047Y002699944D01*
X-37676047Y002699944D01*
X-38976019Y002699944D01*
X-38976019Y002699944D01*
X-38976019Y002399919D01*
X-38976019Y002399919D01*
X-38975994Y002399919D01*
X-38975994Y002399919D01*
X-38975994Y002099970D01*
X-38975994Y002099970D01*
G37*
D82*
X-33146562Y-11000000D03*
D82*
X-36853438Y-11000000D03*
D84*
X-02049989Y-04100074D03*
D84*
X-02049989Y-01899926D03*
D84*
X-03750011Y-01899926D03*
D84*
X-03750011Y-04100074D03*
D86*
X-31999994Y015849882D03*
D86*
X-26000006Y015849882D03*
D86*
X-31999994Y012150118D03*
D86*
X-26000006Y012150118D03*
D86*
X-31999994Y-17150118D03*
D86*
X-26000006Y-17150118D03*
D86*
X-31999994Y-20849882D03*
D86*
X-26000006Y-20849882D03*
D88*
X-30050290Y019000000D03*
D88*
X-27949710Y019000000D03*
D88*
X-22050290Y019000000D03*
D88*
X-19949710Y019000000D03*
D58*
X015999998Y007050040D03*
D58*
X015999998Y008949960D03*
D58*
X014000002Y008000000D03*
D58*
X015999998Y000050040D03*
D58*
X015999998Y001949960D03*
D58*
X014000002Y001000000D03*
D58*
X003999998Y007050040D03*
D58*
X003999998Y008949960D03*
D58*
X002000002Y008000000D03*
D58*
X015999998Y-06949960D03*
D58*
X015999998Y-05050040D03*
D58*
X014000002Y-06000000D03*
D58*
X021999998Y-06949960D03*
D58*
X021999998Y-05050040D03*
D58*
X020000002Y-06000000D03*
D90*
X007750000Y017000000D03*
D90*
X004250000Y017000000D03*
D90*
X019750000Y017000000D03*
D90*
X016250000Y017000000D03*
D90*
X031750000Y020000000D03*
D90*
X028250000Y020000000D03*
D90*
X009250000Y-25000000D03*
D90*
X012750000Y-25000000D03*
D90*
X021250000Y-25000000D03*
D90*
X024750000Y-25000000D03*
D92*
X-33246636Y006000000D03*
D92*
X-34753364Y006000000D03*
D92*
X-35246636Y-07500000D03*
D92*
X-36753364Y-07500000D03*
D94*
X-18000000Y001753364D03*
D94*
X-18000000Y000246636D03*
D94*
X-18000000Y005753364D03*
D94*
X-18000000Y004246636D03*
D92*
X-19246636Y012000000D03*
D92*
X-20753364Y012000000D03*
D92*
X-25753364Y010000000D03*
D92*
X-24246636Y010000000D03*
D94*
X-01500000Y001753364D03*
D94*
X-01500000Y000246636D03*
D92*
X001246636Y-07000000D03*
D92*
X002753364Y-07000000D03*
D92*
X-25753364Y023000000D03*
D92*
X-24246636Y023000000D03*
D92*
X-17753364Y019000000D03*
D92*
X-16246636Y019000000D03*
D92*
X008753364Y008000000D03*
D92*
X007246636Y008000000D03*
D92*
X012753364Y005000000D03*
D92*
X011246636Y005000000D03*
D92*
X008753364Y001000000D03*
D92*
X007246636Y001000000D03*
D92*
X012753364Y-02000000D03*
D92*
X011246636Y-02000000D03*
D92*
X-00246636Y008000000D03*
D92*
X-01753364Y008000000D03*
D92*
X003753364Y004000000D03*
D92*
X002246636Y004000000D03*
D92*
X011253364Y-06000000D03*
D92*
X009746636Y-06000000D03*
D92*
X020753364Y-02000000D03*
D92*
X019246636Y-02000000D03*
D92*
X026253364Y-06000000D03*
D92*
X024746636Y-06000000D03*
D92*
X010246636Y-13000000D03*
D92*
X011753364Y-13000000D03*
D92*
X007753364Y-16000000D03*
D92*
X006246636Y-16000000D03*
D92*
X022753364Y-13000000D03*
D92*
X021246636Y-13000000D03*
D92*
X026753364Y-16000000D03*
D92*
X025246636Y-16000000D03*
D92*
X-18246636Y010000000D03*
D92*
X-19753364Y010000000D03*
D92*
X-14246636Y010000000D03*
D92*
X-15753364Y010000000D03*
D96*
X-34579884Y010000000D03*
D96*
X-35420116Y010000000D03*
D96*
X-27579884Y-07000000D03*
D96*
X-28420116Y-07000000D03*
D98*
X-21800002Y-10000000D03*
D98*
X-23799998Y-10000000D03*
D100*
X-13000000Y006420116D03*
D100*
X-13000000Y005579884D03*
D100*
X-15000000Y006420116D03*
D100*
X-15000000Y005579884D03*
D100*
X-10800000Y-06079884D03*
D100*
X-10800000Y-06920116D03*
D100*
X-08500000Y-05979884D03*
D100*
X-08500000Y-06820116D03*
D100*
X-03600000Y002420116D03*
D100*
X-03600000Y001579884D03*
D100*
X-04400000Y004920116D03*
D100*
X-04400000Y004079884D03*
D100*
X-07300000Y005920116D03*
D100*
X-07300000Y005079884D03*
D100*
X-08900000Y005920116D03*
D100*
X-08900000Y005079884D03*
D100*
X-15200000Y002920116D03*
D100*
X-15200000Y002079884D03*
D100*
X-15600000Y-00579884D03*
D100*
X-15600000Y-01420116D03*
D96*
X-28920116Y-04500000D03*
D96*
X-28079884Y-04500000D03*
D100*
X-02000000Y-06779884D03*
D100*
X-02000000Y-07620116D03*
D100*
X000300000Y-01579884D03*
D100*
X000300000Y-02420116D03*
D102*
X011700024Y-16000000D03*
D102*
X010299976Y-16000000D03*
D102*
X021299976Y-16000000D03*
D102*
X022700024Y-16000000D03*
D104*
X-11000000Y006700024D03*
D104*
X-11000000Y005299976D03*
D92*
X001753364Y-23000000D03*
D92*
X000246636Y-23000000D03*
D92*
X001753364Y-20000000D03*
D92*
X000246636Y-20000000D03*
D92*
X003753364Y-17000000D03*
D92*
X002246636Y-17000000D03*
D92*
X-17246636Y-26000000D03*
D92*
X-18753364Y-26000000D03*
D92*
X001753364Y-26000000D03*
D92*
X000246636Y-26000000D03*
D92*
X-02246636Y-12000000D03*
D92*
X-03753364Y-12000000D03*
D92*
X-21246636Y-22000000D03*
D92*
X-22753364Y-22000000D03*
D92*
X-21246636Y-25000000D03*
D92*
X-22753364Y-25000000D03*
D98*
X-04000002Y-24000000D03*
D98*
X-05999998Y-24000000D03*
D98*
X-04000002Y-16000000D03*
D98*
X-05999998Y-16000000D03*
D98*
X-11499998Y-12500000D03*
D98*
X-09500002Y-12500000D03*
D96*
X000420116Y-15000000D03*
D96*
X-00420116Y-15000000D03*
D96*
X004420116Y-11000000D03*
D96*
X003579884Y-11000000D03*
D96*
X-14079884Y-23000000D03*
D96*
X-14920116Y-23000000D03*
D106*
X-13000000Y016000000D03*
D106*
X-09000000Y016000000D03*
D106*
X-05000000Y016000000D03*
D106*
X-01000000Y016000000D03*
D106*
X009000000Y011000000D03*
D106*
X000000000Y011000000D03*
D106*
X023000000Y002000000D03*
D106*
X009000000Y-04000000D03*
D106*
X002000000Y-02000000D03*
D106*
X002000000Y001000000D03*
D106*
X005000000Y-04000000D03*
D10*
X001753364Y-23000000D02*
X000246636Y-21493636D01*
D10*
X000246636Y-21493636D02*
X000246636Y-20000000D01*
D10*
X021999998Y-06949960D02*
X023797040Y-06949960D01*
D10*
X023797040Y-06949960D02*
X024746636Y-06000000D01*
D10*
X021999998Y-06949960D02*
X021999998Y-07468252D01*
D10*
X021999998Y-07468252D02*
X022340552Y-07808806D01*
D10*
X022340552Y-07808806D02*
X022340552Y-07940552D01*
D10*
X022340552Y-07940552D02*
X022400000Y-08000000D01*
D10*
X022900000Y-03219000D02*
X021972000Y-03219000D01*
D10*
X021972000Y-03219000D02*
X020753364Y-02000000D01*
D10*
X014000002Y-06000000D02*
X012800000Y-04800000D01*
D10*
X012800000Y-04800000D02*
X012679000Y-04800000D01*
D10*
X023781000Y008419000D02*
X023901647Y008539647D01*
D10*
X023901647Y008539647D02*
X023929650Y008539647D01*
D10*
X023929650Y008539647D02*
X028250000Y012859997D01*
D10*
X028250000Y012859997D02*
X028250000Y020000000D01*
D10*
X015999998Y-06949960D02*
X016950000Y-06000000D01*
D10*
X016950000Y-06000000D02*
X020000002Y-06000000D01*
D10*
X015999998Y-06949960D02*
X012202960Y-06949960D01*
D10*
X012202960Y-06949960D02*
X011253364Y-06000000D01*
D10*
X002000002Y008000000D02*
X002218798Y008218798D01*
D10*
X002218798Y008218798D02*
X002211584Y012796938D01*
D10*
X006219405Y014074973D02*
X006221274Y013933103D01*
D10*
X006221274Y013933103D02*
X006270577Y013933103D01*
D10*
X006270577Y013933103D02*
X013183103Y013933103D01*
D10*
X013183103Y013933103D02*
X016250000Y017000000D01*
D10*
X003999998Y007050040D02*
X003999998Y005752998D01*
D10*
X003999998Y005752998D02*
X002246636Y004000000D01*
D10*
X003999998Y007050040D02*
X000702960Y007050040D01*
D10*
X000702960Y007050040D02*
X-00246636Y008000000D01*
D10*
X008753364Y001000000D02*
X011246636Y-01493636D01*
D10*
X011246636Y-01493636D02*
X011246636Y-02000000D01*
D10*
X015999998Y000050040D02*
X015104143Y-00845815D01*
D10*
X015104143Y-00845815D02*
X012079448Y-00845815D01*
D10*
X012079448Y-00845815D02*
X012079448Y-01167188D01*
D10*
X012079448Y-01167188D02*
X011246636Y-02000000D01*
D10*
X015999998Y008949960D02*
X014736468Y007618801D01*
D10*
X014736468Y007618801D02*
X014570251Y007216667D01*
D10*
X014570251Y007216667D02*
X014656852Y001683109D01*
D10*
X014656852Y001683109D02*
X014000002Y001000000D01*
D10*
X014000002Y008000000D02*
X008576454Y013405738D01*
D10*
X008576454Y013405738D02*
X005875852Y013301358D01*
D10*
X005875852Y013301358D02*
X004250000Y015049401D01*
D10*
X004250000Y015049401D02*
X004250000Y017000000D01*
D10*
X008753364Y008000000D02*
X011246636Y005506364D01*
D10*
X011246636Y005506364D02*
X011246636Y005000000D01*
D10*
X015999998Y007050040D02*
X015999998Y006995998D01*
D10*
X015999998Y006995998D02*
X015197064Y006193064D01*
D10*
X015197064Y006193064D02*
X015323000Y006179000D01*
D10*
X013606000Y006007000D02*
X012253636Y006007000D01*
D10*
X012253636Y006007000D02*
X011246636Y005000000D01*
D10*
X-19949710Y019000000D02*
X-17753000Y019000000D01*
D10*
X-17753000Y019000000D02*
X-17753364Y019000000D01*
D10*
X-27949710Y019000000D02*
X-27949710Y020803290D01*
D10*
X-27949710Y020803290D02*
X-25753364Y023000000D01*
D10*
X-26000006Y015849882D02*
X-26000006Y014799994D01*
D10*
X-26000006Y014799994D02*
X-27172560Y013627440D01*
D10*
X-27172560Y013627440D02*
X-27200000Y013600000D01*
D10*
X-26960000Y011443000D02*
X-26960000Y011207000D01*
D10*
X-26960000Y011207000D02*
X-25753364Y010000000D01*
D10*
X-31999994Y015849882D02*
X-31999882Y015849882D01*
D10*
X-31999882Y015849882D02*
X-26000006Y015849882D01*
D10*
X-03750011Y-01899926D02*
X-02962463Y-01155247D01*
D10*
X-02962463Y-01155247D02*
X-02862463Y-01055247D01*
D10*
X-02862463Y-01055247D02*
X-02762463Y-00955247D01*
D10*
X-02762463Y-00955247D02*
X-02662463Y-00955247D01*
D10*
X-02662463Y-00955247D02*
X-01362463Y-00955247D01*
D10*
X-01362463Y-00955247D02*
X-00112463Y-02019605D01*
D10*
X-00112463Y-02019605D02*
X000300000Y-02420116D01*
D10*
X-03750011Y-01899926D02*
X-02262463Y-00455247D01*
D10*
X-02262463Y-00455247D02*
X-00962463Y-00455247D01*
D10*
X-00962463Y-00455247D02*
X-00762463Y-00255247D01*
D10*
X-00762463Y-00255247D02*
X-00762463Y-00155247D01*
D10*
X-00762463Y-00155247D02*
X-00776138Y-00056133D01*
D10*
X-00776138Y-00056133D02*
X-00775949Y000144984D01*
D10*
X-00775949Y000144984D02*
X-00762463Y000244753D01*
D10*
X-00762463Y000244753D02*
X-00762463Y000344753D01*
D10*
X-00762463Y000344753D02*
X-00862463Y000844753D01*
D10*
X-00862463Y000844753D02*
X-01500000Y001753364D01*
D10*
X-38325957Y-01750060D02*
X-40692222Y-01750060D01*
D10*
X-40692222Y-01750060D02*
X-40963507Y-02021346D01*
D10*
X-40963507Y-02021346D02*
X-40993346Y-02021346D01*
D10*
X-40993346Y-02021346D02*
X-41085000Y-02113000D01*
D10*
X-36740000Y-06495000D02*
X-36740000Y-07487000D01*
D10*
X-36740000Y-07487000D02*
X-36753364Y-07500000D01*
D10*
X-38325957Y001249934D02*
X-37721204Y001194190D01*
D10*
X-37721204Y001194190D02*
X-34713930Y004201464D01*
D10*
X-34713930Y004201464D02*
X-34769674Y005983326D01*
D10*
X-34769674Y005983326D02*
X-34753364Y006000000D01*
D10*
X017949960Y-16149096D02*
X018299000Y-15800000D01*
D10*
X018299000Y-15800000D02*
X018665962Y-15851382D01*
D10*
X018665962Y-14364000D02*
X018499494Y-14342494D01*
D10*
X018499494Y-14342494D02*
X018496077Y-14342494D01*
D10*
X018496077Y-14342494D02*
X018004487Y-13850904D01*
D10*
X018004487Y-13850904D02*
X017949960Y-13850904D01*
D10*
X017949960Y-13850904D02*
X020396096Y-13850904D01*
D10*
X020396096Y-13850904D02*
X021246636Y-13000000D01*
D10*
X017949960Y-16149096D02*
X021172758Y-19526246D01*
D10*
X021172758Y-19526246D02*
X021250000Y-25000000D01*
D10*
X016050040Y-16149096D02*
X015463000Y-15562056D01*
D10*
X015463000Y-15562056D02*
X015345382Y-15512691D01*
D10*
X015334039Y-14200000D02*
X015389790Y-14194210D01*
D10*
X015389790Y-14194210D02*
X015442351Y-14194210D01*
D10*
X015442351Y-14194210D02*
X015785657Y-13850904D01*
D10*
X015785657Y-13850904D02*
X016050040Y-13850904D01*
D10*
X016050040Y-13850904D02*
X012603904Y-13850904D01*
D10*
X012603904Y-13850904D02*
X011753364Y-13000000D01*
D10*
X016050040Y-16149096D02*
X013837964Y-18361036D01*
D10*
X013837964Y-18361036D02*
X013839921Y-18365438D01*
D10*
X-38325957Y-00249936D02*
X-38326000Y-00250000D01*
D10*
X-38326000Y-00250000D02*
X-37576514Y-00250000D01*
D10*
X-37576514Y-00250000D02*
X-37435965Y-00124443D01*
D10*
X-37435965Y-00124443D02*
X-37435965Y000518122D01*
D10*
X-37435965Y000518122D02*
X-37682897Y000750062D01*
D10*
X-37682897Y000750062D02*
X-38325957Y000750062D01*
D10*
X-30050040Y-01149096D02*
X-30050040Y001148960D01*
D10*
X-30050040Y001148960D02*
X-30050040Y001149096D01*
D10*
X-30050040Y001149096D02*
X-30490510Y000693810D01*
D10*
X-30490510Y000693810D02*
X-30514077Y000362200D01*
D10*
X-30514077Y000362200D02*
X-32321267Y000360684D01*
D10*
X-32321267Y000360684D02*
X-32470976Y000504439D01*
D10*
X-32470976Y000504439D02*
X-32614773Y000750062D01*
D10*
X-32614773Y000750062D02*
X-38325957Y000750062D01*
D10*
X-30050040Y001149096D02*
X-29744904Y001149096D01*
D10*
X-29744904Y001149096D02*
X-29077159Y001816841D01*
D10*
X-29077159Y001816841D02*
X-29054000Y001840000D01*
D10*
X-28553000Y004552000D02*
X-26738764Y006411602D01*
D10*
X-26738764Y006411602D02*
X-17087526Y006411602D01*
D10*
X-17087526Y006411602D02*
X-17087526Y005159110D01*
D10*
X-17087526Y005159110D02*
X-18000000Y004246636D01*
D10*
X-38325957Y000249936D02*
X-39536525Y000250000D01*
D10*
X-39536525Y000250000D02*
X-39840798Y-00054272D01*
D10*
X-39840798Y-00054272D02*
X-39145008Y-00750062D01*
D10*
X-39145008Y-00750062D02*
X-38325957Y-00750062D01*
D10*
X-31949960Y-01149096D02*
X-31949960Y-00621552D01*
D10*
X-31949960Y-00621552D02*
X-32632250Y000060738D01*
D10*
X-32632250Y000060738D02*
X-32635946Y000060738D01*
D10*
X-32635946Y000060738D02*
X-32699387Y-00004084D01*
D10*
X-32432223Y002079727D02*
X-32368877Y001567877D01*
D10*
X-32368877Y001567877D02*
X-31949960Y001149096D01*
D10*
X-31949960Y-01149096D02*
X-32348938Y-00750062D01*
D10*
X-32348938Y-00750062D02*
X-38325957Y-00750062D01*
D10*
X-31949960Y001149096D02*
X-31957598Y001185977D01*
D10*
X-31957598Y001185977D02*
X-31957598Y001289425D01*
D10*
X-31957598Y001289425D02*
X-31957598Y001392873D01*
D10*
X-31957598Y001392873D02*
X-31957598Y001496322D01*
D10*
X-31957598Y001496322D02*
X-31698977Y001651494D01*
D10*
X-31698977Y001651494D02*
X-31698977Y002065287D01*
D10*
X-31698977Y002065287D02*
X-31698977Y002479080D01*
D10*
X-31698977Y002479080D02*
X-31319924Y002522188D01*
D10*
X-31319924Y002522188D02*
X-31285184Y002789425D01*
D10*
X-31285184Y002789425D02*
X-31130011Y002944598D01*
D10*
X-31130011Y002944598D02*
X-31026563Y002944598D01*
D10*
X-31026563Y002944598D02*
X-30923115Y002944598D01*
D10*
X-30923115Y002944598D02*
X-30819667Y002944598D01*
D10*
X-30819667Y002944598D02*
X-30716218Y002944598D01*
D10*
X-30716218Y002944598D02*
X-30716218Y003048046D01*
D10*
X-30716218Y003048046D02*
X-30612770Y003048046D01*
D10*
X-30612770Y003048046D02*
X-30612770Y003151494D01*
D10*
X-30612770Y003151494D02*
X-30509322Y003151494D01*
D10*
X-30509322Y003151494D02*
X-30405873Y003151494D01*
D10*
X-30405873Y003151494D02*
X-30405873Y003254942D01*
D10*
X-30405873Y003254942D02*
X-30405873Y003358391D01*
D10*
X-30405873Y003358391D02*
X-30302425Y003358391D01*
D10*
X-30302425Y003358391D02*
X-30302425Y003461839D01*
D10*
X-30302425Y003461839D02*
X-30198977Y003461839D01*
D10*
X-30198977Y003461839D02*
X-30198977Y003565287D01*
D10*
X-30198977Y003565287D02*
X-30095529Y003565287D01*
D10*
X-30095529Y003565287D02*
X-30095529Y003668736D01*
D10*
X-30095529Y003668736D02*
X-30045207Y003668736D01*
D10*
X-30045207Y003668736D02*
X-29733169Y003980773D01*
D10*
X-29733169Y003980773D02*
X-21734137Y003980773D01*
D10*
X-21734137Y003980773D02*
X-18000000Y000246636D01*
D10*
X-11000125Y003424936D02*
X-11000000Y003425000D01*
D10*
X-11000000Y003425000D02*
X-11000000Y005299976D01*
D10*
X-18246636Y010000000D02*
X-18247000Y010000000D01*
D10*
X-18247000Y010000000D02*
X-15753364Y010000000D01*
D10*
X-15753364Y010000000D02*
X-15600000Y010153000D01*
D10*
X-15600000Y010153000D02*
X-15600000Y010919000D01*
D10*
X-11899999Y005204382D02*
X-11748102Y005320898D01*
D10*
X-11748102Y005320898D02*
X-11741047Y005320898D01*
D10*
X-11741047Y005320898D02*
X-11720126Y005299976D01*
D10*
X-11720126Y005299976D02*
X-11000000Y005299976D01*
D10*
X-10600075Y003424936D02*
X-10600075Y004607282D01*
D10*
X-10600075Y004607282D02*
X-10491495Y004484912D01*
D10*
X-10491495Y004484912D02*
X-10464207Y004659843D01*
D10*
X-10464207Y004659843D02*
X-10057037Y004771843D01*
D10*
X-10057037Y004771843D02*
X-10272207Y004874843D01*
D10*
X-10272207Y004874843D02*
X-10110398Y004803806D01*
D10*
X-14313000Y017714000D02*
X-14961000Y017714000D01*
D10*
X-14961000Y017714000D02*
X-16246636Y019000000D01*
D10*
X022753364Y-13000000D02*
X022700024Y-13052976D01*
D10*
X022700024Y-13052976D02*
X022700024Y-16000000D01*
D10*
X026753364Y-16000000D02*
X026000000Y-15568000D01*
D10*
X026000000Y-15568000D02*
X025950000Y-15518000D01*
D10*
X025950000Y-15518000D02*
X025893000Y-15335997D01*
D10*
X025893000Y-15335997D02*
X025846000Y-15321997D01*
D10*
X025846000Y-15321997D02*
X025799000Y-15316997D01*
D10*
X025799000Y-15316997D02*
X025750000Y-15313997D01*
D10*
X025750000Y-15313997D02*
X025550000Y-15312997D01*
D10*
X025550000Y-15312997D02*
X025300000Y-15312997D01*
D10*
X025300000Y-15312997D02*
X025050000Y-15312997D01*
D10*
X025050000Y-15312997D02*
X024609109Y-15312997D01*
D10*
X024609109Y-15312997D02*
X024512246Y-15409859D01*
D10*
X024512246Y-15409859D02*
X024059109Y-16000000D01*
D10*
X024059109Y-16000000D02*
X022700024Y-16000000D01*
D10*
X-10200025Y-03424936D02*
X-10200025Y-04075001D01*
D10*
X-10200025Y-04075001D02*
X-10270483Y-04145458D01*
D10*
X-10270483Y-04145458D02*
X-10270483Y-04147140D01*
D10*
X-10270483Y-04147140D02*
X-10199430Y-04299942D01*
D10*
X-02208191Y-06065004D02*
X-00893734Y-06075353D01*
D10*
X-00893734Y-06075353D02*
X002394990Y-09364078D01*
D10*
X002394990Y-09364078D02*
X019117442Y-09364078D01*
D10*
X019117442Y-09364078D02*
X022753364Y-13000000D01*
D10*
X007753364Y-16000000D02*
X007753000Y-16000000D01*
D10*
X007753000Y-16000000D02*
X010299976Y-16000000D01*
D10*
X010246636Y-13000000D02*
X010299976Y-13052976D01*
D10*
X010299976Y-13052976D02*
X010299976Y-16000000D01*
D10*
X-10600075Y-03424936D02*
X-10610602Y-03911034D01*
D10*
X-10610602Y-03911034D02*
X-10631556Y-03938734D01*
D10*
X-10631556Y-03938734D02*
X-10875702Y-04136260D01*
D10*
X-10875702Y-04136260D02*
X-10917000Y-04866481D01*
D10*
X-10917000Y-04866481D02*
X-11086778Y-04861411D01*
D10*
X003028920Y-13714019D02*
X004257533Y-13740591D01*
D10*
X004257533Y-13740591D02*
X005447026Y-14930084D01*
D10*
X005447026Y-14930084D02*
X005493433Y-14990480D01*
D10*
X006543514Y-15059082D02*
X006812453Y-15059089D01*
D10*
X006812453Y-15059089D02*
X007753364Y-16000000D01*
D10*
X007246636Y001000000D02*
X009000000Y-00753000D01*
D10*
X009000000Y-00753000D02*
X009000000Y-04000000D01*
D10*
X-11000125Y-03424936D02*
X-11000125Y-02921673D01*
D10*
X-11000125Y-02921673D02*
X-10825769Y-02747316D01*
D10*
X-10825769Y-02747316D02*
X-10825769Y-02706619D01*
D10*
X-10825769Y-02706619D02*
X-10776287Y-02556431D01*
D10*
X003478339Y000475616D02*
X007246636Y001000000D01*
D10*
X019246636Y-02000000D02*
X023000000Y001753000D01*
D10*
X023000000Y001753000D02*
X023000000Y002000000D01*
D10*
X-11399921Y-03424936D02*
X-11543591Y-04505633D01*
D10*
X-11543591Y-04505633D02*
X-11996423Y-05177713D01*
D10*
X-11996423Y-05177713D02*
X-11996423Y-07877568D01*
D10*
X-11996423Y-07877568D02*
X-12915455Y-08796600D01*
D10*
X-12915455Y-08796600D02*
X-12950600Y-08796600D01*
D10*
X-12950600Y-08796600D02*
X-13060000Y-08906000D01*
D10*
X017755000Y-02677000D02*
X018570000Y-02677000D01*
D10*
X018570000Y-02677000D02*
X019246636Y-02000000D01*
D10*
X-01753364Y008000000D02*
X000000000Y009753000D01*
D10*
X000000000Y009753000D02*
X000000000Y011000000D01*
D10*
X-11799971Y-03424936D02*
X-11799971Y-02402311D01*
D10*
X-11799971Y-02402311D02*
X-11813463Y-02388819D01*
D10*
X-11813463Y-02388819D02*
X-11825206Y-02439615D01*
D10*
X-02606602Y007656000D02*
X-02097000Y007656000D01*
D10*
X-02097000Y007656000D02*
X-01753364Y008000000D01*
D10*
X007246636Y008000000D02*
X009000000Y009753000D01*
D10*
X009000000Y009753000D02*
X009000000Y011000000D01*
D10*
X-12200021Y-03424936D02*
X-12200021Y-04826973D01*
D10*
X-12200021Y-04826973D02*
X-13153074Y-05780025D01*
D10*
X-13153074Y-05780025D02*
X-13153074Y-08249868D01*
D10*
X-13153074Y-08249868D02*
X-14411511Y-09508305D01*
D10*
X-14411511Y-09508305D02*
X-14406873Y-14283312D01*
D10*
X-14406873Y-14283312D02*
X-11951043Y-16733239D01*
D10*
X-11951043Y-16733239D02*
X-11958632Y-17359615D01*
D10*
X-11958632Y-17359615D02*
X-11866258Y-17451989D01*
D10*
X-11866258Y-17451989D02*
X-11866258Y-17593742D01*
D10*
X-11866258Y-17593742D02*
X-11846000Y-17614000D01*
D10*
X-04787732Y-14465435D02*
X-03102766Y-12824736D01*
D10*
X-03102766Y-12824736D02*
X-03118470Y-10148423D01*
D10*
X-03118470Y-10148423D02*
X-03147140Y-09970722D01*
D10*
X-03147140Y-09970722D02*
X-03198648Y-09899446D01*
D10*
X006435000Y004189000D02*
X006435000Y007188000D01*
D10*
X006435000Y007188000D02*
X007246636Y008000000D01*
D10*
X-19246636Y012000000D02*
X-21246636Y010000000D01*
D10*
X-21246636Y010000000D02*
X-24246636Y010000000D01*
D10*
X-13425063Y-02599944D02*
X-17230119Y-06405000D01*
D10*
X-17230119Y-06405000D02*
X-18469908Y-06405000D01*
D10*
X-13425063Y-02599944D02*
X-15250373Y-04425254D01*
D10*
X-15250373Y-04425254D02*
X-15799954Y-04425254D01*
D10*
X-15799954Y-04425254D02*
X-15846254Y-04425254D01*
D10*
X-15846254Y-04425254D02*
X-15884167Y-04462572D01*
D10*
X-19387593Y012882003D02*
X-19383000Y012136000D01*
D10*
X-19383000Y012136000D02*
X-19246636Y012000000D01*
D10*
X-13425063Y-02200148D02*
X-13499646Y-02259944D01*
D10*
X-13499646Y-02259944D02*
X-13920718Y-02247690D01*
D10*
X-13920718Y-02247690D02*
X-15538892Y-03950028D01*
D10*
X-15538892Y-03950028D02*
X-16211926Y-03925042D01*
D10*
X-16211926Y-03925042D02*
X-17400045Y-05135000D01*
D10*
X-17400045Y-05135000D02*
X-18469908Y-05135000D01*
D10*
X-13425063Y-01800098D02*
X-13924108Y-01813882D01*
D10*
X-13924108Y-01813882D02*
X-15240909Y-03201109D01*
D10*
X-15240909Y-03201109D02*
X-18469908Y-03865000D01*
D10*
X-13425063Y-01400048D02*
X-13922333Y-01422351D01*
D10*
X-13922333Y-01422351D02*
X-15463208Y-02672722D01*
D10*
X-19957000Y-04472000D02*
X-21860890Y-04472393D01*
D10*
X-21860890Y-04472393D02*
X-22464806Y-03883285D01*
D10*
X-22464806Y-03883285D02*
X-22564208Y-03765313D01*
D10*
X-22564208Y-03765313D02*
X-22564313Y-03665489D01*
D10*
X-22564313Y-03665489D02*
X-23644016Y-02593187D01*
D10*
X-23644016Y-02593187D02*
X-25530092Y-02595000D01*
D10*
X-13740068Y-00999998D02*
X-14409041Y-01313562D01*
D10*
X-14409041Y-01313562D02*
X-15220632Y-01909772D01*
D10*
X-15220632Y-01909772D02*
X-17328291Y-01900193D01*
D10*
X-17328291Y-01900193D02*
X-17528302Y-02009875D01*
D10*
X-17528302Y-02009875D02*
X-17628302Y-02009875D01*
D10*
X-17628302Y-02009875D02*
X-17728302Y-01909875D01*
D10*
X-17728302Y-01909875D02*
X-17828302Y-01809875D01*
D10*
X-17828302Y-01809875D02*
X-17928302Y-01809875D01*
D10*
X-17928302Y-01809875D02*
X-18028302Y-01809875D01*
D10*
X-18028302Y-01809875D02*
X-18128302Y-01809875D01*
D10*
X-18128302Y-01809875D02*
X-18478302Y-01903385D01*
D10*
X-18478302Y-01903385D02*
X-18547075Y-01974649D01*
D10*
X-18547075Y-01974649D02*
X-20513832Y-01974649D01*
D10*
X-20513832Y-01974649D02*
X-21927250Y-03388067D01*
D10*
X-21927250Y-03388067D02*
X-21927250Y-03411983D01*
D10*
X-21927250Y-03411983D02*
X-22053412Y-03544634D01*
D10*
X-23090602Y-03882729D02*
X-25525274Y-03869726D01*
D10*
X-25525274Y-03869726D02*
X-25530092Y-03865000D01*
D10*
X-13425063Y-00599948D02*
X-14328302Y-00509875D01*
D10*
X-14328302Y-00509875D02*
X-14428302Y-00509875D01*
D10*
X-14428302Y-00509875D02*
X-14528302Y-00509875D01*
D10*
X-14528302Y-00509875D02*
X-14628302Y-00509875D01*
D10*
X-14628302Y-00509875D02*
X-15126231Y-00207810D01*
D10*
X-15126231Y-00207810D02*
X-15919404Y000598997D01*
D10*
X-15919404Y000598997D02*
X-16028223Y000590596D01*
D10*
X-16028223Y000590596D02*
X-16128206Y000596616D01*
D10*
X-16128206Y000596616D02*
X-16228338Y000590751D01*
D10*
X-16228338Y000590751D02*
X-16328302Y000590125D01*
D10*
X-16328302Y000590125D02*
X-16433581Y000497144D01*
D10*
X-16433581Y000497144D02*
X-16533649Y000395060D01*
D10*
X-16533649Y000395060D02*
X-16628302Y000290125D01*
D10*
X-16628302Y000290125D02*
X-17428302Y-00409875D01*
D10*
X-17428302Y-00409875D02*
X-18478302Y-00384070D01*
D10*
X-18478302Y-00384070D02*
X-20078302Y-00388407D01*
D10*
X-20078302Y-00388407D02*
X-25036510Y-00401846D01*
D10*
X-25036510Y-00401846D02*
X-26925925Y-02206832D01*
D10*
X-26925925Y-02206832D02*
X-26894247Y-04284105D01*
D10*
X-26894247Y-04284105D02*
X-26029187Y-05135000D01*
D10*
X-26029187Y-05135000D02*
X-25530000Y-05135000D01*
D10*
X-25530000Y-05135000D02*
X-25530092Y-05135000D01*
D10*
X-13425063Y000999998D02*
X-14344539Y001116278D01*
D10*
X-16841673Y003164521D02*
X-18000000Y001753364D01*
D10*
X-13425063Y001400048D02*
X-13977745Y001493188D01*
D10*
X-13977745Y001493188D02*
X-14431252Y001884906D01*
D10*
X-15925633Y003194359D02*
X-16717463Y003710175D01*
D10*
X-16717463Y003710175D02*
X-17828133Y003588572D01*
D10*
X-17828133Y003588572D02*
X-18478302Y003580102D01*
D10*
X-18478302Y003580102D02*
X-18776716Y003580102D01*
D10*
X-18776716Y003580102D02*
X-18776716Y004976648D01*
D10*
X-18776716Y004976648D02*
X-18000000Y005753364D01*
D10*
X001246636Y-07000000D02*
X004247000Y-04000000D01*
D10*
X004247000Y-04000000D02*
X005000000Y-04000000D01*
D10*
X-31999994Y-17150118D02*
X-31999882Y-17150118D01*
D10*
X-31999882Y-17150118D02*
X-26000006Y-17150118D01*
D10*
X-06574937Y001799844D02*
X-05365933Y001948248D01*
D10*
X-05365933Y001948248D02*
X-04571839Y002733673D01*
D10*
X-04571839Y002733673D02*
X-03758296Y002928160D01*
D10*
X-03758296Y002928160D02*
X-03272756Y002934422D01*
D10*
X-03272756Y002934422D02*
X-02589912Y002229395D01*
D10*
X-02589912Y002229395D02*
X-02888896Y001953702D01*
D10*
X-00251022Y000066946D02*
X-00362463Y-01055247D01*
D10*
X-00362463Y-02955247D02*
X-00215001Y-04005247D01*
D10*
X-00215001Y-04005247D02*
X001247000Y-05505597D01*
D10*
X001247000Y-05505597D02*
X001247000Y-05605247D01*
D10*
X001247000Y-05605247D02*
X001247000Y-07000000D01*
D10*
X001247000Y-07000000D02*
X001246636Y-07000000D01*
D10*
X-06574937Y001799844D02*
X-05575507Y001697921D01*
D10*
X-23824453Y-16812525D02*
X-23862907Y-16840717D01*
D10*
X-23862907Y-16840717D02*
X-23878448Y-16840717D01*
D10*
X-23878448Y-16840717D02*
X-24187850Y-17150118D01*
D10*
X-24187850Y-17150118D02*
X-26000006Y-17150118D01*
D10*
X-06574937Y001400048D02*
X-06062463Y001344753D01*
D10*
X-06062463Y001344753D02*
X-05968252Y001339434D01*
D10*
X-05968252Y001339434D02*
X-05866586Y001239282D01*
D10*
X-05866586Y001239282D02*
X-05762463Y001144753D01*
D10*
X-05762463Y001144753D02*
X-05662463Y001044753D01*
D10*
X-05662463Y001044753D02*
X-05588839Y001070787D01*
D10*
X-05588839Y001070787D02*
X-05479959Y001171023D01*
D10*
X-05479959Y001171023D02*
X-05247098Y001263400D01*
D10*
X-05247098Y001263400D02*
X-04657392Y001158723D01*
D10*
X-04657392Y001158723D02*
X-03754342Y000348500D01*
D10*
X-03754342Y000348500D02*
X-03361121Y000339105D01*
D10*
X-03361121Y000339105D02*
X-03149670Y000535577D01*
D10*
X-03149670Y000535577D02*
X-02344103Y001836249D01*
D10*
X-02344103Y001836249D02*
X-02351520Y002041045D01*
D10*
X-02351520Y002041045D02*
X-01965846Y002447979D01*
D10*
X-01965846Y002447979D02*
X-00112463Y002389094D01*
D10*
X-00112463Y002389094D02*
X000647682Y002357723D01*
D10*
X000647682Y002357723D02*
X002000000Y001000000D01*
D10*
X-06574937Y000999998D02*
X-07062463Y001044753D01*
D10*
X-07062463Y001044753D02*
X-07449943Y001361272D01*
D10*
X000359038Y000410204D02*
X000434616Y000317384D01*
D10*
X000434616Y000317384D02*
X000827922Y-00075922D01*
D10*
X000827922Y-00075922D02*
X000877783Y000100030D01*
D10*
X002981121Y-00812172D02*
X002000000Y-02000000D01*
D10*
X-06574937Y-00200152D02*
X-04050000Y-00450000D01*
D10*
X-04050000Y-00450000D02*
X-04068248Y-00431958D01*
D10*
X-04068248Y-00431958D02*
X-01500000Y000246636D01*
D10*
X-02049989Y-04100074D02*
X-02716783Y-04762189D01*
D10*
X-02716783Y-04762189D02*
X-02736397Y-06315543D01*
D10*
X-02736397Y-06315543D02*
X-02727874Y-06923898D01*
D10*
X-02727874Y-06923898D02*
X-02000000Y-07620116D01*
D10*
X-06574937Y-00599948D02*
X-06048555Y-00637571D01*
D10*
X-06048555Y-00637571D02*
X-04855827Y-01848654D01*
D10*
X-00999990Y-04024760D02*
X-01138312Y-03954363D01*
D10*
X-01138312Y-03954363D02*
X-01284023Y-04100074D01*
D10*
X-01284023Y-04100074D02*
X-02049989Y-04100074D01*
D10*
X001999998Y-10050040D02*
X002580367Y-10050040D01*
D10*
X002580367Y-10050040D02*
X002700246Y-09930161D01*
D10*
X002700246Y-09930161D02*
X002753839Y-09930161D01*
D10*
X002753839Y-09930161D02*
X002949997Y-09889079D01*
D10*
X002864022Y-08167916D02*
X002856601Y-07103237D01*
D10*
X002856601Y-07103237D02*
X002753364Y-07000000D01*
D10*
X-19350010Y-22000000D02*
X-20752333Y-22659891D01*
D10*
X-20752333Y-22659891D02*
X-20828271Y-22657891D01*
D10*
X-20828271Y-22657891D02*
X-20903271Y-22657891D01*
D10*
X-20903271Y-22657891D02*
X-21053271Y-22657891D01*
D10*
X-21053271Y-22657891D02*
X-21128271Y-22657891D01*
D10*
X-21128271Y-22657891D02*
X-21203271Y-22657891D01*
D10*
X-21203271Y-22657891D02*
X-21803271Y-22657891D01*
D10*
X-21803271Y-22657891D02*
X-22753364Y-22000000D01*
D10*
X-19350010Y-21050040D02*
X-20078271Y-21532891D01*
D10*
X-20078271Y-21532891D02*
X-20379903Y-21904414D01*
D10*
X-20978271Y-23182891D02*
X-21246636Y-25000000D01*
D10*
X-19350010Y-21050040D02*
X-19291157Y-21050050D01*
D10*
X-19291157Y-21050050D02*
X-18616903Y-20400324D01*
D10*
X-18616903Y-20400324D02*
X-18519094Y-20232272D01*
D10*
X-18519094Y-20232272D02*
X-18499288Y-20178433D01*
D10*
X-18499288Y-20178433D02*
X-18486026Y-20109801D01*
D10*
X-18486026Y-20109801D02*
X-14784378Y-16402535D01*
D10*
X-14784378Y-16402535D02*
X-13481074Y-16402535D01*
D10*
X-13481074Y-16402535D02*
X-13242258Y-16163719D01*
D10*
X-13242258Y-16163719D02*
X-13253758Y-16175226D01*
D10*
X-08219000Y-13232000D02*
X-08219000Y-10757153D01*
D10*
X-08219000Y-10757153D02*
X-07562430Y-10100583D01*
D10*
X-07562430Y-10100583D02*
X-07561383Y-10101629D01*
D10*
X-07693912Y-08484996D02*
X-07632708Y-05895355D01*
D10*
X-07632708Y-05895355D02*
X-07689940Y-04738497D01*
D10*
X-07689940Y-04738497D02*
X-08150825Y-04202120D01*
D10*
X-08150825Y-04202120D02*
X-08395601Y-04086734D01*
D10*
X-08395601Y-04086734D02*
X-08572017Y-03923793D01*
D10*
X-08572017Y-03923793D02*
X-08541481Y-03483519D01*
D10*
X-08541481Y-03483519D02*
X-08600079Y-03424936D01*
D10*
X-16649990Y-21050040D02*
X-16649990Y-20552539D01*
D10*
X-16649990Y-20552539D02*
X-16651703Y-20550827D01*
D10*
X-16651703Y-20550827D02*
X-16651703Y-20394297D01*
D10*
X-16651703Y-20394297D02*
X-16657000Y-20300041D01*
D10*
X-17489644Y-24660277D02*
X-17485000Y-24732000D01*
D10*
X-17485000Y-24732000D02*
X-18753364Y-26000000D01*
D10*
X-16649990Y-21050040D02*
X-13837219Y-21050040D01*
D10*
X-13837219Y-21050040D02*
X-12997786Y-20210607D01*
D10*
X-12997786Y-20210607D02*
X-12997786Y-20121786D01*
D10*
X-12997786Y-20121786D02*
X-12901000Y-20025000D01*
D10*
X-07042000Y-14244000D02*
X-07042000Y-11501234D01*
D10*
X-07042000Y-11501234D02*
X-07399114Y-11144120D01*
D10*
X-07399114Y-11144120D02*
X-07399114Y-11116017D01*
D10*
X-07399114Y-11116017D02*
X-07548980Y-10966151D01*
D10*
X-09249537Y-07548486D02*
X-10090326Y-06781978D01*
D10*
X-10090326Y-06781978D02*
X-09958719Y-04805070D01*
D10*
X-09958719Y-04805070D02*
X-09647017Y-04486098D01*
D10*
X-09647017Y-04486098D02*
X-09750992Y-03655821D01*
D10*
X-09750992Y-03655821D02*
X-09764256Y-03460744D01*
D10*
X-09764256Y-03460744D02*
X-09799975Y-03424936D01*
D10*
X001753364Y-20000000D02*
X001753364Y-17493636D01*
D10*
X001753364Y-17493636D02*
X002246636Y-17000000D01*
D10*
X-01842522Y-19000002D02*
X-00775009Y-17930973D01*
D10*
X-00775009Y-17930973D02*
X-00284576Y-17916627D01*
D10*
X-00284576Y-17916627D02*
X-00109628Y-17928517D01*
D10*
X-00109628Y-17928517D02*
X001710086Y-19755492D01*
D10*
X001710086Y-19755492D02*
X001709748Y-19956384D01*
D10*
X001709748Y-19956384D02*
X001753364Y-20000000D01*
D10*
X-01842522Y-20999998D02*
X-02269309Y-21426309D01*
D10*
X-02269309Y-21426309D02*
X-02257211Y-21582433D01*
D10*
X-00556990Y-24513578D02*
X-00502167Y-24554833D01*
D10*
X-00502167Y-24554833D02*
X-00489071Y-24554833D01*
D10*
X-00489071Y-24554833D02*
X000246636Y-25290539D01*
D10*
X000246636Y-25290539D02*
X000246636Y-26000000D01*
D10*
X-01842522Y-20999998D02*
X-02269309Y-21426309D01*
D10*
X-02269309Y-21426309D02*
X-02257211Y-21582433D01*
D10*
X-01086107Y-13815199D02*
X-01094690Y-13795811D01*
D10*
X-01094690Y-13795811D02*
X-00914077Y-13615197D01*
D10*
X-00914077Y-13615197D02*
X-00914077Y-10374993D01*
D10*
X-09491210Y-05686127D02*
X-09399925Y-05221823D01*
D10*
X-09399925Y-05221823D02*
X-09312153Y-05172874D01*
D10*
X-09312153Y-05172874D02*
X-09399925Y-03424936D01*
D10*
X-04157478Y-20500126D02*
X-07900054Y-20500000D01*
D10*
X-07900054Y-20500000D02*
X-09000000Y-21599946D01*
D10*
X-04157478Y-19500128D02*
X-04265375Y-19608375D01*
D10*
X-04265375Y-19608375D02*
X-04361755Y-19623203D01*
D10*
X-04361755Y-19623203D02*
X-07791682Y-19611346D01*
D10*
X-07791682Y-19611346D02*
X-09000000Y-18400054D01*
D11*
X-32899926Y-04649986D02*
X-32899926Y-04824991D01*
D11*
X-32899926Y-04824991D02*
X-32899926Y-04824993D01*
D12*
X-32899926Y-04824993D02*
X-32899926Y-09250396D01*
D12*
X-32899926Y-09250396D02*
X-32899926Y-09250398D01*
D12*
X-32899926Y-09250398D02*
X-32899926Y-10753364D01*
D12*
X-32899926Y-10753364D02*
X-33146562Y-11000000D01*
D13*
X-13425063Y-00200152D02*
X-13662532Y-00200076D01*
D13*
X-13662532Y-00200076D02*
X-13900000Y-00200000D01*
D14*
X-13900000Y-00200000D02*
X-14028302Y-00109875D01*
D14*
X-14028302Y-00109875D02*
X-14173696Y-00021702D01*
D15*
X-14173696Y-00021702D02*
X-14319090Y000066472D01*
D13*
X-12528302Y001690125D02*
X-12752493Y001717555D01*
D13*
X-12752493Y001717555D02*
X-12976683Y001744984D01*
D13*
X-12976683Y001744984D02*
X-13200873Y001772414D01*
D13*
X-13200873Y001772414D02*
X-13425063Y001799844D01*
D13*
X-13425063Y-00200152D02*
X-13133393Y-00231180D01*
D16*
X-13133393Y-00231180D02*
X-12841723Y-00262208D01*
D16*
X-12841723Y-00262208D02*
X-12550053Y-00293236D01*
D17*
X-14875000Y-01000000D02*
X-15120092Y-01145506D01*
D17*
X-15120092Y-01145506D02*
X-15360046Y-01282811D01*
D17*
X-15360046Y-01282811D02*
X-15600000Y-01420116D01*
D13*
X-13425063Y001799844D02*
X-13162532Y001799922D01*
D13*
X-13162532Y001799922D02*
X-12900000Y001800000D01*
D18*
X-12900000Y001800000D02*
X-12750000Y001950000D01*
D18*
X-12750000Y001950000D02*
X-12600000Y002100000D01*
D19*
X-12600000Y002100000D02*
X-12628302Y002290125D01*
D17*
X-12628302Y002290125D02*
X-12528302Y002490125D01*
D17*
X-13728302Y003990125D02*
X-13997377Y004073458D01*
D17*
X-13997377Y004073458D02*
X-14266452Y004156792D01*
D17*
X-14266452Y004156792D02*
X-14535527Y004240125D01*
D17*
X-14535527Y004240125D02*
X-14532493Y004528853D01*
D17*
X-14532493Y004528853D02*
X-14529459Y004817581D01*
D17*
X-14529459Y004817581D02*
X-14526425Y005106309D01*
D17*
X-14526425Y005106309D02*
X-14684283Y005264167D01*
D17*
X-14684283Y005264167D02*
X-14842142Y005422026D01*
D17*
X-14842142Y005422026D02*
X-15000000Y005579884D01*
D20*
X-06574937Y000599948D02*
X-06869148Y000621449D01*
D21*
X-06869148Y000621449D02*
X-07163359Y000642950D01*
D21*
X-07163359Y000642950D02*
X-07400573Y000728633D01*
D17*
X-07400573Y000728633D02*
X-07800000Y000750000D01*
D17*
X-07800000Y000750000D02*
X-08100000Y001200000D01*
D17*
X-08100000Y001200000D02*
X-07992047Y001734639D01*
D17*
X-07992047Y001734639D02*
X-07884095Y002006777D01*
D17*
X-07884095Y002006777D02*
X-07776142Y002278916D01*
D17*
X-07776142Y002278916D02*
X-07825000Y002500000D01*
D17*
X-06772077Y003454416D02*
X-06508513Y003523913D01*
D17*
X-06508513Y003523913D02*
X-06244949Y003593409D01*
D17*
X-06244949Y003593409D02*
X-05981385Y003662905D01*
D17*
X-05981385Y003662905D02*
X-05717821Y003732402D01*
D17*
X-05717821Y003732402D02*
X-05454256Y003801898D01*
D17*
X-05454256Y003801898D02*
X-05190692Y003871395D01*
D17*
X-05190692Y003871395D02*
X-04927128Y003940891D01*
D17*
X-04927128Y003940891D02*
X-04663564Y004010388D01*
D17*
X-04663564Y004010388D02*
X-04400000Y004079884D01*
D20*
X-06574937Y000599948D02*
X-06831219Y000609349D01*
D21*
X-06831219Y000609349D02*
X-07087500Y000618750D01*
D18*
X-07087500Y000618750D02*
X-07162463Y000544753D01*
D19*
X-07162463Y000544753D02*
X-07350000Y000393750D01*
D19*
X-07350000Y000393750D02*
X-07362463Y000244753D01*
D17*
X-07362463Y000244753D02*
X-07562463Y000144753D01*
D17*
X-07562463Y000144753D02*
X-07862463Y000144753D01*
D17*
X-07862463Y000144753D02*
X-08012463Y000294753D01*
D17*
X-08012463Y000294753D02*
X-08100000Y001650000D01*
D17*
X-08100000Y001650000D02*
X-08362463Y002044753D01*
D17*
X-12000124Y-01236458D02*
X-12007169Y-00979812D01*
D17*
X-12007169Y-00979812D02*
X-12014213Y-00723166D01*
D17*
X-12014213Y-00723166D02*
X-12021258Y-00466521D01*
D17*
X-12021258Y-00466521D02*
X-12248019Y-00402359D01*
D17*
X-12248019Y-00402359D02*
X-12474780Y-00338198D01*
D17*
X-12474780Y-00338198D02*
X-12701541Y-00274037D01*
D22*
X-12701541Y-00274037D02*
X-12928302Y-00209875D01*
D19*
X-12928302Y-00209875D02*
X-13000057Y-00209875D01*
D19*
X-13000057Y-00209875D02*
X-13000059Y-00209875D01*
D20*
X-13000059Y-00209875D02*
X-13028302Y-00209875D01*
D20*
X-13028302Y-00209875D02*
X-13226683Y-00205014D01*
D13*
X-13226683Y-00205014D02*
X-13425063Y-00200152D01*
D17*
X-04400000Y004079884D02*
X-04590515Y004262155D01*
D17*
X-04590515Y004262155D02*
X-04800000Y004350000D01*
D17*
X-04800000Y004350000D02*
X-05162059Y004808970D01*
D17*
X-05162059Y004808970D02*
X-05182418Y004825660D01*
D17*
X-05182418Y004825660D02*
X-05182418Y005122739D01*
D17*
X-05182418Y005122739D02*
X-05182418Y005419818D01*
D17*
X-05182418Y005419818D02*
X-05182418Y005716897D01*
D17*
X-05182418Y005716897D02*
X-05182418Y006013976D01*
D17*
X-05182418Y006013976D02*
X-05182418Y006311054D01*
D17*
X-05182418Y006311054D02*
X-05182418Y006608133D01*
D17*
X-05182418Y006608133D02*
X-05182418Y006905212D01*
D17*
X-05182418Y006905212D02*
X-05182418Y007202291D01*
D17*
X-05182418Y007202291D02*
X-05250000Y007200000D01*
D17*
X-05250000Y007200000D02*
X-05182418Y008093528D01*
D17*
X-05182418Y008093528D02*
X-05182418Y008390607D01*
D17*
X-05182418Y008390607D02*
X-05182418Y008687686D01*
D17*
X-05182418Y008687686D02*
X-05182418Y008984765D01*
D17*
X-05182418Y008984765D02*
X-05182418Y009281844D01*
D17*
X-05182418Y009281844D02*
X-05182418Y009578923D01*
D17*
X-05182418Y009578923D02*
X-05182418Y009876002D01*
D17*
X-05182418Y009876002D02*
X-05182418Y010173081D01*
D17*
X-05182418Y010173081D02*
X-05182418Y010470160D01*
D17*
X-05182418Y010470160D02*
X-05182418Y010767239D01*
D17*
X-05182418Y010767239D02*
X-05182418Y011064318D01*
D17*
X-05182418Y011064318D02*
X-05182418Y011361397D01*
D17*
X-05182418Y011361397D02*
X-05182418Y011658476D01*
D17*
X-05182418Y011658476D02*
X-05182418Y011955555D01*
D17*
X-05182418Y011955555D02*
X-05182418Y012252634D01*
D17*
X-05182418Y012252634D02*
X-05182418Y012549713D01*
D17*
X-05182418Y012549713D02*
X-05182418Y012846792D01*
D17*
X-05182418Y012846792D02*
X-05182418Y013143871D01*
D17*
X-05182418Y013143871D02*
X-05182418Y013440950D01*
D17*
X-05182418Y013440950D02*
X-05182418Y013738029D01*
D17*
X-05182418Y013738029D02*
X-05182418Y014035108D01*
D17*
X-05182418Y014035108D02*
X-05182418Y014332187D01*
D17*
X-05182418Y014332187D02*
X-05182418Y014629266D01*
D17*
X-05182418Y014629266D02*
X-05182418Y014926345D01*
D17*
X-05182418Y014926345D02*
X-05182418Y015223424D01*
D17*
X-05182418Y015223424D02*
X-05182418Y015520503D01*
D17*
X-05182418Y015520503D02*
X-05182418Y015817582D01*
D17*
X-05182418Y015817582D02*
X-05000000Y016000000D01*
D20*
X-13425063Y002599944D02*
X-13425063Y002499945D01*
D20*
X-13425063Y002499945D02*
X-13425063Y002499943D01*
D17*
X-13425063Y002499943D02*
X-13425063Y002399919D01*
D17*
X-13425063Y002399919D02*
X-13425063Y002299895D01*
D17*
X-13425063Y002299895D02*
X-13425063Y002299893D01*
D20*
X-13425063Y002299893D02*
X-13425063Y002199894D01*
D20*
X-13425063Y000599948D02*
X-13425063Y000499949D01*
D20*
X-13425063Y000499949D02*
X-13425063Y000499947D01*
D17*
X-13425063Y000499947D02*
X-13425063Y000399923D01*
D17*
X-13425063Y000399923D02*
X-13425063Y000299899D01*
D17*
X-13425063Y000299899D02*
X-13425063Y000299897D01*
D20*
X-13425063Y000299897D02*
X-13425063Y000199898D01*
D20*
X-12600071Y003424936D02*
X-12700070Y003324937D01*
D20*
X-12700070Y003324937D02*
X-12700072Y003324935D01*
D17*
X-12700072Y003324935D02*
X-12796490Y003228517D01*
D17*
X-12796490Y003228517D02*
X-12992909Y003032098D01*
D23*
X-12992909Y003032098D02*
X-13208986Y002816021D01*
D23*
X-13208986Y002816021D02*
X-13325062Y002699945D01*
D23*
X-13325062Y002699945D02*
X-13325064Y002699943D01*
D20*
X-13325064Y002699943D02*
X-13425063Y002599944D01*
D17*
X-13425063Y002199894D02*
X-13692757Y002269125D01*
D24*
X-13692757Y002269125D02*
X-13960450Y002338355D01*
D10*
X-13960450Y002338355D02*
X-14228144Y002407586D01*
D10*
X-14228144Y002407586D02*
X-14431579Y002409945D01*
D10*
X-14431579Y002409945D02*
X-14635015Y002412303D01*
D10*
X-14635015Y002412303D02*
X-14807526Y002251924D01*
D10*
X-14807526Y002251924D02*
X-14980036Y002091545D01*
D10*
X-14980036Y002091545D02*
X-14949206Y001786647D01*
D10*
X-14949206Y001786647D02*
X-14918376Y001481749D01*
D10*
X-14918376Y001481749D02*
X-14887546Y001176852D01*
D10*
X-14887546Y001176852D02*
X-14856715Y000871954D01*
D10*
X-14856715Y000871954D02*
X-14700834Y000730657D01*
D10*
X-14700834Y000730657D02*
X-14544953Y000589360D01*
D10*
X-14544953Y000589360D02*
X-14171656Y000592889D01*
D13*
X-14171656Y000592889D02*
X-13798360Y000596419D01*
D13*
X-13798360Y000596419D02*
X-13425063Y000599948D01*
D23*
X-07300000Y005079884D02*
X-08899884Y005079884D01*
D23*
X-08899884Y005079884D02*
X-08900000Y005079884D01*
D25*
X-09000129Y003424936D02*
X-09000000Y003750000D01*
D18*
X-09000000Y003750000D02*
X-08962705Y004026295D01*
D26*
X-08962705Y004026295D02*
X-08925409Y004302591D01*
D23*
X-08925409Y004302591D02*
X-08912705Y004691237D01*
D23*
X-08912705Y004691237D02*
X-08900000Y005079884D01*
D20*
X-13425063Y002199894D02*
X-13724953Y002299893D01*
D20*
X-13724953Y002299893D02*
X-13724955Y002299894D01*
D17*
X-13724955Y002299894D02*
X-13775042Y002316596D01*
D17*
X-13775042Y002316596D02*
X-14125021Y002433298D01*
D27*
X-14125021Y002433298D02*
X-14475000Y002550000D01*
D27*
X-14475000Y002550000D02*
X-14775000Y002400000D01*
D27*
X-14775000Y002400000D02*
X-15075000Y002250000D01*
D27*
X-15075000Y002250000D02*
X-15200000Y002079884D01*
D20*
X-12600071Y003424936D02*
X-12700070Y003524935D01*
D17*
X-12700070Y003524935D02*
X-12700072Y003524937D01*
D17*
X-12700072Y003524937D02*
X-12800036Y003624901D01*
D23*
X-12800036Y003624901D02*
X-13000000Y003824865D01*
D23*
X-13000000Y003824865D02*
X-13000000Y004175869D01*
D23*
X-13000000Y004175869D02*
X-13000000Y004526873D01*
D23*
X-13000000Y004526873D02*
X-13000000Y004877876D01*
D23*
X-13000000Y004877876D02*
X-13000000Y005228880D01*
D23*
X-13000000Y005228880D02*
X-13000000Y005579884D01*
D23*
X-10800000Y-06920116D02*
X-10566803Y-07153313D01*
D23*
X-10566803Y-07153313D02*
X-10333606Y-07386510D01*
D23*
X-10333606Y-07386510D02*
X-10100410Y-07619706D01*
D23*
X-10100410Y-07619706D02*
X-09867213Y-07852903D01*
D23*
X-09867213Y-07852903D02*
X-09600000Y-08200000D01*
D23*
X-09600000Y-08200000D02*
X-08800000Y-08200000D01*
D23*
X-08800000Y-08200000D02*
X-08497355Y-07534296D01*
D23*
X-08497355Y-07534296D02*
X-08498678Y-07177206D01*
D23*
X-08498678Y-07177206D02*
X-08500000Y-06820116D01*
D23*
X-25530092Y-06405000D02*
X-25852488Y-06405000D01*
D23*
X-25852488Y-06405000D02*
X-26174884Y-06405000D01*
D23*
X-26174884Y-06405000D02*
X-26447027Y-06132857D01*
D23*
X-26447027Y-06132857D02*
X-27000000Y-05800000D01*
D23*
X-27000000Y-05800000D02*
X-26991313Y-05588571D01*
D23*
X-26991313Y-05588571D02*
X-27263455Y-05316429D01*
D23*
X-27263455Y-05316429D02*
X-27535598Y-05044286D01*
D23*
X-27535598Y-05044286D02*
X-27807741Y-04772143D01*
D23*
X-27807741Y-04772143D02*
X-28079884Y-04500000D01*
D28*
X-06574937Y000199898D02*
X-06192463Y000185727D01*
D28*
X-06192463Y000185727D02*
X-06149932Y000184151D01*
D18*
X-06149932Y000184151D02*
X-06149931Y000184151D01*
D18*
X-06149931Y000184151D02*
X-05809989Y000171556D01*
D23*
X-05809989Y000171556D02*
X-05427515Y000157385D01*
D23*
X-05427515Y000157385D02*
X-05045041Y000143214D01*
D23*
X-05045041Y000143214D02*
X-04662567Y000129043D01*
D23*
X-04662567Y000129043D02*
X-04275000Y000100000D01*
D23*
X-03600000Y001025000D02*
X-03580231Y001229884D01*
D23*
X-03580231Y001229884D02*
X-03600000Y001579884D01*
D23*
X-25530092Y-06405000D02*
X-26616601Y-07491509D01*
D23*
X-26616601Y-07491509D02*
X-26616601Y-07594869D01*
D23*
X-27950000Y-07800000D02*
X-27919498Y-07777502D01*
D23*
X-27919498Y-07777502D02*
X-27919498Y-07962618D01*
D23*
X-27919498Y-07962618D02*
X-27949706Y-07992827D01*
D23*
X-27949706Y-07992827D02*
X-27949706Y-08700028D01*
D29*
X-09000129Y-03424936D02*
X-08997132Y-03731847D01*
D30*
X-08997132Y-03731847D02*
X-08995978Y-03849941D01*
D18*
X-08995978Y-03849941D02*
X-08995978Y-03849942D01*
D18*
X-08995978Y-03849942D02*
X-08994134Y-04038757D01*
D18*
X-08994134Y-04038757D02*
X-08991137Y-04345668D01*
D16*
X-08991137Y-04345668D02*
X-08745568Y-04372834D01*
D16*
X-08745568Y-04372834D02*
X-08500000Y-04400000D01*
D16*
X-08500000Y-04400000D02*
X-08300000Y-04600000D01*
D24*
X-08300000Y-04600000D02*
X-08100000Y-04800000D01*
D14*
X-08100000Y-04800000D02*
X-08080009Y-05160536D01*
D14*
X-08080009Y-05160536D02*
X-08060019Y-05521072D01*
D10*
X-08060019Y-05521072D02*
X-08034285Y-05535707D01*
D10*
X-08034285Y-05535707D02*
X-07991018Y-05754808D01*
D31*
X-07991018Y-05754808D02*
X-07994638Y-06066363D01*
D31*
X-07994638Y-06066363D02*
X-07998258Y-06377917D01*
D21*
X-07998258Y-06377917D02*
X-08249129Y-06599016D01*
D21*
X-08249129Y-06599016D02*
X-08500000Y-06820116D01*
D23*
X000000002Y-11000000D02*
X003580000Y-11000000D01*
D23*
X003580000Y-11000000D02*
X003579884Y-11000000D01*
D20*
X-12600071Y-03424936D02*
X-12602377Y-03116540D01*
D32*
X-12602377Y-03116540D02*
X-12604682Y-02808144D01*
D33*
X-12604682Y-02808144D02*
X-12606988Y-02499749D01*
D33*
X-12606988Y-02499749D02*
X-12478494Y-02324874D01*
D22*
X-12478494Y-02324874D02*
X-12350000Y-02150000D01*
D15*
X-12350000Y-02150000D02*
X-12200000Y-02000000D01*
D15*
X-12200000Y-02000000D02*
X-12050000Y-01850000D01*
D15*
X-12050000Y-01850000D02*
X-11700000Y-01850000D01*
D19*
X-11700000Y-01850000D02*
X-11350000Y-01850000D01*
D17*
X-11350000Y-01850000D02*
X-11114060Y-01890703D01*
D17*
X-11114060Y-01890703D02*
X-10878120Y-01931407D01*
D34*
X-10878120Y-01931407D02*
X-10150000Y-01925000D01*
D34*
X-10150000Y-01925000D02*
X-10109851Y-01956527D01*
D34*
X-10109851Y-01956527D02*
X-09906567Y-02200185D01*
D27*
X-09906567Y-02200185D02*
X-09703284Y-02443842D01*
D27*
X-09703284Y-02443842D02*
X-09500000Y-02687500D01*
D27*
X-09500000Y-02687500D02*
X-09125000Y-02687500D01*
D22*
X-09125000Y-02687500D02*
X-09000000Y-02937500D01*
D22*
X-09000000Y-02937500D02*
X-09000017Y-02999930D01*
D22*
X-09000017Y-02999930D02*
X-09000017Y-02999931D01*
D35*
X-09000017Y-02999931D02*
X-09000065Y-03181218D01*
D35*
X-09000065Y-03181218D02*
X-09000129Y-03424936D01*
D20*
X-09000129Y003424936D02*
X-08992300Y003784203D01*
D36*
X-08992300Y003784203D02*
X-08984472Y004143469D01*
D19*
X-08984472Y004143469D02*
X-08976643Y004502736D01*
D37*
X-08976643Y004502736D02*
X-09251044Y004778575D01*
D37*
X-09251044Y004778575D02*
X-09525444Y005054415D01*
D19*
X-09525444Y005054415D02*
X-09799844Y005330254D01*
D15*
X-09799844Y005330254D02*
X-10024922Y005477627D01*
D15*
X-10024922Y005477627D02*
X-10250000Y005625000D01*
D18*
X-10250000Y005625000D02*
X-10250000Y005875000D01*
D19*
X-10250000Y005875000D02*
X-10500000Y006000000D01*
D19*
X-10500000Y006000000D02*
X-10875000Y006000000D01*
D17*
X-10875000Y006000000D02*
X-11250000Y006000000D01*
D17*
X-11250000Y006000000D02*
X-11625000Y006000000D01*
D17*
X-11625000Y006000000D02*
X-11633628Y005939974D01*
D17*
X-11633628Y005939974D02*
X-11966814Y005819987D01*
D17*
X-11966814Y005819987D02*
X-12300000Y005700000D01*
D17*
X-12300000Y005700000D02*
X-12450000Y005475000D01*
D27*
X-12450000Y005475000D02*
X-12600000Y005250000D01*
D26*
X-12600000Y005250000D02*
X-12600014Y004884987D01*
D23*
X-12600014Y004884987D02*
X-12600028Y004519974D01*
D23*
X-12600028Y004519974D02*
X-12600043Y004154962D01*
D17*
X-12600043Y004154962D02*
X-12600054Y003849942D01*
D17*
X-12600054Y003849942D02*
X-12600054Y003849941D01*
D38*
X-12600054Y003849941D02*
X-12600057Y003789949D01*
D38*
X-12600057Y003789949D02*
X-12600071Y003424936D01*
D20*
X-12600071Y-03424936D02*
X-12700070Y-03524935D01*
D17*
X-12700070Y-03524935D02*
X-12700072Y-03524937D01*
D17*
X-12700072Y-03524937D02*
X-12849657Y-03674522D01*
D23*
X-12849657Y-03674522D02*
X-13099243Y-03924108D01*
D23*
X-13099243Y-03924108D02*
X-13348828Y-04173693D01*
D23*
X-13348828Y-04173693D02*
X-13598414Y-04423279D01*
D23*
X-13598414Y-04423279D02*
X-13848000Y-04672865D01*
D23*
X-13848000Y-04672865D02*
X-13848000Y-04974399D01*
D23*
X-13848000Y-04974399D02*
X-13848000Y-05275933D01*
D23*
X-13848000Y-05275933D02*
X-13848000Y-05577466D01*
D23*
X-13848000Y-05577466D02*
X-13848000Y-05879000D01*
D17*
X-12006790Y000389441D02*
X-12361359Y000342055D01*
D17*
X-12361359Y000342055D02*
X-12715927Y000294670D01*
D17*
X-12715927Y000294670D02*
X-13070495Y000247284D01*
D20*
X-13070495Y000247284D02*
X-13425063Y000199898D01*
D23*
X-25530092Y-06405000D02*
X-23799998Y-08135002D01*
D23*
X-23799998Y-08135002D02*
X-23799998Y-10000000D01*
D20*
X-06574937Y000199898D02*
X-06287469Y000193699D01*
D39*
X-06287469Y000193699D02*
X-06000000Y000187500D01*
D19*
X-06000000Y000187500D02*
X-05773624Y000402798D01*
D40*
X-05773624Y000402798D02*
X-05484784Y000560844D01*
D23*
X-05484784Y000560844D02*
X-05195945Y000718890D01*
D23*
X-04200000Y003375000D02*
X-03800000Y003600000D01*
D23*
X-03800000Y003600000D02*
X-03600000Y005600000D01*
D23*
X-03600000Y005600000D02*
X-03831469Y006693899D01*
D23*
X-03831469Y006693899D02*
X-03830818Y007043472D01*
D23*
X-03830818Y007043472D02*
X-03830167Y007393045D01*
D23*
X-03830167Y007393045D02*
X-03829515Y007742619D01*
D23*
X-03829515Y007742619D02*
X-03829515Y007888515D01*
D23*
X-03829515Y007888515D02*
X-03984493Y008063205D01*
D23*
X-03984493Y008063205D02*
X-04139471Y008237894D01*
D23*
X-08622000Y008217000D02*
X-08396462Y007995769D01*
D23*
X-08396462Y007995769D02*
X-08395144Y007623635D01*
D23*
X-08395144Y007623635D02*
X-08393827Y007251501D01*
D23*
X-08393827Y007251501D02*
X-08392509Y006879367D01*
D23*
X-08392509Y006879367D02*
X-08200000Y005800000D01*
D23*
X-08200000Y005800000D02*
X-08200000Y005600000D01*
D23*
X-08200000Y005600000D02*
X-08591492Y005191081D01*
D23*
X-08591492Y005191081D02*
X-08795746Y004991331D01*
D23*
X-08795746Y004991331D02*
X-09000000Y004791581D01*
D23*
X-09000000Y004791581D02*
X-09000032Y004449920D01*
D23*
X-09000032Y004449920D02*
X-09000065Y004108258D01*
D22*
X-09000065Y004108258D02*
X-09000089Y003849942D01*
D22*
X-09000089Y003849942D02*
X-09000089Y003849941D01*
D41*
X-09000089Y003849941D02*
X-09000097Y003766597D01*
D41*
X-09000097Y003766597D02*
X-09000129Y003424936D01*
D23*
X006246636Y-16000000D02*
X006012340Y-15765340D01*
D13*
X006012340Y-15765340D02*
X006019143Y-15597640D01*
D10*
X006019143Y-15597640D02*
X006018701Y-15219556D01*
D10*
X006018701Y-15219556D02*
X006018260Y-14841472D01*
D13*
X006018260Y-14841472D02*
X006017818Y-14463388D01*
D23*
X006017818Y-14463388D02*
X006017376Y-14085304D01*
D23*
X006017376Y-14085304D02*
X006016934Y-13707220D01*
D23*
X006016934Y-13707220D02*
X006016492Y-13329137D01*
D23*
X006016492Y-13329137D02*
X006016050Y-12951053D01*
D23*
X006016050Y-12951053D02*
X006015608Y-12572969D01*
D23*
X006015608Y-12572969D02*
X006015166Y-12194885D01*
D23*
X006015166Y-12194885D02*
X006014724Y-11816801D01*
D23*
X006014724Y-11816801D02*
X006014282Y-11438717D01*
D23*
X006014282Y-11438717D02*
X006013840Y-11060633D01*
D23*
X006013840Y-11060633D02*
X006013398Y-10682549D01*
D23*
X006013398Y-10682549D02*
X005834822Y-10499080D01*
D23*
X005834822Y-10499080D02*
X005481181Y-10496321D01*
D23*
X005481181Y-10496321D02*
X005127540Y-10493561D01*
D23*
X005127540Y-10493561D02*
X004200000Y-10200000D01*
D23*
X004200000Y-10200000D02*
X003800000Y-10600000D01*
D23*
X003800000Y-10600000D02*
X003579884Y-11000000D01*
D23*
X017000000Y-13850904D02*
X016970766Y-14003675D01*
D23*
X016970766Y-14003675D02*
X017400000Y-14600000D01*
D23*
X017400000Y-14600000D02*
X017600000Y-14800000D01*
D23*
X017600000Y-14800000D02*
X017694303Y-14739763D01*
D23*
X017694303Y-14739763D02*
X017935482Y-14985126D01*
D23*
X017935482Y-14985126D02*
X018900000Y-15225000D01*
D23*
X018900000Y-15225000D02*
X019200000Y-15400000D01*
D23*
X019200000Y-15400000D02*
X019807726Y-16270689D01*
D23*
X019807726Y-16270689D02*
X020073701Y-16543590D01*
D23*
X020073701Y-16543590D02*
X020066229Y-16877073D01*
D23*
X020066229Y-16877073D02*
X020058757Y-17210555D01*
D23*
X020058757Y-17210555D02*
X020125000Y-17762500D01*
D34*
X020125000Y-17762500D02*
X020387500Y-18025000D01*
D34*
X020387500Y-18025000D02*
X020650000Y-18287500D01*
D34*
X020650000Y-18287500D02*
X020889058Y-18359798D01*
D23*
X023179000Y-17335000D02*
X023545500Y-17335000D01*
D23*
X023545500Y-17335000D02*
X023912000Y-17335000D01*
D23*
X023912000Y-17335000D02*
X024178927Y-17068000D01*
D23*
X024178927Y-17068000D02*
X024445854Y-16801000D01*
D23*
X024445854Y-16801000D02*
X024712782Y-16534000D01*
D23*
X024712782Y-16534000D02*
X024979709Y-16267000D01*
D23*
X024979709Y-16267000D02*
X025246636Y-16000000D01*
D23*
X000000002Y-11000000D02*
X000000002Y-10706657D01*
D23*
X000000002Y-10706657D02*
X000000002Y-10413315D01*
D23*
X000000002Y-10413315D02*
X000000002Y-10119972D01*
D23*
X000000002Y-10119972D02*
X-00235552Y-09884417D01*
D23*
X-00235552Y-09884417D02*
X-00471107Y-09648863D01*
D23*
X-00471107Y-09648863D02*
X-00706661Y-09413309D01*
D23*
X-00706661Y-09413309D02*
X-00942216Y-09177754D01*
D23*
X-00942216Y-09177754D02*
X-00920754Y-09177754D01*
D23*
X-00920754Y-09177754D02*
X-00805000Y-09062000D01*
D23*
X-02550000Y-09200000D02*
X-03400000Y-09200000D01*
D23*
X-03400000Y-09200000D02*
X-03473586Y-09254721D01*
D23*
X-03473586Y-09254721D02*
X-03862910Y-09254948D01*
D23*
X-03862910Y-09254948D02*
X-04252234Y-09255176D01*
D23*
X-04252234Y-09255176D02*
X-04641558Y-09255403D01*
D23*
X-04641558Y-09255403D02*
X-05030882Y-09255630D01*
D23*
X-05030882Y-09255630D02*
X-05420206Y-09255857D01*
D23*
X-05420206Y-09255857D02*
X-05809530Y-09256084D01*
D23*
X-05809530Y-09256084D02*
X-06198854Y-09256311D01*
D23*
X-06198854Y-09256311D02*
X-06588178Y-09256538D01*
D23*
X-06588178Y-09256538D02*
X-06977502Y-09256765D01*
D23*
X-06977502Y-09256765D02*
X-07366826Y-09256993D01*
D23*
X-07366826Y-09256993D02*
X-08000000Y-09200000D01*
D23*
X-08000000Y-09200000D02*
X-08400000Y-08600000D01*
D23*
X-08400000Y-08600000D02*
X-08485210Y-08189486D01*
D23*
X-08485210Y-08189486D02*
X-08485210Y-07850812D01*
D23*
X-08485210Y-07850812D02*
X-08485210Y-07512138D01*
D23*
X-08485210Y-07512138D02*
X-08485210Y-07173464D01*
D23*
X-08485210Y-07173464D02*
X-08485210Y-06834790D01*
D23*
X-08485210Y-06834790D02*
X-08500000Y-06820116D01*
D23*
X-20753364Y012000000D02*
X-20753364Y012264447D01*
D23*
X-20753364Y012264447D02*
X-20495756Y012555269D01*
D23*
X-20495756Y012555269D02*
X-20400000Y012800000D01*
D23*
X-20400000Y012800000D02*
X-19800000Y013400000D01*
D23*
X-19800000Y013400000D02*
X-19512500Y013650000D01*
D23*
X-19512500Y013650000D02*
X-18360015Y013347201D01*
D23*
X-18360015Y013347201D02*
X-18019286Y013327068D01*
D23*
X-18019286Y013327068D02*
X-17773384Y013073810D01*
D23*
X-17773384Y013073810D02*
X-17527482Y012820551D01*
D23*
X-17527482Y012820551D02*
X-17281580Y012567293D01*
D23*
X-17281580Y012567293D02*
X-17035679Y012314034D01*
D23*
X-17035679Y012314034D02*
X-16789777Y012060776D01*
D23*
X-14782000Y011374000D02*
X-14774983Y011366983D01*
D23*
X-14774983Y011366983D02*
X-14545752Y011366983D01*
D23*
X-14545752Y011366983D02*
X-14283378Y011366983D01*
D23*
X-14283378Y011366983D02*
X-14029684Y011115738D01*
D23*
X-14029684Y011115738D02*
X-13775989Y010864494D01*
D23*
X-13775989Y010864494D02*
X-13522294Y010613249D01*
D23*
X-13522294Y010613249D02*
X-13268599Y010362005D01*
D23*
X-13268599Y010362005D02*
X-13014904Y010110760D01*
D23*
X-13014904Y010110760D02*
X-12761210Y009859516D01*
D23*
X-12761210Y009859516D02*
X-12507515Y009608271D01*
D23*
X-12507515Y009608271D02*
X-12504440Y009212644D01*
D23*
X-12504440Y009212644D02*
X-12200000Y008600000D01*
D23*
X-12200000Y008600000D02*
X-12489068Y007234507D01*
D23*
X-12489068Y007234507D02*
X-12200000Y006200000D01*
D23*
X-12200000Y006200000D02*
X-12600000Y005800000D01*
D23*
X-12600000Y005800000D02*
X-13000000Y005579884D01*
D23*
X-08900000Y005079884D02*
X-08932709Y005112709D01*
D26*
X-08932709Y005112709D02*
X-09267115Y005130069D01*
D24*
X-09267115Y005130069D02*
X-09601521Y005147429D01*
D31*
X-09601521Y005147429D02*
X-09871458Y005402132D01*
D31*
X-09871458Y005402132D02*
X-10141394Y005656836D01*
D42*
X-10141394Y005656836D02*
X-10411331Y005911539D01*
D42*
X-10411331Y005911539D02*
X-10528357Y005943013D01*
D42*
X-10528357Y005943013D02*
X-10834873Y005942008D01*
D42*
X-10834873Y005942008D02*
X-11141389Y005941003D01*
D42*
X-11141389Y005941003D02*
X-11447905Y005939998D01*
D42*
X-11447905Y005939998D02*
X-11690787Y006133835D01*
D42*
X-11690787Y006133835D02*
X-11690461Y006532829D01*
D42*
X-11690461Y006532829D02*
X-11690136Y006931822D01*
D42*
X-11690136Y006931822D02*
X-11689810Y007330816D01*
D37*
X-11689810Y007330816D02*
X-11689484Y007729809D01*
D23*
X-11689484Y007729809D02*
X-11689158Y008128803D01*
D23*
X-11689158Y008128803D02*
X-11688833Y008527797D01*
D23*
X-11688833Y008527797D02*
X-11688507Y008926790D01*
D23*
X-11688507Y008926790D02*
X-11688181Y009325784D01*
D23*
X-11688181Y009325784D02*
X-11687855Y009724777D01*
D23*
X-11687855Y009724777D02*
X-11687529Y010123771D01*
D23*
X-11687529Y010123771D02*
X-11687204Y010522765D01*
D23*
X-11687204Y010522765D02*
X-11686878Y010921758D01*
D23*
X-11686878Y010921758D02*
X-11686552Y011320752D01*
D23*
X-11686552Y011320752D02*
X-11686226Y011719745D01*
D23*
X-11686226Y011719745D02*
X-11685901Y012118739D01*
D23*
X-11685901Y012118739D02*
X-11685575Y012517733D01*
D23*
X-11685575Y012517733D02*
X-11685249Y012916726D01*
D23*
X-11685249Y012916726D02*
X-11684923Y013315720D01*
D23*
X-11684923Y013315720D02*
X-11416431Y013584148D01*
D23*
X-11416431Y013584148D02*
X-11147939Y013852576D01*
D23*
X-11147939Y013852576D02*
X-10879446Y014121004D01*
D23*
X-10879446Y014121004D02*
X-10610954Y014389432D01*
D23*
X-10610954Y014389432D02*
X-10342462Y014657860D01*
D23*
X-10342462Y014657860D02*
X-10073969Y014926288D01*
D23*
X-10073969Y014926288D02*
X-09805477Y015194716D01*
D23*
X-09805477Y015194716D02*
X-09536985Y015463144D01*
D23*
X-09536985Y015463144D02*
X-09268492Y015731572D01*
D23*
X-09268492Y015731572D02*
X-09000000Y016000000D01*
D23*
X017000000Y-13850904D02*
X017006703Y-13961900D01*
D23*
X017006703Y-13961900D02*
X016600000Y-13000000D01*
D23*
X016600000Y-13000000D02*
X012200000Y-12200000D01*
D23*
X012200000Y-12200000D02*
X011200000Y-12200000D01*
D23*
X011200000Y-12200000D02*
X011000000Y-12400000D01*
D23*
X011000000Y-12400000D02*
X011000000Y-13600000D01*
D23*
X011000000Y-13600000D02*
X012607000Y-15100000D01*
D23*
X007115000Y-17214000D02*
X007115000Y-16868000D01*
D23*
X007115000Y-16868000D02*
X006897909Y-16651000D01*
D23*
X006897909Y-16651000D02*
X006680818Y-16434000D01*
D23*
X006680818Y-16434000D02*
X006463727Y-16217000D01*
D23*
X006463727Y-16217000D02*
X006246636Y-16000000D01*
D23*
X-20753364Y012000000D02*
X-20753364Y012395072D01*
D23*
X-20753364Y012395072D02*
X-20753364Y012790144D01*
D23*
X-20753364Y012790144D02*
X-20753364Y013185215D01*
D23*
X-20753364Y013185215D02*
X-20753364Y013580287D01*
D23*
X-20753364Y013580287D02*
X-20753364Y013975359D01*
D23*
X-20753364Y013975359D02*
X-20753364Y014370431D01*
D23*
X-20753364Y014370431D02*
X-20753364Y014765503D01*
D23*
X-20753364Y014765503D02*
X-20753364Y015160574D01*
D23*
X-20753364Y015160574D02*
X-20753364Y015555646D01*
D23*
X-20753364Y015555646D02*
X-20753364Y015950718D01*
D23*
X-20753364Y015950718D02*
X-20753364Y016345790D01*
D23*
X-20753364Y016345790D02*
X-20753364Y016740861D01*
D23*
X-20753364Y016740861D02*
X-20753364Y017135933D01*
D23*
X-20753364Y017135933D02*
X-20753364Y017531005D01*
D23*
X-20753364Y017531005D02*
X-20753364Y017926077D01*
D23*
X-20753364Y017926077D02*
X-21022077Y019775105D01*
D23*
X-21022077Y019775105D02*
X-21290790Y020043846D01*
D23*
X-21290790Y020043846D02*
X-21559504Y020312588D01*
D23*
X-21559504Y020312588D02*
X-21828217Y020581329D01*
D23*
X-21828217Y020581329D02*
X-22096930Y020850070D01*
D23*
X-22096930Y020850070D02*
X-22365643Y021118811D01*
D23*
X-22365643Y021118811D02*
X-22634357Y021387553D01*
D23*
X-22634357Y021387553D02*
X-22903070Y021656294D01*
D23*
X-22903070Y021656294D02*
X-23171783Y021925035D01*
D23*
X-23171783Y021925035D02*
X-23440496Y022193776D01*
D23*
X-23440496Y022193776D02*
X-23709210Y022462518D01*
D23*
X-23709210Y022462518D02*
X-23977923Y022731259D01*
D23*
X-23977923Y022731259D02*
X-24246636Y023000000D01*
D20*
X-12600071Y-03424936D02*
X-12700070Y-03524935D01*
D17*
X-12700070Y-03524935D02*
X-12700072Y-03524937D01*
D17*
X-12700072Y-03524937D02*
X-12865555Y-03690420D01*
D23*
X-12865555Y-03690420D02*
X-13131040Y-03955905D01*
D23*
X-13131040Y-03955905D02*
X-13396524Y-04221389D01*
D23*
X-13396524Y-04221389D02*
X-13662009Y-04486874D01*
D23*
X-13662009Y-04486874D02*
X-13927493Y-04752358D01*
D23*
X-13927493Y-04752358D02*
X-14192978Y-05017843D01*
D23*
X-14192978Y-05017843D02*
X-14458462Y-05283327D01*
D23*
X-14458462Y-05283327D02*
X-14723947Y-05548812D01*
D23*
X-14723947Y-05548812D02*
X-14989431Y-05814296D01*
D23*
X-14989431Y-05814296D02*
X-15254916Y-06079781D01*
D23*
X-15254916Y-06079781D02*
X-15520400Y-06345265D01*
D23*
X-15520400Y-06345265D02*
X-15785885Y-06610750D01*
D23*
X-15785885Y-06610750D02*
X-15785885Y-06816623D01*
D23*
X-15785885Y-06816623D02*
X-15785885Y-07022497D01*
D23*
X-15785885Y-07022497D02*
X-16163447Y-07022497D01*
D23*
X-16163447Y-07022497D02*
X-16541010Y-07022497D01*
D23*
X-16541010Y-07022497D02*
X-16918572Y-07022497D01*
D23*
X-16918572Y-07022497D02*
X-17200000Y-07200000D01*
D23*
X-17200000Y-07200000D02*
X-18800000Y-07200000D01*
D23*
X-18800000Y-07200000D02*
X-19939072Y-07022497D01*
D23*
X-19939072Y-07022497D02*
X-20316634Y-07022497D01*
D23*
X-20316634Y-07022497D02*
X-20694197Y-07022497D01*
D23*
X-20694197Y-07022497D02*
X-21071759Y-07022497D01*
D23*
X-21071759Y-07022497D02*
X-21449321Y-07022497D01*
D23*
X-21449321Y-07022497D02*
X-21708537Y-07281192D01*
D23*
X-21708537Y-07281192D02*
X-21967752Y-07539886D01*
D23*
X-21967752Y-07539886D02*
X-22226968Y-07798581D01*
D23*
X-22226968Y-07798581D02*
X-22486183Y-08057276D01*
D23*
X-22486183Y-08057276D02*
X-22745399Y-08315971D01*
D23*
X-22745399Y-08315971D02*
X-23009049Y-08579620D01*
D23*
X-23009049Y-08579620D02*
X-23272698Y-08843270D01*
D23*
X-23272698Y-08843270D02*
X-23536348Y-09106920D01*
D23*
X-23536348Y-09106920D02*
X-23799998Y-09370570D01*
D23*
X-23799998Y-09370570D02*
X-23799998Y-09685285D01*
D23*
X-23799998Y-09685285D02*
X-23799998Y-10000000D01*
D23*
X-23799998Y-10000000D02*
X-23799998Y-10363855D01*
D23*
X-23799998Y-10363855D02*
X-23799998Y-10727710D01*
D23*
X-23799998Y-10727710D02*
X-23984532Y-10912244D01*
D23*
X-23984532Y-10912244D02*
X-24169065Y-11096778D01*
D23*
X-24169065Y-11096778D02*
X-24303400Y-11231113D01*
D23*
X-23742000Y-23009000D02*
X-23742000Y-23343000D01*
D23*
X-23742000Y-23343000D02*
X-23742000Y-23677000D01*
D23*
X-23742000Y-23677000D02*
X-23742000Y-24011000D01*
D23*
X-23742000Y-24011000D02*
X-23494841Y-24258250D01*
D23*
X-23494841Y-24258250D02*
X-23247682Y-24505500D01*
D23*
X-23247682Y-24505500D02*
X-23000523Y-24752750D01*
D23*
X-23000523Y-24752750D02*
X-22753364Y-25000000D01*
D12*
X-16649990Y-22949960D02*
X-14970156Y-22949960D01*
D12*
X-14970156Y-22949960D02*
X-14920116Y-23000000D01*
D12*
X-27949706Y-11299972D02*
X-27949706Y-12926457D01*
D12*
X-27949706Y-12926457D02*
X-27662501Y-13213662D01*
D12*
X-27662501Y-13213662D02*
X-26713662Y-13213662D01*
D12*
X-26713662Y-13213662D02*
X-26500000Y-13000000D01*
D12*
X-26500000Y-13000000D02*
X-26050294Y-11738213D01*
D12*
X-26050294Y-11738213D02*
X-26050294Y-11299972D01*
D11*
X-32899926Y-03350014D02*
X-33324931Y-03350014D01*
D11*
X-33324931Y-03350014D02*
X-33324932Y-03350014D01*
D12*
X-33324932Y-03350014D02*
X-33550014Y-03350014D01*
D12*
X-33550014Y-03350014D02*
X-33600000Y-03400000D01*
D12*
X-33600000Y-03400000D02*
X-34400000Y-04600000D01*
D12*
X-34400000Y-04600000D02*
X-34675068Y-04619640D01*
D12*
X-34675068Y-04619640D02*
X-34675069Y-04619640D01*
D11*
X-34675069Y-04619640D02*
X-35100074Y-04649986D01*
D12*
X-27949706Y-11299972D02*
X-28274172Y-10975667D01*
D12*
X-28274172Y-10975667D02*
X-28750000Y-10000000D01*
D12*
X-28750000Y-10000000D02*
X-29000000Y-10000000D01*
D12*
X-29000000Y-10000000D02*
X-29000000Y-07750000D01*
D12*
X-29000000Y-07750000D02*
X-28750000Y-07750000D01*
D12*
X-28750000Y-07750000D02*
X-28420116Y-07000000D01*
D11*
X-32899926Y-03350014D02*
X-32774926Y-03350014D01*
D11*
X-32774926Y-03350014D02*
X-32649926Y-03350014D01*
D11*
X-32649926Y-03350014D02*
X-32524926Y-03350014D01*
D11*
X-32524926Y-03350014D02*
X-32474921Y-03350014D01*
D11*
X-32474921Y-03350014D02*
X-32474922Y-03350014D01*
D12*
X-32474922Y-03350014D02*
X-32474920Y-03350014D01*
D12*
X-32474920Y-03350014D02*
X-32399926Y-03350014D01*
D12*
X-32399926Y-03350014D02*
X-32274926Y-03350014D01*
D12*
X-32274926Y-03350014D02*
X-32149926Y-03350014D01*
D12*
X-32149926Y-03350014D02*
X-32070102Y-03350014D01*
D12*
X-32070102Y-03350014D02*
X-32038158Y-03381958D01*
D12*
X-32038158Y-03381958D02*
X-31949769Y-03470347D01*
D12*
X-31949769Y-03470347D02*
X-28420116Y-07000000D01*
D12*
X-19753364Y010000000D02*
X-19750000Y010000000D01*
D12*
X-19750000Y010000000D02*
X-19750000Y010250000D01*
D12*
X-19750000Y010250000D02*
X-19000000Y011000000D01*
D12*
X-19000000Y011000000D02*
X-17500000Y011000000D01*
D12*
X-17500000Y011000000D02*
X-17250000Y011250000D01*
D12*
X-17250000Y011250000D02*
X-16500000Y011250000D01*
D12*
X-16500000Y011250000D02*
X-16000000Y011750000D01*
D12*
X-16000000Y011750000D02*
X-16000000Y012000000D01*
D12*
X-16000000Y012000000D02*
X-14646228Y013353772D01*
D12*
X-14646228Y013353772D02*
X-14646228Y013463681D01*
D12*
X-14646228Y013463681D02*
X-14316907Y013793339D01*
D12*
X-14316907Y013793339D02*
X-13987587Y014122998D01*
D12*
X-13987587Y014122998D02*
X-13658266Y014452656D01*
D12*
X-13658266Y014452656D02*
X-13328946Y014782314D01*
D12*
X-13328946Y014782314D02*
X-12999626Y015111973D01*
D12*
X-12999626Y015111973D02*
X-12999813Y015555986D01*
D12*
X-12999813Y015555986D02*
X-13000000Y016000000D01*
D12*
X-16649990Y-22949960D02*
X-17110047Y-22949960D01*
D12*
X-17110047Y-22949960D02*
X-17570105Y-22949960D01*
D12*
X-17570105Y-22949960D02*
X-18030162Y-22949960D01*
D12*
X-18030162Y-22949960D02*
X-18291601Y-22688522D01*
D12*
X-18291601Y-22688522D02*
X-18311478Y-22688522D01*
D12*
X-18311478Y-22688522D02*
X-18329000Y-22671000D01*
D12*
X-23300000Y-11925000D02*
X-23310955Y-11935955D01*
D12*
X-23310955Y-11935955D02*
X-25414311Y-11935955D01*
D12*
X-25414311Y-11935955D02*
X-25732303Y-11617963D01*
D12*
X-25732303Y-11617963D02*
X-26050294Y-11299972D01*
D11*
X-32899926Y-03350014D02*
X-32724921Y-03175009D01*
D12*
X-32724921Y-03175009D02*
X-32724919Y-03175007D01*
D12*
X-32724919Y-03175007D02*
X-32649148Y-03099236D01*
D12*
X-32649148Y-03099236D02*
X-30934138Y-03099236D01*
D19*
X-30934138Y-03099236D02*
X-30689254Y-02854353D01*
D16*
X-30689254Y-02854353D02*
X-30294627Y-02727176D01*
D16*
X-30294627Y-02727176D02*
X-29900000Y-02600000D01*
D15*
X-29900000Y-02600000D02*
X-29732785Y-02378550D01*
D33*
X-29732785Y-02378550D02*
X-29565570Y-02157100D01*
D12*
X-29565570Y-02157100D02*
X-29217368Y-01807737D01*
D12*
X-29217368Y-01807737D02*
X-28869165Y-01458374D01*
D12*
X-28869165Y-01458374D02*
X-28520963Y-01109011D01*
D12*
X-28520963Y-01109011D02*
X-28184642Y-01105007D01*
D12*
X-28184642Y-01105007D02*
X-27848321Y-01101004D01*
D12*
X-27848321Y-01101004D02*
X-27512000Y-01097000D01*
D12*
X-21190000Y008391000D02*
X-19753364Y009827636D01*
D12*
X-19753364Y009827636D02*
X-19753364Y010000000D01*
D12*
X-38325855Y-02400160D02*
X-38315399Y-02410616D01*
D12*
X-38315399Y-02410616D02*
X-37225869Y-02410616D01*
D23*
X-39400000Y002075000D02*
X-39225000Y002250000D01*
D23*
X-39225000Y002250000D02*
X-39187500Y002250000D01*
D43*
X-39187500Y002250000D02*
X-38756760Y002324979D01*
D43*
X-38756760Y002324979D02*
X-38326020Y002399957D01*
D12*
X-31000000Y001149096D02*
X-31000000Y001149000D01*
D12*
X-31000000Y001149000D02*
X-30982630Y001642050D01*
D12*
X-30982630Y001642050D02*
X-30975000Y002100000D01*
D44*
X-39950000Y002100000D02*
X-39358406Y001860052D01*
D45*
X-39358406Y001860052D02*
X-39375000Y001875000D01*
D45*
X-39375000Y001875000D02*
X-39187500Y002250000D01*
D43*
X-39187500Y002250000D02*
X-38756760Y002324979D01*
D43*
X-38756760Y002324979D02*
X-38326020Y002399957D01*
D43*
X-38326020Y002399957D02*
X-38756760Y002324979D01*
D43*
X-38756760Y002324979D02*
X-39187500Y002250000D01*
D45*
X-39187500Y002250000D02*
X-39375000Y001875000D01*
D45*
X-39375000Y001875000D02*
X-39349931Y001874338D01*
D46*
X-39349931Y001874338D02*
X-39500000Y001250000D01*
D12*
X-37200000Y005000000D02*
X-37194412Y005458177D01*
D12*
X-37194412Y005458177D02*
X-37191677Y005922167D01*
D12*
X-37191677Y005922167D02*
X-37188942Y006386157D01*
D12*
X-37188942Y006386157D02*
X-37186206Y006850147D01*
D12*
X-37186206Y006850147D02*
X-37183471Y007314136D01*
D12*
X-37183471Y007314136D02*
X-37180735Y007778126D01*
D12*
X-37180735Y007778126D02*
X-37178000Y008242116D01*
D12*
X-37178000Y008242116D02*
X-36826423Y008593693D01*
D12*
X-36826423Y008593693D02*
X-36474846Y008945270D01*
D12*
X-36474846Y008945270D02*
X-36123270Y009296846D01*
D12*
X-36123270Y009296846D02*
X-35771693Y009648423D01*
D12*
X-35771693Y009648423D02*
X-35420116Y010000000D01*
D12*
X-38325855Y-02400160D02*
X-37225000Y-02400160D01*
D12*
X-37225000Y-02400160D02*
X-37225000Y-03000000D01*
D12*
X-36688962Y-05604281D02*
X-36854281Y-05604281D01*
D12*
X-36854281Y-05604281D02*
X-37500000Y-06250000D01*
D12*
X-37500000Y-06250000D02*
X-37500000Y-06500000D01*
D12*
X-37500000Y-06500000D02*
X-37750000Y-06750000D01*
D12*
X-37750000Y-06750000D02*
X-37750000Y-09000000D01*
D12*
X-37750000Y-09000000D02*
X-37500000Y-09250000D01*
D12*
X-37500000Y-09250000D02*
X-37500000Y-09750000D01*
D12*
X-37500000Y-09750000D02*
X-37250000Y-10000000D01*
D12*
X-37250000Y-10000000D02*
X-37250000Y-10250000D01*
D12*
X-37250000Y-10250000D02*
X-37000000Y-10500000D01*
D12*
X-37000000Y-10500000D02*
X-37000000Y-10750000D01*
D12*
X-37000000Y-10750000D02*
X-36750000Y-11000000D01*
D12*
X-36750000Y-11000000D02*
X-36853438Y-11000000D01*
D10*
X-04157478Y-20000000D02*
X-03000000Y-20000000D01*
D10*
X-01842522Y-19500128D02*
X-02500128Y-19500128D01*
D10*
X-02500128Y-19500128D02*
X-03000000Y-20000000D01*
D10*
X-39094307Y004325112D02*
X-38325957Y003556762D01*
D10*
X-38325957Y003556762D02*
X-38325957Y003199955D01*
D10*
X-39094307Y-04325112D02*
X-39094307Y-03968458D01*
D10*
X-39094307Y-03968458D02*
X-38325855Y-03200006D01*
D10*
X-13000000Y006420116D02*
X-15000000Y006420116D01*
D10*
X-13000000Y006420116D02*
X-13004006Y006424122D01*
D10*
X-13004006Y006424122D02*
X-13021634Y008206107D01*
D10*
X-10859000Y008253000D02*
X-10906054Y008205946D01*
D10*
X-10906054Y008205946D02*
X-10906054Y008160884D01*
D10*
X-10906054Y008160884D02*
X-11000000Y008066938D01*
D10*
X-11000000Y008066938D02*
X-11000000Y006700024D01*
D10*
X-32899926Y-04000000D02*
X-33583382Y-04326102D01*
D10*
X-33583382Y-04326102D02*
X-34120617Y-05035210D01*
D10*
X-34120617Y-05035210D02*
X-34441507Y-05099559D01*
D10*
X-34441507Y-05099559D02*
X-35409872Y-05164699D01*
D10*
X-35409872Y-05164699D02*
X-35616838Y-05102204D01*
D10*
X-35616838Y-05102204D02*
X-35766838Y-04877204D01*
D10*
X-35766838Y-04877204D02*
X-35766838Y-04352204D01*
D10*
X-35766838Y-04352204D02*
X-35316838Y-04052204D01*
D10*
X-35316838Y-04052204D02*
X-35100074Y-04000000D01*
D10*
X-08900000Y005920116D02*
X-09679908Y006700024D01*
D10*
X-09679908Y006700024D02*
X-11000000Y006700024D01*
D10*
X001999998Y-11949960D02*
X003489775Y-11969348D01*
D10*
X003489775Y-11969348D02*
X004420116Y-11000000D01*
D10*
X-16649990Y-22000000D02*
X-15059746Y-21980210D01*
D10*
X-15059746Y-21980210D02*
X-14079884Y-23000000D01*
D10*
X-27579884Y-07000000D02*
X-27600896Y-05860838D01*
D10*
X-27600896Y-05860838D02*
X-28920116Y-04500000D01*
D10*
X-35100074Y-04000000D02*
X-37525862Y-04000000D01*
D10*
X-37525862Y-04000000D02*
X-38325855Y-03200006D01*
D10*
X-31999994Y012150118D02*
X-34150000Y010000000D01*
D10*
X-34150000Y010000000D02*
X-34579884Y010000000D01*
D10*
X-31000000Y-01149096D02*
X-30991348Y-01317567D01*
D10*
X-30991348Y-01317567D02*
X-31749903Y-02096956D01*
D10*
X-31749903Y-02096956D02*
X-31870000Y-02078000D01*
D10*
X-31870000Y-02078000D02*
X-31915000Y-02150099D01*
D10*
X-31915960Y-04497287D02*
X-32413247Y-04000000D01*
D10*
X-32413247Y-04000000D02*
X-32899926Y-04000000D01*
D10*
X001999998Y-11949960D02*
X001999998Y-13420002D01*
D10*
X001999998Y-13420002D02*
X000420116Y-15000000D01*
D10*
X-35100074Y-04000000D02*
X-35315686Y-03994476D01*
D10*
X-35315686Y-03994476D02*
X-35734611Y-04336176D01*
D10*
X-35734611Y-04336176D02*
X-35775414Y-04386746D01*
D10*
X-35775414Y-04386746D02*
X-35717133Y-06873900D01*
D10*
X-35717133Y-06873900D02*
X-35710000Y-07037000D01*
D10*
X-35710000Y-07037000D02*
X-35246636Y-07500000D01*
D10*
X-15000000Y006420116D02*
X-15518034Y005924776D01*
D10*
X-15518034Y005924776D02*
X-15545271Y005252283D01*
D10*
X-15545271Y005252283D02*
X-15219926Y004966419D01*
D10*
X-15219926Y004966419D02*
X-15200000Y002920116D01*
D10*
X-18469908Y-02595000D02*
X-16228327Y-02430198D01*
D10*
X-16328302Y-00909875D02*
X-15600000Y-00579884D01*
D10*
X-15200000Y002920116D02*
X-15728302Y002390125D01*
D10*
X-15728302Y002390125D02*
X-16128302Y001790125D01*
D10*
X-16129743Y000056224D02*
X-15600000Y-00579884D01*
D10*
X-06574937Y-00999998D02*
X-09000002Y-00999998D01*
D10*
X-09000002Y-00999998D02*
X-10000127Y000000000D01*
D10*
X-14246636Y010000000D02*
X-14246636Y007173480D01*
D10*
X-14246636Y007173480D02*
X-15000000Y006420116D01*
D10*
X-07300000Y005920116D02*
X-07281314Y005938686D01*
D10*
X-07281314Y005938686D02*
X-06573254Y005938686D01*
D10*
X-09620002Y005903462D02*
X-09803018Y005958781D01*
D10*
X-09803018Y005958781D02*
X-09807124Y005958781D01*
D10*
X-09807124Y005958781D02*
X-10548367Y006700024D01*
D10*
X-10548367Y006700024D02*
X-11000000Y006700024D01*
D10*
X003753364Y-17000000D02*
X001753364Y-15000000D01*
D10*
X001753364Y-15000000D02*
X000420116Y-15000000D01*
D10*
X-31000000Y-01149096D02*
X-31004688Y-01324558D01*
D10*
X-31004688Y-01324558D02*
X-30291683Y-02053121D01*
D10*
X-30291683Y-02053121D02*
X-30279192Y-02018104D01*
D10*
X-30279192Y-02018104D02*
X-30284873Y-02135100D01*
D10*
X-29991072Y-03305533D02*
X-30016041Y-03403959D01*
D10*
X-30016041Y-03403959D02*
X-28920116Y-04500000D01*
D10*
X-04157478Y-20000000D02*
X-04142175Y-19985175D01*
D10*
X-04142175Y-19985175D02*
X-03837670Y-19986168D01*
D10*
X-03837670Y-19986168D02*
X-03592964Y-19749758D01*
D10*
X-03592964Y-19749758D02*
X-03579791Y-19584637D01*
D10*
X-03579791Y-19584637D02*
X-03596995Y-16400001D01*
D10*
X-03596995Y-16400001D02*
X-04000002Y-16000000D01*
D10*
X-04157478Y-20000000D02*
X-04149235Y-20007765D01*
D10*
X-04149235Y-20007765D02*
X-03866562Y-19964623D01*
D10*
X-03866562Y-19964623D02*
X-03231828Y-20642410D01*
D10*
X-03231828Y-20642410D02*
X-03244710Y-21318293D01*
D10*
X-03244710Y-21318293D02*
X-03963889Y-22089927D01*
D10*
X-03963889Y-22089927D02*
X-04000002Y-24000000D01*
D10*
X-02246636Y-12000000D02*
X-01608639Y-12642600D01*
D10*
X-01608639Y-12642600D02*
X-01612455Y-14455016D01*
D10*
X-01612455Y-14455016D02*
X-00112586Y-14442892D01*
D10*
X-00112586Y-14442892D02*
X000420116Y-15000000D01*
D10*
X-16649990Y-22000000D02*
X-15965984Y-22000000D01*
D10*
X-15965984Y-22000000D02*
X-15919391Y-21953408D01*
D10*
X-15919391Y-21953408D02*
X-15788592Y-21953408D01*
D10*
X-15788592Y-21953408D02*
X-15649991Y-21964000D01*
D10*
X-16684356Y-24785723D02*
X-16689000Y-25442000D01*
D10*
X-16689000Y-25442000D02*
X-17246636Y-26000000D01*
D10*
X-43274131Y-04325112D02*
X-39094112Y-04325112D01*
D10*
X-39094112Y-04325112D02*
X-39094307Y-04325112D01*
D10*
X-39094307Y004325112D02*
X-39094112Y004325112D01*
D10*
X-39094112Y004325112D02*
X-43274131Y004325112D01*
D10*
X-33246636Y006000000D02*
X-33246636Y008666752D01*
D10*
X-33246636Y008666752D02*
X-34579884Y010000000D01*
D10*
X017000000Y-16149096D02*
X017000000Y-16665191D01*
D10*
X017000000Y-16665191D02*
X019109871Y-18775062D01*
D10*
X019109871Y-18775062D02*
X019117062Y-18775062D01*
D10*
X019117062Y-18775062D02*
X019192000Y-18850000D01*
D10*
X020796991Y-17547529D02*
X020800000Y-16499976D01*
D10*
X020800000Y-16499976D02*
X021299976Y-16000000D01*
D10*
X-27000508Y-11299972D02*
X-27000000Y-11299000D01*
D10*
X-27000000Y-11299000D02*
X-27000000Y-08009703D01*
D10*
X-27000000Y-08009703D02*
X-27536947Y-07392990D01*
D10*
X-27536947Y-07392990D02*
X-27579884Y-07000000D01*
D10*
X021999998Y-05050040D02*
X025303404Y-05050040D01*
D10*
X025303404Y-05050040D02*
X026253364Y-06000000D01*
D10*
X-02246636Y-12000000D02*
X-02247000Y-14246998D01*
D10*
X-02247000Y-14246998D02*
X-04000002Y-16000000D01*
D10*
X015999998Y001949960D02*
X015892117Y001842079D01*
D10*
X015892117Y001842079D02*
X015893923Y001743678D01*
D10*
X015893923Y001743678D02*
X014452314Y000285375D01*
D10*
X014452314Y000285375D02*
X013466563Y000295514D01*
D10*
X013466563Y000295514D02*
X012753364Y001008713D01*
D10*
X012753364Y001008713D02*
X012753364Y005000000D01*
D10*
X-16649990Y-22000000D02*
X-16858358Y-22025469D01*
D10*
X-16858358Y-22025469D02*
X-17794666Y-21099396D01*
D10*
X-17794666Y-21099396D02*
X-17764188Y-20666259D01*
D10*
X-17764188Y-20666259D02*
X-18009570Y-20420876D01*
D10*
X-18009570Y-20420876D02*
X-18019676Y-20395316D01*
D10*
X-19005286Y-20023937D02*
X-19528701Y-20037743D01*
D10*
X-19528701Y-20037743D02*
X-21069211Y-21582752D01*
D10*
X-21069211Y-21582752D02*
X-21066555Y-21819555D01*
D10*
X-21066555Y-21819555D02*
X-21246636Y-22000000D01*
D10*
X-26000006Y-20849882D02*
X-22396754Y-20849882D01*
D10*
X-22396754Y-20849882D02*
X-21246636Y-22000000D01*
D10*
X003999998Y008949960D02*
X003999998Y008177615D01*
D10*
X003999998Y008177615D02*
X004571197Y007689356D01*
D10*
X004571197Y007689356D02*
X004777150Y007397865D01*
D10*
X004777150Y007397865D02*
X004739997Y007127000D01*
D10*
X004739997Y007127000D02*
X004762386Y006803061D01*
D10*
X004762386Y006803061D02*
X004706303Y006544692D01*
D10*
X004706303Y006544692D02*
X004574000Y006411000D01*
D10*
X004574000Y006411000D02*
X004574000Y006439046D01*
D10*
X004574000Y006439046D02*
X004574000Y004821000D01*
D10*
X004574000Y004821000D02*
X003753364Y004000000D01*
D10*
X015999998Y001949960D02*
X016727213Y001224992D01*
D10*
X016727213Y001224992D02*
X016751192Y-00366069D01*
D10*
X016751192Y-00366069D02*
X015068579Y-02001186D01*
D10*
X015068579Y-02001186D02*
X012753364Y-02000000D01*
D10*
X-02000000Y-06779884D02*
X-01221182Y-07525109D01*
D10*
X-01221182Y-07525109D02*
X-01237830Y-08428925D01*
D10*
X-01237830Y-08428925D02*
X-02246636Y-12000000D01*
D10*
X017000000Y-16149096D02*
X017023514Y-16324304D01*
D10*
X017023514Y-16324304D02*
X014461923Y-18851313D01*
D10*
X014461923Y-18851313D02*
X014424162Y-18879915D01*
D10*
X014424162Y-18879915D02*
X013719398Y-18892713D01*
D10*
X013719398Y-18892713D02*
X013608184Y-18878355D01*
D10*
X013608184Y-18878355D02*
X012450110Y-17717181D01*
D10*
X012450110Y-17717181D02*
X012450352Y-16750328D01*
D10*
X012450352Y-16750328D02*
X011700024Y-16000000D01*
D10*
X-27000508Y-11299972D02*
X-26808869Y-11107869D01*
D10*
X-26808869Y-11107869D02*
X-26823483Y-10866707D01*
D10*
X-26823483Y-10866707D02*
X-24742370Y-08810071D01*
D10*
X-24742370Y-08810071D02*
X-24643552Y-08812466D01*
D10*
X-21880882Y-08635886D02*
X-21886579Y-08641583D01*
D10*
X-21886579Y-08641583D02*
X-21900507Y-08641583D01*
D10*
X-21900507Y-08641583D02*
X-21800002Y-08742088D01*
D10*
X-21800002Y-08742088D02*
X-21800002Y-10000000D01*
D10*
X-10000127Y000000000D02*
X-10078302Y000078183D01*
D10*
X-10078302Y000078183D02*
X-12031961Y001093840D01*
D10*
X-16129743Y000056224D02*
X-15600000Y-00579884D01*
D10*
X-38325957Y003199955D02*
X-38264604Y003193883D01*
D10*
X-38264604Y003193883D02*
X-36160341Y005284077D01*
D10*
X-36160341Y005284077D02*
X-36173428Y005642944D01*
D10*
X-36173428Y005642944D02*
X-35436423Y006464794D01*
D10*
X-35436423Y006464794D02*
X-35269785Y006675645D01*
D10*
X-35269785Y006675645D02*
X-34994286Y006672886D01*
D10*
X-34994286Y006672886D02*
X-34797000Y006672003D01*
D10*
X-34797000Y006672003D02*
X-34396005Y006686212D01*
D10*
X-34396005Y006686212D02*
X-34212699Y006648961D01*
D10*
X-34212699Y006648961D02*
X-34208355Y006625655D01*
D10*
X-34208355Y006625655D02*
X-33846224Y006599588D01*
D10*
X-33846224Y006599588D02*
X-33246636Y006000000D01*
D10*
X-31999994Y012150118D02*
X-31999882Y012150118D01*
D10*
X-31999882Y012150118D02*
X-26000006Y012150118D01*
D10*
X-31999994Y-20849882D02*
X-31999882Y-20849882D01*
D10*
X-31999882Y-20849882D02*
X-26000006Y-20849882D01*
D10*
X015999998Y-05050040D02*
X021999998Y-05050040D01*
D10*
X001753364Y-26000000D02*
X-00246646Y-23987546D01*
D10*
X-00246646Y-23987546D02*
X-04000002Y-24000000D01*
D10*
X-10000127Y000000000D02*
X-09352316Y-00647684D01*
D10*
X-09352316Y-00647684D02*
X-09283205Y-01999997D01*
D10*
X-10523044Y-05378333D02*
X-10537381Y-05434242D01*
D10*
X-10537381Y-05434242D02*
X-10537381Y-05438917D01*
D10*
X-10537381Y-05438917D02*
X-10800000Y-05701536D01*
D10*
X-10800000Y-05701536D02*
X-10800000Y-06079884D01*
D10*
X-10000127Y000000000D02*
X-09352316Y-00647684D01*
D10*
X-09352316Y-00647684D02*
X-09283205Y-01999997D01*
D10*
X-08704865Y-04988700D02*
X-08809831Y-05214341D01*
D10*
X-08809831Y-05214341D02*
X-08809831Y-05670053D01*
D10*
X-08809831Y-05670053D02*
X-08500000Y-05979884D01*
D10*
X-38325957Y003199955D02*
X-37890641Y003226001D01*
D10*
X-37890641Y003226001D02*
X-37301663Y002680221D01*
D10*
X-37301663Y002680221D02*
X-37211022Y002592000D01*
D10*
X-36030000Y-02534000D02*
X-36696000Y-03200000D01*
D10*
X-36696000Y-03200000D02*
X-36900000Y-03600000D01*
D10*
X-36900000Y-03600000D02*
X-37575000Y-03600000D01*
D10*
X-37575000Y-03600000D02*
X-38325855Y-03200006D01*
D10*
X-10800000Y-06079884D02*
X-11515505Y-06764226D01*
D10*
X-11515505Y-06764226D02*
X-11499998Y-12500000D01*
D10*
X003753364Y004000000D02*
X003291753Y003541049D01*
D10*
X003291753Y003541049D02*
X002940492Y000389518D01*
D10*
X002940492Y000389518D02*
X002896282Y000087337D01*
D10*
X002896282Y000087337D02*
X001577922Y-00309210D01*
D10*
X001577922Y-00309210D02*
X001477922Y-00409210D01*
D10*
X001477922Y-00409210D02*
X001377922Y-00509210D01*
D10*
X001377922Y-00509210D02*
X001277922Y-00609210D01*
D10*
X001277922Y-00609210D02*
X001177922Y-00709210D01*
D10*
X001177922Y-00709210D02*
X001177922Y-00809210D01*
D10*
X001177922Y-00809210D02*
X000827922Y-02095837D01*
D10*
X000827922Y-02095837D02*
X000300000Y-01579884D01*
D10*
X-04400000Y004920116D02*
X-04600000Y005120000D01*
D10*
X-04600000Y005120000D02*
X-04616529Y007577106D01*
D10*
X-09395000Y007445000D02*
X-09482440Y007357560D01*
D10*
X-09482440Y007357560D02*
X-09522520Y007357560D01*
D10*
X-09522520Y007357560D02*
X-10180056Y006700024D01*
D10*
X-10180056Y006700024D02*
X-11000000Y006700024D01*
D10*
X-10000127Y000000000D02*
X-09019398Y-00980602D01*
D10*
X-09019398Y-00980602D02*
X-08512463Y-00975274D01*
D10*
X-08512463Y-00975274D02*
X-07457667Y-00853934D01*
D10*
X-04461606Y001646893D02*
X-03600000Y002420116D01*
D10*
X015999998Y001949960D02*
X017315980Y000634020D01*
D10*
X017315980Y000634020D02*
X017824229Y000634020D01*
D10*
X017824229Y000634020D02*
X015999998Y-01190211D01*
D10*
X015999998Y-01190211D02*
X015999998Y-05050040D01*
D10*
X-31999994Y012150118D02*
X-31999994Y014584500D01*
D10*
X-31999994Y014584500D02*
X-32586708Y015156516D01*
D10*
X-32586708Y015156516D02*
X-32740954Y015408931D01*
D10*
X-32740954Y015408931D02*
X-32740374Y015649997D01*
D10*
X-32740374Y015649997D02*
X-32739993Y015900000D01*
D10*
X-32739993Y015900000D02*
X-32758850Y016164057D01*
D10*
X-32758850Y016164057D02*
X-32708655Y016394051D01*
D10*
X-32708655Y016394051D02*
X-32639288Y016420701D01*
D10*
X-32639288Y016420701D02*
X-32618965Y016433665D01*
D10*
X-32618965Y016433665D02*
X-30050290Y019000000D01*
D10*
X-10000127Y000000000D02*
X-09081228Y-00923262D01*
D10*
X-09081228Y-00923262D02*
X-06235421Y-00925567D01*
D10*
X-06235421Y-00925567D02*
X-05870018Y-01246396D01*
D10*
X-05870018Y-01246396D02*
X-05904886Y-01890264D01*
D10*
X-05904886Y-01890264D02*
X-03750011Y-04100074D01*
D10*
X003753364Y004000000D02*
X003141827Y003388463D01*
D10*
X003141827Y003388463D02*
X002998425Y003316369D01*
D10*
X002998425Y003316369D02*
X-00112463Y003347655D01*
D10*
X-00112463Y003347655D02*
X-02560013Y002953143D01*
D10*
X-04340949Y002223621D02*
X-03600000Y002420116D01*
D10*
X-26000006Y012150118D02*
X-22050000Y016100124D01*
D10*
X-22050000Y016100124D02*
X-22050290Y019000000D01*
D10*
X011700024Y-16000000D02*
X009921751Y-17778273D01*
D10*
X009921751Y-17778273D02*
X009921751Y-17800344D01*
D10*
X009921751Y-17800344D02*
X004553708Y-17800344D01*
D10*
X004553708Y-17800344D02*
X003753364Y-17000000D01*
D10*
X-18469908Y-02595000D02*
X-19655627Y-02595000D01*
D10*
X-19655627Y-02595000D02*
X-20963656Y-03903029D01*
D10*
X-21880882Y-08635886D02*
X-21880882Y-08783590D01*
D10*
X-21880882Y-08783590D02*
X-21800002Y-08864470D01*
D10*
X-21800002Y-08864470D02*
X-21800002Y-10000000D01*
D10*
X-10000127Y000000000D02*
X-09104036Y-00915365D01*
D10*
X-09104036Y-00915365D02*
X-06230962Y-00928453D01*
D10*
X-06230962Y-00928453D02*
X-05867694Y-01249035D01*
D10*
X-05867694Y-01249035D02*
X-05893308Y-01350366D01*
D10*
X-05893308Y-01350366D02*
X-05874046Y-01408888D01*
D10*
X-05874046Y-01408888D02*
X-05636134Y-01689861D01*
D10*
X-05636134Y-01689861D02*
X-05597067Y-02839888D01*
D10*
X-05597067Y-02839888D02*
X-02936258Y-02839888D01*
D10*
X-02936258Y-02839888D02*
X-02049989Y-01899926D01*
D10*
X-04000002Y-16000000D02*
X-05216000Y-14784000D01*
D10*
X-05216000Y-14784000D02*
X-05638979Y-14783985D01*
D10*
X-08161942Y-14879230D02*
X-08214200Y-14826972D01*
D10*
X-08214200Y-14826972D02*
X-09173026Y-14826972D01*
D10*
X-09173026Y-14826972D02*
X-11499998Y-12500000D01*
D10*
X003999998Y008949960D02*
X003990367Y008959633D01*
D10*
X003990367Y008959633D02*
X003995184Y011757409D01*
D10*
X003995184Y011757409D02*
X-00254645Y016002398D01*
D10*
X-00254645Y016002398D02*
X-01000000Y016000000D01*
D10*
X012753364Y005000000D02*
X011755173Y004001809D01*
D10*
X011755173Y004001809D02*
X011755173Y003663892D01*
D10*
X011755173Y003663892D02*
X004089472Y003663892D01*
D10*
X004089472Y003663892D02*
X003753364Y004000000D01*
D10*
X012750000Y-25000000D02*
X012750000Y-17049976D01*
D10*
X012750000Y-17049976D02*
X011700024Y-16000000D01*
D10*
X-27000508Y-11299972D02*
X-27001000Y-11300000D01*
D10*
X-27001000Y-11300000D02*
X-27001000Y-12302422D01*
D10*
X-26900000Y-19000000D02*
X-26818369Y-19000000D01*
D10*
X-26818369Y-19000000D02*
X-26000006Y-19818363D01*
D10*
X-26000006Y-19818363D02*
X-26000006Y-20849882D01*
D10*
X024750000Y-25000000D02*
X021563232Y-21813232D01*
D10*
X021563232Y-21813232D02*
X021563232Y-16390498D01*
D10*
X021563232Y-16390498D02*
X021563232Y-16263256D01*
D10*
X021563232Y-16263256D02*
X021299976Y-16000000D01*
D23*
X-01842522Y-20500126D02*
X-01842522Y-20499522D01*
D23*
X-01842522Y-20499522D02*
X-01842522Y-20360122D01*
D23*
X-01842522Y-20360122D02*
X-01842522Y-20360120D01*
D23*
X-01842522Y-20360120D02*
X-01842522Y-20140006D01*
D47*
X-01842522Y-20140006D02*
X-01842522Y-20140004D01*
D47*
X-01842522Y-20140004D02*
X-01842522Y-20000000D01*
D23*
X-04157478Y-20999998D02*
X-04170000Y-21012520D01*
D43*
X-04170000Y-21012520D02*
X-04192810Y-21301261D01*
D43*
X-04192810Y-21301261D02*
X-04225000Y-21500000D01*
D12*
X-03318000Y-22859995D02*
X-03125908Y-22667903D01*
D12*
X-03125908Y-22667903D02*
X-02995100Y-22667903D01*
D15*
X-02995100Y-22667903D02*
X-02672200Y-22475812D01*
D16*
X-02672200Y-22475812D02*
X-02349299Y-22283720D01*
D13*
X-02349299Y-22283720D02*
X-02026399Y-22091628D01*
D13*
X-02026399Y-22091628D02*
X-01900000Y-22000000D01*
D13*
X-01900000Y-22000000D02*
X-01713020Y-21800062D01*
D15*
X-01713020Y-21800062D02*
X-01526040Y-21600124D01*
D26*
X-01526040Y-21600124D02*
X-01275860Y-21354372D01*
D26*
X-01275860Y-21354372D02*
X-01250000Y-21406250D01*
D26*
X-01250000Y-21406250D02*
X-01171875Y-21093750D01*
D45*
X-01171875Y-21093750D02*
X-01093750Y-20781250D01*
D45*
X-01093750Y-20781250D02*
X-01406250Y-20468750D01*
D45*
X-01406250Y-20468750D02*
X-01510022Y-20476213D01*
D47*
X-01510022Y-20476213D02*
X-01510024Y-20476213D01*
D47*
X-01510024Y-20476213D02*
X-01842522Y-20500126D01*
D47*
X-04157478Y-20999998D02*
X-04297446Y-21140002D01*
D23*
X-04297446Y-21140002D02*
X-04297447Y-21140004D01*
D23*
X-04297447Y-21140004D02*
X-04464565Y-21307165D01*
D12*
X-04464565Y-21307165D02*
X-04771651Y-21614251D01*
D12*
X-04771651Y-21614251D02*
X-04771651Y-21614331D01*
D12*
X-04771651Y-21614331D02*
X-05999998Y-22842678D01*
D12*
X-05999998Y-22842678D02*
X-05999998Y-24000000D01*
D47*
X-01842522Y-20000000D02*
X-01510024Y-20000000D01*
D23*
X-01510024Y-20000000D02*
X-01510022Y-20000000D01*
D23*
X-01510022Y-20000000D02*
X-01400000Y-20000000D01*
D44*
X-01400000Y-20000000D02*
X-01200000Y-20000000D01*
D12*
X-01200000Y-20000000D02*
X-00350000Y-18500000D01*
D12*
X-00182000Y-16017000D02*
X-00242467Y-15956533D01*
D12*
X-00242467Y-15956533D02*
X-00242467Y-15926329D01*
D12*
X-00242467Y-15926329D02*
X-00420116Y-15748679D01*
D12*
X-00420116Y-15748679D02*
X-00420116Y-15374340D01*
D12*
X-00420116Y-15374340D02*
X-00420116Y-15000000D01*
D12*
X-19350010Y-22949960D02*
X-18549970Y-23750000D01*
D12*
X-18549970Y-23750000D02*
X-17500000Y-23750000D01*
D12*
X-17500000Y-23750000D02*
X-17250000Y-24000000D01*
D12*
X-17250000Y-24000000D02*
X-07967998Y-24000000D01*
D12*
X-07967998Y-24000000D02*
X-07475998Y-24000000D01*
D12*
X-07475998Y-24000000D02*
X-06983998Y-24000000D01*
D12*
X-06983998Y-24000000D02*
X-06491998Y-24000000D01*
D12*
X-06491998Y-24000000D02*
X-05999998Y-24000000D01*
D47*
X-04157478Y-19000002D02*
X-04297446Y-18859998D01*
D23*
X-04297446Y-18859998D02*
X-04297447Y-18859996D01*
D23*
X-04297447Y-18859996D02*
X-04464565Y-18692835D01*
D12*
X-04464565Y-18692835D02*
X-04771651Y-18385749D01*
D12*
X-04771651Y-18385749D02*
X-04771651Y-18385669D01*
D12*
X-04771651Y-18385669D02*
X-05999998Y-17157322D01*
D12*
X-05999998Y-17157322D02*
X-05999998Y-16000000D01*
D12*
X-03753364Y-12000000D02*
X-03875000Y-12000000D01*
D12*
X-03875000Y-12000000D02*
X-06375000Y-14500000D01*
D12*
X-06375000Y-14500000D02*
X-06375000Y-14750000D01*
D12*
X-06375000Y-14750000D02*
X-06159700Y-15845223D01*
D12*
X-06159700Y-15845223D02*
X-05999998Y-16000000D01*
D12*
X-05999998Y-16000000D02*
X-06249729Y-16000000D01*
D12*
X-06249729Y-16000000D02*
X-06574756Y-15674973D01*
D12*
X-06574756Y-15674973D02*
X-06899783Y-15349946D01*
D12*
X-06899783Y-15349946D02*
X-07224810Y-15024919D01*
D48*
X-07224810Y-15024919D02*
X-07524873Y-14652029D01*
D48*
X-07524873Y-14652029D02*
X-07824937Y-14279140D01*
D48*
X-07824937Y-14279140D02*
X-08125000Y-13906250D01*
D44*
X-08125000Y-13906250D02*
X-08531250Y-14000000D01*
D44*
X-08531250Y-14000000D02*
X-08745824Y-13691585D01*
D49*
X-08745824Y-13691585D02*
X-08960399Y-13383171D01*
D49*
X-08960399Y-13383171D02*
X-09174973Y-13074756D01*
D12*
X-09174973Y-13074756D02*
X-09174973Y-12825029D01*
D12*
X-09174973Y-12825029D02*
X-09500002Y-12500000D01*
D47*
X-04157478Y-19000002D02*
X-04207480Y-18950000D01*
D47*
X-04207480Y-18950000D02*
X-04489976Y-18950000D01*
D12*
X-04489976Y-18950000D02*
X-04489978Y-18950000D01*
D12*
X-04489978Y-18950000D02*
X-04900000Y-18950000D01*
D12*
X-01926517Y-22681819D02*
X-01307267Y-23000000D01*
D12*
X-01307267Y-23000000D02*
X-00918791Y-23000000D01*
D12*
X-00918791Y-23000000D02*
X-00530316Y-23000000D01*
D12*
X-00530316Y-23000000D02*
X-00141840Y-23000000D01*
D12*
X-00141840Y-23000000D02*
X000246636Y-23000000D01*
D12*
X007750000Y017000000D02*
X008029500Y017279500D01*
D12*
X008029500Y017279500D02*
X008309000Y017559000D01*
D12*
X008309000Y017559000D02*
X009500000Y018750000D01*
D12*
X009500000Y018750000D02*
X017250000Y018750000D01*
D12*
X017250000Y018750000D02*
X019000000Y017000000D01*
D12*
X019000000Y017000000D02*
X019750000Y017000000D01*
D12*
X009746636Y-06000000D02*
X009055636Y-06691000D01*
D12*
X009055636Y-06691000D02*
X004025000Y-06691000D01*
D12*
X-04613622Y-13006746D02*
X-04565601Y-12958725D01*
D12*
X-04565601Y-12958725D02*
X-04565601Y-12913464D01*
D12*
X-04565601Y-12913464D02*
X-04294855Y-12642719D01*
D12*
X-04294855Y-12642719D02*
X-04024110Y-12371973D01*
D12*
X-04024110Y-12371973D02*
X-03753364Y-12101227D01*
D12*
X-03753364Y-12101227D02*
X-03753364Y-12000000D01*
D12*
X010000000Y-02600000D02*
X010250000Y-02850000D01*
D12*
X010250000Y-02850000D02*
X010250000Y-05496636D01*
D12*
X010250000Y-05496636D02*
X009746636Y-06000000D01*
D109*
X022400000Y-08000000D03*
D109*
X022900000Y-03219000D03*
D109*
X012679000Y-04800000D03*
D109*
X023781000Y008419000D03*
D109*
X002211584Y012796938D03*
D109*
X006219405Y014074973D03*
D109*
X015323000Y006179000D03*
D109*
X013606000Y006007000D03*
D109*
X-27200000Y013600000D03*
D109*
X-26960000Y011443000D03*
D109*
X-41085000Y-02113000D03*
D109*
X-36740000Y-06495000D03*
D109*
X018665962Y-15851382D03*
D109*
X018665962Y-14364000D03*
D109*
X015345382Y-15512691D03*
D109*
X015334039Y-14200000D03*
D109*
X013839921Y-18365438D03*
D109*
X-29054000Y001840000D03*
D109*
X-28553000Y004552000D03*
D109*
X-32699387Y-00004084D03*
D109*
X-32432223Y002079727D03*
D109*
X-15600000Y010919000D03*
D109*
X-11899999Y005204382D03*
D109*
X-10110398Y004803806D03*
D109*
X-14313000Y017714000D03*
D109*
X-10199430Y-04299942D03*
D109*
X-02208191Y-06065004D03*
D109*
X-11086778Y-04861411D03*
D109*
X003028920Y-13714019D03*
D109*
X005493433Y-14990480D03*
D109*
X006543514Y-15059082D03*
D109*
X-10776287Y-02556431D03*
D109*
X003478339Y000475616D03*
D109*
X-13060000Y-08906000D03*
D109*
X017755000Y-02677000D03*
D109*
X-11825206Y-02439615D03*
D109*
X-02606602Y007656000D03*
D109*
X-11846000Y-17614000D03*
D109*
X-04787732Y-14465435D03*
D109*
X-03198648Y-09899446D03*
D109*
X006435000Y004189000D03*
D109*
X-15884167Y-04462572D03*
D109*
X-19387593Y012882003D03*
D109*
X-15463208Y-02672722D03*
D109*
X-19957000Y-04472000D03*
D109*
X-22053412Y-03544634D03*
D109*
X-23090602Y-03882729D03*
D109*
X-14344539Y001116278D03*
D109*
X-16841673Y003164521D03*
D109*
X-14431252Y001884906D03*
D109*
X-15925633Y003194359D03*
D109*
X-02888896Y001953702D03*
D109*
X-00251022Y000066946D03*
D109*
X-00362463Y-01055247D03*
D109*
X-00362463Y-02955247D03*
D109*
X-05575507Y001697921D03*
D109*
X-23824453Y-16812525D03*
D109*
X-07449943Y001361272D03*
D109*
X000359038Y000410204D03*
D109*
X000877783Y000100030D03*
D109*
X002981121Y-00812172D03*
D109*
X-04855827Y-01848654D03*
D109*
X-00999990Y-04024760D03*
D109*
X002949997Y-09889079D03*
D109*
X002864022Y-08167916D03*
D109*
X-20379903Y-21904414D03*
D109*
X-20978271Y-23182891D03*
D109*
X-13253758Y-16175226D03*
D109*
X-08219000Y-13232000D03*
D109*
X-07561383Y-10101629D03*
D109*
X-07693912Y-08484996D03*
D109*
X-16657000Y-20300041D03*
D109*
X-17489644Y-24660277D03*
D109*
X-12901000Y-20025000D03*
D109*
X-07042000Y-14244000D03*
D109*
X-07548980Y-10966151D03*
D109*
X-09249537Y-07548486D03*
D109*
X-02257211Y-21582433D03*
D109*
X-00556990Y-24513578D03*
D109*
X-01086107Y-13815199D03*
D109*
X-00914077Y-10374993D03*
D109*
X-09491210Y-05686127D03*
D109*
X-14319090Y000066472D03*
D109*
X-12528302Y001690125D03*
D109*
X-12550053Y-00293236D03*
D109*
X-14875000Y-01000000D03*
D109*
X-12528302Y002490125D03*
D109*
X-13728302Y003990125D03*
D109*
X-07825000Y002500000D03*
D109*
X-06772077Y003454416D03*
D109*
X-08362463Y002044753D03*
D109*
X-12000124Y-01236458D03*
D109*
X-04275000Y000100000D03*
D109*
X-03600000Y001025000D03*
D109*
X-26616601Y-07594869D03*
D109*
X-27950000Y-07800000D03*
D109*
X-13848000Y-05879000D03*
D109*
X-12006790Y000389441D03*
D109*
X-05195945Y000718890D03*
D109*
X-04200000Y003375000D03*
D109*
X-04139471Y008237894D03*
D109*
X-08622000Y008217000D03*
D109*
X020889058Y-18359798D03*
D109*
X023179000Y-17335000D03*
D109*
X-00805000Y-09062000D03*
D109*
X-02550000Y-09200000D03*
D109*
X-16789777Y012060776D03*
D109*
X-14782000Y011374000D03*
D109*
X012607000Y-15100000D03*
D109*
X007115000Y-17214000D03*
D109*
X-24303400Y-11231113D03*
D109*
X-23742000Y-23009000D03*
D109*
X-18329000Y-22671000D03*
D109*
X-23300000Y-11925000D03*
D109*
X-27512000Y-01097000D03*
D109*
X-21190000Y008391000D03*
D109*
X-37225869Y-02410616D03*
D109*
X-39400000Y002075000D03*
D109*
X-30975000Y002100000D03*
D109*
X-39950000Y002100000D03*
D109*
X-39500000Y001250000D03*
D109*
X-37200000Y005000000D03*
D109*
X-37225000Y-03000000D03*
D109*
X-36688962Y-05604281D03*
D109*
X-13021634Y008206107D03*
D109*
X-10859000Y008253000D03*
D109*
X-31915000Y-02150099D03*
D109*
X-31915960Y-04497287D03*
D109*
X-16228327Y-02430198D03*
D109*
X-16328302Y-00909875D03*
D109*
X-16128302Y001790125D03*
D109*
X-16129743Y000056224D03*
D109*
X-06573254Y005938686D03*
D109*
X-09620002Y005903462D03*
D109*
X-30284873Y-02135100D03*
D109*
X-29991072Y-03305533D03*
D109*
X-15649991Y-21964000D03*
D109*
X-16684356Y-24785723D03*
D109*
X019192000Y-18850000D03*
D109*
X020796991Y-17547529D03*
D109*
X-18019676Y-20395316D03*
D109*
X-19005286Y-20023937D03*
D109*
X-24643552Y-08812466D03*
D109*
X-21880882Y-08635886D03*
D109*
X-12031961Y001093840D03*
D109*
X-09283205Y-01999997D03*
D109*
X-10523044Y-05378333D03*
D109*
X-08704865Y-04988700D03*
D109*
X-37211022Y002592000D03*
D109*
X-36030000Y-02534000D03*
D109*
X-04616529Y007577106D03*
D109*
X-09395000Y007445000D03*
D109*
X-07457667Y-00853934D03*
D109*
X-04461606Y001646893D03*
D109*
X-02560013Y002953143D03*
D109*
X-04340949Y002223621D03*
D109*
X-20963656Y-03903029D03*
D109*
X-05638979Y-14783985D03*
D109*
X-08161942Y-14879230D03*
D109*
X-27001000Y-12302422D03*
D109*
X-26900000Y-19000000D03*
D109*
X-04225000Y-21500000D03*
D109*
X-03318000Y-22859995D03*
D109*
X-00350000Y-18500000D03*
D109*
X-00182000Y-16017000D03*
D109*
X-04900000Y-18950000D03*
D109*
X-01926517Y-22681819D03*
D109*
X004025000Y-06691000D03*
D109*
X-04613622Y-13006746D03*
D109*
X010000000Y-02600000D03*
M02*