%TF.GenerationSoftware,tscircuit,circuit-json-to-gerber,0.0.104*%
%TF.CreationDate,2026-09-29T00:12:24.734Z*%
%TF.SameCoordinates,Original*%
%TF.FileFunction,Other,Fab,Top*%
%TF.FilePolarity,Positive*%
%FSLAX46Y46*%
%MOMM*%
G04 Gerber Fmt 4.6, Leading zero omitted, Abs format (unit mm)*
G04 Created by tscircuit (builder) date 2026-09-29T00:12:24.734Z*
G01*
%LPD*%
G75*
G04 APERTURE MACROS START*
%AMHORZPILL*
0 Horizontal pill (stadium) shape macro*
0 Parameters:*
0 $1 = Total width*
0 $2 = Total height*
0 $3 = Circle diameter (equal to height)*
0 $4 = Circle center offset
0 21 = Center Line(Exposure, Width, Height, Center X, Center Y, Rotation)*
0 1 = Circle(Exposure, Diameter, Center X, Center Y, Rotation)*
21,1,$1-$3,$2,0.0,0.0,0.0*
1,1,$3,0.0-$4,0.0*
1,1,$3,$4,0.0*%
%AMVERTPILL*
0 Vertical pill (stadium) shape macro*
0 Parameters:*
0 $1 = Total width*
0 $2 = Total height*
0 $3 = Circle diameter (equal to width)*
0 $4 = Circle center offset
0 21 = Center Line(Exposure, Width, Height, Center X, Center Y, Rotation)*
21,1,$1,$2-$3,0.0,0.0,0.0*
1,1,$3,0.0,0.0-$4*
1,1,$3,0.0,$4*%
%AMROUNDRECT*
0 Rectangle with rounded corners*
0 $1 Corner radius*
0 $2 $3 $4 $5 $6 $7 $8 $9 X,Y Position of each corner*
0 Polygon box body*
4,1,4,$2,$3,$4,$5,$6,$7,$8,$9,$2,$3,0*
0 Circles for rounded corners*
1,1,$1+$1,$2,$3*
1,1,$1+$1,$4,$5*
1,1,$1+$1,$6,$7*
1,1,$1+$1,$8,$9*
0 Rectangles between the rounded corners*
20,1,$1+$1,$2,$3,$4,$5,0*
20,1,$1+$1,$4,$5,$6,$7,0*
20,1,$1+$1,$6,$7,$8,$9,0*
20,1,$1+$1,$8,$9,$2,$3,0*%
G04 APERTURE MACROS END*
G04 aperture START LIST*
%ADD10C,0.150000*%
%ADD11C,0.350012*%
%ADD12C,0.500000*%
%ADD13C,0.187500*%
%ADD14C,0.237500*%
%ADD15C,0.250000*%
%ADD16C,0.200000*%
%ADD17C,0.300000*%
%ADD18C,0.262500*%
%ADD19C,0.275000*%
%ADD20C,0.200000*%
%ADD21C,0.225000*%
%ADD22C,0.287500*%
%ADD23C,0.400000*%
%ADD24C,0.212500*%
%ADD25C,0.200337*%
%ADD26C,0.325000*%
%ADD27C,0.312500*%
%ADD28C,0.231335*%
%ADD29C,0.208291*%
%ADD30C,0.208291*%
%ADD31C,0.162500*%
%ADD32C,0.206349*%
%ADD33C,0.300000*%
%ADD34C,0.350000*%
%ADD35C,0.200225*%
%ADD36C,0.218470*%
%ADD37C,0.362500*%
%ADD38C,0.200033*%
%ADD39C,0.218279*%
%ADD40C,0.337500*%
%ADD41C,0.200080*%
%ADD42C,0.175000*%
%ADD43C,0.425000*%
%ADD44C,0.450000*%
%ADD45C,0.375000*%
%ADD46C,0.437500*%
%ADD47C,0.280010*%
%ADD48C,0.350000*%
%ADD49C,0.475000*%
%ADD50C,0.254000*%
%ADD51C,0.050000*%
%ADD52C,0.010800*%
%ADD53C,0.080000*%
%TD*%
G04 aperture END LIST*
D50*
X-28059006Y018444070D02*
X-28059006Y019544068D01*
X-27859007Y019544068D01*
X-27859007Y018444070D01*
X-28059006Y018444070D01*
D50*
X-28505640Y019059588D02*
X-27405642Y019059588D01*
X-27405642Y018859589D01*
X-28505640Y018859589D01*
X-28505640Y019059588D01*
D50*
X-29494360Y018890704D02*
X-30594358Y018890704D01*
X-30594358Y019090703D01*
X-29494360Y019090703D01*
X-29494360Y018890704D01*
D50*
X-20059006Y018444070D02*
X-20059006Y019544068D01*
X-19859007Y019544068D01*
X-19859007Y018444070D01*
X-20059006Y018444070D01*
D50*
X-20505640Y019059588D02*
X-19405642Y019059588D01*
X-19405642Y018859589D01*
X-20505640Y018859589D01*
X-20505640Y019059588D01*
D50*
X-21494360Y018890704D02*
X-22594358Y018890704D01*
X-22594358Y019090703D01*
X-21494360Y019090703D01*
X-21494360Y018890704D01*
D51*
X-03750011Y-04100074D02*
X-02049989Y-01899926D01*
D52*
X-03648417Y-03834011D02*
X-03693481Y-03799190D01*
X-03693481Y-03799190D02*
X-03650857Y-03804680D01*
X-03650857Y-03804680D02*
X-03666924Y-03764820D01*
X-03666924Y-03764820D02*
X-03621859Y-03799640D01*
X-03598894Y-03769919D02*
X-03629983Y-03717011D01*
X-03629983Y-03717011D02*
X-03569829Y-03732303D01*
X-03609423Y-03747215D02*
X-03595133Y-03728720D01*
X-03547575Y-03702835D02*
X-03591150Y-03669166D01*
X-03591150Y-03669166D02*
X-03582445Y-03655488D01*
X-03582445Y-03655488D02*
X-03575125Y-03646822D01*
X-03575125Y-03646822D02*
X-03569746Y-03642339D01*
X-03569746Y-03642339D02*
X-03567011Y-03640820D01*
X-03567011Y-03640820D02*
X-03564292Y-03639931D01*
X-03564292Y-03639931D02*
X-03561624Y-03639783D01*
X-03561624Y-03639783D02*
X-03556345Y-03641915D01*
X-03556345Y-03641915D02*
X-03552588Y-03645001D01*
X-03552588Y-03645001D02*
X-03550767Y-03648401D01*
X-03550767Y-03648401D02*
X-03550591Y-03652115D01*
X-03550591Y-03652115D02*
X-03551764Y-03656145D01*
X-03551764Y-03656145D02*
X-03555412Y-03662781D01*
X-03555412Y-03662781D02*
X-03570483Y-03683782D01*
X-03555526Y-03668227D02*
X-03519917Y-03667708D01*
X-03541515Y-03602517D02*
X-03496450Y-03637338D01*
X-03514533Y-03573807D02*
X-03513809Y-03623925D01*
X-03511724Y-03606738D02*
X-03470167Y-03601252D01*
X-03488444Y-03533833D02*
X-03443379Y-03568654D01*
X-03488444Y-03533833D02*
X-03465748Y-03504460D01*
X-03465912Y-03551243D02*
X-03450025Y-03530682D01*
X-03443379Y-03568654D02*
X-03420683Y-03539281D01*
X-03393405Y-03503978D02*
X-03437154Y-03469389D01*
X-03437154Y-03469389D02*
X-03432986Y-03462060D01*
X-03432986Y-03462060D02*
X-03428967Y-03457084D01*
X-03428967Y-03457084D02*
X-03420393Y-03450582D01*
X-03420393Y-03450582D02*
X-03410895Y-03448213D01*
X-03410895Y-03448213D02*
X-03401745Y-03449732D01*
X-03401745Y-03449732D02*
X-03393972Y-03453526D01*
X-03393972Y-03453526D02*
X-03388823Y-03457292D01*
X-03388823Y-03457292D02*
X-03384987Y-03461267D01*
X-03384987Y-03461267D02*
X-03382331Y-03465390D01*
X-03382331Y-03465390D02*
X-03380011Y-03473829D01*
X-03380011Y-03473829D02*
X-03380781Y-03482108D01*
X-03380781Y-03482108D02*
X-03385355Y-03493133D01*
X-03385355Y-03493133D02*
X-03393405Y-03503978D01*
X-03324766Y-03322003D02*
X-03279701Y-03356824D01*
X-03240899Y-03306607D02*
X-03285964Y-03271786D01*
X-03285964Y-03271786D02*
X-03216950Y-03275611D01*
X-03216950Y-03275611D02*
X-03262484Y-03241399D01*
X-03237494Y-03209057D02*
X-03208930Y-03172090D01*
X-03222788Y-03190025D02*
X-03177724Y-03224846D01*
X-03183783Y-03139545D02*
X-03138719Y-03174366D01*
X-03183783Y-03139545D02*
X-03161088Y-03110173D01*
X-03161251Y-03156956D02*
X-03145364Y-03136395D01*
X-03138719Y-03174366D02*
X-03116023Y-03144994D01*
X-03090585Y-03111404D02*
X-03134159Y-03077735D01*
X-03134159Y-03077735D02*
X-03125454Y-03064057D01*
X-03125454Y-03064057D02*
X-03118135Y-03055391D01*
X-03118135Y-03055391D02*
X-03112756Y-03050908D01*
X-03112756Y-03050908D02*
X-03110021Y-03049388D01*
X-03110021Y-03049388D02*
X-03107302Y-03048499D01*
X-03107302Y-03048499D02*
X-03104634Y-03048352D01*
X-03104634Y-03048352D02*
X-03099355Y-03050484D01*
X-03099355Y-03050484D02*
X-03095598Y-03053570D01*
X-03095598Y-03053570D02*
X-03093777Y-03056970D01*
X-03093777Y-03056970D02*
X-03093600Y-03060684D01*
X-03093600Y-03060684D02*
X-03094773Y-03064713D01*
X-03094773Y-03064713D02*
X-03098421Y-03071350D01*
X-03098421Y-03071350D02*
X-03113493Y-03092351D01*
X-03098536Y-03076796D02*
X-03062927Y-03076277D01*
X-03037793Y-03043748D02*
X-03082857Y-03008928D01*
X-03082857Y-03008928D02*
X-03013843Y-03012753D01*
X-03013843Y-03012753D02*
X-03059377Y-02978541D01*
X-02989574Y-02981344D02*
X-03020663Y-02928436D01*
X-03020663Y-02928436D02*
X-02960508Y-02943728D01*
X-03000103Y-02958640D02*
X-02985813Y-02940145D01*
X-02980915Y-02876995D02*
X-02935850Y-02911816D01*
X-02935850Y-02911816D02*
X-02912678Y-02881827D01*
X-02930138Y-02811281D02*
X-02885074Y-02846102D01*
X-02885074Y-02846102D02*
X-02861902Y-02816112D01*
X-02882308Y-02749380D02*
X-02848031Y-02746666D01*
X-02853179Y-02711813D02*
X-02847810Y-02746643D01*
X-02847810Y-02746643D02*
X-02822493Y-02765110D01*
X-02744617Y-02591631D02*
X-02751152Y-02589833D01*
X-02751152Y-02589833D02*
X-02757551Y-02590853D01*
X-02757551Y-02590853D02*
X-02765311Y-02596152D01*
X-02765311Y-02596152D02*
X-02768648Y-02601920D01*
X-02768648Y-02601920D02*
X-02769855Y-02608344D01*
X-02769855Y-02608344D02*
X-02767901Y-02617037D01*
X-02767901Y-02617037D02*
X-02756075Y-02631189D01*
X-02756075Y-02631189D02*
X-02739844Y-02639795D01*
X-02739844Y-02639795D02*
X-02731234Y-02640576D01*
X-02731234Y-02640576D02*
X-02725581Y-02638841D01*
X-02725581Y-02638841D02*
X-02718604Y-02632340D01*
X-02718604Y-02632340D02*
X-02715154Y-02624642D01*
X-02715154Y-02624642D02*
X-02716007Y-02616310D01*
X-02716007Y-02616310D02*
X-02721205Y-02609721D01*
X-02670272Y-02569790D02*
X-02676674Y-02574277D01*
X-02676674Y-02574277D02*
X-02686437Y-02575356D01*
X-02686437Y-02575356D02*
X-02708500Y-02564685D01*
X-02708500Y-02564685D02*
X-02719765Y-02549907D01*
X-02719765Y-02549907D02*
X-02720205Y-02542115D01*
X-02720205Y-02542115D02*
X-02716061Y-02532414D01*
X-02716061Y-02532414D02*
X-02707664Y-02526754D01*
X-02707664Y-02526754D02*
X-02699617Y-02525859D01*
X-02699617Y-02525859D02*
X-02679369Y-02535413D01*
X-02679369Y-02535413D02*
X-02669913Y-02545751D01*
X-02669913Y-02545751D02*
X-02666214Y-02554012D01*
X-02666214Y-02554012D02*
X-02666556Y-02563342D01*
X-02666556Y-02563342D02*
X-02670272Y-02569790D01*
X-02631579Y-02518032D02*
X-02676644Y-02483211D01*
X-02676644Y-02483211D02*
X-02607629Y-02487036D01*
X-02607629Y-02487036D02*
X-02653164Y-02452824D01*
X-02580802Y-02452317D02*
X-02625867Y-02417497D01*
X-02625867Y-02417497D02*
X-02556853Y-02421322D01*
X-02556853Y-02421322D02*
X-02602387Y-02387109D01*
X-02574463Y-02350971D02*
X-02529399Y-02385791D01*
X-02574463Y-02350971D02*
X-02551768Y-02321598D01*
X-02551931Y-02368381D02*
X-02536044Y-02347820D01*
X-02529399Y-02385791D02*
X-02506703Y-02356419D01*
X-02490733Y-02263058D02*
X-02497268Y-02261260D01*
X-02497268Y-02261260D02*
X-02503667Y-02262280D01*
X-02503667Y-02262280D02*
X-02511427Y-02267579D01*
X-02511427Y-02267579D02*
X-02514765Y-02273347D01*
X-02514765Y-02273347D02*
X-02515971Y-02279771D01*
X-02515971Y-02279771D02*
X-02514017Y-02288464D01*
X-02514017Y-02288464D02*
X-02502192Y-02302616D01*
X-02502192Y-02302616D02*
X-02485961Y-02311222D01*
X-02485961Y-02311222D02*
X-02477351Y-02312004D01*
X-02477351Y-02312004D02*
X-02471698Y-02310268D01*
X-02471698Y-02310268D02*
X-02464720Y-02303767D01*
X-02464720Y-02303767D02*
X-02461271Y-02296069D01*
X-02461271Y-02296069D02*
X-02462123Y-02287737D01*
X-02462123Y-02287737D02*
X-02467321Y-02281148D01*
X-02475844Y-02223339D02*
X-02447280Y-02186372D01*
X-02461138Y-02204306D02*
X-02416073Y-02239127D01*
X-02422133Y-02153827D02*
X-02377069Y-02188647D01*
X-02422133Y-02153827D02*
X-02399437Y-02124454D01*
X-02399601Y-02171237D02*
X-02383714Y-02150676D01*
X-02377069Y-02188647D02*
X-02354373Y-02159275D01*
X-02327094Y-02123971D02*
X-02370844Y-02089383D01*
X-02370844Y-02089383D02*
X-02366676Y-02082054D01*
X-02366676Y-02082054D02*
X-02362657Y-02077078D01*
X-02362657Y-02077078D02*
X-02354082Y-02070576D01*
X-02354082Y-02070576D02*
X-02344585Y-02068207D01*
X-02344585Y-02068207D02*
X-02335435Y-02069726D01*
X-02335435Y-02069726D02*
X-02327662Y-02073520D01*
X-02327662Y-02073520D02*
X-02322512Y-02077286D01*
X-02322512Y-02077286D02*
X-02318677Y-02081261D01*
X-02318677Y-02081261D02*
X-02316020Y-02085384D01*
X-02316020Y-02085384D02*
X-02313701Y-02093823D01*
X-02313701Y-02093823D02*
X-02314470Y-02102102D01*
X-02314470Y-02102102D02*
X-02319045Y-02113127D01*
X-02319045Y-02113127D02*
X-02327094Y-02123971D01*
D51*
X-31999994Y015849882D02*
X-26000006Y015849882D01*
D52*
X-30117556Y015932169D02*
X-30117556Y015989118D01*
X-30117556Y015989118D02*
X-30095838Y015952033D01*
X-30095838Y015952033D02*
X-30074120Y015989118D01*
X-30074120Y015989118D02*
X-30074120Y015932169D01*
X-30036560Y015932169D02*
X-30013703Y015989118D01*
X-30013703Y015989118D02*
X-29989023Y015932169D01*
X-30025033Y015954382D02*
X-30001660Y015954382D01*
X-29952099Y015932577D02*
X-29952099Y015987643D01*
X-29952099Y015987643D02*
X-29935953Y015989118D01*
X-29935953Y015989118D02*
X-29924621Y015988625D01*
X-29924621Y015988625D02*
X-29917784Y015987110D01*
X-29917784Y015987110D02*
X-29914910Y015985874D01*
X-29914910Y015985874D02*
X-29912544Y015984266D01*
X-29912544Y015984266D02*
X-29910796Y015982245D01*
X-29910796Y015982245D02*
X-29909255Y015976765D01*
X-29909255Y015976765D02*
X-29909400Y015971905D01*
X-29909400Y015971905D02*
X-29910977Y015968385D01*
X-29910977Y015968385D02*
X-29913808Y015965974D01*
X-29913808Y015965974D02*
X-29917713Y015964439D01*
X-29917713Y015964439D02*
X-29925195Y015963268D01*
X-29925195Y015963268D02*
X-29951029Y015962353D01*
X-29929575Y015960028D02*
X-29907392Y015932169D01*
X-29869012Y015989118D02*
X-29869012Y015932169D01*
X-29829796Y015985322D02*
X-29869012Y015954105D01*
X-29854137Y015962964D02*
X-29824387Y015933434D01*
X-29782213Y015989118D02*
X-29782213Y015932169D01*
X-29782213Y015989118D02*
X-29745093Y015989118D01*
X-29782213Y015960644D02*
X-29756229Y015960644D01*
X-29782213Y015932169D02*
X-29745093Y015932169D01*
X-29700479Y015932169D02*
X-29699859Y015987935D01*
X-29699859Y015987935D02*
X-29691511Y015989118D01*
X-29691511Y015989118D02*
X-29685116Y015988981D01*
X-29685116Y015988981D02*
X-29674728Y015986171D01*
X-29674728Y015986171D02*
X-29667046Y015980104D01*
X-29667046Y015980104D02*
X-29662654Y015971935D01*
X-29662654Y015971935D02*
X-29660903Y015963465D01*
X-29660903Y015963465D02*
X-29660735Y015957088D01*
X-29660735Y015957088D02*
X-29661536Y015951622D01*
X-29661536Y015951622D02*
X-29663174Y015946999D01*
X-29663174Y015946999D02*
X-29668433Y015940004D01*
X-29668433Y015940004D02*
X-29675455Y015935550D01*
X-29675455Y015935550D02*
X-29686976Y015932430D01*
X-29686976Y015932430D02*
X-29700479Y015932169D01*
X-29514514Y015989118D02*
X-29514514Y015932169D01*
X-29451053Y015932169D02*
X-29451053Y015989118D01*
X-29451053Y015989118D02*
X-29411883Y015932169D01*
X-29411883Y015932169D02*
X-29412652Y015989118D01*
X-29371780Y015989118D02*
X-29325063Y015989118D01*
X-29347728Y015989118D02*
X-29347728Y015932169D01*
X-29283935Y015989118D02*
X-29283935Y015932169D01*
X-29283935Y015989118D02*
X-29246816Y015989118D01*
X-29283935Y015960644D02*
X-29257952Y015960644D01*
X-29283935Y015932169D02*
X-29246816Y015932169D01*
X-29204683Y015932577D02*
X-29204683Y015987643D01*
X-29204683Y015987643D02*
X-29188537Y015989118D01*
X-29188537Y015989118D02*
X-29177204Y015988625D01*
X-29177204Y015988625D02*
X-29170368Y015987110D01*
X-29170368Y015987110D02*
X-29167494Y015985874D01*
X-29167494Y015985874D02*
X-29165128Y015984266D01*
X-29165128Y015984266D02*
X-29163380Y015982245D01*
X-29163380Y015982245D02*
X-29161839Y015976765D01*
X-29161839Y015976765D02*
X-29161983Y015971905D01*
X-29161983Y015971905D02*
X-29163561Y015968385D01*
X-29163561Y015968385D02*
X-29166392Y015965974D01*
X-29166392Y015965974D02*
X-29170297Y015964439D01*
X-29170297Y015964439D02*
X-29177779Y015963268D01*
X-29177779Y015963268D02*
X-29203613Y015962353D01*
X-29182159Y015960028D02*
X-29159976Y015932169D01*
X-29118868Y015932169D02*
X-29118868Y015989118D01*
X-29118868Y015989118D02*
X-29079698Y015932169D01*
X-29079698Y015932169D02*
X-29080467Y015989118D01*
X-29040005Y015932169D02*
X-29017148Y015989118D01*
X-29017148Y015989118D02*
X-28992468Y015932169D01*
X-29028478Y015954382D02*
X-29005105Y015954382D01*
X-28952140Y015989118D02*
X-28952140Y015932169D01*
X-28952140Y015932169D02*
X-28914241Y015932169D01*
X-28869094Y015989118D02*
X-28869094Y015932169D01*
X-28869094Y015932169D02*
X-28831195Y015932169D01*
X-28790867Y015989118D02*
X-28767761Y015963655D01*
X-28743330Y015989037D02*
X-28767608Y015963493D01*
X-28767608Y015963493D02*
X-28766741Y015932169D01*
X-28581851Y015976615D02*
X-28584424Y015982886D01*
X-28584424Y015982886D02*
X-28589144Y015987325D01*
X-28589144Y015987325D02*
X-28598082Y015990226D01*
X-28598082Y015990226D02*
X-28604687Y015989340D01*
X-28604687Y015989340D02*
X-28610508Y015986367D01*
X-28610508Y015986367D02*
X-28616192Y015979506D01*
X-28616192Y015979506D02*
X-28620160Y015961495D01*
X-28620160Y015961495D02*
X-28617046Y015943390D01*
X-28617046Y015943390D02*
X-28612400Y015936099D01*
X-28612400Y015936099D02*
X-28607570Y015932687D01*
X-28607570Y015932687D02*
X-28598160Y015931140D01*
X-28598160Y015931140D02*
X-28589959Y015933117D01*
X-28589959Y015933117D02*
X-28583887Y015938886D01*
X-28583887Y015938886D02*
X-28581851Y015947029D01*
X-28519113Y015931140D02*
X-28526578Y015933462D01*
X-28526578Y015933462D02*
X-28533401Y015940528D01*
X-28533401Y015940528D02*
X-28538447Y015964511D01*
X-28538447Y015964511D02*
X-28533640Y015982461D01*
X-28533640Y015982461D02*
X-28527743Y015987573D01*
X-28527743Y015987573D02*
X-28517533Y015990226D01*
X-28517533Y015990226D02*
X-28507920Y015987042D01*
X-28507920Y015987042D02*
X-28502292Y015981222D01*
X-28502292Y015981222D02*
X-28497472Y015959357D01*
X-28497472Y015959357D02*
X-28499871Y015945554D01*
X-28499871Y015945554D02*
X-28504146Y015937576D01*
X-28504146Y015937576D02*
X-28511739Y015932142D01*
X-28511739Y015932142D02*
X-28519113Y015931140D01*
X-28454498Y015932169D02*
X-28454498Y015989118D01*
X-28454498Y015989118D02*
X-28415328Y015932169D01*
X-28415328Y015932169D02*
X-28416097Y015989118D01*
X-28371452Y015932169D02*
X-28371452Y015989118D01*
X-28371452Y015989118D02*
X-28332282Y015932169D01*
X-28332282Y015932169D02*
X-28333051Y015989118D01*
X-28287380Y015989118D02*
X-28287380Y015932169D01*
X-28287380Y015989118D02*
X-28250261Y015989118D01*
X-28287380Y015960644D02*
X-28261397Y015960644D01*
X-28287380Y015932169D02*
X-28250261Y015932169D01*
X-28166620Y015976615D02*
X-28169193Y015982886D01*
X-28169193Y015982886D02*
X-28173913Y015987325D01*
X-28173913Y015987325D02*
X-28182851Y015990226D01*
X-28182851Y015990226D02*
X-28189456Y015989340D01*
X-28189456Y015989340D02*
X-28195277Y015986367D01*
X-28195277Y015986367D02*
X-28200960Y015979506D01*
X-28200960Y015979506D02*
X-28204929Y015961495D01*
X-28204929Y015961495D02*
X-28201815Y015943390D01*
X-28201815Y015943390D02*
X-28197169Y015936099D01*
X-28197169Y015936099D02*
X-28192339Y015932687D01*
X-28192339Y015932687D02*
X-28182929Y015931140D01*
X-28182929Y015931140D02*
X-28174728Y015933117D01*
X-28174728Y015933117D02*
X-28168656Y015938886D01*
X-28168656Y015938886D02*
X-28166620Y015947029D01*
X-28126087Y015989118D02*
X-28079370Y015989118D01*
X-28102035Y015989118D02*
X-28102035Y015932169D01*
X-28038242Y015989118D02*
X-28038242Y015932169D01*
X-28038242Y015989118D02*
X-28001122Y015989118D01*
X-28038242Y015960644D02*
X-28012258Y015960644D01*
X-28038242Y015932169D02*
X-28001122Y015932169D01*
X-27956508Y015932169D02*
X-27955888Y015987935D01*
X-27955888Y015987935D02*
X-27947540Y015989118D01*
X-27947540Y015989118D02*
X-27941145Y015988981D01*
X-27941145Y015988981D02*
X-27930757Y015986171D01*
X-27930757Y015986171D02*
X-27923075Y015980104D01*
X-27923075Y015980104D02*
X-27918683Y015971935D01*
X-27918683Y015971935D02*
X-27916932Y015963465D01*
X-27916932Y015963465D02*
X-27916764Y015957088D01*
X-27916764Y015957088D02*
X-27917565Y015951622D01*
X-27917565Y015951622D02*
X-27919203Y015946999D01*
X-27919203Y015946999D02*
X-27924462Y015940004D01*
X-27924462Y015940004D02*
X-27931484Y015935550D01*
X-27931484Y015935550D02*
X-27943005Y015932430D01*
X-27943005Y015932430D02*
X-27956508Y015932169D01*
D51*
X-31999994Y012150118D02*
X-26000006Y012150118D01*
D52*
X-30117556Y012232405D02*
X-30117556Y012289354D01*
X-30117556Y012289354D02*
X-30095838Y012252269D01*
X-30095838Y012252269D02*
X-30074120Y012289354D01*
X-30074120Y012289354D02*
X-30074120Y012232405D01*
X-30036560Y012232405D02*
X-30013703Y012289354D01*
X-30013703Y012289354D02*
X-29989023Y012232405D01*
X-30025033Y012254618D02*
X-30001660Y012254618D01*
X-29952099Y012232813D02*
X-29952099Y012287879D01*
X-29952099Y012287879D02*
X-29935953Y012289354D01*
X-29935953Y012289354D02*
X-29924621Y012288861D01*
X-29924621Y012288861D02*
X-29917784Y012287346D01*
X-29917784Y012287346D02*
X-29914910Y012286110D01*
X-29914910Y012286110D02*
X-29912544Y012284502D01*
X-29912544Y012284502D02*
X-29910796Y012282481D01*
X-29910796Y012282481D02*
X-29909255Y012277001D01*
X-29909255Y012277001D02*
X-29909400Y012272141D01*
X-29909400Y012272141D02*
X-29910977Y012268621D01*
X-29910977Y012268621D02*
X-29913808Y012266210D01*
X-29913808Y012266210D02*
X-29917713Y012264675D01*
X-29917713Y012264675D02*
X-29925195Y012263504D01*
X-29925195Y012263504D02*
X-29951029Y012262589D01*
X-29929575Y012260264D02*
X-29907392Y012232405D01*
X-29869012Y012289354D02*
X-29869012Y012232405D01*
X-29829796Y012285558D02*
X-29869012Y012254341D01*
X-29854137Y012263200D02*
X-29824387Y012233670D01*
X-29782213Y012289354D02*
X-29782213Y012232405D01*
X-29782213Y012289354D02*
X-29745093Y012289354D01*
X-29782213Y012260880D02*
X-29756229Y012260880D01*
X-29782213Y012232405D02*
X-29745093Y012232405D01*
X-29700479Y012232405D02*
X-29699859Y012288171D01*
X-29699859Y012288171D02*
X-29691511Y012289354D01*
X-29691511Y012289354D02*
X-29685116Y012289217D01*
X-29685116Y012289217D02*
X-29674728Y012286407D01*
X-29674728Y012286407D02*
X-29667046Y012280340D01*
X-29667046Y012280340D02*
X-29662654Y012272171D01*
X-29662654Y012272171D02*
X-29660903Y012263701D01*
X-29660903Y012263701D02*
X-29660735Y012257324D01*
X-29660735Y012257324D02*
X-29661536Y012251858D01*
X-29661536Y012251858D02*
X-29663174Y012247235D01*
X-29663174Y012247235D02*
X-29668433Y012240240D01*
X-29668433Y012240240D02*
X-29675455Y012235786D01*
X-29675455Y012235786D02*
X-29686976Y012232666D01*
X-29686976Y012232666D02*
X-29700479Y012232405D01*
X-29514514Y012289354D02*
X-29514514Y012232405D01*
X-29451053Y012232405D02*
X-29451053Y012289354D01*
X-29451053Y012289354D02*
X-29411883Y012232405D01*
X-29411883Y012232405D02*
X-29412652Y012289354D01*
X-29371780Y012289354D02*
X-29325063Y012289354D01*
X-29347728Y012289354D02*
X-29347728Y012232405D01*
X-29283935Y012289354D02*
X-29283935Y012232405D01*
X-29283935Y012289354D02*
X-29246816Y012289354D01*
X-29283935Y012260880D02*
X-29257952Y012260880D01*
X-29283935Y012232405D02*
X-29246816Y012232405D01*
X-29204683Y012232813D02*
X-29204683Y012287879D01*
X-29204683Y012287879D02*
X-29188537Y012289354D01*
X-29188537Y012289354D02*
X-29177204Y012288861D01*
X-29177204Y012288861D02*
X-29170368Y012287346D01*
X-29170368Y012287346D02*
X-29167494Y012286110D01*
X-29167494Y012286110D02*
X-29165128Y012284502D01*
X-29165128Y012284502D02*
X-29163380Y012282481D01*
X-29163380Y012282481D02*
X-29161839Y012277001D01*
X-29161839Y012277001D02*
X-29161983Y012272141D01*
X-29161983Y012272141D02*
X-29163561Y012268621D01*
X-29163561Y012268621D02*
X-29166392Y012266210D01*
X-29166392Y012266210D02*
X-29170297Y012264675D01*
X-29170297Y012264675D02*
X-29177779Y012263504D01*
X-29177779Y012263504D02*
X-29203613Y012262589D01*
X-29182159Y012260264D02*
X-29159976Y012232405D01*
X-29118868Y012232405D02*
X-29118868Y012289354D01*
X-29118868Y012289354D02*
X-29079698Y012232405D01*
X-29079698Y012232405D02*
X-29080467Y012289354D01*
X-29040005Y012232405D02*
X-29017148Y012289354D01*
X-29017148Y012289354D02*
X-28992468Y012232405D01*
X-29028478Y012254618D02*
X-29005105Y012254618D01*
X-28952140Y012289354D02*
X-28952140Y012232405D01*
X-28952140Y012232405D02*
X-28914241Y012232405D01*
X-28869094Y012289354D02*
X-28869094Y012232405D01*
X-28869094Y012232405D02*
X-28831195Y012232405D01*
X-28790867Y012289354D02*
X-28767761Y012263891D01*
X-28743330Y012289273D02*
X-28767608Y012263729D01*
X-28767608Y012263729D02*
X-28766741Y012232405D01*
X-28581851Y012276851D02*
X-28584424Y012283122D01*
X-28584424Y012283122D02*
X-28589144Y012287561D01*
X-28589144Y012287561D02*
X-28598082Y012290462D01*
X-28598082Y012290462D02*
X-28604687Y012289576D01*
X-28604687Y012289576D02*
X-28610508Y012286603D01*
X-28610508Y012286603D02*
X-28616192Y012279742D01*
X-28616192Y012279742D02*
X-28620160Y012261731D01*
X-28620160Y012261731D02*
X-28617046Y012243626D01*
X-28617046Y012243626D02*
X-28612400Y012236335D01*
X-28612400Y012236335D02*
X-28607570Y012232923D01*
X-28607570Y012232923D02*
X-28598160Y012231376D01*
X-28598160Y012231376D02*
X-28589959Y012233353D01*
X-28589959Y012233353D02*
X-28583887Y012239122D01*
X-28583887Y012239122D02*
X-28581851Y012247265D01*
X-28519113Y012231376D02*
X-28526578Y012233698D01*
X-28526578Y012233698D02*
X-28533401Y012240764D01*
X-28533401Y012240764D02*
X-28538447Y012264747D01*
X-28538447Y012264747D02*
X-28533640Y012282697D01*
X-28533640Y012282697D02*
X-28527743Y012287809D01*
X-28527743Y012287809D02*
X-28517533Y012290462D01*
X-28517533Y012290462D02*
X-28507920Y012287278D01*
X-28507920Y012287278D02*
X-28502292Y012281458D01*
X-28502292Y012281458D02*
X-28497472Y012259593D01*
X-28497472Y012259593D02*
X-28499871Y012245790D01*
X-28499871Y012245790D02*
X-28504146Y012237812D01*
X-28504146Y012237812D02*
X-28511739Y012232378D01*
X-28511739Y012232378D02*
X-28519113Y012231376D01*
X-28454498Y012232405D02*
X-28454498Y012289354D01*
X-28454498Y012289354D02*
X-28415328Y012232405D01*
X-28415328Y012232405D02*
X-28416097Y012289354D01*
X-28371452Y012232405D02*
X-28371452Y012289354D01*
X-28371452Y012289354D02*
X-28332282Y012232405D01*
X-28332282Y012232405D02*
X-28333051Y012289354D01*
X-28287380Y012289354D02*
X-28287380Y012232405D01*
X-28287380Y012289354D02*
X-28250261Y012289354D01*
X-28287380Y012260880D02*
X-28261397Y012260880D01*
X-28287380Y012232405D02*
X-28250261Y012232405D01*
X-28166620Y012276851D02*
X-28169193Y012283122D01*
X-28169193Y012283122D02*
X-28173913Y012287561D01*
X-28173913Y012287561D02*
X-28182851Y012290462D01*
X-28182851Y012290462D02*
X-28189456Y012289576D01*
X-28189456Y012289576D02*
X-28195277Y012286603D01*
X-28195277Y012286603D02*
X-28200960Y012279742D01*
X-28200960Y012279742D02*
X-28204929Y012261731D01*
X-28204929Y012261731D02*
X-28201815Y012243626D01*
X-28201815Y012243626D02*
X-28197169Y012236335D01*
X-28197169Y012236335D02*
X-28192339Y012232923D01*
X-28192339Y012232923D02*
X-28182929Y012231376D01*
X-28182929Y012231376D02*
X-28174728Y012233353D01*
X-28174728Y012233353D02*
X-28168656Y012239122D01*
X-28168656Y012239122D02*
X-28166620Y012247265D01*
X-28126087Y012289354D02*
X-28079370Y012289354D01*
X-28102035Y012289354D02*
X-28102035Y012232405D01*
X-28038242Y012289354D02*
X-28038242Y012232405D01*
X-28038242Y012289354D02*
X-28001122Y012289354D01*
X-28038242Y012260880D02*
X-28012258Y012260880D01*
X-28038242Y012232405D02*
X-28001122Y012232405D01*
X-27956508Y012232405D02*
X-27955888Y012288171D01*
X-27955888Y012288171D02*
X-27947540Y012289354D01*
X-27947540Y012289354D02*
X-27941145Y012289217D01*
X-27941145Y012289217D02*
X-27930757Y012286407D01*
X-27930757Y012286407D02*
X-27923075Y012280340D01*
X-27923075Y012280340D02*
X-27918683Y012272171D01*
X-27918683Y012272171D02*
X-27916932Y012263701D01*
X-27916932Y012263701D02*
X-27916764Y012257324D01*
X-27916764Y012257324D02*
X-27917565Y012251858D01*
X-27917565Y012251858D02*
X-27919203Y012247235D01*
X-27919203Y012247235D02*
X-27924462Y012240240D01*
X-27924462Y012240240D02*
X-27931484Y012235786D01*
X-27931484Y012235786D02*
X-27943005Y012232666D01*
X-27943005Y012232666D02*
X-27956508Y012232405D01*
D51*
X-31999994Y-17150118D02*
X-26000006Y-17150118D01*
D52*
X-30117556Y-17067831D02*
X-30117556Y-17010882D01*
X-30117556Y-17010882D02*
X-30095838Y-17047967D01*
X-30095838Y-17047967D02*
X-30074120Y-17010882D01*
X-30074120Y-17010882D02*
X-30074120Y-17067831D01*
X-30036560Y-17067831D02*
X-30013703Y-17010882D01*
X-30013703Y-17010882D02*
X-29989023Y-17067831D01*
X-30025033Y-17045618D02*
X-30001660Y-17045618D01*
X-29952099Y-17067423D02*
X-29952099Y-17012357D01*
X-29952099Y-17012357D02*
X-29935953Y-17010882D01*
X-29935953Y-17010882D02*
X-29924621Y-17011375D01*
X-29924621Y-17011375D02*
X-29917784Y-17012890D01*
X-29917784Y-17012890D02*
X-29914910Y-17014126D01*
X-29914910Y-17014126D02*
X-29912544Y-17015734D01*
X-29912544Y-17015734D02*
X-29910796Y-17017755D01*
X-29910796Y-17017755D02*
X-29909255Y-17023235D01*
X-29909255Y-17023235D02*
X-29909400Y-17028095D01*
X-29909400Y-17028095D02*
X-29910977Y-17031615D01*
X-29910977Y-17031615D02*
X-29913808Y-17034026D01*
X-29913808Y-17034026D02*
X-29917713Y-17035561D01*
X-29917713Y-17035561D02*
X-29925195Y-17036732D01*
X-29925195Y-17036732D02*
X-29951029Y-17037647D01*
X-29929575Y-17039972D02*
X-29907392Y-17067831D01*
X-29869012Y-17010882D02*
X-29869012Y-17067831D01*
X-29829796Y-17014678D02*
X-29869012Y-17045895D01*
X-29854137Y-17037036D02*
X-29824387Y-17066566D01*
X-29782213Y-17010882D02*
X-29782213Y-17067831D01*
X-29782213Y-17010882D02*
X-29745093Y-17010882D01*
X-29782213Y-17039356D02*
X-29756229Y-17039356D01*
X-29782213Y-17067831D02*
X-29745093Y-17067831D01*
X-29700479Y-17067831D02*
X-29699859Y-17012065D01*
X-29699859Y-17012065D02*
X-29691511Y-17010882D01*
X-29691511Y-17010882D02*
X-29685116Y-17011019D01*
X-29685116Y-17011019D02*
X-29674728Y-17013829D01*
X-29674728Y-17013829D02*
X-29667046Y-17019896D01*
X-29667046Y-17019896D02*
X-29662654Y-17028065D01*
X-29662654Y-17028065D02*
X-29660903Y-17036535D01*
X-29660903Y-17036535D02*
X-29660735Y-17042912D01*
X-29660735Y-17042912D02*
X-29661536Y-17048378D01*
X-29661536Y-17048378D02*
X-29663174Y-17053001D01*
X-29663174Y-17053001D02*
X-29668433Y-17059996D01*
X-29668433Y-17059996D02*
X-29675455Y-17064450D01*
X-29675455Y-17064450D02*
X-29686976Y-17067570D01*
X-29686976Y-17067570D02*
X-29700479Y-17067831D01*
X-29514514Y-17010882D02*
X-29514514Y-17067831D01*
X-29451053Y-17067831D02*
X-29451053Y-17010882D01*
X-29451053Y-17010882D02*
X-29411883Y-17067831D01*
X-29411883Y-17067831D02*
X-29412652Y-17010882D01*
X-29371780Y-17010882D02*
X-29325063Y-17010882D01*
X-29347728Y-17010882D02*
X-29347728Y-17067831D01*
X-29283935Y-17010882D02*
X-29283935Y-17067831D01*
X-29283935Y-17010882D02*
X-29246816Y-17010882D01*
X-29283935Y-17039356D02*
X-29257952Y-17039356D01*
X-29283935Y-17067831D02*
X-29246816Y-17067831D01*
X-29204683Y-17067423D02*
X-29204683Y-17012357D01*
X-29204683Y-17012357D02*
X-29188537Y-17010882D01*
X-29188537Y-17010882D02*
X-29177204Y-17011375D01*
X-29177204Y-17011375D02*
X-29170368Y-17012890D01*
X-29170368Y-17012890D02*
X-29167494Y-17014126D01*
X-29167494Y-17014126D02*
X-29165128Y-17015734D01*
X-29165128Y-17015734D02*
X-29163380Y-17017755D01*
X-29163380Y-17017755D02*
X-29161839Y-17023235D01*
X-29161839Y-17023235D02*
X-29161983Y-17028095D01*
X-29161983Y-17028095D02*
X-29163561Y-17031615D01*
X-29163561Y-17031615D02*
X-29166392Y-17034026D01*
X-29166392Y-17034026D02*
X-29170297Y-17035561D01*
X-29170297Y-17035561D02*
X-29177779Y-17036732D01*
X-29177779Y-17036732D02*
X-29203613Y-17037647D01*
X-29182159Y-17039972D02*
X-29159976Y-17067831D01*
X-29118868Y-17067831D02*
X-29118868Y-17010882D01*
X-29118868Y-17010882D02*
X-29079698Y-17067831D01*
X-29079698Y-17067831D02*
X-29080467Y-17010882D01*
X-29040005Y-17067831D02*
X-29017148Y-17010882D01*
X-29017148Y-17010882D02*
X-28992468Y-17067831D01*
X-29028478Y-17045618D02*
X-29005105Y-17045618D01*
X-28952140Y-17010882D02*
X-28952140Y-17067831D01*
X-28952140Y-17067831D02*
X-28914241Y-17067831D01*
X-28869094Y-17010882D02*
X-28869094Y-17067831D01*
X-28869094Y-17067831D02*
X-28831195Y-17067831D01*
X-28790867Y-17010882D02*
X-28767761Y-17036345D01*
X-28743330Y-17010963D02*
X-28767608Y-17036507D01*
X-28767608Y-17036507D02*
X-28766741Y-17067831D01*
X-28581851Y-17023385D02*
X-28584424Y-17017114D01*
X-28584424Y-17017114D02*
X-28589144Y-17012675D01*
X-28589144Y-17012675D02*
X-28598082Y-17009774D01*
X-28598082Y-17009774D02*
X-28604687Y-17010660D01*
X-28604687Y-17010660D02*
X-28610508Y-17013633D01*
X-28610508Y-17013633D02*
X-28616192Y-17020494D01*
X-28616192Y-17020494D02*
X-28620160Y-17038505D01*
X-28620160Y-17038505D02*
X-28617046Y-17056610D01*
X-28617046Y-17056610D02*
X-28612400Y-17063901D01*
X-28612400Y-17063901D02*
X-28607570Y-17067313D01*
X-28607570Y-17067313D02*
X-28598160Y-17068860D01*
X-28598160Y-17068860D02*
X-28589959Y-17066883D01*
X-28589959Y-17066883D02*
X-28583887Y-17061114D01*
X-28583887Y-17061114D02*
X-28581851Y-17052971D01*
X-28519113Y-17068860D02*
X-28526578Y-17066538D01*
X-28526578Y-17066538D02*
X-28533401Y-17059472D01*
X-28533401Y-17059472D02*
X-28538447Y-17035489D01*
X-28538447Y-17035489D02*
X-28533640Y-17017539D01*
X-28533640Y-17017539D02*
X-28527743Y-17012427D01*
X-28527743Y-17012427D02*
X-28517533Y-17009774D01*
X-28517533Y-17009774D02*
X-28507920Y-17012958D01*
X-28507920Y-17012958D02*
X-28502292Y-17018778D01*
X-28502292Y-17018778D02*
X-28497472Y-17040643D01*
X-28497472Y-17040643D02*
X-28499871Y-17054446D01*
X-28499871Y-17054446D02*
X-28504146Y-17062424D01*
X-28504146Y-17062424D02*
X-28511739Y-17067858D01*
X-28511739Y-17067858D02*
X-28519113Y-17068860D01*
X-28454498Y-17067831D02*
X-28454498Y-17010882D01*
X-28454498Y-17010882D02*
X-28415328Y-17067831D01*
X-28415328Y-17067831D02*
X-28416097Y-17010882D01*
X-28371452Y-17067831D02*
X-28371452Y-17010882D01*
X-28371452Y-17010882D02*
X-28332282Y-17067831D01*
X-28332282Y-17067831D02*
X-28333051Y-17010882D01*
X-28287380Y-17010882D02*
X-28287380Y-17067831D01*
X-28287380Y-17010882D02*
X-28250261Y-17010882D01*
X-28287380Y-17039356D02*
X-28261397Y-17039356D01*
X-28287380Y-17067831D02*
X-28250261Y-17067831D01*
X-28166620Y-17023385D02*
X-28169193Y-17017114D01*
X-28169193Y-17017114D02*
X-28173913Y-17012675D01*
X-28173913Y-17012675D02*
X-28182851Y-17009774D01*
X-28182851Y-17009774D02*
X-28189456Y-17010660D01*
X-28189456Y-17010660D02*
X-28195277Y-17013633D01*
X-28195277Y-17013633D02*
X-28200960Y-17020494D01*
X-28200960Y-17020494D02*
X-28204929Y-17038505D01*
X-28204929Y-17038505D02*
X-28201815Y-17056610D01*
X-28201815Y-17056610D02*
X-28197169Y-17063901D01*
X-28197169Y-17063901D02*
X-28192339Y-17067313D01*
X-28192339Y-17067313D02*
X-28182929Y-17068860D01*
X-28182929Y-17068860D02*
X-28174728Y-17066883D01*
X-28174728Y-17066883D02*
X-28168656Y-17061114D01*
X-28168656Y-17061114D02*
X-28166620Y-17052971D01*
X-28126087Y-17010882D02*
X-28079370Y-17010882D01*
X-28102035Y-17010882D02*
X-28102035Y-17067831D01*
X-28038242Y-17010882D02*
X-28038242Y-17067831D01*
X-28038242Y-17010882D02*
X-28001122Y-17010882D01*
X-28038242Y-17039356D02*
X-28012258Y-17039356D01*
X-28038242Y-17067831D02*
X-28001122Y-17067831D01*
X-27956508Y-17067831D02*
X-27955888Y-17012065D01*
X-27955888Y-17012065D02*
X-27947540Y-17010882D01*
X-27947540Y-17010882D02*
X-27941145Y-17011019D01*
X-27941145Y-17011019D02*
X-27930757Y-17013829D01*
X-27930757Y-17013829D02*
X-27923075Y-17019896D01*
X-27923075Y-17019896D02*
X-27918683Y-17028065D01*
X-27918683Y-17028065D02*
X-27916932Y-17036535D01*
X-27916932Y-17036535D02*
X-27916764Y-17042912D01*
X-27916764Y-17042912D02*
X-27917565Y-17048378D01*
X-27917565Y-17048378D02*
X-27919203Y-17053001D01*
X-27919203Y-17053001D02*
X-27924462Y-17059996D01*
X-27924462Y-17059996D02*
X-27931484Y-17064450D01*
X-27931484Y-17064450D02*
X-27943005Y-17067570D01*
X-27943005Y-17067570D02*
X-27956508Y-17067831D01*
D51*
X-31999994Y-20849882D02*
X-26000006Y-20849882D01*
D52*
X-30117556Y-20767595D02*
X-30117556Y-20710646D01*
X-30117556Y-20710646D02*
X-30095838Y-20747731D01*
X-30095838Y-20747731D02*
X-30074120Y-20710646D01*
X-30074120Y-20710646D02*
X-30074120Y-20767595D01*
X-30036560Y-20767595D02*
X-30013703Y-20710646D01*
X-30013703Y-20710646D02*
X-29989023Y-20767595D01*
X-30025033Y-20745382D02*
X-30001660Y-20745382D01*
X-29952099Y-20767187D02*
X-29952099Y-20712121D01*
X-29952099Y-20712121D02*
X-29935953Y-20710646D01*
X-29935953Y-20710646D02*
X-29924621Y-20711139D01*
X-29924621Y-20711139D02*
X-29917784Y-20712654D01*
X-29917784Y-20712654D02*
X-29914910Y-20713890D01*
X-29914910Y-20713890D02*
X-29912544Y-20715498D01*
X-29912544Y-20715498D02*
X-29910796Y-20717519D01*
X-29910796Y-20717519D02*
X-29909255Y-20722999D01*
X-29909255Y-20722999D02*
X-29909400Y-20727859D01*
X-29909400Y-20727859D02*
X-29910977Y-20731379D01*
X-29910977Y-20731379D02*
X-29913808Y-20733790D01*
X-29913808Y-20733790D02*
X-29917713Y-20735325D01*
X-29917713Y-20735325D02*
X-29925195Y-20736496D01*
X-29925195Y-20736496D02*
X-29951029Y-20737411D01*
X-29929575Y-20739736D02*
X-29907392Y-20767595D01*
X-29869012Y-20710646D02*
X-29869012Y-20767595D01*
X-29829796Y-20714442D02*
X-29869012Y-20745659D01*
X-29854137Y-20736800D02*
X-29824387Y-20766330D01*
X-29782213Y-20710646D02*
X-29782213Y-20767595D01*
X-29782213Y-20710646D02*
X-29745093Y-20710646D01*
X-29782213Y-20739120D02*
X-29756229Y-20739120D01*
X-29782213Y-20767595D02*
X-29745093Y-20767595D01*
X-29700479Y-20767595D02*
X-29699859Y-20711829D01*
X-29699859Y-20711829D02*
X-29691511Y-20710646D01*
X-29691511Y-20710646D02*
X-29685116Y-20710783D01*
X-29685116Y-20710783D02*
X-29674728Y-20713593D01*
X-29674728Y-20713593D02*
X-29667046Y-20719660D01*
X-29667046Y-20719660D02*
X-29662654Y-20727829D01*
X-29662654Y-20727829D02*
X-29660903Y-20736299D01*
X-29660903Y-20736299D02*
X-29660735Y-20742676D01*
X-29660735Y-20742676D02*
X-29661536Y-20748142D01*
X-29661536Y-20748142D02*
X-29663174Y-20752765D01*
X-29663174Y-20752765D02*
X-29668433Y-20759760D01*
X-29668433Y-20759760D02*
X-29675455Y-20764214D01*
X-29675455Y-20764214D02*
X-29686976Y-20767334D01*
X-29686976Y-20767334D02*
X-29700479Y-20767595D01*
X-29514514Y-20710646D02*
X-29514514Y-20767595D01*
X-29451053Y-20767595D02*
X-29451053Y-20710646D01*
X-29451053Y-20710646D02*
X-29411883Y-20767595D01*
X-29411883Y-20767595D02*
X-29412652Y-20710646D01*
X-29371780Y-20710646D02*
X-29325063Y-20710646D01*
X-29347728Y-20710646D02*
X-29347728Y-20767595D01*
X-29283935Y-20710646D02*
X-29283935Y-20767595D01*
X-29283935Y-20710646D02*
X-29246816Y-20710646D01*
X-29283935Y-20739120D02*
X-29257952Y-20739120D01*
X-29283935Y-20767595D02*
X-29246816Y-20767595D01*
X-29204683Y-20767187D02*
X-29204683Y-20712121D01*
X-29204683Y-20712121D02*
X-29188537Y-20710646D01*
X-29188537Y-20710646D02*
X-29177204Y-20711139D01*
X-29177204Y-20711139D02*
X-29170368Y-20712654D01*
X-29170368Y-20712654D02*
X-29167494Y-20713890D01*
X-29167494Y-20713890D02*
X-29165128Y-20715498D01*
X-29165128Y-20715498D02*
X-29163380Y-20717519D01*
X-29163380Y-20717519D02*
X-29161839Y-20722999D01*
X-29161839Y-20722999D02*
X-29161983Y-20727859D01*
X-29161983Y-20727859D02*
X-29163561Y-20731379D01*
X-29163561Y-20731379D02*
X-29166392Y-20733790D01*
X-29166392Y-20733790D02*
X-29170297Y-20735325D01*
X-29170297Y-20735325D02*
X-29177779Y-20736496D01*
X-29177779Y-20736496D02*
X-29203613Y-20737411D01*
X-29182159Y-20739736D02*
X-29159976Y-20767595D01*
X-29118868Y-20767595D02*
X-29118868Y-20710646D01*
X-29118868Y-20710646D02*
X-29079698Y-20767595D01*
X-29079698Y-20767595D02*
X-29080467Y-20710646D01*
X-29040005Y-20767595D02*
X-29017148Y-20710646D01*
X-29017148Y-20710646D02*
X-28992468Y-20767595D01*
X-29028478Y-20745382D02*
X-29005105Y-20745382D01*
X-28952140Y-20710646D02*
X-28952140Y-20767595D01*
X-28952140Y-20767595D02*
X-28914241Y-20767595D01*
X-28869094Y-20710646D02*
X-28869094Y-20767595D01*
X-28869094Y-20767595D02*
X-28831195Y-20767595D01*
X-28790867Y-20710646D02*
X-28767761Y-20736109D01*
X-28743330Y-20710727D02*
X-28767608Y-20736271D01*
X-28767608Y-20736271D02*
X-28766741Y-20767595D01*
X-28581851Y-20723149D02*
X-28584424Y-20716878D01*
X-28584424Y-20716878D02*
X-28589144Y-20712439D01*
X-28589144Y-20712439D02*
X-28598082Y-20709538D01*
X-28598082Y-20709538D02*
X-28604687Y-20710424D01*
X-28604687Y-20710424D02*
X-28610508Y-20713397D01*
X-28610508Y-20713397D02*
X-28616192Y-20720258D01*
X-28616192Y-20720258D02*
X-28620160Y-20738269D01*
X-28620160Y-20738269D02*
X-28617046Y-20756374D01*
X-28617046Y-20756374D02*
X-28612400Y-20763665D01*
X-28612400Y-20763665D02*
X-28607570Y-20767077D01*
X-28607570Y-20767077D02*
X-28598160Y-20768624D01*
X-28598160Y-20768624D02*
X-28589959Y-20766647D01*
X-28589959Y-20766647D02*
X-28583887Y-20760878D01*
X-28583887Y-20760878D02*
X-28581851Y-20752735D01*
X-28519113Y-20768624D02*
X-28526578Y-20766302D01*
X-28526578Y-20766302D02*
X-28533401Y-20759236D01*
X-28533401Y-20759236D02*
X-28538447Y-20735253D01*
X-28538447Y-20735253D02*
X-28533640Y-20717303D01*
X-28533640Y-20717303D02*
X-28527743Y-20712191D01*
X-28527743Y-20712191D02*
X-28517533Y-20709538D01*
X-28517533Y-20709538D02*
X-28507920Y-20712722D01*
X-28507920Y-20712722D02*
X-28502292Y-20718542D01*
X-28502292Y-20718542D02*
X-28497472Y-20740407D01*
X-28497472Y-20740407D02*
X-28499871Y-20754210D01*
X-28499871Y-20754210D02*
X-28504146Y-20762188D01*
X-28504146Y-20762188D02*
X-28511739Y-20767622D01*
X-28511739Y-20767622D02*
X-28519113Y-20768624D01*
X-28454498Y-20767595D02*
X-28454498Y-20710646D01*
X-28454498Y-20710646D02*
X-28415328Y-20767595D01*
X-28415328Y-20767595D02*
X-28416097Y-20710646D01*
X-28371452Y-20767595D02*
X-28371452Y-20710646D01*
X-28371452Y-20710646D02*
X-28332282Y-20767595D01*
X-28332282Y-20767595D02*
X-28333051Y-20710646D01*
X-28287380Y-20710646D02*
X-28287380Y-20767595D01*
X-28287380Y-20710646D02*
X-28250261Y-20710646D01*
X-28287380Y-20739120D02*
X-28261397Y-20739120D01*
X-28287380Y-20767595D02*
X-28250261Y-20767595D01*
X-28166620Y-20723149D02*
X-28169193Y-20716878D01*
X-28169193Y-20716878D02*
X-28173913Y-20712439D01*
X-28173913Y-20712439D02*
X-28182851Y-20709538D01*
X-28182851Y-20709538D02*
X-28189456Y-20710424D01*
X-28189456Y-20710424D02*
X-28195277Y-20713397D01*
X-28195277Y-20713397D02*
X-28200960Y-20720258D01*
X-28200960Y-20720258D02*
X-28204929Y-20738269D01*
X-28204929Y-20738269D02*
X-28201815Y-20756374D01*
X-28201815Y-20756374D02*
X-28197169Y-20763665D01*
X-28197169Y-20763665D02*
X-28192339Y-20767077D01*
X-28192339Y-20767077D02*
X-28182929Y-20768624D01*
X-28182929Y-20768624D02*
X-28174728Y-20766647D01*
X-28174728Y-20766647D02*
X-28168656Y-20760878D01*
X-28168656Y-20760878D02*
X-28166620Y-20752735D01*
X-28126087Y-20710646D02*
X-28079370Y-20710646D01*
X-28102035Y-20710646D02*
X-28102035Y-20767595D01*
X-28038242Y-20710646D02*
X-28038242Y-20767595D01*
X-28038242Y-20710646D02*
X-28001122Y-20710646D01*
X-28038242Y-20739120D02*
X-28012258Y-20739120D01*
X-28038242Y-20767595D02*
X-28001122Y-20767595D01*
X-27956508Y-20767595D02*
X-27955888Y-20711829D01*
X-27955888Y-20711829D02*
X-27947540Y-20710646D01*
X-27947540Y-20710646D02*
X-27941145Y-20710783D01*
X-27941145Y-20710783D02*
X-27930757Y-20713593D01*
X-27930757Y-20713593D02*
X-27923075Y-20719660D01*
X-27923075Y-20719660D02*
X-27918683Y-20727829D01*
X-27918683Y-20727829D02*
X-27916932Y-20736299D01*
X-27916932Y-20736299D02*
X-27916764Y-20742676D01*
X-27916764Y-20742676D02*
X-27917565Y-20748142D01*
X-27917565Y-20748142D02*
X-27919203Y-20752765D01*
X-27919203Y-20752765D02*
X-27924462Y-20759760D01*
X-27924462Y-20759760D02*
X-27931484Y-20764214D01*
X-27931484Y-20764214D02*
X-27943005Y-20767334D01*
X-27943005Y-20767334D02*
X-27956508Y-20767595D01*
D53*
X-27949710Y019000000D02*
X-28600000Y019000000D01*
D53*
X-28600000Y019300000D02*
X-29400000Y019000000D01*
X-28600000Y018700000D01*
X-28600000Y019300000D01*
D53*
X-29400000Y019300000D02*
X-29400000Y018700000D01*
D53*
X-29400000Y019000000D02*
X-30050290Y019000000D01*
D53*
X-19949710Y019000000D02*
X-20600000Y019000000D01*
D53*
X-20600000Y019300000D02*
X-21400000Y019000000D01*
X-20600000Y018700000D01*
X-20600000Y019300000D01*
D53*
X-21400000Y019300000D02*
X-21400000Y018700000D01*
D53*
X-21400000Y019000000D02*
X-22050290Y019000000D01*
M02*