%TF.GenerationSoftware,tscircuit,circuit-json-to-gerber,0.0.104*%
%TF.CreationDate,2026-09-29T00:12:24.734Z*%
%TF.SameCoordinates,Original*%
%TF.FileFunction,Paste,Top*%
%TF.FilePolarity,Positive*%
%FSLAX46Y46*%
%MOMM*%
G04 Gerber Fmt 4.6, Leading zero omitted, Abs format (unit mm)*
G04 Created by tscircuit (builder) date 2026-09-29T00:12:24.734Z*
G01*
%LPD*%
G75*
G04 APERTURE MACROS START*
%AMHORZPILL*
0 Horizontal pill (stadium) shape macro*
0 Parameters:*
0 $1 = Total width*
0 $2 = Total height*
0 $3 = Circle diameter (equal to height)*
0 $4 = Circle center offset
0 21 = Center Line(Exposure, Width, Height, Center X, Center Y, Rotation)*
0 1 = Circle(Exposure, Diameter, Center X, Center Y, Rotation)*
21,1,$1-$3,$2,0.0,0.0,0.0*
1,1,$3,0.0-$4,0.0*
1,1,$3,$4,0.0*%
%AMVERTPILL*
0 Vertical pill (stadium) shape macro*
0 Parameters:*
0 $1 = Total width*
0 $2 = Total height*
0 $3 = Circle diameter (equal to width)*
0 $4 = Circle center offset
0 21 = Center Line(Exposure, Width, Height, Center X, Center Y, Rotation)*
21,1,$1,$2-$3,0.0,0.0,0.0*
1,1,$3,0.0,0.0-$4*
1,1,$3,0.0,$4*%
%AMROUNDRECT*
0 Rectangle with rounded corners*
0 $1 Corner radius*
0 $2 $3 $4 $5 $6 $7 $8 $9 X,Y Position of each corner*
0 Polygon box body*
4,1,4,$2,$3,$4,$5,$6,$7,$8,$9,$2,$3,0*
0 Circles for rounded corners*
1,1,$1+$1,$2,$3*
1,1,$1+$1,$4,$5*
1,1,$1+$1,$6,$7*
1,1,$1+$1,$8,$9*
0 Rectangles between the rounded corners*
20,1,$1+$1,$2,$3,$4,$5,0*
20,1,$1+$1,$4,$5,$6,$7,0*
20,1,$1+$1,$6,$7,$8,$9,0*
20,1,$1+$1,$8,$9,$2,$3,0*%
G04 APERTURE MACROS END*
G04 aperture START LIST*
%ADD10C,0.150000*%
%ADD11C,0.350012*%
%ADD12C,0.500000*%
%ADD13C,0.187500*%
%ADD14C,0.237500*%
%ADD15C,0.250000*%
%ADD16C,0.200000*%
%ADD17C,0.300000*%
%ADD18C,0.262500*%
%ADD19C,0.275000*%
%ADD20C,0.200000*%
%ADD21C,0.225000*%
%ADD22C,0.287500*%
%ADD23C,0.400000*%
%ADD24C,0.212500*%
%ADD25C,0.200337*%
%ADD26C,0.325000*%
%ADD27C,0.312500*%
%ADD28C,0.231335*%
%ADD29C,0.208291*%
%ADD30C,0.208291*%
%ADD31C,0.162500*%
%ADD32C,0.206349*%
%ADD33C,0.300000*%
%ADD34C,0.350000*%
%ADD35C,0.200225*%
%ADD36C,0.218470*%
%ADD37C,0.362500*%
%ADD38C,0.200033*%
%ADD39C,0.218279*%
%ADD40C,0.337500*%
%ADD41C,0.200080*%
%ADD42C,0.175000*%
%ADD43C,0.425000*%
%ADD44C,0.450000*%
%ADD45C,0.375000*%
%ADD46C,0.437500*%
%ADD47C,0.280010*%
%ADD48C,0.350000*%
%ADD49C,0.475000*%
%ADD50R,0.664997X0.280010*%
%ADD51R,0.465498X0.196007*%
%ADD52R,1.199998X1.999996*%
%ADD53R,0.839998X1.399997*%
%ADD54C,0.100000*%
%ADD55C,0.090000*%
%ADD56R,1.099998X0.599999*%
%ADD57R,0.769998X0.419999*%
%ADD58R,0.999998X0.650011*%
%ADD59R,0.699999X0.455008*%
%ADD60R,3.499993X1.599997*%
%ADD61R,2.449995X1.119998*%
%ADD62C,0.072000*%
%ADD63R,3.099994X3.099994*%
%ADD64R,2.169996X2.169996*%
%ADD65R,0.850011X0.200000*%
%ADD66R,0.595008X0.140000*%
%ADD67R,0.200000X0.850011*%
%ADD68R,0.140000X0.595008*%
%ADD69C,0.629996*%
%ADD70R,0.622300X1.104900*%
%ADD71R,0.435610X0.773430*%
%ADD72R,0.532003X1.072007*%
%ADD73R,0.372402X0.750405*%
%ADD74R,0.850011X0.350012*%
%ADD75R,0.595008X0.245008*%
%ADD76VERTPILL,1.199998X1.799996X1.199998X0.299999*%
%ADD77HORZPILL,1.799996X1.199998X1.199998X0.299999*%
%ADD78VERTPILL,1.199998X1.999996X1.199998X0.399999*%
%ADD79HORZPILL,1.999996X1.199998X1.199998X0.399999*%
%ADD80R,1.299997X0.299999*%
%ADD81R,0.909998X0.210000*%
%ADD82R,1.406677X3.499206*%
%ADD83R,0.984674X2.449444*%
%ADD84R,1.199998X1.399997*%
%ADD85R,0.839998X0.979998*%
%ADD86R,0.999998X0.750011*%
%ADD87R,0.699999X0.525008*%
%ADD88R,0.999998X1.399540*%
%ADD89R,0.699999X0.979678*%
%ADD90C,2.000000*%
%ADD91C,0.150000*%
%ADD92R,0.806475X0.864006*%
%ADD93R,0.564533X0.604804*%
%ADD94R,0.864006X0.806475*%
%ADD95R,0.604804X0.564533*%
%ADD96R,0.499999X0.540004*%
%ADD97R,0.349999X0.378003*%
%ADD98R,1.410005X1.350010*%
%ADD99R,0.987003X0.945007*%
%ADD100R,0.540004X0.499999*%
%ADD101R,0.378003X0.349999*%
%ADD102R,0.799998X0.899998*%
%ADD103R,0.559999X0.629999*%
%ADD104R,0.899998X0.799998*%
%ADD105R,0.629999X0.559999*%
%ADD106C,1.400000*%
%ADD107C,0.058500*%
%ADD108C,0.108000*%
%ADD109C,0.600000*%
%TD*%
G04 aperture END LIST*
D51*
X-04157478Y-19000002D03*
D51*
X-04157478Y-19500128D03*
D51*
X-04157478Y-20000000D03*
D51*
X-04157478Y-20500126D03*
D51*
X-04157478Y-20999998D03*
D51*
X-01842522Y-19000002D03*
D51*
X-01842522Y-19500128D03*
D51*
X-01842522Y-20000000D03*
D51*
X-01842522Y-20500126D03*
D51*
X-01842522Y-20999998D03*
D53*
X-03000000Y-20000000D03*
D57*
X-16649990Y-22949960D03*
D57*
X-16649990Y-22000000D03*
D57*
X-16649990Y-21050040D03*
D57*
X-19350010Y-21050040D03*
D57*
X-19350010Y-22000000D03*
D57*
X-19350010Y-22949960D03*
D59*
X001999998Y-11949960D03*
D59*
X001999998Y-10050040D03*
D59*
X000000002Y-11000000D03*
D61*
X-09000000Y-18400054D03*
D61*
X-09000000Y-21599946D03*
D64*
X-10000127Y000000000D03*
D66*
X-13425063Y-02599944D03*
D66*
X-13425063Y-02200148D03*
D66*
X-13425063Y-01800098D03*
D66*
X-13425063Y-01400048D03*
D66*
X-13425063Y-00999998D03*
D66*
X-13425063Y-00599948D03*
D66*
X-13425063Y-00200152D03*
D66*
X-13425063Y000199898D03*
D66*
X-13425063Y000599948D03*
D66*
X-13425063Y000999998D03*
D66*
X-13425063Y001400048D03*
D66*
X-13425063Y001799844D03*
D66*
X-13425063Y002199894D03*
D66*
X-13425063Y002599944D03*
D68*
X-12600071Y003424936D03*
D68*
X-12200021Y003424936D03*
D68*
X-11799971Y003424936D03*
D68*
X-11399921Y003424936D03*
D68*
X-11000125Y003424936D03*
D68*
X-10600075Y003424936D03*
D68*
X-10200025Y003424936D03*
D68*
X-09799975Y003424936D03*
D68*
X-09399925Y003424936D03*
D68*
X-09000129Y003424936D03*
D68*
X-08600079Y003424936D03*
D68*
X-08200029Y003424936D03*
D68*
X-07799979Y003424936D03*
D68*
X-07399929Y003424936D03*
D66*
X-06574937Y002599944D03*
D66*
X-06574937Y002199894D03*
D66*
X-06574937Y001799844D03*
D66*
X-06574937Y001400048D03*
D66*
X-06574937Y000999998D03*
D66*
X-06574937Y000599948D03*
D66*
X-06574937Y000199898D03*
D66*
X-06574937Y-00200152D03*
D66*
X-06574937Y-00599948D03*
D66*
X-06574937Y-00999998D03*
D66*
X-06574937Y-01400048D03*
D66*
X-06574937Y-01800098D03*
D66*
X-06574937Y-02200148D03*
D66*
X-06574937Y-02599944D03*
D68*
X-07399929Y-03424936D03*
D68*
X-07799979Y-03424936D03*
D68*
X-08200029Y-03424936D03*
D68*
X-08600079Y-03424936D03*
D68*
X-09000129Y-03424936D03*
D68*
X-09399925Y-03424936D03*
D68*
X-09799975Y-03424936D03*
D68*
X-10200025Y-03424936D03*
D68*
X-10600075Y-03424936D03*
D68*
X-11000125Y-03424936D03*
D68*
X-11399921Y-03424936D03*
D68*
X-11799971Y-03424936D03*
D68*
X-12200021Y-03424936D03*
D68*
X-12600071Y-03424936D03*
D71*
X-26050294Y-08700028D03*
D71*
X-27949706Y-08700028D03*
D71*
X-27949706Y-11299972D03*
D71*
X-27000508Y-11299972D03*
D71*
X-26050294Y-11299972D03*
D73*
X-31949960Y-01149096D03*
D73*
X-31000000Y-01149096D03*
D73*
X-30050040Y-01149096D03*
D73*
X-30050040Y001149096D03*
D73*
X-31000000Y001149096D03*
D73*
X-31949960Y001149096D03*
D75*
X-32899926Y-04649986D03*
D75*
X-32899926Y-04000000D03*
D75*
X-32899926Y-03350014D03*
D75*
X-35100074Y-03350014D03*
D75*
X-35100074Y-04000000D03*
D75*
X-35100074Y-04649986D03*
D73*
X016050040Y-16149096D03*
D73*
X017000000Y-16149096D03*
D73*
X017949960Y-16149096D03*
D73*
X017949960Y-13850904D03*
D73*
X017000000Y-13850904D03*
D73*
X016050040Y-13850904D03*
D77*
X-43274131Y-04325112D03*
D79*
X-39094307Y-04325112D03*
D79*
X-39094307Y004325112D03*
D77*
X-43274131Y004325112D03*
D81*
X-38325957Y001750060D03*
D81*
X-38325957Y001249934D03*
D81*
X-38325957Y000750062D03*
D81*
X-38325957Y000249936D03*
D81*
X-38325957Y-00249936D03*
D81*
X-38325957Y-00750062D03*
D81*
X-38325957Y-01249680D03*
D81*
X-38325957Y-01750060D03*
D83*
X-33146562Y-11000000D03*
D83*
X-36853438Y-11000000D03*
D85*
X-02049989Y-04100074D03*
D85*
X-02049989Y-01899926D03*
D85*
X-03750011Y-01899926D03*
D85*
X-03750011Y-04100074D03*
D87*
X-31999994Y015849882D03*
D87*
X-26000006Y015849882D03*
D87*
X-31999994Y012150118D03*
D87*
X-26000006Y012150118D03*
D87*
X-31999994Y-17150118D03*
D87*
X-26000006Y-17150118D03*
D87*
X-31999994Y-20849882D03*
D87*
X-26000006Y-20849882D03*
D89*
X-30050290Y019000000D03*
D89*
X-27949710Y019000000D03*
D89*
X-22050290Y019000000D03*
D89*
X-19949710Y019000000D03*
D59*
X015999998Y007050040D03*
D59*
X015999998Y008949960D03*
D59*
X014000002Y008000000D03*
D59*
X015999998Y000050040D03*
D59*
X015999998Y001949960D03*
D59*
X014000002Y001000000D03*
D59*
X003999998Y007050040D03*
D59*
X003999998Y008949960D03*
D59*
X002000002Y008000000D03*
D59*
X015999998Y-06949960D03*
D59*
X015999998Y-05050040D03*
D59*
X014000002Y-06000000D03*
D59*
X021999998Y-06949960D03*
D59*
X021999998Y-05050040D03*
D59*
X020000002Y-06000000D03*
D90*
X007750000Y017000000D03*
D90*
X004250000Y017000000D03*
D90*
X019750000Y017000000D03*
D90*
X016250000Y017000000D03*
D90*
X031750000Y020000000D03*
D90*
X028250000Y020000000D03*
D90*
X009250000Y-25000000D03*
D90*
X012750000Y-25000000D03*
D90*
X021250000Y-25000000D03*
D90*
X024750000Y-25000000D03*
D93*
X-33246636Y006000000D03*
D93*
X-34753364Y006000000D03*
D93*
X-35246636Y-07500000D03*
D93*
X-36753364Y-07500000D03*
D95*
X-18000000Y001753364D03*
D95*
X-18000000Y000246636D03*
D95*
X-18000000Y005753364D03*
D95*
X-18000000Y004246636D03*
D93*
X-19246636Y012000000D03*
D93*
X-20753364Y012000000D03*
D93*
X-25753364Y010000000D03*
D93*
X-24246636Y010000000D03*
D95*
X-01500000Y001753364D03*
D95*
X-01500000Y000246636D03*
D93*
X001246636Y-07000000D03*
D93*
X002753364Y-07000000D03*
D93*
X-25753364Y023000000D03*
D93*
X-24246636Y023000000D03*
D93*
X-17753364Y019000000D03*
D93*
X-16246636Y019000000D03*
D93*
X008753364Y008000000D03*
D93*
X007246636Y008000000D03*
D93*
X012753364Y005000000D03*
D93*
X011246636Y005000000D03*
D93*
X008753364Y001000000D03*
D93*
X007246636Y001000000D03*
D93*
X012753364Y-02000000D03*
D93*
X011246636Y-02000000D03*
D93*
X-00246636Y008000000D03*
D93*
X-01753364Y008000000D03*
D93*
X003753364Y004000000D03*
D93*
X002246636Y004000000D03*
D93*
X011253364Y-06000000D03*
D93*
X009746636Y-06000000D03*
D93*
X020753364Y-02000000D03*
D93*
X019246636Y-02000000D03*
D93*
X026253364Y-06000000D03*
D93*
X024746636Y-06000000D03*
D93*
X010246636Y-13000000D03*
D93*
X011753364Y-13000000D03*
D93*
X007753364Y-16000000D03*
D93*
X006246636Y-16000000D03*
D93*
X022753364Y-13000000D03*
D93*
X021246636Y-13000000D03*
D93*
X026753364Y-16000000D03*
D93*
X025246636Y-16000000D03*
D93*
X-18246636Y010000000D03*
D93*
X-19753364Y010000000D03*
D93*
X-14246636Y010000000D03*
D93*
X-15753364Y010000000D03*
D97*
X-34579884Y010000000D03*
D97*
X-35420116Y010000000D03*
D97*
X-27579884Y-07000000D03*
D97*
X-28420116Y-07000000D03*
D99*
X-21800002Y-10000000D03*
D99*
X-23799998Y-10000000D03*
D101*
X-13000000Y006420116D03*
D101*
X-13000000Y005579884D03*
D101*
X-15000000Y006420116D03*
D101*
X-15000000Y005579884D03*
D101*
X-10800000Y-06079884D03*
D101*
X-10800000Y-06920116D03*
D101*
X-08500000Y-05979884D03*
D101*
X-08500000Y-06820116D03*
D101*
X-03600000Y002420116D03*
D101*
X-03600000Y001579884D03*
D101*
X-04400000Y004920116D03*
D101*
X-04400000Y004079884D03*
D101*
X-07300000Y005920116D03*
D101*
X-07300000Y005079884D03*
D101*
X-08900000Y005920116D03*
D101*
X-08900000Y005079884D03*
D101*
X-15200000Y002920116D03*
D101*
X-15200000Y002079884D03*
D101*
X-15600000Y-00579884D03*
D101*
X-15600000Y-01420116D03*
D97*
X-28920116Y-04500000D03*
D97*
X-28079884Y-04500000D03*
D101*
X-02000000Y-06779884D03*
D101*
X-02000000Y-07620116D03*
D101*
X000300000Y-01579884D03*
D101*
X000300000Y-02420116D03*
D103*
X011700024Y-16000000D03*
D103*
X010299976Y-16000000D03*
D103*
X021299976Y-16000000D03*
D103*
X022700024Y-16000000D03*
D105*
X-11000000Y006700024D03*
D105*
X-11000000Y005299976D03*
D93*
X001753364Y-23000000D03*
D93*
X000246636Y-23000000D03*
D93*
X001753364Y-20000000D03*
D93*
X000246636Y-20000000D03*
D93*
X003753364Y-17000000D03*
D93*
X002246636Y-17000000D03*
D93*
X-17246636Y-26000000D03*
D93*
X-18753364Y-26000000D03*
D93*
X001753364Y-26000000D03*
D93*
X000246636Y-26000000D03*
D93*
X-02246636Y-12000000D03*
D93*
X-03753364Y-12000000D03*
D93*
X-21246636Y-22000000D03*
D93*
X-22753364Y-22000000D03*
D93*
X-21246636Y-25000000D03*
D93*
X-22753364Y-25000000D03*
D99*
X-04000002Y-24000000D03*
D99*
X-05999998Y-24000000D03*
D99*
X-04000002Y-16000000D03*
D99*
X-05999998Y-16000000D03*
D99*
X-11499998Y-12500000D03*
D99*
X-09500002Y-12500000D03*
D97*
X000420116Y-15000000D03*
D97*
X-00420116Y-15000000D03*
D97*
X004420116Y-11000000D03*
D97*
X003579884Y-11000000D03*
D97*
X-14079884Y-23000000D03*
D97*
X-14920116Y-23000000D03*
M02*