%TF.GenerationSoftware,tscircuit,circuit-json-to-gerber,0.0.104*%
%TF.CreationDate,2026-09-29T10:55:38.131Z*%
%TF.SameCoordinates,Original*%
%TF.FileFunction,Copper,L2,Bot*%
%TF.FilePolarity,Positive*%
%FSLAX46Y46*%
%MOMM*%
G04 Gerber Fmt 4.6, Leading zero omitted, Abs format (unit mm)*
G04 Created by tscircuit (builder) date 2026-09-29T10:55:38.131Z*
G01*
%LPD*%
G75*
G04 APERTURE MACROS START*
%AMHORZPILL*
0 Horizontal pill (stadium) shape macro*
0 Parameters:*
0 $1 = Total width*
0 $2 = Total height*
0 $3 = Circle diameter (equal to height)*
0 $4 = Circle center offset
0 21 = Center Line(Exposure, Width, Height, Center X, Center Y, Rotation)*
0 1 = Circle(Exposure, Diameter, Center X, Center Y, Rotation)*
21,1,$1-$3,$2,0.0,0.0,0.0*
1,1,$3,0.0-$4,0.0*
1,1,$3,$4,0.0*%
%AMVERTPILL*
0 Vertical pill (stadium) shape macro*
0 Parameters:*
0 $1 = Total width*
0 $2 = Total height*
0 $3 = Circle diameter (equal to width)*
0 $4 = Circle center offset
0 21 = Center Line(Exposure, Width, Height, Center X, Center Y, Rotation)*
21,1,$1,$2-$3,0.0,0.0,0.0*
1,1,$3,0.0,0.0-$4*
1,1,$3,0.0,$4*%
%AMROUNDRECT*
0 Rectangle with rounded corners*
0 $1 Corner radius*
0 $2 $3 $4 $5 $6 $7 $8 $9 X,Y Position of each corner*
0 Polygon box body*
4,1,4,$2,$3,$4,$5,$6,$7,$8,$9,$2,$3,0*
0 Circles for rounded corners*
1,1,$1+$1,$2,$3*
1,1,$1+$1,$4,$5*
1,1,$1+$1,$6,$7*
1,1,$1+$1,$8,$9*
0 Rectangles between the rounded corners*
20,1,$1+$1,$2,$3,$4,$5,0*
20,1,$1+$1,$4,$5,$6,$7,0*
20,1,$1+$1,$6,$7,$8,$9,0*
20,1,$1+$1,$8,$9,$2,$3,0*%
G04 APERTURE MACROS END*
G04 aperture START LIST*
%ADD10C,0.150000*%
%ADD11C,0.300000*%
%ADD12C,0.400000*%
%ADD13C,0.262500*%
%ADD14C,0.162500*%
%ADD15C,0.175000*%
%ADD16C,0.275000*%
%ADD17C,0.187500*%
%ADD18C,0.200000*%
%ADD19C,0.312500*%
%ADD20C,0.500000*%
%ADD21C,0.150000*%
%ADD22C,0.162000*%
%ADD23C,0.599999*%
%ADD24VERTPILL,1.199998X1.799996X1.199998X0.299999*%
%ADD25HORZPILL,1.799996X1.199998X1.199998X0.299999*%
%ADD26VERTPILL,1.199998X1.999996X1.199998X0.399999*%
%ADD27HORZPILL,1.999996X1.199998X1.199998X0.399999*%
%ADD28C,2.000000*%
%ADD29C,3.200000*%
%ADD30C,0.600000*%
%ADD31C,0.001000*%
%TD*%
G04 aperture END LIST*
D31*
G36*
X044500000Y029500000D02*
G01*
X-44500000Y029500000D01*
G01*
X-44500000Y-29500000D01*
G01*
X044500000Y-29500000D01*
G01*
X044500000Y029500000D01*
G37*
%LPC*%
D31*
G36*
X-40000000Y020970000D02*
G01*
X-39213786Y021047435D01*
G01*
X-38457786Y021276765D01*
G01*
X-37761052Y021649177D01*
G01*
X-37150360Y022150360D01*
G01*
X-36649177Y022761052D01*
G01*
X-36276765Y023457786D01*
G01*
X-36047435Y024213786D01*
G01*
X-35970000Y025000000D01*
G01*
X-36047435Y025786214D01*
G01*
X-36276765Y026542214D01*
G01*
X-36649177Y027238948D01*
G01*
X-37150360Y027849640D01*
G01*
X-37761052Y028350823D01*
G01*
X-38457786Y028723235D01*
G01*
X-39213786Y028952565D01*
G01*
X-40000000Y029030000D01*
G01*
X-40786214Y028952565D01*
G01*
X-41542214Y028723235D01*
G01*
X-42238948Y028350823D01*
G01*
X-42849640Y027849640D01*
G01*
X-43350823Y027238948D01*
G01*
X-43723235Y026542214D01*
G01*
X-43952565Y025786214D01*
G01*
X-44030000Y025000000D01*
G01*
X-43952565Y024213786D01*
G01*
X-43723235Y023457786D01*
G01*
X-43350823Y022761052D01*
G01*
X-42849640Y022150360D01*
G01*
X-42238948Y021649177D01*
G01*
X-41542214Y021276765D01*
G01*
X-40786214Y021047435D01*
G01*
X-40000000Y020970000D01*
G37*
D31*
G36*
X040000000Y020970000D02*
G01*
X040786214Y021047435D01*
G01*
X041542214Y021276765D01*
G01*
X042238948Y021649177D01*
G01*
X042849640Y022150360D01*
G01*
X043350823Y022761052D01*
G01*
X043723235Y023457786D01*
G01*
X043952565Y024213786D01*
G01*
X044030000Y025000000D01*
G01*
X043952565Y025786214D01*
G01*
X043723235Y026542214D01*
G01*
X043350823Y027238948D01*
G01*
X042849640Y027849640D01*
G01*
X042238948Y028350823D01*
G01*
X041542214Y028723235D01*
G01*
X040786214Y028952565D01*
G01*
X040000000Y029030000D01*
G01*
X039213786Y028952565D01*
G01*
X038457786Y028723235D01*
G01*
X037761052Y028350823D01*
G01*
X037150360Y027849640D01*
G01*
X036649177Y027238948D01*
G01*
X036276765Y026542214D01*
G01*
X036047435Y025786214D01*
G01*
X035970000Y025000000D01*
G01*
X036047435Y024213786D01*
G01*
X036276765Y023457786D01*
G01*
X036649177Y022761052D01*
G01*
X037150360Y022150360D01*
G01*
X037761052Y021649177D01*
G01*
X038457786Y021276765D01*
G01*
X039213786Y021047435D01*
G01*
X040000000Y020970000D01*
G37*
D31*
G36*
X028250000Y018850000D02*
G01*
X028474354Y018872097D01*
G01*
X028690086Y018937539D01*
G01*
X028888906Y019043810D01*
G01*
X029063173Y019186827D01*
G01*
X029206190Y019361094D01*
G01*
X029312461Y019559914D01*
G01*
X029377903Y019775646D01*
G01*
X029400000Y020000000D01*
G01*
X029377903Y020224354D01*
G01*
X029312461Y020440086D01*
G01*
X029206190Y020638906D01*
G01*
X029063173Y020813173D01*
G01*
X028888906Y020956190D01*
G01*
X028690086Y021062461D01*
G01*
X028474354Y021127903D01*
G01*
X028250000Y021150000D01*
G01*
X028025646Y021127903D01*
G01*
X027809914Y021062461D01*
G01*
X027611094Y020956190D01*
G01*
X027436827Y020813173D01*
G01*
X027293810Y020638906D01*
G01*
X027187539Y020440086D01*
G01*
X027122097Y020224354D01*
G01*
X027100000Y020000000D01*
G01*
X027122097Y019775646D01*
G01*
X027187539Y019559914D01*
G01*
X027293810Y019361094D01*
G01*
X027436827Y019186827D01*
G01*
X027611094Y019043810D01*
G01*
X027809914Y018937539D01*
G01*
X028025646Y018872097D01*
G01*
X028250000Y018850000D01*
G37*
D31*
G36*
X019750000Y015850000D02*
G01*
X019974354Y015872097D01*
G01*
X020190086Y015937539D01*
G01*
X020388906Y016043810D01*
G01*
X020563173Y016186827D01*
G01*
X020706190Y016361094D01*
G01*
X020812461Y016559914D01*
G01*
X020824621Y016600000D01*
G01*
X028750000Y016600000D01*
G01*
X028828036Y016607686D01*
G01*
X028903073Y016630448D01*
G01*
X028972228Y016667412D01*
G01*
X029032843Y016717157D01*
G01*
X031272971Y018957285D01*
G01*
X031309914Y018937539D01*
G01*
X031525646Y018872097D01*
G01*
X031750000Y018850000D01*
G01*
X031974354Y018872097D01*
G01*
X032190086Y018937539D01*
G01*
X032388906Y019043810D01*
G01*
X032563173Y019186827D01*
G01*
X032706190Y019361094D01*
G01*
X032812461Y019559914D01*
G01*
X032877903Y019775646D01*
G01*
X032900000Y020000000D01*
G01*
X032877903Y020224354D01*
G01*
X032812461Y020440086D01*
G01*
X032706190Y020638906D01*
G01*
X032563173Y020813173D01*
G01*
X032388906Y020956190D01*
G01*
X032190086Y021062461D01*
G01*
X031974354Y021127903D01*
G01*
X031750000Y021150000D01*
G01*
X031525646Y021127903D01*
G01*
X031309914Y021062461D01*
G01*
X031111094Y020956190D01*
G01*
X030936827Y020813173D01*
G01*
X030793810Y020638906D01*
G01*
X030687539Y020440086D01*
G01*
X030622097Y020224354D01*
G01*
X030600000Y020000000D01*
G01*
X030622097Y019775646D01*
G01*
X030687539Y019559914D01*
G01*
X030707285Y019522971D01*
G01*
X028584314Y017400000D01*
G01*
X020824621Y017400000D01*
G01*
X020812461Y017440086D01*
G01*
X020706190Y017638906D01*
G01*
X020563173Y017813173D01*
G01*
X020388906Y017956190D01*
G01*
X020190086Y018062461D01*
G01*
X019974354Y018127903D01*
G01*
X019750000Y018150000D01*
G01*
X019525646Y018127903D01*
G01*
X019309914Y018062461D01*
G01*
X019111094Y017956190D01*
G01*
X018936827Y017813173D01*
G01*
X018793810Y017638906D01*
G01*
X018687539Y017440086D01*
G01*
X018622097Y017224354D01*
G01*
X018600000Y017000000D01*
G01*
X018622097Y016775646D01*
G01*
X018687539Y016559914D01*
G01*
X018793810Y016361094D01*
G01*
X018936827Y016186827D01*
G01*
X019111094Y016043810D01*
G01*
X019309914Y015937539D01*
G01*
X019525646Y015872097D01*
G01*
X019750000Y015850000D01*
G37*
D31*
G36*
X-10110398Y004353806D02*
G01*
X-10022607Y004362453D01*
G01*
X-09938190Y004388060D01*
G01*
X-09860391Y004429645D01*
G01*
X-09792199Y004485608D01*
G01*
X-09736236Y004553799D01*
G01*
X-09694652Y004631598D01*
G01*
X-09669044Y004716015D01*
G01*
X-09660398Y004803806D01*
G01*
X-09669044Y004891597D01*
G01*
X-09694652Y004976013D01*
G01*
X-09736236Y005053812D01*
G01*
X-09792199Y005122004D01*
G01*
X-09860391Y005177967D01*
G01*
X-09897783Y005197954D01*
G01*
X-10165931Y013654671D01*
G01*
X-10166518Y013654652D01*
G01*
X-10170141Y013691435D01*
G01*
X-10182945Y013733644D01*
G01*
X-10203737Y013772543D01*
G01*
X-10229077Y013803419D01*
G01*
X-10228810Y013803676D01*
G01*
X-13881504Y017593713D01*
G01*
X-13871647Y017626209D01*
G01*
X-13863000Y017714000D01*
G01*
X-13871647Y017801791D01*
G01*
X-13897254Y017886208D01*
G01*
X-13938839Y017964007D01*
G01*
X-13994802Y018032198D01*
G01*
X-14062993Y018088161D01*
G01*
X-14140792Y018129746D01*
G01*
X-14225209Y018155353D01*
G01*
X-14313000Y018164000D01*
G01*
X-14400791Y018155353D01*
G01*
X-14485208Y018129746D01*
G01*
X-14563007Y018088161D01*
G01*
X-14631198Y018032198D01*
G01*
X-14687161Y017964007D01*
G01*
X-14728746Y017886208D01*
G01*
X-14754353Y017801791D01*
G01*
X-14763000Y017714000D01*
G01*
X-14754353Y017626209D01*
G01*
X-14728746Y017541792D01*
G01*
X-14687161Y017463993D01*
G01*
X-14631198Y017395802D01*
G01*
X-14563007Y017339839D01*
G01*
X-14485208Y017298254D01*
G01*
X-14400791Y017272647D01*
G01*
X-14313000Y017264000D01*
G01*
X-14225209Y017272647D01*
G01*
X-14203415Y017279258D01*
G01*
X-10612959Y013553798D01*
G01*
X-10347591Y005184816D01*
G01*
X-10360404Y005177967D01*
G01*
X-10428596Y005122004D01*
G01*
X-10484559Y005053812D01*
G01*
X-10526143Y004976013D01*
G01*
X-10551751Y004891597D01*
G01*
X-10560398Y004803806D01*
G01*
X-10551751Y004716015D01*
G01*
X-10526143Y004631598D01*
G01*
X-10484559Y004553799D01*
G01*
X-10428596Y004485608D01*
G01*
X-10360404Y004429645D01*
G01*
X-10282605Y004388060D01*
G01*
X-10198188Y004362453D01*
G01*
X-10110398Y004353806D01*
G37*
D31*
G36*
X004250000Y015850000D02*
G01*
X004474354Y015872097D01*
G01*
X004690086Y015937539D01*
G01*
X004888906Y016043810D01*
G01*
X005063173Y016186827D01*
G01*
X005206190Y016361094D01*
G01*
X005312461Y016559914D01*
G01*
X005377903Y016775646D01*
G01*
X005400000Y017000000D01*
G01*
X005377903Y017224354D01*
G01*
X005312461Y017440086D01*
G01*
X005206190Y017638906D01*
G01*
X005063173Y017813173D01*
G01*
X004888906Y017956190D01*
G01*
X004690086Y018062461D01*
G01*
X004474354Y018127903D01*
G01*
X004250000Y018150000D01*
G01*
X004025646Y018127903D01*
G01*
X003809914Y018062461D01*
G01*
X003611094Y017956190D01*
G01*
X003436827Y017813173D01*
G01*
X003293810Y017638906D01*
G01*
X003187539Y017440086D01*
G01*
X003122097Y017224354D01*
G01*
X003100000Y017000000D01*
G01*
X003122097Y016775646D01*
G01*
X003187539Y016559914D01*
G01*
X003293810Y016361094D01*
G01*
X003436827Y016186827D01*
G01*
X003611094Y016043810D01*
G01*
X003809914Y015937539D01*
G01*
X004025646Y015872097D01*
G01*
X004250000Y015850000D01*
G37*
D31*
G36*
X010000000Y-03050000D02*
G01*
X010087791Y-03041353D01*
G01*
X010172208Y-03015746D01*
G01*
X010250007Y-02974161D01*
G01*
X010318198Y-02918198D01*
G01*
X010374161Y-02850007D01*
G01*
X010415746Y-02772208D01*
G01*
X010441353Y-02687791D01*
G01*
X010450000Y-02600000D01*
G01*
X010441353Y-02512209D01*
G01*
X010415746Y-02427792D01*
G01*
X010374161Y-02349993D01*
G01*
X010318198Y-02281802D01*
G01*
X010250007Y-02225839D01*
G01*
X010174785Y-02185632D01*
G01*
X009956194Y-01967041D01*
G01*
X009635636Y-01646482D01*
G01*
X009315077Y-01325924D01*
G01*
X008994519Y-01005365D01*
G01*
X008673960Y-00684806D01*
G01*
X008353401Y-00364248D01*
G01*
X008150000Y-00160846D01*
G01*
X008150000Y000168512D01*
G01*
X008150000Y000663556D01*
G01*
X008150000Y001158599D01*
G01*
X008150000Y001653643D01*
G01*
X008150000Y002148687D01*
G01*
X008150000Y002643731D01*
G01*
X008150000Y003138775D01*
G01*
X008150000Y003633818D01*
G01*
X008150000Y004128862D01*
G01*
X008150000Y004623906D01*
G01*
X008150000Y005118950D01*
G01*
X008150000Y005613993D01*
G01*
X008150000Y006109037D01*
G01*
X008150000Y006604081D01*
G01*
X008150000Y007099125D01*
G01*
X008150000Y007594168D01*
G01*
X008150000Y008089212D01*
G01*
X008150000Y008584256D01*
G01*
X008150000Y009079300D01*
G01*
X008150000Y009574344D01*
G01*
X008150000Y010069387D01*
G01*
X008150000Y010564431D01*
G01*
X008150000Y011059475D01*
G01*
X008150000Y011554519D01*
G01*
X008150000Y012049562D01*
G01*
X008150000Y012544606D01*
G01*
X008150000Y013039650D01*
G01*
X008150000Y013534694D01*
G01*
X008150000Y014029737D01*
G01*
X008150000Y014524781D01*
G01*
X008150000Y015019825D01*
G01*
X008150000Y015514869D01*
G01*
X008150000Y015925379D01*
G01*
X008190086Y015937539D01*
G01*
X008388906Y016043810D01*
G01*
X008563173Y016186827D01*
G01*
X008706190Y016361094D01*
G01*
X008812461Y016559914D01*
G01*
X008877903Y016775646D01*
G01*
X008900000Y017000000D01*
G01*
X008877903Y017224354D01*
G01*
X008812461Y017440086D01*
G01*
X008706190Y017638906D01*
G01*
X008563173Y017813173D01*
G01*
X008388906Y017956190D01*
G01*
X008190086Y018062461D01*
G01*
X007974354Y018127903D01*
G01*
X007750000Y018150000D01*
G01*
X007525646Y018127903D01*
G01*
X007309914Y018062461D01*
G01*
X007111094Y017956190D01*
G01*
X006936827Y017813173D01*
G01*
X006793810Y017638906D01*
G01*
X006687539Y017440086D01*
G01*
X006622097Y017224354D01*
G01*
X006600000Y017000000D01*
G01*
X006622097Y016775646D01*
G01*
X006687539Y016559914D01*
G01*
X006793810Y016361094D01*
G01*
X006936827Y016186827D01*
G01*
X007111094Y016043810D01*
G01*
X007309914Y015937539D01*
G01*
X007350000Y015925379D01*
G01*
X007350000Y015514869D01*
G01*
X007350000Y015019825D01*
G01*
X007350000Y014524781D01*
G01*
X007350000Y014029737D01*
G01*
X007350000Y013534694D01*
G01*
X007350000Y013039650D01*
G01*
X007350000Y012544606D01*
G01*
X007350000Y012049562D01*
G01*
X007350000Y011554519D01*
G01*
X007350000Y011059475D01*
G01*
X007350000Y010564431D01*
G01*
X007350000Y010069387D01*
G01*
X007350000Y009574344D01*
G01*
X007350000Y009079300D01*
G01*
X007350000Y008584256D01*
G01*
X007350000Y008089212D01*
G01*
X007350000Y007594168D01*
G01*
X007350000Y007099125D01*
G01*
X007350000Y006604081D01*
G01*
X007350000Y006109037D01*
G01*
X007350000Y005613993D01*
G01*
X007350000Y005118950D01*
G01*
X007350000Y004623906D01*
G01*
X007350000Y004128862D01*
G01*
X007350000Y003633818D01*
G01*
X007350000Y003138775D01*
G01*
X007350000Y002643731D01*
G01*
X007350000Y002148687D01*
G01*
X007350000Y001653643D01*
G01*
X007350000Y001158599D01*
G01*
X007350000Y000663556D01*
G01*
X007350000Y000168512D01*
G01*
X007350000Y-00326532D01*
G01*
X007357686Y-00404568D01*
G01*
X007380448Y-00479605D01*
G01*
X007417412Y-00548760D01*
G01*
X007467157Y-00609375D01*
G01*
X007787716Y-00929933D01*
G01*
X008108275Y-01250492D01*
G01*
X008428833Y-01571050D01*
G01*
X008749392Y-01891609D01*
G01*
X009069950Y-02212168D01*
G01*
X009390509Y-02532726D01*
G01*
X009564339Y-02706556D01*
G01*
X009584254Y-02772208D01*
G01*
X009625839Y-02850007D01*
G01*
X009681802Y-02918198D01*
G01*
X009749993Y-02974161D01*
G01*
X009827792Y-03015746D01*
G01*
X009912209Y-03041353D01*
G01*
X010000000Y-03050000D01*
G37*
D31*
G36*
X016250000Y015850000D02*
G01*
X016474354Y015872097D01*
G01*
X016690086Y015937539D01*
G01*
X016888906Y016043810D01*
G01*
X017063173Y016186827D01*
G01*
X017206190Y016361094D01*
G01*
X017312461Y016559914D01*
G01*
X017377903Y016775646D01*
G01*
X017400000Y017000000D01*
G01*
X017377903Y017224354D01*
G01*
X017312461Y017440086D01*
G01*
X017206190Y017638906D01*
G01*
X017063173Y017813173D01*
G01*
X016888906Y017956190D01*
G01*
X016690086Y018062461D01*
G01*
X016474354Y018127903D01*
G01*
X016250000Y018150000D01*
G01*
X016025646Y018127903D01*
G01*
X015809914Y018062461D01*
G01*
X015611094Y017956190D01*
G01*
X015436827Y017813173D01*
G01*
X015293810Y017638906D01*
G01*
X015187539Y017440086D01*
G01*
X015122097Y017224354D01*
G01*
X015100000Y017000000D01*
G01*
X015122097Y016775646D01*
G01*
X015187539Y016559914D01*
G01*
X015293810Y016361094D01*
G01*
X015436827Y016186827D01*
G01*
X015611094Y016043810D01*
G01*
X015809914Y015937539D01*
G01*
X016025646Y015872097D01*
G01*
X016250000Y015850000D01*
G37*
D31*
G36*
X002211584Y012346938D02*
G01*
X002299374Y012355585D01*
G01*
X002383791Y012381193D01*
G01*
X002461590Y012422777D01*
G01*
X002529782Y012478740D01*
G01*
X002585745Y012546932D01*
G01*
X002627329Y012624731D01*
G01*
X002652937Y012709148D01*
G01*
X002661584Y012796938D01*
G01*
X002652937Y012884729D01*
G01*
X002644705Y012911864D01*
G01*
X003447312Y013714471D01*
G01*
X005841864Y013831287D01*
G01*
X005845243Y013824966D01*
G01*
X005901207Y013756775D01*
G01*
X005969398Y013700811D01*
G01*
X006047197Y013659227D01*
G01*
X006131614Y013633619D01*
G01*
X006219405Y013624973D01*
G01*
X006307195Y013633619D01*
G01*
X006391612Y013659227D01*
G01*
X006469411Y013700811D01*
G01*
X006537603Y013756775D01*
G01*
X006593566Y013824966D01*
G01*
X006635150Y013902765D01*
G01*
X006660758Y013987182D01*
G01*
X006669405Y014074973D01*
G01*
X006660758Y014162763D01*
G01*
X006635150Y014247180D01*
G01*
X006593566Y014324979D01*
G01*
X006537603Y014393171D01*
G01*
X006469411Y014449134D01*
G01*
X006391612Y014490718D01*
G01*
X006307195Y014516326D01*
G01*
X006219405Y014524973D01*
G01*
X006131614Y014516326D01*
G01*
X006047197Y014490718D01*
G01*
X005969398Y014449134D01*
G01*
X005901207Y014393171D01*
G01*
X005845243Y014324979D01*
G01*
X005821648Y014280836D01*
G01*
X003338653Y014159705D01*
G01*
X003338692Y014158897D01*
G01*
X003305721Y014155649D01*
G01*
X003263512Y014142846D01*
G01*
X003224613Y014122053D01*
G01*
X003190517Y014094072D01*
G01*
X002326506Y013230061D01*
G01*
X002299374Y013238292D01*
G01*
X002211584Y013246938D01*
G01*
X002123793Y013238292D01*
G01*
X002039376Y013212684D01*
G01*
X001961577Y013171100D01*
G01*
X001893385Y013115136D01*
G01*
X001837422Y013046945D01*
G01*
X001795838Y012969146D01*
G01*
X001770230Y012884729D01*
G01*
X001761584Y012796938D01*
G01*
X001770230Y012709148D01*
G01*
X001795838Y012624731D01*
G01*
X001837422Y012546932D01*
G01*
X001893385Y012478740D01*
G01*
X001961577Y012422777D01*
G01*
X002039376Y012381193D01*
G01*
X002123793Y012355585D01*
G01*
X002211584Y012346938D01*
G37*
D31*
G36*
X-26960000Y010993000D02*
G01*
X-26872209Y011001647D01*
G01*
X-26787792Y011027254D01*
G01*
X-26709993Y011068839D01*
G01*
X-26641802Y011124802D01*
G01*
X-26585839Y011192993D01*
G01*
X-26544254Y011270792D01*
G01*
X-26518647Y011355209D01*
G01*
X-26510000Y011443000D01*
G01*
X-26518647Y011530791D01*
G01*
X-26544254Y011615208D01*
G01*
X-26585839Y011693007D01*
G01*
X-26641802Y011761198D01*
G01*
X-26709993Y011817161D01*
G01*
X-26787792Y011858746D01*
G01*
X-26872209Y011884353D01*
G01*
X-26960000Y011893000D01*
G01*
X-26975000Y011891523D01*
G01*
X-26975000Y013212472D01*
G01*
X-26949993Y013225839D01*
G01*
X-26881802Y013281802D01*
G01*
X-26825839Y013349993D01*
G01*
X-26784254Y013427792D01*
G01*
X-26758647Y013512209D01*
G01*
X-26750000Y013600000D01*
G01*
X-26758647Y013687791D01*
G01*
X-26784254Y013772208D01*
G01*
X-26825839Y013850007D01*
G01*
X-26881802Y013918198D01*
G01*
X-26949993Y013974161D01*
G01*
X-27027792Y014015746D01*
G01*
X-27112209Y014041353D01*
G01*
X-27200000Y014050000D01*
G01*
X-27287791Y014041353D01*
G01*
X-27372208Y014015746D01*
G01*
X-27450007Y013974161D01*
G01*
X-27518198Y013918198D01*
G01*
X-27574161Y013850007D01*
G01*
X-27615746Y013772208D01*
G01*
X-27641353Y013687791D01*
G01*
X-27650000Y013600000D01*
G01*
X-27641353Y013512209D01*
G01*
X-27615746Y013427792D01*
G01*
X-27574161Y013349993D01*
G01*
X-27518198Y013281802D01*
G01*
X-27450007Y013225839D01*
G01*
X-27425000Y013212472D01*
G01*
X-27425000Y011683000D01*
G01*
X-27420677Y011639105D01*
G01*
X-27407873Y011596896D01*
G01*
X-27390921Y011565181D01*
G01*
X-27401353Y011530791D01*
G01*
X-27410000Y011443000D01*
G01*
X-27401353Y011355209D01*
G01*
X-27375746Y011270792D01*
G01*
X-27334161Y011192993D01*
G01*
X-27278198Y011124802D01*
G01*
X-27210007Y011068839D01*
G01*
X-27132208Y011027254D01*
G01*
X-27047791Y011001647D01*
G01*
X-26960000Y010993000D01*
G37*
D31*
G36*
X-15286925Y-05217283D02*
G01*
X-15243029Y-05212959D01*
G01*
X-15200821Y-05200156D01*
G01*
X-15161921Y-05179363D01*
G01*
X-15127826Y-05151382D01*
G01*
X-15099844Y-05117286D01*
G01*
X-15079052Y-05078386D01*
G01*
X-15066248Y-05036178D01*
G01*
X-15061927Y-04992305D01*
G01*
X-15061925Y-04992305D01*
G01*
X-15061842Y-04159897D01*
G01*
X-15061844Y-04159897D01*
G01*
X-15061842Y-04159875D01*
G01*
X-15064440Y-04133499D01*
G01*
X-15063407Y-04133377D01*
G01*
X-15194116Y-03031220D01*
G01*
X-15145010Y-02990920D01*
G01*
X-15089047Y-02922729D01*
G01*
X-15047463Y-02844930D01*
G01*
X-15021855Y-02760513D01*
G01*
X-15013208Y-02672722D01*
G01*
X-15021855Y-02584932D01*
G01*
X-15047463Y-02500515D01*
G01*
X-15089047Y-02422716D01*
G01*
X-15145010Y-02354524D01*
G01*
X-15213202Y-02298561D01*
G01*
X-15291001Y-02256976D01*
G01*
X-15375418Y-02231369D01*
G01*
X-15463208Y-02222722D01*
G01*
X-15550999Y-02231369D01*
G01*
X-15635416Y-02256976D01*
G01*
X-15713215Y-02298561D01*
G01*
X-15781406Y-02354524D01*
G01*
X-15837370Y-02422716D01*
G01*
X-15878954Y-02500515D01*
G01*
X-15904562Y-02584932D01*
G01*
X-15913208Y-02672722D01*
G01*
X-15904562Y-02760513D01*
G01*
X-15878954Y-02844930D01*
G01*
X-15837370Y-02922729D01*
G01*
X-15781406Y-02990920D01*
G01*
X-15713215Y-03046884D01*
G01*
X-15640823Y-03085578D01*
G01*
X-15511843Y-04173157D01*
G01*
X-15511847Y-04210321D01*
G01*
X-15565969Y-04144374D01*
G01*
X-15634160Y-04088410D01*
G01*
X-15711959Y-04046826D01*
G01*
X-15796376Y-04021218D01*
G01*
X-15884167Y-04012572D01*
G01*
X-15971957Y-04021218D01*
G01*
X-15999107Y-04029454D01*
G01*
X-19165713Y-00863084D01*
G01*
X-19165713Y012492808D01*
G01*
X-19137586Y012507842D01*
G01*
X-19069395Y012563805D01*
G01*
X-19013431Y012631997D01*
G01*
X-18971847Y012709796D01*
G01*
X-18946239Y012794213D01*
G01*
X-18937593Y012882003D01*
G01*
X-18946239Y012969794D01*
G01*
X-18971847Y013054211D01*
G01*
X-19013431Y013132010D01*
G01*
X-19069395Y013200201D01*
G01*
X-19137586Y013256165D01*
G01*
X-19215385Y013297749D01*
G01*
X-19299802Y013323357D01*
G01*
X-19387593Y013332003D01*
G01*
X-19475383Y013323357D01*
G01*
X-19559800Y013297749D01*
G01*
X-19637599Y013256165D01*
G01*
X-19705791Y013200201D01*
G01*
X-19761754Y013132010D01*
G01*
X-19803339Y013054211D01*
G01*
X-19828946Y012969794D01*
G01*
X-19837593Y012882003D01*
G01*
X-19828946Y012794213D01*
G01*
X-19803339Y012709796D01*
G01*
X-19761754Y012631997D01*
G01*
X-19705791Y012563805D01*
G01*
X-19637599Y012507842D01*
G01*
X-19615713Y012496144D01*
G01*
X-19615713Y-00956287D01*
G01*
X-19611390Y-01000182D01*
G01*
X-19598586Y-01042391D01*
G01*
X-19577794Y-01081290D01*
G01*
X-19549812Y-01115386D01*
G01*
X-19549805Y-01115391D01*
G01*
X-19549806Y-01115392D01*
G01*
X-16317294Y-04347663D01*
G01*
X-16325520Y-04374781D01*
G01*
X-16334167Y-04462572D01*
G01*
X-16325520Y-04550362D01*
G01*
X-16299913Y-04634779D01*
G01*
X-16258328Y-04712578D01*
G01*
X-16219455Y-04759946D01*
G01*
X-19247569Y-04736142D01*
G01*
X-19507044Y-04472444D01*
G01*
X-19507000Y-04472000D01*
G01*
X-19515647Y-04384209D01*
G01*
X-19541254Y-04299792D01*
G01*
X-19582839Y-04221993D01*
G01*
X-19638802Y-04153802D01*
G01*
X-19706993Y-04097839D01*
G01*
X-19784792Y-04056254D01*
G01*
X-19869209Y-04030647D01*
G01*
X-19957000Y-04022000D01*
G01*
X-20044791Y-04030647D01*
G01*
X-20129208Y-04056254D01*
G01*
X-20207007Y-04097839D01*
G01*
X-20275198Y-04153802D01*
G01*
X-20331161Y-04221993D01*
G01*
X-20372746Y-04299792D01*
G01*
X-20398353Y-04384209D01*
G01*
X-20407000Y-04472000D01*
G01*
X-20398353Y-04559791D01*
G01*
X-20372746Y-04644208D01*
G01*
X-20331161Y-04722007D01*
G01*
X-20275198Y-04790198D01*
G01*
X-20207007Y-04846161D01*
G01*
X-20129208Y-04887746D01*
G01*
X-20044791Y-04913353D01*
G01*
X-19957000Y-04922000D01*
G01*
X-19869209Y-04913353D01*
G01*
X-19784792Y-04887746D01*
G01*
X-19748698Y-04868453D01*
G01*
X-19502939Y-05118212D01*
G01*
X-19502817Y-05118092D01*
G01*
X-19501660Y-05119501D01*
G01*
X-19467564Y-05147483D01*
G01*
X-19428664Y-05168275D01*
G01*
X-19386456Y-05181079D01*
G01*
X-19344328Y-05185228D01*
G01*
X-19344329Y-05185395D01*
G01*
X-15288693Y-05217276D01*
G01*
X-15288692Y-05217109D01*
G01*
X-15286925Y-05217283D01*
G37*
D31*
G36*
X-14782000Y010924000D02*
G01*
X-14694209Y010932647D01*
G01*
X-14609792Y010958254D01*
G01*
X-14531993Y010999839D01*
G01*
X-14463802Y011055802D01*
G01*
X-14407839Y011123993D01*
G01*
X-14366254Y011201792D01*
G01*
X-14340647Y011286209D01*
G01*
X-14332000Y011374000D01*
G01*
X-14340647Y011461791D01*
G01*
X-14366254Y011546208D01*
G01*
X-14407839Y011624007D01*
G01*
X-14463802Y011692198D01*
G01*
X-14531993Y011748161D01*
G01*
X-14609792Y011789746D01*
G01*
X-14694209Y011815353D01*
G01*
X-14732111Y011819086D01*
G01*
X-14753936Y011840911D01*
G01*
X-14973359Y012060334D01*
G01*
X-15192782Y012279757D01*
G01*
X-15245820Y012323284D01*
G01*
X-15306330Y012355627D01*
G01*
X-15371988Y012375545D01*
G01*
X-15440270Y012382270D01*
G01*
X-15769444Y012382270D01*
G01*
X-16098617Y012382270D01*
G01*
X-16427791Y012382270D01*
G01*
X-16475595Y012382270D01*
G01*
X-16539770Y012434937D01*
G01*
X-16617569Y012476522D01*
G01*
X-16701986Y012502129D01*
G01*
X-16789777Y012510776D01*
G01*
X-16877567Y012502129D01*
G01*
X-16961984Y012476522D01*
G01*
X-17039783Y012434937D01*
G01*
X-17107975Y012378974D01*
G01*
X-17163938Y012310783D01*
G01*
X-17205522Y012232983D01*
G01*
X-17231130Y012148567D01*
G01*
X-17239777Y012060776D01*
G01*
X-17231130Y011972985D01*
G01*
X-17205522Y011888568D01*
G01*
X-17163938Y011810769D01*
G01*
X-17107975Y011742578D01*
G01*
X-17039783Y011686615D01*
G01*
X-16961984Y011645030D01*
G01*
X-16877567Y011619423D01*
G01*
X-16789777Y011610776D01*
G01*
X-16701986Y011619423D01*
G01*
X-16617569Y011645030D01*
G01*
X-16547899Y011682270D01*
G01*
X-16427791Y011682270D01*
G01*
X-16098617Y011682270D01*
G01*
X-15769444Y011682270D01*
G01*
X-15585245Y011682270D01*
G01*
X-15468334Y011565359D01*
G01*
X-15248911Y011345936D01*
G01*
X-15227086Y011324111D01*
G01*
X-15223353Y011286209D01*
G01*
X-15197746Y011201792D01*
G01*
X-15156161Y011123993D01*
G01*
X-15100198Y011055802D01*
G01*
X-15032007Y010999839D01*
G01*
X-14954208Y010958254D01*
G01*
X-14869791Y010932647D01*
G01*
X-14782000Y010924000D01*
G37*
D31*
G36*
X-11899999Y004754382D02*
G01*
X-11812208Y004763028D01*
G01*
X-11727792Y004788636D01*
G01*
X-11649992Y004830220D01*
G01*
X-11581801Y004886184D01*
G01*
X-11525838Y004954375D01*
G01*
X-11484253Y005032174D01*
G01*
X-11458646Y005116591D01*
G01*
X-11449999Y005204382D01*
G01*
X-11458646Y005292172D01*
G01*
X-11484253Y005376589D01*
G01*
X-11525838Y005454388D01*
G01*
X-11581801Y005522580D01*
G01*
X-11649992Y005578543D01*
G01*
X-11727792Y005620127D01*
G01*
X-11812208Y005645735D01*
G01*
X-11899999Y005654382D01*
G01*
X-11987790Y005645735D01*
G01*
X-12003354Y005641014D01*
G01*
X-15371438Y009201007D01*
G01*
X-15371438Y010533376D01*
G01*
X-15349993Y010544839D01*
G01*
X-15281802Y010600802D01*
G01*
X-15225839Y010668993D01*
G01*
X-15184254Y010746792D01*
G01*
X-15158647Y010831209D01*
G01*
X-15150000Y010919000D01*
G01*
X-15158647Y011006791D01*
G01*
X-15184254Y011091208D01*
G01*
X-15225839Y011169007D01*
G01*
X-15281802Y011237198D01*
G01*
X-15349993Y011293161D01*
G01*
X-15427792Y011334746D01*
G01*
X-15512209Y011360353D01*
G01*
X-15600000Y011369000D01*
G01*
X-15687791Y011360353D01*
G01*
X-15772208Y011334746D01*
G01*
X-15850007Y011293161D01*
G01*
X-15918198Y011237198D01*
G01*
X-15974161Y011169007D01*
G01*
X-16015746Y011091208D01*
G01*
X-16041353Y011006791D01*
G01*
X-16050000Y010919000D01*
G01*
X-16041353Y010831209D01*
G01*
X-16015746Y010746792D01*
G01*
X-15974161Y010668993D01*
G01*
X-15918198Y010600802D01*
G01*
X-15850007Y010544839D01*
G01*
X-15821438Y010529568D01*
G01*
X-15821438Y009111438D01*
G01*
X-15817115Y009067543D01*
G01*
X-15804311Y009025334D01*
G01*
X-15783519Y008986435D01*
G01*
X-15759499Y008957167D01*
G01*
X-15759882Y008956805D01*
G01*
X-12329564Y005331034D01*
G01*
X-12341352Y005292172D01*
G01*
X-12349999Y005204382D01*
G01*
X-12341352Y005116591D01*
G01*
X-12315745Y005032174D01*
G01*
X-12274160Y004954375D01*
G01*
X-12218197Y004886184D01*
G01*
X-12150006Y004830220D01*
G01*
X-12072207Y004788636D01*
G01*
X-11987790Y004763028D01*
G01*
X-11899999Y004754382D01*
G37*
D31*
G36*
X012679000Y-05250000D02*
G01*
X012766791Y-05241353D01*
G01*
X012851208Y-05215746D01*
G01*
X012929007Y-05174161D01*
G01*
X012997198Y-05118198D01*
G01*
X013053161Y-05050007D01*
G01*
X013094746Y-04972208D01*
G01*
X013120353Y-04887791D01*
G01*
X013129000Y-04800000D01*
G01*
X013125797Y-04767476D01*
G01*
X023940099Y006046826D01*
G01*
X023968081Y006080922D01*
G01*
X023988873Y006119822D01*
G01*
X024001677Y006162030D01*
G01*
X024006000Y006205925D01*
G01*
X024006000Y008031472D01*
G01*
X024031007Y008044839D01*
G01*
X024099198Y008100802D01*
G01*
X024155161Y008168993D01*
G01*
X024196746Y008246792D01*
G01*
X024222353Y008331209D01*
G01*
X024231000Y008419000D01*
G01*
X024222353Y008506791D01*
G01*
X024196746Y008591208D01*
G01*
X024155161Y008669007D01*
G01*
X024099198Y008737198D01*
G01*
X024031007Y008793161D01*
G01*
X023953208Y008834746D01*
G01*
X023868791Y008860353D01*
G01*
X023781000Y008869000D01*
G01*
X023693209Y008860353D01*
G01*
X023608792Y008834746D01*
G01*
X023530993Y008793161D01*
G01*
X023462802Y008737198D01*
G01*
X023406839Y008669007D01*
G01*
X023365254Y008591208D01*
G01*
X023339647Y008506791D01*
G01*
X023331000Y008419000D01*
G01*
X023339647Y008331209D01*
G01*
X023365254Y008246792D01*
G01*
X023406839Y008168993D01*
G01*
X023462802Y008100802D01*
G01*
X023530993Y008044839D01*
G01*
X023556000Y008031472D01*
G01*
X023556000Y006299123D01*
G01*
X012865164Y-04391713D01*
G01*
X012851208Y-04384254D01*
G01*
X012766791Y-04358647D01*
G01*
X012679000Y-04350000D01*
G01*
X012591209Y-04358647D01*
G01*
X012506792Y-04384254D01*
G01*
X012428993Y-04425839D01*
G01*
X012360802Y-04481802D01*
G01*
X012304839Y-04549993D01*
G01*
X012263254Y-04627792D01*
G01*
X012237647Y-04712209D01*
G01*
X012229000Y-04800000D01*
G01*
X012237647Y-04887791D01*
G01*
X012263254Y-04972208D01*
G01*
X012304839Y-05050007D01*
G01*
X012360802Y-05118198D01*
G01*
X012428993Y-05174161D01*
G01*
X012506792Y-05215746D01*
G01*
X012591209Y-05241353D01*
G01*
X012679000Y-05250000D01*
G37*
D31*
G36*
X-27512000Y-01547000D02*
G01*
X-27424209Y-01538353D01*
G01*
X-27339792Y-01512746D01*
G01*
X-27261993Y-01471161D01*
G01*
X-27193802Y-01415198D01*
G01*
X-27137839Y-01347007D01*
G01*
X-27096254Y-01269208D01*
G01*
X-27070647Y-01184791D01*
G01*
X-27067994Y-01157856D01*
G01*
X-26846380Y-00936242D01*
G01*
X-26497014Y-00586876D01*
G01*
X-26147648Y-00237510D01*
G01*
X-25798282Y000111856D01*
G01*
X-25448916Y000461222D01*
G01*
X-25099550Y000810588D01*
G01*
X-24750184Y001159954D01*
G01*
X-24400818Y001509320D01*
G01*
X-24051452Y001858686D01*
G01*
X-23702086Y002208052D01*
G01*
X-23352720Y002557418D01*
G01*
X-23003354Y002906784D01*
G01*
X-22653988Y003256151D01*
G01*
X-22304622Y003605517D01*
G01*
X-21955255Y003954883D01*
G01*
X-21605889Y004304249D01*
G01*
X-21256523Y004653615D01*
G01*
X-20907157Y005002981D01*
G01*
X-20857412Y005063595D01*
G01*
X-20820448Y005132750D01*
G01*
X-20797686Y005207787D01*
G01*
X-20790000Y005285824D01*
G01*
X-20790000Y005729420D01*
G01*
X-20790000Y006173017D01*
G01*
X-20790000Y006616613D01*
G01*
X-20790000Y007060210D01*
G01*
X-20790000Y007503807D01*
G01*
X-20790000Y007947403D01*
G01*
X-20790000Y008189334D01*
G01*
X-20774254Y008218792D01*
G01*
X-20748647Y008303209D01*
G01*
X-20740000Y008391000D01*
G01*
X-20748647Y008478791D01*
G01*
X-20774254Y008563208D01*
G01*
X-20815839Y008641007D01*
G01*
X-20871802Y008709198D01*
G01*
X-20939993Y008765161D01*
G01*
X-21017792Y008806746D01*
G01*
X-21102209Y008832353D01*
G01*
X-21190000Y008841000D01*
G01*
X-21277791Y008832353D01*
G01*
X-21362208Y008806746D01*
G01*
X-21440007Y008765161D01*
G01*
X-21508198Y008709198D01*
G01*
X-21564161Y008641007D01*
G01*
X-21605746Y008563208D01*
G01*
X-21631353Y008478791D01*
G01*
X-21640000Y008391000D01*
G01*
X-21631353Y008303209D01*
G01*
X-21605746Y008218792D01*
G01*
X-21590000Y008189334D01*
G01*
X-21590000Y007947403D01*
G01*
X-21590000Y007503807D01*
G01*
X-21590000Y007060210D01*
G01*
X-21590000Y006616613D01*
G01*
X-21590000Y006173017D01*
G01*
X-21590000Y005729420D01*
G01*
X-21590000Y005451509D01*
G01*
X-21822209Y005219300D01*
G01*
X-22171575Y004869934D01*
G01*
X-22520941Y004520568D01*
G01*
X-22870307Y004171202D01*
G01*
X-23219673Y003821836D01*
G01*
X-23569039Y003472470D01*
G01*
X-23918405Y003123104D01*
G01*
X-24267771Y002773738D01*
G01*
X-24617137Y002424372D01*
G01*
X-24966503Y002075006D01*
G01*
X-25315869Y001725640D01*
G01*
X-25665236Y001376273D01*
G01*
X-26014602Y001026907D01*
G01*
X-26363968Y000677541D01*
G01*
X-26713334Y000328175D01*
G01*
X-27062700Y-00021191D01*
G01*
X-27412066Y-00370557D01*
G01*
X-27761432Y-00719923D01*
G01*
X-27767576Y-00727409D01*
G01*
X-27830198Y-00778802D01*
G01*
X-27886161Y-00846993D01*
G01*
X-27927746Y-00924792D01*
G01*
X-27953353Y-01009209D01*
G01*
X-27962000Y-01097000D01*
G01*
X-27953353Y-01184791D01*
G01*
X-27927746Y-01269208D01*
G01*
X-27886161Y-01347007D01*
G01*
X-27830198Y-01415198D01*
G01*
X-27762007Y-01471161D01*
G01*
X-27684208Y-01512746D01*
G01*
X-27599791Y-01538353D01*
G01*
X-27512000Y-01547000D01*
G37*
D31*
G36*
X-08622000Y007767000D02*
G01*
X-08534209Y007775647D01*
G01*
X-08449792Y007801254D01*
G01*
X-08371993Y007842839D01*
G01*
X-08343615Y007866129D01*
G01*
X-08192077Y007866913D01*
G01*
X-07823494Y007868820D01*
G01*
X-07454910Y007870728D01*
G01*
X-07086327Y007872636D01*
G01*
X-06717744Y007874544D01*
G01*
X-06349160Y007876452D01*
G01*
X-05980577Y007878360D01*
G01*
X-05611993Y007880268D01*
G01*
X-05243410Y007882175D01*
G01*
X-04874827Y007884083D01*
G01*
X-04506243Y007885991D01*
G01*
X-04417161Y007886452D01*
G01*
X-04389478Y007863733D01*
G01*
X-04311679Y007822148D01*
G01*
X-04227262Y007796541D01*
G01*
X-04139471Y007787894D01*
G01*
X-04051681Y007796541D01*
G01*
X-03967264Y007822148D01*
G01*
X-03889465Y007863733D01*
G01*
X-03821273Y007919696D01*
G01*
X-03765310Y007987888D01*
G01*
X-03723726Y008065687D01*
G01*
X-03698118Y008150104D01*
G01*
X-03689471Y008237894D01*
G01*
X-03698118Y008325685D01*
G01*
X-03723726Y008410102D01*
G01*
X-03765310Y008487901D01*
G01*
X-03821273Y008556092D01*
G01*
X-03889465Y008612056D01*
G01*
X-03967264Y008653640D01*
G01*
X-04051681Y008679248D01*
G01*
X-04139471Y008687894D01*
G01*
X-04227262Y008679248D01*
G01*
X-04311679Y008653640D01*
G01*
X-04389478Y008612056D01*
G01*
X-04420686Y008586444D01*
G01*
X-04509866Y008585982D01*
G01*
X-04878450Y008584074D01*
G01*
X-05247033Y008582166D01*
G01*
X-05615617Y008580258D01*
G01*
X-05984200Y008578350D01*
G01*
X-06352783Y008576442D01*
G01*
X-06721367Y008574535D01*
G01*
X-07089950Y008572627D01*
G01*
X-07458534Y008570719D01*
G01*
X-07827117Y008568811D01*
G01*
X-08195700Y008566903D01*
G01*
X-08341515Y008566148D01*
G01*
X-08371993Y008591161D01*
G01*
X-08449792Y008632746D01*
G01*
X-08534209Y008658353D01*
G01*
X-08622000Y008667000D01*
G01*
X-08709791Y008658353D01*
G01*
X-08794208Y008632746D01*
G01*
X-08872007Y008591161D01*
G01*
X-08940198Y008535198D01*
G01*
X-08996161Y008467007D01*
G01*
X-09037746Y008389208D01*
G01*
X-09063353Y008304791D01*
G01*
X-09072000Y008217000D01*
G01*
X-09063353Y008129209D01*
G01*
X-09037746Y008044792D01*
G01*
X-08996161Y007966993D01*
G01*
X-08940198Y007898802D01*
G01*
X-08872007Y007842839D01*
G01*
X-08794208Y007801254D01*
G01*
X-08709791Y007775647D01*
G01*
X-08622000Y007767000D01*
G37*
D31*
G36*
X-00556990Y-24963578D02*
G01*
X-00469199Y-24954932D01*
G01*
X-00384782Y-24929324D01*
G01*
X-00306983Y-24887740D01*
G01*
X-00238792Y-24831776D01*
G01*
X-00182828Y-24763585D01*
G01*
X-00141244Y-24685786D01*
G01*
X-00115636Y-24601369D01*
G01*
X-00106990Y-24513578D01*
G01*
X-00115636Y-24425788D01*
G01*
X-00141244Y-24341371D01*
G01*
X-00182828Y-24263572D01*
G01*
X-00238792Y-24195380D01*
G01*
X-00306983Y-24139417D01*
G01*
X-00330311Y-24126948D01*
G01*
X-00326230Y-23186133D01*
G01*
X-00326324Y-23186133D01*
G01*
X-00326228Y-23185157D01*
G01*
X-00330551Y-23141262D01*
G01*
X-00343355Y-23099054D01*
G01*
X-00364147Y-23060154D01*
G01*
X-00391957Y-23026268D01*
G01*
X-00391938Y-23026249D01*
G01*
X-01809465Y-21605323D01*
G01*
X-01807211Y-21582433D01*
G01*
X-01815857Y-21494643D01*
G01*
X-01832204Y-21440755D01*
G01*
X-00946049Y-20554600D01*
G01*
X-00918068Y-20520505D01*
G01*
X-00897275Y-20481605D01*
G01*
X-00884472Y-20439397D01*
G01*
X-00880212Y-20396152D01*
G01*
X-00880149Y-20396152D01*
G01*
X-00862229Y-14203326D01*
G01*
X-00836100Y-14189360D01*
G01*
X-00767909Y-14133397D01*
G01*
X-00711946Y-14065205D01*
G01*
X-00670361Y-13987406D01*
G01*
X-00644754Y-13902989D01*
G01*
X-00636107Y-13815199D01*
G01*
X-00644754Y-13727408D01*
G01*
X-00670361Y-13642991D01*
G01*
X-00711946Y-13565192D01*
G01*
X-00752154Y-13516199D01*
G01*
X001795887Y-13523840D01*
G01*
X002649599Y-14402295D01*
G01*
X002649809Y-14402091D01*
G01*
X002651855Y-14404584D01*
G01*
X002685951Y-14432566D01*
G01*
X002724851Y-14453358D01*
G01*
X002767059Y-14466162D01*
G01*
X002810954Y-14470485D01*
G01*
X002817388Y-14469851D01*
G01*
X002817404Y-14470392D01*
G01*
X003259631Y-14457711D01*
G01*
X006226438Y-14452086D01*
G01*
X006226438Y-14452044D01*
G01*
X006269907Y-14447763D01*
G01*
X006312115Y-14434959D01*
G01*
X006351015Y-14414167D01*
G01*
X006385111Y-14386185D01*
G01*
X017656263Y-03115033D01*
G01*
X017667209Y-03118353D01*
G01*
X017755000Y-03127000D01*
G01*
X017842791Y-03118353D01*
G01*
X017927208Y-03092746D01*
G01*
X018005007Y-03051161D01*
G01*
X018073198Y-02995198D01*
G01*
X018129161Y-02927007D01*
G01*
X018170746Y-02849208D01*
G01*
X018196353Y-02764791D01*
G01*
X018205000Y-02677000D01*
G01*
X018196353Y-02589209D01*
G01*
X018170746Y-02504792D01*
G01*
X018129161Y-02426993D01*
G01*
X018073198Y-02358802D01*
G01*
X018005007Y-02302839D01*
G01*
X017927208Y-02261254D01*
G01*
X017842791Y-02235647D01*
G01*
X017755000Y-02227000D01*
G01*
X017667209Y-02235647D01*
G01*
X017582792Y-02261254D01*
G01*
X017504993Y-02302839D01*
G01*
X017436802Y-02358802D01*
G01*
X017380839Y-02426993D01*
G01*
X017339254Y-02504792D01*
G01*
X017313647Y-02589209D01*
G01*
X017305000Y-02677000D01*
G01*
X017313647Y-02764791D01*
G01*
X017326788Y-02808111D01*
G01*
X006132637Y-14002262D01*
G01*
X003367397Y-14007506D01*
G01*
X003403081Y-13964025D01*
G01*
X003444666Y-13886226D01*
G01*
X003470273Y-13801809D01*
G01*
X003478920Y-13714019D01*
G01*
X003470273Y-13626228D01*
G01*
X003444666Y-13541811D01*
G01*
X003403081Y-13464012D01*
G01*
X003347118Y-13395821D01*
G01*
X003278926Y-13339857D01*
G01*
X003201127Y-13298273D01*
G01*
X003116710Y-13272665D01*
G01*
X003028920Y-13264019D01*
G01*
X002941129Y-13272665D01*
G01*
X002856712Y-13298273D01*
G01*
X002831381Y-13311812D01*
G01*
X001037334Y-11517764D01*
G01*
X001003238Y-11489783D01*
G01*
X000964339Y-11468990D01*
G01*
X000922130Y-11456187D01*
G01*
X000878235Y-11451863D01*
G01*
X-00154460Y-11451863D01*
G01*
X-00198355Y-11456187D01*
G01*
X-00240563Y-11468990D01*
G01*
X-00279463Y-11489783D01*
G01*
X-00307122Y-11512482D01*
G01*
X-00307573Y-11511996D01*
G01*
X-02209732Y-13278542D01*
G01*
X-02418072Y-13285609D01*
G01*
X-02076716Y-12943440D01*
G01*
X-01732150Y-12598053D01*
G01*
X-01387584Y-12252666D01*
G01*
X-01057734Y-11922029D01*
G01*
X000002300Y-11060394D01*
G01*
X000001088Y-11058903D01*
G01*
X000032843Y-11032843D01*
G01*
X002057740Y-09007946D01*
G01*
X002107485Y-08947331D01*
G01*
X002144449Y-08878176D01*
G01*
X002167211Y-08803139D01*
G01*
X002174897Y-08725103D01*
G01*
X002174897Y-08516288D01*
G01*
X002174897Y-08390789D01*
G01*
X002415797Y-08149889D01*
G01*
X002414022Y-08167916D01*
G01*
X002422668Y-08255706D01*
G01*
X002448276Y-08340123D01*
G01*
X002489860Y-08417922D01*
G01*
X002545824Y-08486114D01*
G01*
X002603363Y-08533335D01*
G01*
X002691410Y-09521958D01*
G01*
X002631799Y-09570881D01*
G01*
X002575836Y-09639072D01*
G01*
X002534251Y-09716871D01*
G01*
X002508644Y-09801288D01*
G01*
X002499997Y-09889079D01*
G01*
X002508644Y-09976869D01*
G01*
X002534251Y-10061286D01*
G01*
X002575836Y-10139085D01*
G01*
X002631799Y-10207277D01*
G01*
X002699990Y-10263240D01*
G01*
X002777789Y-10304824D01*
G01*
X002862206Y-10330432D01*
G01*
X002949997Y-10339079D01*
G01*
X003037788Y-10330432D01*
G01*
X003122205Y-10304824D01*
G01*
X003200004Y-10263240D01*
G01*
X003268195Y-10207277D01*
G01*
X003324158Y-10139085D01*
G01*
X003365743Y-10061286D01*
G01*
X003391350Y-09976869D01*
G01*
X003399997Y-09889079D01*
G01*
X003391350Y-09801288D01*
G01*
X003365743Y-09716871D01*
G01*
X003324158Y-09639072D01*
G01*
X003268195Y-09570881D01*
G01*
X003200004Y-09514917D01*
G01*
X003139693Y-09482681D01*
G01*
X003058563Y-08571724D01*
G01*
X003114028Y-08542077D01*
G01*
X003182220Y-08486114D01*
G01*
X003238183Y-08417922D01*
G01*
X003279767Y-08340123D01*
G01*
X003305375Y-08255706D01*
G01*
X003314022Y-08167916D01*
G01*
X003305375Y-08080125D01*
G01*
X003279767Y-07995708D01*
G01*
X003238183Y-07917909D01*
G01*
X003182220Y-07849718D01*
G01*
X003114028Y-07793754D01*
G01*
X003036229Y-07752170D01*
G01*
X002978578Y-07734682D01*
G01*
X004043073Y-07139220D01*
G01*
X004112791Y-07132353D01*
G01*
X004197208Y-07106746D01*
G01*
X004275007Y-07065161D01*
G01*
X004343198Y-07009198D01*
G01*
X004399161Y-06941007D01*
G01*
X004440746Y-06863208D01*
G01*
X004466353Y-06778791D01*
G01*
X004475000Y-06691000D01*
G01*
X004466353Y-06603209D01*
G01*
X004440746Y-06518792D01*
G01*
X004399161Y-06440993D01*
G01*
X004343198Y-06372802D01*
G01*
X004275007Y-06316839D01*
G01*
X004197208Y-06275254D01*
G01*
X004112791Y-06249647D01*
G01*
X004025000Y-06241000D01*
G01*
X003937209Y-06249647D01*
G01*
X003852792Y-06275254D01*
G01*
X003774993Y-06316839D01*
G01*
X003706802Y-06372802D01*
G01*
X003650839Y-06440993D01*
G01*
X003650094Y-06442387D01*
G01*
X002204722Y-07250906D01*
G01*
X002205627Y-07252523D01*
G01*
X002177772Y-07267412D01*
G01*
X002117157Y-07317157D01*
G01*
X001492054Y-07942260D01*
G01*
X001442309Y-08002875D01*
G01*
X001405345Y-08072029D01*
G01*
X001382583Y-08147067D01*
G01*
X001374897Y-08225103D01*
G01*
X001374897Y-08516288D01*
G01*
X001374897Y-08559417D01*
G01*
X-00466633Y-10400947D01*
G01*
X-00464077Y-10374993D01*
G01*
X-00472723Y-10287202D01*
G01*
X-00498331Y-10202785D01*
G01*
X-00539915Y-10124986D01*
G01*
X-00595879Y-10056795D01*
G01*
X-00664070Y-10000832D01*
G01*
X-00741869Y-09959247D01*
G01*
X-00826286Y-09933640D01*
G01*
X-00914077Y-09924993D01*
G01*
X-01001867Y-09933640D01*
G01*
X-01086284Y-09959247D01*
G01*
X-01164083Y-10000832D01*
G01*
X-01232275Y-10056795D01*
G01*
X-01288238Y-10124986D01*
G01*
X-01325311Y-10194344D01*
G01*
X-02864770Y-10198537D01*
G01*
X-02824487Y-10149452D01*
G01*
X-02782903Y-10071653D01*
G01*
X-02757295Y-09987236D01*
G01*
X-02748648Y-09899446D01*
G01*
X-02757295Y-09811655D01*
G01*
X-02782903Y-09727238D01*
G01*
X-02824487Y-09649439D01*
G01*
X-02880450Y-09581248D01*
G01*
X-02948642Y-09525285D01*
G01*
X-02986899Y-09504836D01*
G01*
X-02995784Y-09242807D01*
G01*
X-02991353Y-09287791D01*
G01*
X-02965746Y-09372208D01*
G01*
X-02924161Y-09450007D01*
G01*
X-02868198Y-09518198D01*
G01*
X-02800007Y-09574161D01*
G01*
X-02722208Y-09615746D01*
G01*
X-02637791Y-09641353D01*
G01*
X-02550000Y-09650000D01*
G01*
X-02462209Y-09641353D01*
G01*
X-02377792Y-09615746D01*
G01*
X-02299993Y-09574161D01*
G01*
X-02231802Y-09518198D01*
G01*
X-02175839Y-09450007D01*
G01*
X-02155524Y-09412000D01*
G01*
X-02145992Y-09412000D01*
G01*
X-01810744Y-09412000D01*
G01*
X-01475496Y-09412000D01*
G01*
X-01140248Y-09412000D01*
G01*
X-01084447Y-09412000D01*
G01*
X-01055007Y-09436161D01*
G01*
X-00977208Y-09477746D01*
G01*
X-00892791Y-09503353D01*
G01*
X-00805000Y-09512000D01*
G01*
X-00717209Y-09503353D01*
G01*
X-00632792Y-09477746D01*
G01*
X-00554993Y-09436161D01*
G01*
X-00486802Y-09380198D01*
G01*
X-00430839Y-09312007D01*
G01*
X-00389254Y-09234208D01*
G01*
X-00363647Y-09149791D01*
G01*
X-00355000Y-09062000D01*
G01*
X-00363647Y-08974209D01*
G01*
X-00389254Y-08889792D01*
G01*
X-00430839Y-08811993D01*
G01*
X-00486802Y-08743802D01*
G01*
X-00554993Y-08687839D01*
G01*
X-00632792Y-08646254D01*
G01*
X-00717209Y-08620647D01*
G01*
X-00805000Y-08612000D01*
G01*
X-00892791Y-08620647D01*
G01*
X-00977208Y-08646254D01*
G01*
X-01055007Y-08687839D01*
G01*
X-01084447Y-08712000D01*
G01*
X-01140248Y-08712000D01*
G01*
X-01475496Y-08712000D01*
G01*
X-01810744Y-08712000D01*
G01*
X-02145992Y-08712000D01*
G01*
X-02481240Y-08712000D01*
G01*
X-02549521Y-08718725D01*
G01*
X-02605483Y-08735701D01*
G01*
X006274401Y000286485D01*
G01*
X006274280Y000286604D01*
G01*
X006301123Y000319311D01*
G01*
X006321915Y000358211D01*
G01*
X006334719Y000400419D01*
G01*
X006338124Y000434998D01*
G01*
X006338848Y000434968D01*
G01*
X006476388Y003743077D01*
G01*
X006522791Y003747647D01*
G01*
X006607208Y003773254D01*
G01*
X006685007Y003814839D01*
G01*
X006753198Y003870802D01*
G01*
X006809161Y003938993D01*
G01*
X006850746Y004016792D01*
G01*
X006876353Y004101209D01*
G01*
X006885000Y004189000D01*
G01*
X006876353Y004276791D01*
G01*
X006850746Y004361208D01*
G01*
X006809161Y004439007D01*
G01*
X006753198Y004507198D01*
G01*
X006685007Y004563161D01*
G01*
X006607208Y004604746D01*
G01*
X006522791Y004630353D01*
G01*
X006435000Y004639000D01*
G01*
X006347209Y004630353D01*
G01*
X006262792Y004604746D01*
G01*
X006184993Y004563161D01*
G01*
X006116802Y004507198D01*
G01*
X006060839Y004439007D01*
G01*
X006019254Y004361208D01*
G01*
X005993647Y004276791D01*
G01*
X005985000Y004189000D01*
G01*
X005993647Y004101209D01*
G01*
X006019254Y004016792D01*
G01*
X006036072Y003985329D01*
G01*
X005892839Y000540325D01*
G01*
X-03387911Y-08889152D01*
G01*
X-03387790Y-08889271D01*
G01*
X-03414633Y-08921978D01*
G01*
X-03435425Y-08960878D01*
G01*
X-03448229Y-09003086D01*
G01*
X-03452552Y-09046982D01*
G01*
X-03451803Y-09054585D01*
G01*
X-03452423Y-09054606D01*
G01*
X-03436681Y-09518885D01*
G01*
X-03448655Y-09525285D01*
G01*
X-03516847Y-09581248D01*
G01*
X-03572810Y-09649439D01*
G01*
X-03614394Y-09727238D01*
G01*
X-03640002Y-09811655D01*
G01*
X-03648648Y-09899446D01*
G01*
X-03640002Y-09987236D01*
G01*
X-03614394Y-10071653D01*
G01*
X-03572810Y-10149452D01*
G01*
X-03531038Y-10200352D01*
G01*
X-04289535Y-10202419D01*
G01*
X-09053315Y-05785317D01*
G01*
X-09049857Y-05773918D01*
G01*
X-09048013Y-05755197D01*
G01*
X-09047976Y-05755167D01*
G01*
X-09033026Y-05773383D01*
G01*
X-08998931Y-05801365D01*
G01*
X-08960031Y-05822157D01*
G01*
X-08917823Y-05834961D01*
G01*
X-08873927Y-05839284D01*
G01*
X-08830032Y-05834961D01*
G01*
X-08799954Y-05825837D01*
G01*
X-08799661Y-05826674D01*
G01*
X-08768983Y-05815947D01*
G01*
X-08646298Y-05920944D01*
G01*
X-08645625Y-05920157D01*
G01*
X-08626690Y-05935696D01*
G01*
X-08626805Y-05935864D01*
G01*
X-08580611Y-05967380D01*
G01*
X-08580496Y-05967212D01*
G01*
X-08578810Y-05968596D01*
G01*
X-08539910Y-05989388D01*
G01*
X-08497702Y-06002192D01*
G01*
X-08453806Y-06006515D01*
G01*
X-02716074Y-06006515D01*
G01*
X-02658137Y-06064453D01*
G01*
X-02658191Y-06065004D01*
G01*
X-02649545Y-06152795D01*
G01*
X-02623937Y-06237212D01*
G01*
X-02582353Y-06315011D01*
G01*
X-02526389Y-06383202D01*
G01*
X-02458198Y-06439165D01*
G01*
X-02380399Y-06480750D01*
G01*
X-02295982Y-06506358D01*
G01*
X-02208191Y-06515004D01*
G01*
X-02120401Y-06506358D01*
G01*
X-02035984Y-06480750D01*
G01*
X-01958185Y-06439165D01*
G01*
X-01889993Y-06383202D01*
G01*
X-01834030Y-06315011D01*
G01*
X-01792445Y-06237212D01*
G01*
X-01766838Y-06152795D01*
G01*
X-01758191Y-06065004D01*
G01*
X-01766838Y-05977213D01*
G01*
X-01792445Y-05892797D01*
G01*
X-01834030Y-05814998D01*
G01*
X-01889993Y-05746806D01*
G01*
X-01958185Y-05690843D01*
G01*
X-02035984Y-05649258D01*
G01*
X-02120401Y-05623651D01*
G01*
X-02208191Y-05615004D01*
G01*
X-02295982Y-05623651D01*
G01*
X-02380399Y-05649258D01*
G01*
X-02417242Y-05668951D01*
G01*
X-02463777Y-05622416D01*
G01*
X-02497873Y-05594435D01*
G01*
X-02536772Y-05573642D01*
G01*
X-02578981Y-05560839D01*
G01*
X-02622876Y-05556515D01*
G01*
X-08380040Y-05556515D01*
G01*
X-08574746Y-05389881D01*
G01*
X-08575420Y-05390668D01*
G01*
X-08596041Y-05373745D01*
G01*
X-08634940Y-05352952D01*
G01*
X-08677149Y-05340149D01*
G01*
X-08721044Y-05335825D01*
G01*
X-08764939Y-05340149D01*
G01*
X-08795018Y-05349273D01*
G01*
X-08795311Y-05348435D01*
G01*
X-08798688Y-05349616D01*
G01*
X-09004446Y-05095419D01*
G01*
X-09063942Y-04965520D01*
G01*
X-09064543Y-04965795D01*
G01*
X-09073801Y-04948474D01*
G01*
X-09072926Y-04947977D01*
G01*
X-09162271Y-04790888D01*
G01*
X-09163146Y-04791385D01*
G01*
X-09170770Y-04777121D01*
G01*
X-09198752Y-04743025D01*
G01*
X-09232848Y-04715044D01*
G01*
X-09245053Y-04708520D01*
G01*
X-09244583Y-04707714D01*
G01*
X-09383322Y-04626881D01*
G01*
X-09753709Y-04256494D01*
G01*
X-09758077Y-04212151D01*
G01*
X-09783684Y-04127734D01*
G01*
X-09825269Y-04049935D01*
G01*
X-09881232Y-03981743D01*
G01*
X-09949423Y-03925780D01*
G01*
X-10027222Y-03884196D01*
G01*
X-10111639Y-03858588D01*
G01*
X-10199430Y-03849941D01*
G01*
X-10287221Y-03858588D01*
G01*
X-10371637Y-03884196D01*
G01*
X-10449437Y-03925780D01*
G01*
X-10517628Y-03981743D01*
G01*
X-10573591Y-04049935D01*
G01*
X-10615176Y-04127734D01*
G01*
X-10640783Y-04212151D01*
G01*
X-10649430Y-04299941D01*
G01*
X-10640783Y-04387732D01*
G01*
X-10615176Y-04472149D01*
G01*
X-10573591Y-04549948D01*
G01*
X-10517628Y-04618140D01*
G01*
X-10449437Y-04674103D01*
G01*
X-10371637Y-04715687D01*
G01*
X-10287221Y-04741295D01*
G01*
X-10199430Y-04749941D01*
G01*
X-10111639Y-04741295D01*
G01*
X-10027222Y-04715687D01*
G01*
X-09964459Y-04682140D01*
G01*
X-09680893Y-04965706D01*
G01*
X-09646797Y-04993688D01*
G01*
X-09634592Y-05000211D01*
G01*
X-09635062Y-05001018D01*
G01*
X-09523474Y-05066032D01*
G01*
X-09468960Y-05161880D01*
G01*
X-09432296Y-05241930D01*
G01*
X-09491210Y-05236127D01*
G01*
X-09579001Y-05244774D01*
G01*
X-09663418Y-05270381D01*
G01*
X-09741217Y-05311966D01*
G01*
X-09809409Y-05367929D01*
G01*
X-09865372Y-05436120D01*
G01*
X-09906956Y-05513919D01*
G01*
X-09932564Y-05598336D01*
G01*
X-09941210Y-05686127D01*
G01*
X-09932564Y-05773918D01*
G01*
X-09906956Y-05858334D01*
G01*
X-09865372Y-05936134D01*
G01*
X-09809409Y-06004325D01*
G01*
X-09741217Y-06060288D01*
G01*
X-09663418Y-06101873D01*
G01*
X-09579001Y-06127480D01*
G01*
X-09491210Y-06136127D01*
G01*
X-09403420Y-06127480D01*
G01*
X-09360259Y-06114387D01*
G01*
X-04530520Y-10592648D01*
G01*
X-04530062Y-10592154D01*
G01*
X-04502541Y-10614740D01*
G01*
X-04463641Y-10635532D01*
G01*
X-04421433Y-10648336D01*
G01*
X-04377537Y-10652659D01*
G01*
X-04376925Y-10652599D01*
G01*
X-04376925Y-10652658D01*
G01*
X-01272479Y-10644202D01*
G01*
X-01232275Y-10693191D01*
G01*
X-01164083Y-10749154D01*
G01*
X-01086284Y-10790739D01*
G01*
X-01001867Y-10816346D01*
G01*
X-00969688Y-10819516D01*
G01*
X-01578497Y-11314378D01*
G01*
X-01577285Y-11315869D01*
G01*
X-01609040Y-11341930D01*
G01*
X-01609343Y-11342300D01*
G01*
X-01609376Y-11342267D01*
G01*
X-01953605Y-11687316D01*
G01*
X-01953606Y-11687317D01*
G01*
X-01953607Y-11687318D01*
G01*
X-01953942Y-11687654D01*
G01*
X-02298171Y-12032703D01*
G01*
X-02298172Y-12032704D01*
G01*
X-02298173Y-12032705D01*
G01*
X-02298508Y-12033041D01*
G01*
X-02642737Y-12378090D01*
G01*
X-02642738Y-12378091D01*
G01*
X-02642739Y-12378092D01*
G01*
X-02643074Y-12378428D01*
G01*
X-02870462Y-12606358D01*
G01*
X-03181841Y-12606427D01*
G01*
X-03659131Y-12606534D01*
G01*
X-04136421Y-12606640D01*
G01*
X-04412040Y-12606701D01*
G01*
X-04441415Y-12591000D01*
G01*
X-04525831Y-12565393D01*
G01*
X-04613622Y-12556746D01*
G01*
X-04701413Y-12565393D01*
G01*
X-04785830Y-12591000D01*
G01*
X-04863629Y-12632585D01*
G01*
X-04931820Y-12688548D01*
G01*
X-04987783Y-12756739D01*
G01*
X-05029368Y-12834539D01*
G01*
X-05054975Y-12918955D01*
G01*
X-05063622Y-13006746D01*
G01*
X-05057931Y-13064525D01*
G01*
X-06157588Y-11952689D01*
G01*
X-06157672Y-11952772D01*
G01*
X-06158462Y-11951810D01*
G01*
X-06192558Y-11923828D01*
G01*
X-06231457Y-11903036D01*
G01*
X-06273666Y-11890232D01*
G01*
X-06317561Y-11885909D01*
G01*
X-06334505Y-11887578D01*
G01*
X-06334583Y-11886554D01*
G01*
X-07114219Y-11945706D01*
G01*
X-07635894Y-11407591D01*
G01*
X-07548980Y-11416151D01*
G01*
X-07461189Y-11407505D01*
G01*
X-07376772Y-11381897D01*
G01*
X-07298973Y-11340313D01*
G01*
X-07230782Y-11284349D01*
G01*
X-07174819Y-11216158D01*
G01*
X-07133234Y-11138359D01*
G01*
X-07107626Y-11053942D01*
G01*
X-07098980Y-10966151D01*
G01*
X-07107626Y-10878361D01*
G01*
X-07133234Y-10793944D01*
G01*
X-07174819Y-10716145D01*
G01*
X-07230782Y-10647953D01*
G01*
X-07298973Y-10591990D01*
G01*
X-07376772Y-10550406D01*
G01*
X-07437417Y-10532009D01*
G01*
X-07389176Y-10517375D01*
G01*
X-07311377Y-10475791D01*
G01*
X-07243185Y-10419827D01*
G01*
X-07187222Y-10351636D01*
G01*
X-07145637Y-10273837D01*
G01*
X-07120030Y-10189420D01*
G01*
X-07111383Y-10101629D01*
G01*
X-07120030Y-10013839D01*
G01*
X-07145637Y-09929422D01*
G01*
X-07187222Y-09851623D01*
G01*
X-07243185Y-09783431D01*
G01*
X-07311377Y-09727468D01*
G01*
X-07336383Y-09714102D01*
G01*
X-07336383Y-08767802D01*
G01*
X-07337485Y-08756612D01*
G01*
X-07319751Y-08735003D01*
G01*
X-07278166Y-08657204D01*
G01*
X-07252559Y-08572787D01*
G01*
X-07243912Y-08484996D01*
G01*
X-07252559Y-08397205D01*
G01*
X-07278166Y-08312788D01*
G01*
X-07319751Y-08234989D01*
G01*
X-07375714Y-08166798D01*
G01*
X-07443906Y-08110835D01*
G01*
X-07521705Y-08069250D01*
G01*
X-07606122Y-08043643D01*
G01*
X-07693912Y-08034996D01*
G01*
X-07781703Y-08043643D01*
G01*
X-07866120Y-08069250D01*
G01*
X-07943919Y-08110835D01*
G01*
X-08012110Y-08166798D01*
G01*
X-08068074Y-08234989D01*
G01*
X-08109658Y-08312788D01*
G01*
X-08135266Y-08397205D01*
G01*
X-08143912Y-08484996D01*
G01*
X-08135266Y-08572787D01*
G01*
X-08109658Y-08657204D01*
G01*
X-08068074Y-08735003D01*
G01*
X-08012110Y-08803194D01*
G01*
X-07943919Y-08859157D01*
G01*
X-07866120Y-08900742D01*
G01*
X-07786383Y-08924929D01*
G01*
X-07786383Y-09714102D01*
G01*
X-07811390Y-09727468D01*
G01*
X-07879581Y-09783431D01*
G01*
X-07935545Y-09851623D01*
G01*
X-07977129Y-09929422D01*
G01*
X-08002737Y-10013839D01*
G01*
X-08011383Y-10101629D01*
G01*
X-08002737Y-10189420D01*
G01*
X-08000657Y-10196276D01*
G01*
X-09013510Y-09183423D01*
G01*
X-09013510Y-07930119D01*
G01*
X-08999531Y-07922647D01*
G01*
X-08931339Y-07866684D01*
G01*
X-08875376Y-07798493D01*
G01*
X-08833791Y-07720694D01*
G01*
X-08808184Y-07636277D01*
G01*
X-08799537Y-07548486D01*
G01*
X-08808184Y-07460695D01*
G01*
X-08833791Y-07376278D01*
G01*
X-08875376Y-07298479D01*
G01*
X-08931339Y-07230288D01*
G01*
X-08999531Y-07174325D01*
G01*
X-09077330Y-07132740D01*
G01*
X-09161746Y-07107133D01*
G01*
X-09249537Y-07098486D01*
G01*
X-09337328Y-07107133D01*
G01*
X-09421745Y-07132740D01*
G01*
X-09499544Y-07174325D01*
G01*
X-09567735Y-07230288D01*
G01*
X-09623698Y-07298479D01*
G01*
X-09665283Y-07376278D01*
G01*
X-09690890Y-07460695D01*
G01*
X-09699537Y-07548486D01*
G01*
X-09690890Y-07636277D01*
G01*
X-09665283Y-07720694D01*
G01*
X-09623698Y-07798493D01*
G01*
X-09567735Y-07866684D01*
G01*
X-09499544Y-07922647D01*
G01*
X-09463510Y-07941908D01*
G01*
X-09463510Y-09276621D01*
G01*
X-09459187Y-09320516D01*
G01*
X-09446383Y-09362725D01*
G01*
X-09425591Y-09401624D01*
G01*
X-09397609Y-09435720D01*
G01*
X-07982102Y-10851227D01*
G01*
X-07990333Y-10878361D01*
G01*
X-07998980Y-10966151D01*
G01*
X-07991644Y-11040630D01*
G01*
X-10595199Y-08355025D01*
G01*
X-10575008Y-06017913D01*
G01*
X-10575191Y-06017911D01*
G01*
X-10575000Y-06015969D01*
G01*
X-10579323Y-05972074D01*
G01*
X-10581159Y-05966020D01*
G01*
X-10580641Y-05965902D01*
G01*
X-10592463Y-05914105D01*
G01*
X-10592982Y-05914223D01*
G01*
X-10603949Y-05878068D01*
G01*
X-10612742Y-05861619D01*
G01*
X-10611802Y-05861135D01*
G01*
X-10821731Y-05453610D01*
G01*
X-10824373Y-05307552D01*
G01*
X-10771840Y-05206526D01*
G01*
X-10770908Y-05205761D01*
G01*
X-10742927Y-05171665D01*
G01*
X-10722134Y-05132766D01*
G01*
X-10717442Y-05117298D01*
G01*
X-10712616Y-05111418D01*
G01*
X-10671032Y-05033618D01*
G01*
X-10645424Y-04949202D01*
G01*
X-10636778Y-04861411D01*
G01*
X-10645424Y-04773620D01*
G01*
X-10671032Y-04689203D01*
G01*
X-10712616Y-04611404D01*
G01*
X-10768580Y-04543213D01*
G01*
X-10836771Y-04487250D01*
G01*
X-10914570Y-04445665D01*
G01*
X-10998987Y-04420058D01*
G01*
X-11086778Y-04411411D01*
G01*
X-11174568Y-04420058D01*
G01*
X-11202323Y-04428477D01*
G01*
X-11157480Y-04383632D01*
G01*
X-11157481Y-04383631D01*
G01*
X-11129502Y-04349540D01*
G01*
X-11108710Y-04310640D01*
G01*
X-11095906Y-04268432D01*
G01*
X-11091699Y-04225718D01*
G01*
X-11091586Y-04225719D01*
G01*
X-11084527Y-02882802D01*
G01*
X-11026294Y-02930593D01*
G01*
X-10948495Y-02972177D01*
G01*
X-10864078Y-02997785D01*
G01*
X-10776287Y-03006431D01*
G01*
X-10688497Y-02997785D01*
G01*
X-10604080Y-02972177D01*
G01*
X-10526281Y-02930593D01*
G01*
X-10458089Y-02874629D01*
G01*
X-10402126Y-02806438D01*
G01*
X-10360542Y-02728639D01*
G01*
X-10334934Y-02644222D01*
G01*
X-10326287Y-02556431D01*
G01*
X-10334934Y-02468641D01*
G01*
X-10357014Y-02395855D01*
G01*
X-09947464Y-01954107D01*
G01*
X-08860201Y-00781362D01*
G01*
X-08610761Y-00795325D01*
G01*
X-07821645Y-01567401D01*
G01*
X-07821485Y-01567238D01*
G01*
X-07789295Y-01593656D01*
G01*
X-07750396Y-01614448D01*
G01*
X-07708187Y-01627252D01*
G01*
X-07664292Y-01631575D01*
G01*
X-07638361Y-01629021D01*
G01*
X-07638240Y-01630062D01*
G01*
X-02936033Y-01081930D01*
G01*
X-02936154Y-01080889D01*
G01*
X-02929778Y-01080261D01*
G01*
X-02929657Y-01081094D01*
G01*
X-00739650Y-00762133D01*
G01*
X-00696033Y-00755781D01*
G01*
X-00736624Y-00805241D01*
G01*
X-00778209Y-00883040D01*
G01*
X-00803816Y-00967457D01*
G01*
X-00812463Y-01055247D01*
G01*
X-00803816Y-01143038D01*
G01*
X-00778209Y-01227455D01*
G01*
X-00736624Y-01305254D01*
G01*
X-00680661Y-01373445D01*
G01*
X-00612470Y-01429409D01*
G01*
X-00587463Y-01442775D01*
G01*
X-00587463Y-02567720D01*
G01*
X-00612470Y-02581086D01*
G01*
X-00680661Y-02637049D01*
G01*
X-00736624Y-02705241D01*
G01*
X-00778209Y-02783040D01*
G01*
X-00803816Y-02867457D01*
G01*
X-00812463Y-02955247D01*
G01*
X-00803816Y-03043038D01*
G01*
X-00778209Y-03127455D01*
G01*
X-00736624Y-03205254D01*
G01*
X-00680661Y-03273445D01*
G01*
X-00612470Y-03329409D01*
G01*
X-00534671Y-03370993D01*
G01*
X-00450254Y-03396601D01*
G01*
X-00362463Y-03405247D01*
G01*
X-00274672Y-03396601D01*
G01*
X-00190255Y-03370993D01*
G01*
X-00112456Y-03329409D01*
G01*
X-00044265Y-03273445D01*
G01*
X000011698Y-03205254D01*
G01*
X000053283Y-03127455D01*
G01*
X000078890Y-03043038D01*
G01*
X000087537Y-02955247D01*
G01*
X000078890Y-02867457D01*
G01*
X000053283Y-02783040D01*
G01*
X000011698Y-02705241D01*
G01*
X-00044265Y-02637049D01*
G01*
X-00112456Y-02581086D01*
G01*
X-00137463Y-02567720D01*
G01*
X-00137463Y-01442775D01*
G01*
X-00112456Y-01429409D01*
G01*
X-00044265Y-01373445D01*
G01*
X000011698Y-01305254D01*
G01*
X000053283Y-01227455D01*
G01*
X000078890Y-01143038D01*
G01*
X000087537Y-01055247D01*
G01*
X000078890Y-00967457D01*
G01*
X000053283Y-00883040D01*
G01*
X000011698Y-00805241D01*
G01*
X-00044265Y-00737049D01*
G01*
X-00112456Y-00681086D01*
G01*
X-00127599Y-00672992D01*
G01*
X-00090064Y-00667525D01*
G01*
X000830923Y-00655201D01*
G01*
X000830919Y-00654925D01*
G01*
X000844754Y-00653562D01*
G01*
X000844831Y-00654584D01*
G01*
X001094991Y-00635720D01*
G01*
X001094914Y-00634698D01*
G01*
X001121967Y-00632034D01*
G01*
X001155824Y-00621763D01*
G01*
X001156062Y-00622408D01*
G01*
X003193124Y000130349D01*
G01*
X003228332Y000101454D01*
G01*
X003306131Y000059870D01*
G01*
X003390548Y000034262D01*
G01*
X003466294Y000026802D01*
G01*
X003084848Y-00375653D01*
G01*
X003068911Y-00370819D01*
G01*
X002981121Y-00362172D01*
G01*
X002893330Y-00370819D01*
G01*
X002808913Y-00396426D01*
G01*
X002731114Y-00438011D01*
G01*
X002662922Y-00493974D01*
G01*
X002606959Y-00562166D01*
G01*
X002565375Y-00639965D01*
G01*
X002539767Y-00724382D01*
G01*
X002531121Y-00812172D01*
G01*
X002539767Y-00899963D01*
G01*
X002565375Y-00984380D01*
G01*
X002606959Y-01062179D01*
G01*
X002662922Y-01130370D01*
G01*
X002731114Y-01186334D01*
G01*
X002808913Y-01227918D01*
G01*
X002893330Y-01253526D01*
G01*
X002981121Y-01262172D01*
G01*
X003068911Y-01253526D01*
G01*
X003153328Y-01227918D01*
G01*
X003231127Y-01186334D01*
G01*
X003299319Y-01130370D01*
G01*
X003355282Y-01062179D01*
G01*
X003396866Y-00984380D01*
G01*
X003422474Y-00899963D01*
G01*
X003431121Y-00812172D01*
G01*
X003422474Y-00724382D01*
G01*
X003410802Y-00685904D01*
G01*
X004171751Y000116959D01*
G01*
X004171380Y000117311D01*
G01*
X004195527Y000146735D01*
G01*
X004216320Y000185634D01*
G01*
X004229123Y000227843D01*
G01*
X004233447Y000271738D01*
G01*
X004232910Y000277191D01*
G01*
X004233380Y000277202D01*
G01*
X004222975Y000705531D01*
G01*
X004222504Y000705520D01*
G01*
X004218718Y000743962D01*
G01*
X004205914Y000786171D01*
G01*
X004185122Y000825070D01*
G01*
X004157140Y000859166D01*
G01*
X004156147Y000859981D01*
G01*
X004156233Y000860068D01*
G01*
X003845687Y001167102D01*
G01*
X003845601Y001167015D01*
G01*
X003812498Y001194181D01*
G01*
X003773599Y001214973D01*
G01*
X003731390Y001227777D01*
G01*
X003687495Y001232100D01*
G01*
X003683033Y001231661D01*
G01*
X003683025Y001232056D01*
G01*
X003273346Y001223916D01*
G01*
X003273354Y001223521D01*
G01*
X003233920Y001219637D01*
G01*
X003199116Y001209079D01*
G01*
X003198896Y001209666D01*
G01*
X001161471Y000446549D01*
G01*
X001127790Y000474191D01*
G01*
X001049991Y000515776D01*
G01*
X000965574Y000541383D01*
G01*
X000877783Y000550030D01*
G01*
X000789993Y000541383D01*
G01*
X000787463Y000540616D01*
G01*
X000774784Y000582412D01*
G01*
X000733200Y000660211D01*
G01*
X000677236Y000728402D01*
G01*
X000609045Y000784366D01*
G01*
X000531246Y000825950D01*
G01*
X000446829Y000851558D01*
G01*
X000359038Y000860204D01*
G01*
X000271248Y000851558D01*
G01*
X000239011Y000841779D01*
G01*
X000055665Y001020742D01*
G01*
X-00600249Y001796632D01*
G01*
X-02148413Y003627977D01*
G01*
X-02149222Y003627293D01*
G01*
X-02161142Y003641818D01*
G01*
X-02195238Y003669799D01*
G01*
X-02234137Y003690592D01*
G01*
X-02266669Y003700460D01*
G01*
X-02266486Y003701203D01*
G01*
X-04237300Y004186095D01*
G01*
X-04237483Y004185352D01*
G01*
X-04247160Y004188288D01*
G01*
X-04291055Y004192611D01*
G01*
X-04334951Y004188288D01*
G01*
X-04377159Y004175484D01*
G01*
X-04413086Y004156281D01*
G01*
X-04413251Y004156537D01*
G01*
X-05512248Y003445713D01*
G01*
X-05509072Y003456183D01*
G01*
X-05504748Y003500078D01*
G01*
X-05505181Y003504470D01*
G01*
X-05504791Y003504478D01*
G01*
X-05520417Y004303385D01*
G01*
X-03988148Y005835654D01*
G01*
X-02616798Y007207004D01*
G01*
X-02606602Y007206000D01*
G01*
X-02518811Y007214647D01*
G01*
X-02434394Y007240254D01*
G01*
X-02356595Y007281839D01*
G01*
X-02288404Y007337802D01*
G01*
X-02232440Y007405993D01*
G01*
X-02190856Y007483792D01*
G01*
X-02165248Y007568209D01*
G01*
X-02156602Y007656000D01*
G01*
X-02165248Y007743791D01*
G01*
X-02190856Y007828208D01*
G01*
X-02232440Y007906007D01*
G01*
X-02288404Y007974198D01*
G01*
X-02356595Y008030161D01*
G01*
X-02434394Y008071746D01*
G01*
X-02518811Y008097353D01*
G01*
X-02606602Y008106000D01*
G01*
X-02694392Y008097353D01*
G01*
X-02778809Y008071746D01*
G01*
X-02856608Y008030161D01*
G01*
X-02924800Y007974198D01*
G01*
X-02980763Y007906007D01*
G01*
X-03022347Y007828208D01*
G01*
X-03047955Y007743791D01*
G01*
X-03056602Y007656000D01*
G01*
X-03047955Y007568209D01*
G01*
X-03022347Y007483792D01*
G01*
X-03006345Y007453853D01*
G01*
X-04306346Y006153852D01*
G01*
X-05906346Y004553852D01*
G01*
X-05934328Y004519756D01*
G01*
X-05955120Y004480856D01*
G01*
X-05967924Y004438648D01*
G01*
X-05972247Y004394753D01*
G01*
X-05971814Y004390361D01*
G01*
X-05972204Y004390353D01*
G01*
X-05956802Y003602873D01*
G01*
X-06372431Y003252089D01*
G01*
X-06356331Y003282209D01*
G01*
X-06330724Y003366626D01*
G01*
X-06322077Y003454416D01*
G01*
X-06330724Y003542207D01*
G01*
X-06356331Y003626624D01*
G01*
X-06397916Y003704423D01*
G01*
X-06453879Y003772614D01*
G01*
X-06522070Y003828577D01*
G01*
X-06599870Y003870162D01*
G01*
X-06684286Y003895770D01*
G01*
X-06772077Y003904416D01*
G01*
X-06859868Y003895770D01*
G01*
X-06944285Y003870162D01*
G01*
X-07022084Y003828577D01*
G01*
X-07090275Y003772614D01*
G01*
X-07146238Y003704423D01*
G01*
X-07187823Y003626624D01*
G01*
X-07213430Y003542207D01*
G01*
X-07222077Y003454416D01*
G01*
X-07219599Y003429257D01*
G01*
X-07343507Y003304347D01*
G01*
X-07522730Y003123675D01*
G01*
X-07682277Y002962838D01*
G01*
X-07720696Y002936344D01*
G01*
X-07737209Y002941353D01*
G01*
X-07825000Y002950000D01*
G01*
X-07912791Y002941353D01*
G01*
X-07997208Y002915746D01*
G01*
X-08075007Y002874161D01*
G01*
X-08143198Y002818198D01*
G01*
X-08143263Y002818119D01*
G01*
X-08151035Y002890973D01*
G01*
X-08179995Y003162439D01*
G01*
X-08197075Y003322547D01*
G01*
X-08214156Y003482655D01*
G01*
X-08215582Y003482503D01*
G01*
X-08218227Y003509359D01*
G01*
X-08235299Y003565636D01*
G01*
X-08263022Y003617503D01*
G01*
X-08300331Y003662963D01*
G01*
X-08345792Y003700272D01*
G01*
X-08397658Y003727995D01*
G01*
X-08453936Y003745067D01*
G01*
X-08512463Y003750831D01*
G01*
X-08512509Y003750826D01*
G01*
X-08512509Y003750831D01*
G01*
X-08773364Y003750792D01*
G01*
X-09034218Y003750752D01*
G01*
X-09295073Y003750712D01*
G01*
X-09555928Y003750672D01*
G01*
X-09816783Y003750632D01*
G01*
X-10077637Y003750592D01*
G01*
X-10077637Y003750588D01*
G01*
X-10136119Y003744828D01*
G01*
X-10192397Y003727756D01*
G01*
X-10244263Y003700033D01*
G01*
X-10289724Y003662724D01*
G01*
X-10327032Y003617263D01*
G01*
X-10354755Y003565397D01*
G01*
X-10355303Y003563589D01*
G01*
X-10355470Y003563657D01*
G01*
X-10463969Y003297002D01*
G01*
X-10572468Y003030346D01*
G01*
X-10680966Y002763690D01*
G01*
X-10789465Y002497034D01*
G01*
X-10897964Y002230379D01*
G01*
X-11006463Y001963723D01*
G01*
X-11114962Y001697067D01*
G01*
X-11223461Y001430411D01*
G01*
X-11331960Y001163756D01*
G01*
X-11440459Y000897100D01*
G01*
X-11548958Y000630444D01*
G01*
X-11585025Y000541803D01*
G01*
X-11591045Y000561649D01*
G01*
X-11632629Y000639448D01*
G01*
X-11688592Y000707639D01*
G01*
X-11756784Y000763602D01*
G01*
X-11834583Y000805187D01*
G01*
X-11919000Y000830794D01*
G01*
X-12006790Y000839441D01*
G01*
X-12094581Y000830794D01*
G01*
X-12178998Y000805187D01*
G01*
X-12256797Y000763602D01*
G01*
X-12324989Y000707639D01*
G01*
X-12380952Y000639448D01*
G01*
X-12422536Y000561649D01*
G01*
X-12448144Y000477232D01*
G01*
X-12456790Y000389441D01*
G01*
X-12448144Y000301650D01*
G01*
X-12422536Y000217234D01*
G01*
X-12380952Y000139435D01*
G01*
X-12358636Y000112242D01*
G01*
X-12377845Y000122510D01*
G01*
X-12462262Y000148117D01*
G01*
X-12550053Y000156764D01*
G01*
X-12637843Y000148117D01*
G01*
X-12722260Y000122510D01*
G01*
X-12800059Y000080925D01*
G01*
X-12868251Y000024962D01*
G01*
X-12924214Y-00043230D01*
G01*
X-12965799Y-00121029D01*
G01*
X-12991406Y-00205446D01*
G01*
X-12993535Y-00227063D01*
G01*
X-13146722Y-00328485D01*
G01*
X-13355937Y-00373487D01*
G01*
X-13620485Y-00430391D01*
G01*
X-13885033Y-00487295D01*
G01*
X-14149581Y-00544198D01*
G01*
X-14414128Y-00601102D01*
G01*
X-14605085Y-00642177D01*
G01*
X-14624993Y-00625839D01*
G01*
X-14702792Y-00584254D01*
G01*
X-14787209Y-00558647D01*
G01*
X-14875000Y-00550000D01*
G01*
X-14962791Y-00558647D01*
G01*
X-15047208Y-00584254D01*
G01*
X-15125007Y-00625839D01*
G01*
X-15193198Y-00681802D01*
G01*
X-15249161Y-00749993D01*
G01*
X-15290746Y-00827792D01*
G01*
X-15316353Y-00912209D01*
G01*
X-15325000Y-01000000D01*
G01*
X-15316353Y-01087791D01*
G01*
X-15290746Y-01172208D01*
G01*
X-15249161Y-01250007D01*
G01*
X-15193198Y-01318198D01*
G01*
X-15125007Y-01374161D01*
G01*
X-15047208Y-01415746D01*
G01*
X-14962791Y-01441353D01*
G01*
X-14875000Y-01450000D01*
G01*
X-14787209Y-01441353D01*
G01*
X-14702792Y-01415746D01*
G01*
X-14624993Y-01374161D01*
G01*
X-14556802Y-01318198D01*
G01*
X-14500839Y-01250007D01*
G01*
X-14490855Y-01231329D01*
G01*
X-14287955Y-01187686D01*
G01*
X-14023408Y-01130782D01*
G01*
X-13758860Y-01073878D01*
G01*
X-13494312Y-01016974D01*
G01*
X-13229764Y-00960071D01*
G01*
X-12965216Y-00903167D01*
G01*
X-12965305Y-00902755D01*
G01*
X-12913497Y-00887039D01*
G01*
X-12862755Y-00859917D01*
G01*
X-12862688Y-00860019D01*
G01*
X-12662119Y-00727226D01*
G01*
X-12637843Y-00734590D01*
G01*
X-12564875Y-00741776D01*
G01*
X-12723655Y-00907122D01*
G01*
X-12878829Y-01068713D01*
G01*
X-12887464Y-01069563D01*
G01*
X-12940225Y-01085568D01*
G01*
X-12988849Y-01111558D01*
G01*
X-13031469Y-01146536D01*
G01*
X-13035093Y-01150952D01*
G01*
X-13035456Y-01150604D01*
G01*
X-13163274Y-01283707D01*
G01*
X-13172105Y-01284577D01*
G01*
X-13237762Y-01304494D01*
G01*
X-13298273Y-01336837D01*
G01*
X-13351311Y-01380364D01*
G01*
X-13355821Y-01385860D01*
G01*
X-13356272Y-01385427D01*
G01*
X-13627499Y-01667869D01*
G01*
X-13898727Y-01950312D01*
G01*
X-13898276Y-01950745D01*
G01*
X-13937293Y-01998287D01*
G01*
X-13969637Y-02058797D01*
G01*
X-13989554Y-02124455D01*
G01*
X-13991811Y-02147367D01*
G01*
X-13993300Y-02147171D01*
G01*
X-14044959Y-02540599D01*
G01*
X-14096618Y-02934027D01*
G01*
X-14148276Y-03327454D01*
G01*
X-14199935Y-03720882D01*
G01*
X-14251594Y-04114310D01*
G01*
X-14250104Y-04114506D01*
G01*
X-14254491Y-04159045D01*
G01*
X-14254572Y-04159045D01*
G01*
X-14255480Y-04541945D01*
G01*
X-14256388Y-04924845D01*
G01*
X-14257297Y-05307745D01*
G01*
X-14258205Y-05690646D01*
G01*
X-14258124Y-05690646D01*
G01*
X-14258206Y-05691476D01*
G01*
X-14258206Y-05696428D01*
G01*
X-14263746Y-05706792D01*
G01*
X-14289353Y-05791209D01*
G01*
X-14298000Y-05879000D01*
G01*
X-14289353Y-05966791D01*
G01*
X-14263746Y-06051208D01*
G01*
X-14222161Y-06129007D01*
G01*
X-14166198Y-06197198D01*
G01*
X-14098007Y-06253161D01*
G01*
X-14020208Y-06294746D01*
G01*
X-13935791Y-06320353D01*
G01*
X-13848000Y-06329000D01*
G01*
X-13760209Y-06320353D01*
G01*
X-13717555Y-06307414D01*
G01*
X-18277808Y-10867877D01*
G01*
X-23213682Y-10867804D01*
G01*
X-23213685Y-10867804D01*
G01*
X-23257580Y-10872127D01*
G01*
X-23286504Y-10880901D01*
G01*
X-23286808Y-10880017D01*
G01*
X-23416873Y-10924714D01*
G01*
X-23416569Y-10925597D01*
G01*
X-23429854Y-10929627D01*
G01*
X-23468753Y-10950419D01*
G01*
X-23502849Y-10978401D01*
G01*
X-23870188Y-11345740D01*
G01*
X-23862047Y-11318903D01*
G01*
X-23853400Y-11231113D01*
G01*
X-23862047Y-11143322D01*
G01*
X-23887654Y-11058905D01*
G01*
X-23929239Y-10981106D01*
G01*
X-23985202Y-10912914D01*
G01*
X-24053394Y-10856951D01*
G01*
X-24131193Y-10815367D01*
G01*
X-24215610Y-10789759D01*
G01*
X-24303400Y-10781113D01*
G01*
X-24391191Y-10789759D01*
G01*
X-24475608Y-10815367D01*
G01*
X-24553407Y-10856951D01*
G01*
X-24621598Y-10912914D01*
G01*
X-24677562Y-10981106D01*
G01*
X-24719146Y-11058905D01*
G01*
X-24744754Y-11143322D01*
G01*
X-24753400Y-11231113D01*
G01*
X-24744754Y-11318903D01*
G01*
X-24719146Y-11403320D01*
G01*
X-24699165Y-11440702D01*
G01*
X-24699176Y-11647205D01*
G01*
X-24699197Y-12038760D01*
G01*
X-24699218Y-12430314D01*
G01*
X-24699239Y-12821869D01*
G01*
X-24699260Y-13213424D01*
G01*
X-24699281Y-13604979D01*
G01*
X-24699302Y-13996534D01*
G01*
X-24699323Y-14388089D01*
G01*
X-24699344Y-14779643D01*
G01*
X-24699365Y-15171198D01*
G01*
X-24699386Y-15562753D01*
G01*
X-24699405Y-15924204D01*
G01*
X-24944857Y-17340222D01*
G01*
X-24944125Y-17340349D01*
G01*
X-24950000Y-17400000D01*
G01*
X-24943275Y-17468282D01*
G01*
X-24923358Y-17533939D01*
G01*
X-24913092Y-17553145D01*
G01*
X-24914404Y-17553787D01*
G01*
X-24699516Y-17993106D01*
G01*
X-24699533Y-18303637D01*
G01*
X-24699554Y-18695192D01*
G01*
X-24699575Y-19086747D01*
G01*
X-24699596Y-19478302D01*
G01*
X-24699617Y-19869856D01*
G01*
X-24699638Y-20261411D01*
G01*
X-24699659Y-20652966D01*
G01*
X-24699680Y-21044521D01*
G01*
X-24699701Y-21436076D01*
G01*
X-24699722Y-21827631D01*
G01*
X-24699744Y-22219185D01*
G01*
X-24699742Y-22219185D01*
G01*
X-24699744Y-22219204D01*
G01*
X-24696097Y-22256223D01*
G01*
X-24697761Y-22256401D01*
G01*
X-24675975Y-22460240D01*
G01*
X-24674311Y-22460062D01*
G01*
X-24671232Y-22491325D01*
G01*
X-24651315Y-22556982D01*
G01*
X-24618971Y-22617493D01*
G01*
X-24575444Y-22670530D01*
G01*
X-24294765Y-22951210D01*
G01*
X-24187086Y-23058889D01*
G01*
X-24183353Y-23096791D01*
G01*
X-24157746Y-23181208D01*
G01*
X-24116161Y-23259007D01*
G01*
X-24060198Y-23327198D01*
G01*
X-23992007Y-23383161D01*
G01*
X-23914208Y-23424746D01*
G01*
X-23829791Y-23450353D01*
G01*
X-23742000Y-23459000D01*
G01*
X-23654209Y-23450353D01*
G01*
X-23569792Y-23424746D01*
G01*
X-23491993Y-23383161D01*
G01*
X-23423802Y-23327198D01*
G01*
X-23367839Y-23259007D01*
G01*
X-23326254Y-23181208D01*
G01*
X-23300647Y-23096791D01*
G01*
X-23292000Y-23009000D01*
G01*
X-23300647Y-22921209D01*
G01*
X-23326254Y-22836792D01*
G01*
X-23367839Y-22758993D01*
G01*
X-23423802Y-22690802D01*
G01*
X-23491993Y-22634839D01*
G01*
X-23569792Y-22593254D01*
G01*
X-23654209Y-22567647D01*
G01*
X-23692111Y-22563914D01*
G01*
X-23799790Y-22456235D01*
G01*
X-23993074Y-22262951D01*
G01*
X-23999743Y-22200561D01*
G01*
X-23999722Y-21827668D01*
G01*
X-23999701Y-21436113D01*
G01*
X-23999680Y-21044558D01*
G01*
X-23999659Y-20653004D01*
G01*
X-23999638Y-20261449D01*
G01*
X-23999617Y-19869894D01*
G01*
X-23999596Y-19478339D01*
G01*
X-23999575Y-19086784D01*
G01*
X-23999554Y-18695229D01*
G01*
X-23999533Y-18303675D01*
G01*
X-23999512Y-17912120D01*
G01*
X-23999514Y-17912120D01*
G01*
X-23999512Y-17912101D01*
G01*
X-24006238Y-17843819D01*
G01*
X-24026155Y-17778162D01*
G01*
X-24036421Y-17758956D01*
G01*
X-24035109Y-17758314D01*
G01*
X-24235778Y-17348062D01*
G01*
X-24188435Y-17074937D01*
G01*
X-24142651Y-17130723D01*
G01*
X-24074460Y-17186687D01*
G01*
X-23996661Y-17228271D01*
G01*
X-23912244Y-17253879D01*
G01*
X-23824453Y-17262525D01*
G01*
X-23736663Y-17253879D01*
G01*
X-23652246Y-17228271D01*
G01*
X-23574447Y-17186687D01*
G01*
X-23506255Y-17130723D01*
G01*
X-23450292Y-17062532D01*
G01*
X-23408708Y-16984733D01*
G01*
X-23383100Y-16900316D01*
G01*
X-23374453Y-16812525D01*
G01*
X-23383100Y-16724735D01*
G01*
X-23408708Y-16640318D01*
G01*
X-23450292Y-16562519D01*
G01*
X-23506255Y-16494327D01*
G01*
X-23574447Y-16438364D01*
G01*
X-23605678Y-16421671D01*
G01*
X-23673611Y-12175677D01*
G01*
X-23618198Y-12243198D01*
G01*
X-23550007Y-12299161D01*
G01*
X-23472208Y-12340746D01*
G01*
X-23440244Y-12350442D01*
G01*
X-23364904Y-12425782D01*
G01*
X-23364904Y-18009377D01*
G01*
X-23357218Y-18087413D01*
G01*
X-23334456Y-18162450D01*
G01*
X-23297492Y-18231605D01*
G01*
X-23247747Y-18292220D01*
G01*
X-18765641Y-22774325D01*
G01*
X-18744746Y-22843208D01*
G01*
X-18703161Y-22921007D01*
G01*
X-18647198Y-22989198D01*
G01*
X-18579007Y-23045161D01*
G01*
X-18501208Y-23086746D01*
G01*
X-18416791Y-23112353D01*
G01*
X-18329000Y-23121000D01*
G01*
X-18241209Y-23112353D01*
G01*
X-18156792Y-23086746D01*
G01*
X-18078993Y-23045161D01*
G01*
X-18010802Y-22989198D01*
G01*
X-17954839Y-22921007D01*
G01*
X-17913254Y-22843208D01*
G01*
X-17887647Y-22758791D01*
G01*
X-17879000Y-22671000D01*
G01*
X-17887647Y-22583209D01*
G01*
X-17913254Y-22498792D01*
G01*
X-17954839Y-22420993D01*
G01*
X-18010802Y-22352802D01*
G01*
X-18078993Y-22296839D01*
G01*
X-18149378Y-22259217D01*
G01*
X-22564904Y-17843691D01*
G01*
X-22564904Y-12260096D01*
G01*
X-22572590Y-12182060D01*
G01*
X-22595352Y-12107023D01*
G01*
X-22632316Y-12037868D01*
G01*
X-22682061Y-11977253D01*
G01*
X-22874558Y-11784756D01*
G01*
X-22884254Y-11752792D01*
G01*
X-22925839Y-11674993D01*
G01*
X-22981802Y-11606802D01*
G01*
X-23049993Y-11550839D01*
G01*
X-23127792Y-11509254D01*
G01*
X-23212209Y-11483647D01*
G01*
X-23300000Y-11475000D01*
G01*
X-23369941Y-11481889D01*
G01*
X-23221433Y-11333381D01*
G01*
X-23176106Y-11317805D01*
G01*
X-18184610Y-11317878D01*
G01*
X-18184607Y-11317878D01*
G01*
X-18140712Y-11313554D01*
G01*
X-18098503Y-11300751D01*
G01*
X-18059604Y-11279958D01*
G01*
X-18025508Y-11251977D01*
G01*
X-18025504Y-11251973D01*
G01*
X-11519719Y-04745887D01*
G01*
X-11528131Y-04773620D01*
G01*
X-11536778Y-04861411D01*
G01*
X-11528131Y-04949202D01*
G01*
X-11502524Y-05033618D01*
G01*
X-11460939Y-05111418D01*
G01*
X-11404976Y-05179609D01*
G01*
X-11336784Y-05235572D01*
G01*
X-11275154Y-05268515D01*
G01*
X-11270502Y-05525689D01*
G01*
X-11270138Y-05525682D01*
G01*
X-11266215Y-05565515D01*
G01*
X-11253411Y-05607724D01*
G01*
X-11232619Y-05646623D01*
G01*
X-11221559Y-05660100D01*
G01*
X-11025227Y-06041228D01*
G01*
X-11045979Y-08443427D01*
G01*
X-11045796Y-08443429D01*
G01*
X-11045987Y-08445371D01*
G01*
X-11041664Y-08489266D01*
G01*
X-11028860Y-08531475D01*
G01*
X-11008068Y-08570374D01*
G01*
X-10982308Y-08601763D01*
G01*
X-10982535Y-08601983D01*
G01*
X-10905572Y-08681371D01*
G01*
X-10909343Y-08681000D01*
G01*
X-12672472Y-08681000D01*
G01*
X-12685839Y-08655993D01*
G01*
X-12741802Y-08587802D01*
G01*
X-12809993Y-08531839D01*
G01*
X-12887792Y-08490254D01*
G01*
X-12972209Y-08464647D01*
G01*
X-13060000Y-08456000D01*
G01*
X-13147791Y-08464647D01*
G01*
X-13232208Y-08490254D01*
G01*
X-13310007Y-08531839D01*
G01*
X-13378198Y-08587802D01*
G01*
X-13434161Y-08655993D01*
G01*
X-13475746Y-08733792D01*
G01*
X-13501353Y-08818209D01*
G01*
X-13510000Y-08906000D01*
G01*
X-13501353Y-08993791D01*
G01*
X-13475746Y-09078208D01*
G01*
X-13434161Y-09156007D01*
G01*
X-13378198Y-09224198D01*
G01*
X-13310007Y-09280161D01*
G01*
X-13232208Y-09321746D01*
G01*
X-13147791Y-09347353D01*
G01*
X-13060000Y-09356000D01*
G01*
X-12972209Y-09347353D01*
G01*
X-12887792Y-09321746D01*
G01*
X-12809993Y-09280161D01*
G01*
X-12741802Y-09224198D01*
G01*
X-12685839Y-09156007D01*
G01*
X-12672472Y-09131000D01*
G01*
X-11002541Y-09131000D01*
G01*
X-06580153Y-13553388D01*
G01*
X-06046848Y-14086693D01*
G01*
X-06012752Y-14114675D01*
G01*
X-05973852Y-14135467D01*
G01*
X-05931644Y-14148271D01*
G01*
X-05887749Y-14152594D01*
G01*
X-05887666Y-14152586D01*
G01*
X-05887666Y-14152594D01*
G01*
X-05110092Y-14152308D01*
G01*
X-05161894Y-14215428D01*
G01*
X-05203478Y-14293227D01*
G01*
X-05229086Y-14377644D01*
G01*
X-05237732Y-14465435D01*
G01*
X-05229086Y-14553225D01*
G01*
X-05203478Y-14637642D01*
G01*
X-05161894Y-14715441D01*
G01*
X-05114528Y-14773158D01*
G01*
X-07730370Y-17389000D01*
G01*
X-11458472Y-17389000D01*
G01*
X-11471839Y-17363993D01*
G01*
X-11527802Y-17295802D01*
G01*
X-11595993Y-17239839D01*
G01*
X-11673792Y-17198254D01*
G01*
X-11758209Y-17172647D01*
G01*
X-11825755Y-17165994D01*
G01*
X-09168821Y-14509060D01*
G01*
X-07403807Y-14509060D01*
G01*
X-07360198Y-14562198D01*
G01*
X-07292007Y-14618161D01*
G01*
X-07214208Y-14659746D01*
G01*
X-07129791Y-14685353D01*
G01*
X-07042000Y-14694000D01*
G01*
X-06954209Y-14685353D01*
G01*
X-06869792Y-14659746D01*
G01*
X-06791993Y-14618161D01*
G01*
X-06723802Y-14562198D01*
G01*
X-06667839Y-14494007D01*
G01*
X-06626254Y-14416208D01*
G01*
X-06600647Y-14331791D01*
G01*
X-06592000Y-14244000D01*
G01*
X-06600647Y-14156209D01*
G01*
X-06626254Y-14071792D01*
G01*
X-06667839Y-13993993D01*
G01*
X-06723802Y-13925802D01*
G01*
X-06791993Y-13869839D01*
G01*
X-06869792Y-13828254D01*
G01*
X-06954209Y-13802647D01*
G01*
X-07042000Y-13794000D01*
G01*
X-07129791Y-13802647D01*
G01*
X-07214208Y-13828254D01*
G01*
X-07292007Y-13869839D01*
G01*
X-07360198Y-13925802D01*
G01*
X-07416161Y-13993993D01*
G01*
X-07450941Y-14059060D01*
G01*
X-09262019Y-14059060D01*
G01*
X-09305915Y-14063384D01*
G01*
X-09348123Y-14076187D01*
G01*
X-09387023Y-14096980D01*
G01*
X-09421118Y-14124961D01*
G01*
X-13060099Y-17763942D01*
G01*
X-13088081Y-17798038D01*
G01*
X-13108873Y-17836937D01*
G01*
X-13121677Y-17879146D01*
G01*
X-13126000Y-17923041D01*
G01*
X-13126000Y-19637472D01*
G01*
X-13151007Y-19650839D01*
G01*
X-13219198Y-19706802D01*
G01*
X-13275161Y-19774993D01*
G01*
X-13316746Y-19852792D01*
G01*
X-13342353Y-19937209D01*
G01*
X-13351000Y-20025000D01*
G01*
X-13342353Y-20112791D01*
G01*
X-13316746Y-20197208D01*
G01*
X-13275161Y-20275007D01*
G01*
X-13219198Y-20343198D01*
G01*
X-13151007Y-20399161D01*
G01*
X-13073208Y-20440746D01*
G01*
X-12988791Y-20466353D01*
G01*
X-12901000Y-20475000D01*
G01*
X-12813209Y-20466353D01*
G01*
X-12728792Y-20440746D01*
G01*
X-12650993Y-20399161D01*
G01*
X-12582802Y-20343198D01*
G01*
X-12526839Y-20275007D01*
G01*
X-12485254Y-20197208D01*
G01*
X-12459647Y-20112791D01*
G01*
X-12451000Y-20025000D01*
G01*
X-12459647Y-19937209D01*
G01*
X-12485254Y-19852792D01*
G01*
X-12526839Y-19774993D01*
G01*
X-12582802Y-19706802D01*
G01*
X-12650993Y-19650839D01*
G01*
X-12676000Y-19637472D01*
G01*
X-12676000Y-18016239D01*
G01*
X-12294006Y-17634245D01*
G01*
X-12287353Y-17701791D01*
G01*
X-12261746Y-17786208D01*
G01*
X-12220161Y-17864007D01*
G01*
X-12164198Y-17932198D01*
G01*
X-12096007Y-17988161D01*
G01*
X-12018208Y-18029746D01*
G01*
X-11933791Y-18055353D01*
G01*
X-11846000Y-18064000D01*
G01*
X-11758209Y-18055353D01*
G01*
X-11673792Y-18029746D01*
G01*
X-11595993Y-17988161D01*
G01*
X-11527802Y-17932198D01*
G01*
X-11471839Y-17864007D01*
G01*
X-11458472Y-17839000D01*
G01*
X-07637172Y-17839000D01*
G01*
X-07593277Y-17834677D01*
G01*
X-07551069Y-17821873D01*
G01*
X-07512169Y-17801081D01*
G01*
X-07478073Y-17773099D01*
G01*
X-04552429Y-14847455D01*
G01*
X-04537726Y-14839596D01*
G01*
X-04469534Y-14783633D01*
G01*
X-04413571Y-14715441D01*
G01*
X-04371987Y-14637642D01*
G01*
X-04346379Y-14553225D01*
G01*
X-04337732Y-14465435D01*
G01*
X-04346379Y-14377644D01*
G01*
X-04371987Y-14293227D01*
G01*
X-04413571Y-14215428D01*
G01*
X-04465567Y-14152070D01*
G01*
X-01942207Y-14151141D01*
G01*
X-01942207Y-14151133D01*
G01*
X-01898395Y-14146818D01*
G01*
X-01856186Y-14134014D01*
G01*
X-01817287Y-14113222D01*
G01*
X-01783191Y-14085240D01*
G01*
X-01782179Y-14084007D01*
G01*
X-01782072Y-14084113D01*
G01*
X-01534365Y-13832884D01*
G01*
X-01527460Y-13902989D01*
G01*
X-01501853Y-13987406D01*
G01*
X-01460268Y-14065205D01*
G01*
X-01404305Y-14133397D01*
G01*
X-01336114Y-14189360D01*
G01*
X-01312228Y-14202127D01*
G01*
X-01329878Y-20302033D01*
G01*
X-02169040Y-21141195D01*
G01*
X-02169420Y-21141080D01*
G01*
X-02257211Y-21132433D01*
G01*
X-02345001Y-21141080D01*
G01*
X-02429418Y-21166688D01*
G01*
X-02507217Y-21208272D01*
G01*
X-02575409Y-21264235D01*
G01*
X-02631372Y-21332427D01*
G01*
X-02672957Y-21410226D01*
G01*
X-02698564Y-21494643D01*
G01*
X-02701688Y-21526358D01*
G01*
X-04455329Y-18895897D01*
G01*
X-04458647Y-18862209D01*
G01*
X-04484254Y-18777792D01*
G01*
X-04525839Y-18699993D01*
G01*
X-04581802Y-18631802D01*
G01*
X-04649993Y-18575839D01*
G01*
X-04727792Y-18534254D01*
G01*
X-04812209Y-18508647D01*
G01*
X-04900000Y-18500000D01*
G01*
X-04987791Y-18508647D01*
G01*
X-05072208Y-18534254D01*
G01*
X-05150007Y-18575839D01*
G01*
X-05218198Y-18631802D01*
G01*
X-05274161Y-18699993D01*
G01*
X-05315746Y-18777792D01*
G01*
X-05341353Y-18862209D01*
G01*
X-05350000Y-18950000D01*
G01*
X-05341353Y-19037791D01*
G01*
X-05315746Y-19122208D01*
G01*
X-05274161Y-19200007D01*
G01*
X-05218198Y-19268198D01*
G01*
X-05150007Y-19324161D01*
G01*
X-05120942Y-19339697D01*
G01*
X-03394671Y-21929103D01*
G01*
X-03392314Y-21953036D01*
G01*
X-03369552Y-22028073D01*
G01*
X-03332588Y-22097228D01*
G01*
X-03282843Y-22157843D01*
G01*
X-03032843Y-22407843D01*
G01*
X-02973939Y-22456184D01*
G01*
X-02974057Y-22456359D01*
G01*
X-02317540Y-22900279D01*
G01*
X-02300678Y-22931826D01*
G01*
X-02244715Y-23000017D01*
G01*
X-02176523Y-23055980D01*
G01*
X-02098724Y-23097565D01*
G01*
X-02014307Y-23123172D01*
G01*
X-01926517Y-23131819D01*
G01*
X-01838726Y-23123172D01*
G01*
X-01754309Y-23097565D01*
G01*
X-01676510Y-23055980D01*
G01*
X-01608319Y-23000017D01*
G01*
X-01552355Y-22931826D01*
G01*
X-01510771Y-22854026D01*
G01*
X-01485163Y-22769610D01*
G01*
X-01476517Y-22681819D01*
G01*
X-01485163Y-22594028D01*
G01*
X-01496699Y-22555999D01*
G01*
X-00776632Y-23277792D01*
G01*
X-00780307Y-24125151D01*
G01*
X-00806996Y-24139417D01*
G01*
X-00875188Y-24195380D01*
G01*
X-00931151Y-24263572D01*
G01*
X-00972735Y-24341371D01*
G01*
X-00998343Y-24425788D01*
G01*
X-01006990Y-24513578D01*
G01*
X-00998343Y-24601369D01*
G01*
X-00972735Y-24685786D01*
G01*
X-00931151Y-24763585D01*
G01*
X-00875188Y-24831776D01*
G01*
X-00806996Y-24887740D01*
G01*
X-00729197Y-24929324D01*
G01*
X-00644780Y-24954932D01*
G01*
X-00556990Y-24963578D01*
G37*
D31*
G36*
X013606000Y005557000D02*
G01*
X013693791Y005565647D01*
G01*
X013778208Y005591254D01*
G01*
X013856007Y005632839D01*
G01*
X013924198Y005688802D01*
G01*
X013980161Y005756993D01*
G01*
X014021746Y005834792D01*
G01*
X014047353Y005919209D01*
G01*
X014050780Y005954000D01*
G01*
X014935472Y005954000D01*
G01*
X014948839Y005928993D01*
G01*
X015004802Y005860802D01*
G01*
X015072993Y005804839D01*
G01*
X015150792Y005763254D01*
G01*
X015235209Y005737647D01*
G01*
X015323000Y005729000D01*
G01*
X015410791Y005737647D01*
G01*
X015495208Y005763254D01*
G01*
X015573007Y005804839D01*
G01*
X015641198Y005860802D01*
G01*
X015697161Y005928993D01*
G01*
X015738746Y006006792D01*
G01*
X015764353Y006091209D01*
G01*
X015773000Y006179000D01*
G01*
X015764353Y006266791D01*
G01*
X015738746Y006351208D01*
G01*
X015697161Y006429007D01*
G01*
X015641198Y006497198D01*
G01*
X015573007Y006553161D01*
G01*
X015495208Y006594746D01*
G01*
X015410791Y006620353D01*
G01*
X015323000Y006629000D01*
G01*
X015235209Y006620353D01*
G01*
X015150792Y006594746D01*
G01*
X015072993Y006553161D01*
G01*
X015004802Y006497198D01*
G01*
X014948839Y006429007D01*
G01*
X014935472Y006404000D01*
G01*
X013868165Y006404000D01*
G01*
X013824270Y006399677D01*
G01*
X013822418Y006399115D01*
G01*
X013778208Y006422746D01*
G01*
X013693791Y006448353D01*
G01*
X013606000Y006457000D01*
G01*
X013518209Y006448353D01*
G01*
X013433792Y006422746D01*
G01*
X013355993Y006381161D01*
G01*
X013287802Y006325198D01*
G01*
X013231839Y006257007D01*
G01*
X013190254Y006179208D01*
G01*
X013164647Y006094791D01*
G01*
X013156000Y006007000D01*
G01*
X013164647Y005919209D01*
G01*
X013190254Y005834792D01*
G01*
X013231839Y005756993D01*
G01*
X013287802Y005688802D01*
G01*
X013355993Y005632839D01*
G01*
X013433792Y005591254D01*
G01*
X013518209Y005565647D01*
G01*
X013606000Y005557000D01*
G37*
D31*
G36*
X-36740000Y-06945000D02*
G01*
X-36652209Y-06936353D01*
G01*
X-36567792Y-06910746D01*
G01*
X-36489993Y-06869161D01*
G01*
X-36421802Y-06813198D01*
G01*
X-36365839Y-06745007D01*
G01*
X-36324254Y-06667208D01*
G01*
X-36298647Y-06582791D01*
G01*
X-36290000Y-06495000D01*
G01*
X-36298647Y-06407209D01*
G01*
X-36324254Y-06322792D01*
G01*
X-36365839Y-06244993D01*
G01*
X-36421802Y-06176802D01*
G01*
X-36489993Y-06120839D01*
G01*
X-36567792Y-06079254D01*
G01*
X-36652209Y-06053647D01*
G01*
X-36667367Y-06052154D01*
G01*
X-36601171Y-06045634D01*
G01*
X-36516754Y-06020026D01*
G01*
X-36438955Y-05978442D01*
G01*
X-36370764Y-05922479D01*
G01*
X-36314800Y-05854287D01*
G01*
X-36273216Y-05776488D01*
G01*
X-36247608Y-05692071D01*
G01*
X-36238962Y-05604281D01*
G01*
X-36247608Y-05516490D01*
G01*
X-36273216Y-05432073D01*
G01*
X-36314800Y-05354274D01*
G01*
X-36370764Y-05286083D01*
G01*
X-36438955Y-05230119D01*
G01*
X-36516754Y-05188535D01*
G01*
X-36548718Y-05178839D01*
G01*
X-36566564Y-05160993D01*
G01*
X-36597588Y-05135532D01*
G01*
X-36832576Y-04900544D01*
G01*
X-36965861Y-04767259D01*
G01*
X-36951579Y-04528057D01*
G01*
X-36926580Y-04109336D01*
G01*
X-36901580Y-03690616D01*
G01*
X-36877190Y-03282116D01*
G01*
X-36850839Y-03250007D01*
G01*
X-36809254Y-03172208D01*
G01*
X-36783647Y-03087791D01*
G01*
X-36775000Y-03000000D01*
G01*
X-36783647Y-02912209D01*
G01*
X-36809254Y-02827792D01*
G01*
X-36850839Y-02749993D01*
G01*
X-36863708Y-02734312D01*
G01*
X-36876790Y-02691186D01*
G01*
X-36851708Y-02660623D01*
G01*
X-36810123Y-02582824D01*
G01*
X-36784516Y-02498407D01*
G01*
X-36775869Y-02410616D01*
G01*
X-36784516Y-02322825D01*
G01*
X-36810123Y-02238409D01*
G01*
X-36851708Y-02160610D01*
G01*
X-36907671Y-02092418D01*
G01*
X-36975863Y-02036455D01*
G01*
X-37053662Y-01994870D01*
G01*
X-37085625Y-01985174D01*
G01*
X-39000000Y-00070800D01*
G01*
X-39000000Y001184314D01*
G01*
X-37967157Y002217157D01*
G01*
X-37917412Y002277772D01*
G01*
X-37880448Y002346927D01*
G01*
X-37857686Y002421964D01*
G01*
X-37850000Y002500000D01*
G01*
X-37850000Y002584314D01*
G01*
X-37779143Y002655171D01*
G01*
X-36968917Y003067078D01*
G01*
X-36072222Y002762956D01*
G01*
X-36071671Y002764581D01*
G01*
X-36021783Y002749447D01*
G01*
X-35943747Y002741762D01*
G01*
X-35446142Y002741762D01*
G01*
X-34948538Y002741762D01*
G01*
X-34450934Y002741762D01*
G01*
X-33953329Y002741762D01*
G01*
X-33455725Y002741762D01*
G01*
X-32958121Y002741762D01*
G01*
X-32460516Y002741762D01*
G01*
X-31962912Y002741762D01*
G01*
X-31865308Y002741762D01*
G01*
X-31865308Y002732355D01*
G01*
X-31865308Y002322948D01*
G01*
X-31857622Y002244912D01*
G01*
X-31834859Y002169874D01*
G01*
X-31797896Y002100720D01*
G01*
X-31748150Y002040105D01*
G01*
X-31525078Y001817032D01*
G01*
X-31302005Y001593960D01*
G01*
X-31241391Y001544215D01*
G01*
X-31172236Y001507251D01*
G01*
X-31097199Y001484488D01*
G01*
X-31019162Y001476802D01*
G01*
X-30941126Y001484488D01*
G01*
X-30866089Y001507251D01*
G01*
X-30796934Y001544215D01*
G01*
X-30736320Y001593960D01*
G01*
X-30686575Y001654574D01*
G01*
X-30649611Y001723729D01*
G01*
X-30626848Y001798766D01*
G01*
X-30624662Y001820965D01*
G01*
X-30600839Y001849993D01*
G01*
X-30559254Y001927792D01*
G01*
X-30533647Y002012209D01*
G01*
X-30525000Y002100000D01*
G01*
X-30533647Y002187791D01*
G01*
X-30559254Y002272208D01*
G01*
X-30600839Y002350007D01*
G01*
X-30656802Y002418198D01*
G01*
X-30724993Y002474161D01*
G01*
X-30802792Y002515746D01*
G01*
X-30887209Y002541353D01*
G01*
X-30975000Y002550000D01*
G01*
X-31062791Y002541353D01*
G01*
X-31065308Y002540589D01*
G01*
X-31065308Y002732355D01*
G01*
X-31065308Y003141762D01*
G01*
X-31072994Y003219798D01*
G01*
X-31095756Y003294835D01*
G01*
X-31132720Y003363990D01*
G01*
X-31182465Y003424604D01*
G01*
X-31243080Y003474349D01*
G01*
X-31312234Y003511313D01*
G01*
X-31387272Y003534076D01*
G01*
X-31465308Y003541762D01*
G01*
X-31962912Y003541762D01*
G01*
X-32460516Y003541762D01*
G01*
X-32958121Y003541762D01*
G01*
X-33455725Y003541762D01*
G01*
X-33953329Y003541762D01*
G01*
X-34450934Y003541762D01*
G01*
X-34948538Y003541762D01*
G01*
X-35446142Y003541762D01*
G01*
X-35877761Y003541762D01*
G01*
X-36871524Y003878806D01*
G01*
X-36872075Y003877181D01*
G01*
X-36921964Y003892314D01*
G01*
X-37000000Y003900000D01*
G01*
X-37078036Y003892314D01*
G01*
X-37100000Y003885651D01*
G01*
X-37100000Y004334314D01*
G01*
X-36967157Y004467157D01*
G01*
X-36917412Y004527772D01*
G01*
X-36880448Y004596927D01*
G01*
X-36857686Y004671964D01*
G01*
X-36853296Y004716537D01*
G01*
X-36825839Y004749993D01*
G01*
X-36784254Y004827792D01*
G01*
X-36758647Y004912209D01*
G01*
X-36750000Y005000000D01*
G01*
X-36758647Y005087791D01*
G01*
X-36784254Y005172208D01*
G01*
X-36825839Y005250007D01*
G01*
X-36881802Y005318198D01*
G01*
X-36949993Y005374161D01*
G01*
X-37027792Y005415746D01*
G01*
X-37112209Y005441353D01*
G01*
X-37200000Y005450000D01*
G01*
X-37287791Y005441353D01*
G01*
X-37372208Y005415746D01*
G01*
X-37450007Y005374161D01*
G01*
X-37518198Y005318198D01*
G01*
X-37574161Y005250007D01*
G01*
X-37615746Y005172208D01*
G01*
X-37641353Y005087791D01*
G01*
X-37642314Y005078037D01*
G01*
X-37642314Y005078036D01*
G01*
X-37650000Y005000000D01*
G01*
X-37650000Y004915686D01*
G01*
X-37782843Y004782843D01*
G01*
X-37832588Y004722228D01*
G01*
X-37869552Y004653073D01*
G01*
X-37892314Y004578036D01*
G01*
X-37900000Y004500000D01*
G01*
X-37900000Y003665686D01*
G01*
X-38254972Y003310714D01*
G01*
X-38413796Y003229970D01*
G01*
X-38412961Y003228328D01*
G01*
X-38454750Y003205991D01*
G01*
X-38499003Y003169674D01*
G01*
X-38500018Y003170802D01*
G01*
X-38794982Y002905495D01*
G01*
X-38809805Y003055990D01*
G01*
X-38855330Y003206065D01*
G01*
X-38929258Y003344374D01*
G01*
X-39028748Y003465603D01*
G01*
X-39149977Y003565093D01*
G01*
X-39288286Y003639021D01*
G01*
X-39438361Y003684546D01*
G01*
X-39594433Y003699917D01*
G01*
X-39750505Y003684546D01*
G01*
X-39900579Y003639021D01*
G01*
X-40038889Y003565093D01*
G01*
X-40160118Y003465603D01*
G01*
X-40259608Y003344374D01*
G01*
X-40333536Y003206065D01*
G01*
X-40379060Y003055990D01*
G01*
X-40394432Y002899918D01*
G01*
X-40379060Y002743846D01*
G01*
X-40333536Y002593771D01*
G01*
X-40259608Y002455462D01*
G01*
X-40244791Y002437408D01*
G01*
X-40268198Y002418198D01*
G01*
X-40324161Y002350007D01*
G01*
X-40365746Y002272208D01*
G01*
X-40391353Y002187791D01*
G01*
X-40400000Y002100000D01*
G01*
X-40391353Y002012209D01*
G01*
X-40365746Y001927792D01*
G01*
X-40324161Y001849993D01*
G01*
X-40268198Y001781802D01*
G01*
X-40200007Y001725839D01*
G01*
X-40122208Y001684254D01*
G01*
X-40037791Y001658647D01*
G01*
X-39950000Y001650000D01*
G01*
X-39862209Y001658647D01*
G01*
X-39800000Y001677517D01*
G01*
X-39800000Y001583133D01*
G01*
X-39818198Y001568198D01*
G01*
X-39874161Y001500007D01*
G01*
X-39915746Y001422208D01*
G01*
X-39941353Y001337791D01*
G01*
X-39950000Y001250000D01*
G01*
X-39941353Y001162209D01*
G01*
X-39915746Y001077792D01*
G01*
X-39874161Y000999993D01*
G01*
X-39818198Y000931802D01*
G01*
X-39800000Y000916867D01*
G01*
X-39800000Y-00236485D01*
G01*
X-39792314Y-00314521D01*
G01*
X-39769552Y-00389559D01*
G01*
X-39732588Y-00458713D01*
G01*
X-39682843Y-00519328D01*
G01*
X-37651311Y-02550860D01*
G01*
X-37641615Y-02582824D01*
G01*
X-37606046Y-02649369D01*
G01*
X-37620421Y-02676263D01*
G01*
X-37643183Y-02751300D01*
G01*
X-37648531Y-02805594D01*
G01*
X-37650158Y-02805497D01*
G01*
X-37654122Y-02871887D01*
G01*
X-37666353Y-02912209D01*
G01*
X-37675000Y-03000000D01*
G01*
X-37666764Y-03083622D01*
G01*
X-37675158Y-03224217D01*
G01*
X-37700158Y-03642937D01*
G01*
X-37725157Y-04061657D01*
G01*
X-37750157Y-04480377D01*
G01*
X-37775157Y-04899097D01*
G01*
X-37773529Y-04899194D01*
G01*
X-37775868Y-04922937D01*
G01*
X-37768182Y-05000973D01*
G01*
X-37745420Y-05076010D01*
G01*
X-37708456Y-05145165D01*
G01*
X-37658711Y-05205780D01*
G01*
X-37398262Y-05466229D01*
G01*
X-37137812Y-05726678D01*
G01*
X-37113852Y-05746342D01*
G01*
X-37104707Y-05776488D01*
G01*
X-37097959Y-05789113D01*
G01*
X-37838471Y-05048601D01*
G01*
X-37872567Y-05020619D01*
G01*
X-37911467Y-04999827D01*
G01*
X-37953675Y-04987023D01*
G01*
X-37997570Y-04982700D01*
G01*
X-40062802Y-04982700D01*
G01*
X-40860000Y-04185502D01*
G01*
X-40860000Y-02500528D01*
G01*
X-40834993Y-02487161D01*
G01*
X-40766802Y-02431198D01*
G01*
X-40710839Y-02363007D01*
G01*
X-40669254Y-02285208D01*
G01*
X-40643647Y-02200791D01*
G01*
X-40635000Y-02113000D01*
G01*
X-40643647Y-02025209D01*
G01*
X-40669254Y-01940792D01*
G01*
X-40710839Y-01862993D01*
G01*
X-40766802Y-01794802D01*
G01*
X-40834993Y-01738839D01*
G01*
X-40912792Y-01697254D01*
G01*
X-40997209Y-01671647D01*
G01*
X-41085000Y-01663000D01*
G01*
X-41172791Y-01671647D01*
G01*
X-41257208Y-01697254D01*
G01*
X-41335007Y-01738839D01*
G01*
X-41403198Y-01794802D01*
G01*
X-41459161Y-01862993D01*
G01*
X-41500746Y-01940792D01*
G01*
X-41526353Y-02025209D01*
G01*
X-41535000Y-02113000D01*
G01*
X-41526353Y-02200791D01*
G01*
X-41500746Y-02285208D01*
G01*
X-41459161Y-02363007D01*
G01*
X-41403198Y-02431198D01*
G01*
X-41335007Y-02487161D01*
G01*
X-41310000Y-02500528D01*
G01*
X-41310000Y-04278700D01*
G01*
X-41305677Y-04322595D01*
G01*
X-41292873Y-04364804D01*
G01*
X-41272081Y-04403703D01*
G01*
X-41244099Y-04437799D01*
G01*
X-40315099Y-05366799D01*
G01*
X-40281003Y-05394781D01*
G01*
X-40242103Y-05415573D01*
G01*
X-40199895Y-05428377D01*
G01*
X-40156000Y-05432700D01*
G01*
X-38090768Y-05432700D01*
G01*
X-37166203Y-06357266D01*
G01*
X-37181353Y-06407209D01*
G01*
X-37190000Y-06495000D01*
G01*
X-37181353Y-06582791D01*
G01*
X-37155746Y-06667208D01*
G01*
X-37114161Y-06745007D01*
G01*
X-37058198Y-06813198D01*
G01*
X-36990007Y-06869161D01*
G01*
X-36912208Y-06910746D01*
G01*
X-36827791Y-06936353D01*
G01*
X-36740000Y-06945000D01*
G37*
D31*
G36*
X-29054000Y001390000D02*
G01*
X-28966209Y001398647D01*
G01*
X-28881792Y001424254D01*
G01*
X-28803993Y001465839D01*
G01*
X-28735802Y001521802D01*
G01*
X-28679839Y001589993D01*
G01*
X-28638254Y001667792D01*
G01*
X-28612647Y001752209D01*
G01*
X-28604000Y001840000D01*
G01*
X-28612647Y001927791D01*
G01*
X-28638254Y002012208D01*
G01*
X-28679839Y002090007D01*
G01*
X-28735802Y002158198D01*
G01*
X-28803993Y002214161D01*
G01*
X-28829000Y002227528D01*
G01*
X-28829000Y003944774D01*
G01*
X-28657929Y004115845D01*
G01*
X-28640791Y004110647D01*
G01*
X-28553000Y004102000D01*
G01*
X-28465209Y004110647D01*
G01*
X-28380792Y004136254D01*
G01*
X-28302993Y004177839D01*
G01*
X-28234802Y004233802D01*
G01*
X-28178839Y004301993D01*
G01*
X-28137254Y004379792D01*
G01*
X-28111647Y004464209D01*
G01*
X-28103000Y004552000D01*
G01*
X-28111647Y004639791D01*
G01*
X-28137254Y004724208D01*
G01*
X-28178839Y004802007D01*
G01*
X-28234802Y004870198D01*
G01*
X-28302993Y004926161D01*
G01*
X-28380792Y004967746D01*
G01*
X-28465209Y004993353D01*
G01*
X-28553000Y005002000D01*
G01*
X-28640791Y004993353D01*
G01*
X-28725208Y004967746D01*
G01*
X-28803007Y004926161D01*
G01*
X-28871198Y004870198D01*
G01*
X-28927161Y004802007D01*
G01*
X-28968746Y004724208D01*
G01*
X-28994353Y004639791D01*
G01*
X-29003000Y004552000D01*
G01*
X-28994353Y004464209D01*
G01*
X-28983090Y004427080D01*
G01*
X-29213099Y004197071D01*
G01*
X-29241081Y004162975D01*
G01*
X-29261873Y004124076D01*
G01*
X-29274677Y004081867D01*
G01*
X-29279000Y004037972D01*
G01*
X-29279000Y002227528D01*
G01*
X-29304007Y002214161D01*
G01*
X-29372198Y002158198D01*
G01*
X-29428161Y002090007D01*
G01*
X-29469746Y002012208D01*
G01*
X-29495353Y001927791D01*
G01*
X-29504000Y001840000D01*
G01*
X-29495353Y001752209D01*
G01*
X-29469746Y001667792D01*
G01*
X-29428161Y001589993D01*
G01*
X-29372198Y001521802D01*
G01*
X-29304007Y001465839D01*
G01*
X-29226208Y001424254D01*
G01*
X-29141791Y001398647D01*
G01*
X-29054000Y001390000D01*
G37*
D31*
G36*
X-14344539Y000666278D02*
G01*
X-14256748Y000674925D01*
G01*
X-14172331Y000700532D01*
G01*
X-14094532Y000742117D01*
G01*
X-14026341Y000798080D01*
G01*
X-13970377Y000866272D01*
G01*
X-13928793Y000944071D01*
G01*
X-13903185Y001028488D01*
G01*
X-13894539Y001116278D01*
G01*
X-13903185Y001204069D01*
G01*
X-13928793Y001288486D01*
G01*
X-13933004Y001296365D01*
G01*
X-13692072Y001624261D01*
G01*
X-13692686Y001624712D01*
G01*
X-13686307Y001632485D01*
G01*
X-13665514Y001671385D01*
G01*
X-13652711Y001713593D01*
G01*
X-13648387Y001757488D01*
G01*
X-13651809Y001792222D01*
G01*
X-13651102Y001792333D01*
G01*
X-13703274Y002125163D01*
G01*
X-13703981Y002125052D01*
G01*
X-13704883Y002134214D01*
G01*
X-13715030Y002167664D01*
G01*
X-13714362Y002167909D01*
G01*
X-14504164Y004317716D01*
G01*
X-14504832Y004317470D01*
G01*
X-14507489Y004326229D01*
G01*
X-14528282Y004365128D01*
G01*
X-14556263Y004399224D01*
G01*
X-14576456Y004415796D01*
G01*
X-14575807Y004416617D01*
G01*
X-14748135Y004552879D01*
G01*
X-14748784Y004552058D01*
G01*
X-14762687Y004563468D01*
G01*
X-14801586Y004584260D01*
G01*
X-14843795Y004597064D01*
G01*
X-14887690Y004601387D01*
G01*
X-14918598Y004598343D01*
G01*
X-14918722Y004599237D01*
G01*
X-15897276Y004462975D01*
G01*
X-15897152Y004462081D01*
G01*
X-15910140Y004460802D01*
G01*
X-15952348Y004447998D01*
G01*
X-15991248Y004427206D01*
G01*
X-16025344Y004399224D01*
G01*
X-16032316Y004390729D01*
G01*
X-16032916Y004391273D01*
G01*
X-16747047Y003603801D01*
G01*
X-16753882Y003605874D01*
G01*
X-16841673Y003614521D01*
G01*
X-16929463Y003605874D01*
G01*
X-17013880Y003580267D01*
G01*
X-17091679Y003538682D01*
G01*
X-17159871Y003482719D01*
G01*
X-17215834Y003414527D01*
G01*
X-17257419Y003336728D01*
G01*
X-17283026Y003252311D01*
G01*
X-17291673Y003164521D01*
G01*
X-17283026Y003076730D01*
G01*
X-17257419Y002992313D01*
G01*
X-17215834Y002914514D01*
G01*
X-17159871Y002846323D01*
G01*
X-17091679Y002790359D01*
G01*
X-17013880Y002748775D01*
G01*
X-16929463Y002723167D01*
G01*
X-16841673Y002714521D01*
G01*
X-16753882Y002723167D01*
G01*
X-16669465Y002748775D01*
G01*
X-16591666Y002790359D01*
G01*
X-16523475Y002846323D01*
G01*
X-16467511Y002914514D01*
G01*
X-16425927Y002992313D01*
G01*
X-16400319Y003076730D01*
G01*
X-16391673Y003164521D01*
G01*
X-16400319Y003252311D01*
G01*
X-16414857Y003300235D01*
G01*
X-16322252Y003402350D01*
G01*
X-16341379Y003366566D01*
G01*
X-16366987Y003282149D01*
G01*
X-16375633Y003194359D01*
G01*
X-16366987Y003106568D01*
G01*
X-16341379Y003022151D01*
G01*
X-16299795Y002944352D01*
G01*
X-16243831Y002876161D01*
G01*
X-16175640Y002820197D01*
G01*
X-16097841Y002778613D01*
G01*
X-16013424Y002753005D01*
G01*
X-15925633Y002744359D01*
G01*
X-15837843Y002753005D01*
G01*
X-15782512Y002769790D01*
G01*
X-14872624Y001972501D01*
G01*
X-14881252Y001884906D01*
G01*
X-14872605Y001797115D01*
G01*
X-14846998Y001712698D01*
G01*
X-14805413Y001634899D01*
G01*
X-14749450Y001566707D01*
G01*
X-14681258Y001510744D01*
G01*
X-14613763Y001474668D01*
G01*
X-14662737Y001434476D01*
G01*
X-14718700Y001366285D01*
G01*
X-14760285Y001288486D01*
G01*
X-14785892Y001204069D01*
G01*
X-14794539Y001116278D01*
G01*
X-14785892Y001028488D01*
G01*
X-14760285Y000944071D01*
G01*
X-14718700Y000866272D01*
G01*
X-14662737Y000798080D01*
G01*
X-14594545Y000742117D01*
G01*
X-14516746Y000700532D01*
G01*
X-14432329Y000674925D01*
G01*
X-14344539Y000666278D01*
G37*
D31*
G36*
X-14319090Y-00383528D02*
G01*
X-14231299Y-00374881D01*
G01*
X-14146882Y-00349274D01*
G01*
X-14069083Y-00307689D01*
G01*
X-14000892Y-00251726D01*
G01*
X-13944928Y-00183535D01*
G01*
X-13903344Y-00105736D01*
G01*
X-13877736Y-00021319D01*
G01*
X-13869090Y000066472D01*
G01*
X-13869366Y000069273D01*
G01*
X-13719630Y000205034D01*
G01*
X-13520654Y000385440D01*
G01*
X-13321677Y000565846D01*
G01*
X-13122701Y000746252D01*
G01*
X-12923724Y000926658D01*
G01*
X-12724748Y001107064D01*
G01*
X-12573121Y001244539D01*
G01*
X-12528302Y001240125D01*
G01*
X-12440512Y001248772D01*
G01*
X-12356095Y001274379D01*
G01*
X-12278296Y001315964D01*
G01*
X-12210104Y001371927D01*
G01*
X-12154141Y001440118D01*
G01*
X-12112557Y001517917D01*
G01*
X-12086949Y001602334D01*
G01*
X-12078302Y001690125D01*
G01*
X-12086949Y001777916D01*
G01*
X-12112557Y001862332D01*
G01*
X-12154141Y001940132D01*
G01*
X-12210104Y002008323D01*
G01*
X-12278296Y002064286D01*
G01*
X-12326637Y002090125D01*
G01*
X-12278296Y002115964D01*
G01*
X-12210104Y002171927D01*
G01*
X-12154141Y002240118D01*
G01*
X-12112557Y002317917D01*
G01*
X-12086949Y002402334D01*
G01*
X-12078302Y002490125D01*
G01*
X-12086949Y002577916D01*
G01*
X-12112557Y002662332D01*
G01*
X-12154141Y002740132D01*
G01*
X-12210104Y002808323D01*
G01*
X-12278296Y002864286D01*
G01*
X-12356095Y002905871D01*
G01*
X-12440512Y002931478D01*
G01*
X-12451021Y002932513D01*
G01*
X-12523903Y003049125D01*
G01*
X-12648903Y003249125D01*
G01*
X-12773903Y003449125D01*
G01*
X-12774547Y003448723D01*
G01*
X-12778862Y003456796D01*
G01*
X-12816170Y003502257D01*
G01*
X-12991170Y003677257D01*
G01*
X-13166170Y003852257D01*
G01*
X-13280610Y003966697D01*
G01*
X-13278302Y003990125D01*
G01*
X-13286949Y004077916D01*
G01*
X-13312557Y004162332D01*
G01*
X-13354141Y004240132D01*
G01*
X-13410104Y004308323D01*
G01*
X-13478296Y004364286D01*
G01*
X-13556095Y004405871D01*
G01*
X-13640512Y004431478D01*
G01*
X-13728302Y004440125D01*
G01*
X-13816093Y004431478D01*
G01*
X-13900510Y004405871D01*
G01*
X-13978309Y004364286D01*
G01*
X-14046500Y004308323D01*
G01*
X-14102464Y004240132D01*
G01*
X-14144048Y004162332D01*
G01*
X-14169656Y004077916D01*
G01*
X-14178302Y003990125D01*
G01*
X-14169656Y003902334D01*
G01*
X-14144048Y003817917D01*
G01*
X-14102464Y003740118D01*
G01*
X-14046500Y003671927D01*
G01*
X-13978309Y003615964D01*
G01*
X-13900510Y003574379D01*
G01*
X-13816093Y003548772D01*
G01*
X-13728302Y003540125D01*
G01*
X-13704874Y003542433D01*
G01*
X-13590434Y003427993D01*
G01*
X-13415434Y003252993D01*
G01*
X-13264595Y003102154D01*
G01*
X-13157702Y002931125D01*
G01*
X-13032702Y002731125D01*
G01*
X-12958968Y002613150D01*
G01*
X-12969656Y002577916D01*
G01*
X-12978302Y002490125D01*
G01*
X-12969656Y002402334D01*
G01*
X-12944048Y002317917D01*
G01*
X-12902464Y002240118D01*
G01*
X-12846500Y002171927D01*
G01*
X-12778309Y002115964D01*
G01*
X-12729968Y002090125D01*
G01*
X-12778309Y002064286D01*
G01*
X-12846500Y002008323D01*
G01*
X-12902464Y001940132D01*
G01*
X-12944048Y001862332D01*
G01*
X-12969656Y001777916D01*
G01*
X-12978302Y001690125D01*
G01*
X-12978026Y001687324D01*
G01*
X-13127762Y001551563D01*
G01*
X-13326739Y001371157D01*
G01*
X-13525715Y001190751D01*
G01*
X-13724691Y001010345D01*
G01*
X-13923668Y000829939D01*
G01*
X-14122644Y000649533D01*
G01*
X-14274270Y000512057D01*
G01*
X-14319090Y000516472D01*
G01*
X-14406880Y000507825D01*
G01*
X-14491297Y000482218D01*
G01*
X-14569096Y000440633D01*
G01*
X-14637288Y000384670D01*
G01*
X-14693251Y000316479D01*
G01*
X-14734836Y000238679D01*
G01*
X-14760443Y000154263D01*
G01*
X-14769090Y000066472D01*
G01*
X-14760443Y-00021319D01*
G01*
X-14734836Y-00105736D01*
G01*
X-14693251Y-00183535D01*
G01*
X-14637288Y-00251726D01*
G01*
X-14569096Y-00307689D01*
G01*
X-14491297Y-00349274D01*
G01*
X-14406880Y-00374881D01*
G01*
X-14319090Y-00383528D01*
G37*
D31*
G36*
X-32699387Y-00454084D02*
G01*
X-32611596Y-00445437D01*
G01*
X-32527179Y-00419830D01*
G01*
X-32449380Y-00378245D01*
G01*
X-32381188Y-00322282D01*
G01*
X-32325225Y-00254091D01*
G01*
X-32283641Y-00176292D01*
G01*
X-32258033Y-00091875D01*
G01*
X-32249387Y-00004084D01*
G01*
X-32258033Y000083707D01*
G01*
X-32283641Y000168124D01*
G01*
X-32325225Y000245923D01*
G01*
X-32381188Y000314114D01*
G01*
X-32449380Y000370077D01*
G01*
X-32464724Y000378279D01*
G01*
X-32434682Y001575947D01*
G01*
X-32375294Y001635334D01*
G01*
X-32344433Y001638374D01*
G01*
X-32260016Y001663981D01*
G01*
X-32182217Y001705566D01*
G01*
X-32114025Y001761529D01*
G01*
X-32058062Y001829720D01*
G01*
X-32016478Y001907519D01*
G01*
X-31990870Y001991936D01*
G01*
X-31982223Y002079727D01*
G01*
X-31990870Y002167518D01*
G01*
X-32016478Y002251934D01*
G01*
X-32058062Y002329734D01*
G01*
X-32114025Y002397925D01*
G01*
X-32182217Y002453888D01*
G01*
X-32260016Y002495473D01*
G01*
X-32344433Y002521080D01*
G01*
X-32432223Y002529727D01*
G01*
X-32520014Y002521080D01*
G01*
X-32604431Y002495473D01*
G01*
X-32682230Y002453888D01*
G01*
X-32750421Y002397925D01*
G01*
X-32806385Y002329734D01*
G01*
X-32847969Y002251934D01*
G01*
X-32873577Y002167518D01*
G01*
X-32882223Y002079727D01*
G01*
X-32873577Y001991936D01*
G01*
X-32847969Y001907519D01*
G01*
X-32810188Y001836836D01*
G01*
X-32816455Y001830569D01*
G01*
X-32844437Y001796474D01*
G01*
X-32865229Y001757574D01*
G01*
X-32878033Y001715366D01*
G01*
X-32881801Y001677101D01*
G01*
X-32882285Y001677113D01*
G01*
X-32914605Y000388672D01*
G01*
X-32949393Y000370077D01*
G01*
X-33017585Y000314114D01*
G01*
X-33073548Y000245923D01*
G01*
X-33115132Y000168124D01*
G01*
X-33140740Y000083707D01*
G01*
X-33149387Y-00004084D01*
G01*
X-33140740Y-00091875D01*
G01*
X-33115132Y-00176292D01*
G01*
X-33073548Y-00254091D01*
G01*
X-33017585Y-00322282D01*
G01*
X-32949393Y-00378245D01*
G01*
X-32871594Y-00419830D01*
G01*
X-32787177Y-00445437D01*
G01*
X-32699387Y-00454084D01*
G37*
D31*
G36*
X-00999990Y-04474760D02*
G01*
X-00912200Y-04466114D01*
G01*
X-00827783Y-04440506D01*
G01*
X-00749984Y-04398922D01*
G01*
X-00681792Y-04342958D01*
G01*
X-00625829Y-04274767D01*
G01*
X-00584244Y-04196968D01*
G01*
X-00558637Y-04112551D01*
G01*
X-00549990Y-04024760D01*
G01*
X-00558637Y-03936970D01*
G01*
X-00584244Y-03852553D01*
G01*
X-00625829Y-03774754D01*
G01*
X-00681792Y-03706562D01*
G01*
X-00749984Y-03650599D01*
G01*
X-00827783Y-03609015D01*
G01*
X-00912200Y-03583407D01*
G01*
X-00999990Y-03574760D01*
G01*
X-01087781Y-03583407D01*
G01*
X-01172198Y-03609015D01*
G01*
X-01249997Y-03650599D01*
G01*
X-01318188Y-03706562D01*
G01*
X-01374152Y-03774754D01*
G01*
X-01381854Y-03789163D01*
G01*
X-01636306Y-03782158D01*
G01*
X-04409113Y-01882015D01*
G01*
X-04405827Y-01848654D01*
G01*
X-04414474Y-01760864D01*
G01*
X-04440081Y-01676447D01*
G01*
X-04481666Y-01598648D01*
G01*
X-04537629Y-01530456D01*
G01*
X-04605820Y-01474493D01*
G01*
X-04683619Y-01432908D01*
G01*
X-04768036Y-01407301D01*
G01*
X-04855827Y-01398654D01*
G01*
X-04943618Y-01407301D01*
G01*
X-05028035Y-01432908D01*
G01*
X-05105834Y-01474493D01*
G01*
X-05174025Y-01530456D01*
G01*
X-05229988Y-01598648D01*
G01*
X-05271573Y-01676447D01*
G01*
X-05297180Y-01760864D01*
G01*
X-05305827Y-01848654D01*
G01*
X-05297180Y-01936445D01*
G01*
X-05271573Y-02020862D01*
G01*
X-05229988Y-02098661D01*
G01*
X-05174025Y-02166852D01*
G01*
X-05105834Y-02222815D01*
G01*
X-05028035Y-02264400D01*
G01*
X-04943618Y-02290008D01*
G01*
X-04855827Y-02298654D01*
G01*
X-04768036Y-02290008D01*
G01*
X-04683619Y-02264400D01*
G01*
X-04663145Y-02253456D01*
G01*
X-01835979Y-04190849D01*
G01*
X-01835841Y-04190647D01*
G01*
X-01833793Y-04192328D01*
G01*
X-01794894Y-04213120D01*
G01*
X-01752685Y-04225924D01*
G01*
X-01714968Y-04229639D01*
G01*
X-01714982Y-04230162D01*
G01*
X-01393260Y-04239019D01*
G01*
X-01374152Y-04274767D01*
G01*
X-01318188Y-04342958D01*
G01*
X-01249997Y-04398922D01*
G01*
X-01172198Y-04440506D01*
G01*
X-01087781Y-04466114D01*
G01*
X-00999990Y-04474760D01*
G37*
D31*
G36*
X-39594433Y-03699917D02*
G01*
X-39438361Y-03684546D01*
G01*
X-39288286Y-03639021D01*
G01*
X-39149977Y-03565093D01*
G01*
X-39028748Y-03465603D01*
G01*
X-38929258Y-03344374D01*
G01*
X-38855330Y-03206065D01*
G01*
X-38809805Y-03055990D01*
G01*
X-38794433Y-02899918D01*
G01*
X-38809805Y-02743846D01*
G01*
X-38855330Y-02593771D01*
G01*
X-38929258Y-02455462D01*
G01*
X-39028748Y-02334233D01*
G01*
X-39149977Y-02234743D01*
G01*
X-39288286Y-02160815D01*
G01*
X-39438361Y-02115290D01*
G01*
X-39594433Y-02099919D01*
G01*
X-39750505Y-02115290D01*
G01*
X-39900579Y-02160815D01*
G01*
X-40038889Y-02234743D01*
G01*
X-40160118Y-02334233D01*
G01*
X-40259608Y-02455462D01*
G01*
X-40333536Y-02593771D01*
G01*
X-40379060Y-02743846D01*
G01*
X-40394432Y-02899918D01*
G01*
X-40379060Y-03055990D01*
G01*
X-40333536Y-03206065D01*
G01*
X-40259608Y-03344374D01*
G01*
X-40160118Y-03465603D01*
G01*
X-40038889Y-03565093D01*
G01*
X-39900579Y-03639021D01*
G01*
X-39750505Y-03684546D01*
G01*
X-39594433Y-03699917D01*
G37*
D31*
G36*
X022400000Y-08450000D02*
G01*
X022487791Y-08441353D01*
G01*
X022572208Y-08415746D01*
G01*
X022650007Y-08374161D01*
G01*
X022718198Y-08318198D01*
G01*
X022774161Y-08250007D01*
G01*
X022815746Y-08172208D01*
G01*
X022841353Y-08087791D01*
G01*
X022850000Y-08000000D01*
G01*
X022841353Y-07912209D01*
G01*
X022815746Y-07827792D01*
G01*
X022774161Y-07749993D01*
G01*
X022718198Y-07681802D01*
G01*
X022650007Y-07625839D01*
G01*
X022625000Y-07612472D01*
G01*
X022625000Y-03718435D01*
G01*
X022715343Y-03628092D01*
G01*
X022727792Y-03634746D01*
G01*
X022812209Y-03660353D01*
G01*
X022900000Y-03669000D01*
G01*
X022987791Y-03660353D01*
G01*
X023072208Y-03634746D01*
G01*
X023150007Y-03593161D01*
G01*
X023218198Y-03537198D01*
G01*
X023274161Y-03469007D01*
G01*
X023315746Y-03391208D01*
G01*
X023341353Y-03306791D01*
G01*
X023350000Y-03219000D01*
G01*
X023341353Y-03131209D01*
G01*
X023315746Y-03046792D01*
G01*
X023274161Y-02968993D01*
G01*
X023218198Y-02900802D01*
G01*
X023150007Y-02844839D01*
G01*
X023072208Y-02803254D01*
G01*
X022987791Y-02777647D01*
G01*
X022900000Y-02769000D01*
G01*
X022812209Y-02777647D01*
G01*
X022727792Y-02803254D01*
G01*
X022649993Y-02844839D01*
G01*
X022581802Y-02900802D01*
G01*
X022525839Y-02968993D01*
G01*
X022484254Y-03046792D01*
G01*
X022458647Y-03131209D01*
G01*
X022450000Y-03219000D01*
G01*
X022453411Y-03253628D01*
G01*
X022240901Y-03466138D01*
G01*
X022212919Y-03500233D01*
G01*
X022192127Y-03539133D01*
G01*
X022179323Y-03581341D01*
G01*
X022175000Y-03625237D01*
G01*
X022175000Y-07612472D01*
G01*
X022149993Y-07625839D01*
G01*
X022081802Y-07681802D01*
G01*
X022025839Y-07749993D01*
G01*
X021984254Y-07827792D01*
G01*
X021958647Y-07912209D01*
G01*
X021950000Y-08000000D01*
G01*
X021958647Y-08087791D01*
G01*
X021984254Y-08172208D01*
G01*
X022025839Y-08250007D01*
G01*
X022081802Y-08318198D01*
G01*
X022149993Y-08374161D01*
G01*
X022227792Y-08415746D01*
G01*
X022312209Y-08441353D01*
G01*
X022400000Y-08450000D01*
G37*
D31*
G36*
X-23090602Y-04332729D02*
G01*
X-23002812Y-04324082D01*
G01*
X-22918395Y-04298474D01*
G01*
X-22840596Y-04256890D01*
G01*
X-22772404Y-04200927D01*
G01*
X-22716441Y-04132735D01*
G01*
X-22674856Y-04054936D01*
G01*
X-22649249Y-03970519D01*
G01*
X-22640602Y-03882729D01*
G01*
X-22648629Y-03801233D01*
G01*
X-22625736Y-03778340D01*
G01*
X-22437810Y-03775490D01*
G01*
X-22427574Y-03794641D01*
G01*
X-22371610Y-03862832D01*
G01*
X-22303419Y-03918796D01*
G01*
X-22225620Y-03960380D01*
G01*
X-22141203Y-03985988D01*
G01*
X-22053412Y-03994634D01*
G01*
X-21965622Y-03985988D01*
G01*
X-21881205Y-03960380D01*
G01*
X-21803406Y-03918796D01*
G01*
X-21735214Y-03862832D01*
G01*
X-21679251Y-03794641D01*
G01*
X-21637666Y-03716842D01*
G01*
X-21612059Y-03632425D01*
G01*
X-21603412Y-03544634D01*
G01*
X-21612059Y-03456844D01*
G01*
X-21637666Y-03372427D01*
G01*
X-21679251Y-03294628D01*
G01*
X-21735214Y-03226436D01*
G01*
X-21803406Y-03170473D01*
G01*
X-21881205Y-03128888D01*
G01*
X-21965622Y-03103281D01*
G01*
X-22053412Y-03094634D01*
G01*
X-22141203Y-03103281D01*
G01*
X-22225620Y-03128888D01*
G01*
X-22303419Y-03170473D01*
G01*
X-22371610Y-03226436D01*
G01*
X-22427574Y-03294628D01*
G01*
X-22444093Y-03325534D01*
G01*
X-22723755Y-03329775D01*
G01*
X-22723750Y-03330085D01*
G01*
X-22764238Y-03334072D01*
G01*
X-22806446Y-03346876D01*
G01*
X-22845346Y-03367669D01*
G01*
X-22879442Y-03395650D01*
G01*
X-22943239Y-03459447D01*
G01*
X-23002812Y-03441375D01*
G01*
X-23090602Y-03432729D01*
G01*
X-23178393Y-03441375D01*
G01*
X-23262810Y-03466983D01*
G01*
X-23340609Y-03508567D01*
G01*
X-23408800Y-03564530D01*
G01*
X-23464764Y-03632722D01*
G01*
X-23506348Y-03710521D01*
G01*
X-23531956Y-03794938D01*
G01*
X-23540602Y-03882729D01*
G01*
X-23531956Y-03970519D01*
G01*
X-23506348Y-04054936D01*
G01*
X-23464764Y-04132735D01*
G01*
X-23408800Y-04200927D01*
G01*
X-23340609Y-04256890D01*
G01*
X-23262810Y-04298474D01*
G01*
X-23178393Y-04324082D01*
G01*
X-23090602Y-04332729D01*
G37*
D31*
G36*
X-27950000Y-08250000D02*
G01*
X-27862209Y-08241353D01*
G01*
X-27777792Y-08215746D01*
G01*
X-27699993Y-08174161D01*
G01*
X-27660020Y-08141356D01*
G01*
X-26819696Y-08115839D01*
G01*
X-26819723Y-08114956D01*
G01*
X-26762038Y-08109275D01*
G01*
X-26696380Y-08089358D01*
G01*
X-26635870Y-08057014D01*
G01*
X-26620592Y-08044476D01*
G01*
X-26616601Y-08044869D01*
G01*
X-26528810Y-08036222D01*
G01*
X-26444393Y-08010615D01*
G01*
X-26366594Y-07969030D01*
G01*
X-26298403Y-07913067D01*
G01*
X-26242440Y-07844875D01*
G01*
X-26200855Y-07767076D01*
G01*
X-26175247Y-07682659D01*
G01*
X-26166601Y-07594869D01*
G01*
X-26175247Y-07507078D01*
G01*
X-26200855Y-07422661D01*
G01*
X-26242440Y-07344862D01*
G01*
X-26298403Y-07276671D01*
G01*
X-26366594Y-07220707D01*
G01*
X-26444393Y-07179123D01*
G01*
X-26528810Y-07153515D01*
G01*
X-26616601Y-07144869D01*
G01*
X-26704391Y-07153515D01*
G01*
X-26788808Y-07179123D01*
G01*
X-26866607Y-07220707D01*
G01*
X-26934799Y-07276671D01*
G01*
X-26990762Y-07344862D01*
G01*
X-27031973Y-07421962D01*
G01*
X-27680713Y-07441661D01*
G01*
X-27699993Y-07425839D01*
G01*
X-27777792Y-07384254D01*
G01*
X-27862209Y-07358647D01*
G01*
X-27950000Y-07350000D01*
G01*
X-28037791Y-07358647D01*
G01*
X-28122208Y-07384254D01*
G01*
X-28200007Y-07425839D01*
G01*
X-28268198Y-07481802D01*
G01*
X-28324161Y-07549993D01*
G01*
X-28365746Y-07627792D01*
G01*
X-28391353Y-07712209D01*
G01*
X-28400000Y-07800000D01*
G01*
X-28391353Y-07887791D01*
G01*
X-28365746Y-07972208D01*
G01*
X-28324161Y-08050007D01*
G01*
X-28268198Y-08118198D01*
G01*
X-28200007Y-08174161D01*
G01*
X-28122208Y-08215746D01*
G01*
X-28037791Y-08241353D01*
G01*
X-27950000Y-08250000D01*
G37*
D31*
G36*
X-13253758Y-16625226D02*
G01*
X-13165967Y-16616579D01*
G01*
X-13081550Y-16590971D01*
G01*
X-13003751Y-16549387D01*
G01*
X-12935560Y-16493424D01*
G01*
X-12879596Y-16425232D01*
G01*
X-12838012Y-16347433D01*
G01*
X-12812404Y-16263016D01*
G01*
X-12803758Y-16175226D01*
G01*
X-12812404Y-16087435D01*
G01*
X-12820635Y-16060301D01*
G01*
X-10366130Y-13605789D01*
G01*
X-08469460Y-13605789D01*
G01*
X-08469007Y-13606161D01*
G01*
X-08391208Y-13647746D01*
G01*
X-08306791Y-13673353D01*
G01*
X-08219000Y-13682000D01*
G01*
X-08131209Y-13673353D01*
G01*
X-08046792Y-13647746D01*
G01*
X-07968993Y-13606161D01*
G01*
X-07900802Y-13550198D01*
G01*
X-07844839Y-13482007D01*
G01*
X-07803254Y-13404208D01*
G01*
X-07777647Y-13319791D01*
G01*
X-07769000Y-13232000D01*
G01*
X-07777647Y-13144209D01*
G01*
X-07803254Y-13059792D01*
G01*
X-07844839Y-12981993D01*
G01*
X-07900802Y-12913802D01*
G01*
X-07968993Y-12857839D01*
G01*
X-08046792Y-12816254D01*
G01*
X-08131209Y-12790647D01*
G01*
X-08219000Y-12782000D01*
G01*
X-08306791Y-12790647D01*
G01*
X-08391208Y-12816254D01*
G01*
X-08469007Y-12857839D01*
G01*
X-08537198Y-12913802D01*
G01*
X-08593161Y-12981993D01*
G01*
X-08634746Y-13059792D01*
G01*
X-08660353Y-13144209D01*
G01*
X-08661494Y-13155789D01*
G01*
X-10459328Y-13155789D01*
G01*
X-10503223Y-13160113D01*
G01*
X-10545432Y-13172916D01*
G01*
X-10584331Y-13193709D01*
G01*
X-10618427Y-13221690D01*
G01*
X-13138834Y-15742103D01*
G01*
X-13165967Y-15733872D01*
G01*
X-13253758Y-15725226D01*
G01*
X-13341548Y-15733872D01*
G01*
X-13425965Y-15759480D01*
G01*
X-13503764Y-15801064D01*
G01*
X-13571956Y-15857028D01*
G01*
X-13627919Y-15925219D01*
G01*
X-13669503Y-16003018D01*
G01*
X-13695111Y-16087435D01*
G01*
X-13703758Y-16175226D01*
G01*
X-13695111Y-16263016D01*
G01*
X-13669503Y-16347433D01*
G01*
X-13627919Y-16425232D01*
G01*
X-13571956Y-16493424D01*
G01*
X-13503764Y-16549387D01*
G01*
X-13425965Y-16590971D01*
G01*
X-13341548Y-16616579D01*
G01*
X-13253758Y-16625226D01*
G37*
D31*
G36*
X015345382Y-15962691D02*
G01*
X015433173Y-15954044D01*
G01*
X015517590Y-15928436D01*
G01*
X015595389Y-15886852D01*
G01*
X015663580Y-15830889D01*
G01*
X015719543Y-15762697D01*
G01*
X015761128Y-15684898D01*
G01*
X015786735Y-15600481D01*
G01*
X015795382Y-15512691D01*
G01*
X015786735Y-15424900D01*
G01*
X015761128Y-15340483D01*
G01*
X015719543Y-15262684D01*
G01*
X015663580Y-15194493D01*
G01*
X015599025Y-15141513D01*
G01*
X015575249Y-14578863D01*
G01*
X015584045Y-14574161D01*
G01*
X015652237Y-14518198D01*
G01*
X015708200Y-14450007D01*
G01*
X015749784Y-14372208D01*
G01*
X015775392Y-14287791D01*
G01*
X015784039Y-14200000D01*
G01*
X015775392Y-14112209D01*
G01*
X015749784Y-14027792D01*
G01*
X015708200Y-13949993D01*
G01*
X015652237Y-13881802D01*
G01*
X015584045Y-13825839D01*
G01*
X015506246Y-13784254D01*
G01*
X015421829Y-13758647D01*
G01*
X015334039Y-13750000D01*
G01*
X015246248Y-13758647D01*
G01*
X015161831Y-13784254D01*
G01*
X015084032Y-13825839D01*
G01*
X015015840Y-13881802D01*
G01*
X014959877Y-13949993D01*
G01*
X014918293Y-14027792D01*
G01*
X014892685Y-14112209D01*
G01*
X014884039Y-14200000D01*
G01*
X014892685Y-14287791D01*
G01*
X014918293Y-14372208D01*
G01*
X014959877Y-14450007D01*
G01*
X015015840Y-14518198D01*
G01*
X015084032Y-14574161D01*
G01*
X015125587Y-14596373D01*
G01*
X015147324Y-15110762D01*
G01*
X015095375Y-15138529D01*
G01*
X015027184Y-15194493D01*
G01*
X014971221Y-15262684D01*
G01*
X014929636Y-15340483D01*
G01*
X014904029Y-15424900D01*
G01*
X014895382Y-15512691D01*
G01*
X014904029Y-15600481D01*
G01*
X014929636Y-15684898D01*
G01*
X014971221Y-15762697D01*
G01*
X015027184Y-15830889D01*
G01*
X015095375Y-15886852D01*
G01*
X015173175Y-15928436D01*
G01*
X015257591Y-15954044D01*
G01*
X015345382Y-15962691D01*
G37*
D31*
G36*
X018665962Y-16301382D02*
G01*
X018753752Y-16292736D01*
G01*
X018838169Y-16267128D01*
G01*
X018915968Y-16225544D01*
G01*
X018984160Y-16169580D01*
G01*
X019040123Y-16101389D01*
G01*
X019081707Y-16023590D01*
G01*
X019107315Y-15939173D01*
G01*
X019115962Y-15851382D01*
G01*
X019107315Y-15763592D01*
G01*
X019081707Y-15679175D01*
G01*
X019040123Y-15601376D01*
G01*
X018984160Y-15533184D01*
G01*
X018915968Y-15477221D01*
G01*
X018838169Y-15435636D01*
G01*
X018760930Y-15412206D01*
G01*
X018840622Y-14778435D01*
G01*
X018915968Y-14738161D01*
G01*
X018984160Y-14682198D01*
G01*
X019040123Y-14614007D01*
G01*
X019081707Y-14536208D01*
G01*
X019107315Y-14451791D01*
G01*
X019115962Y-14364000D01*
G01*
X019107315Y-14276209D01*
G01*
X019081707Y-14191792D01*
G01*
X019040123Y-14113993D01*
G01*
X018984160Y-14045802D01*
G01*
X018915968Y-13989839D01*
G01*
X018838169Y-13948254D01*
G01*
X018753752Y-13922647D01*
G01*
X018665962Y-13914000D01*
G01*
X018578171Y-13922647D01*
G01*
X018493754Y-13948254D01*
G01*
X018415955Y-13989839D01*
G01*
X018347763Y-14045802D01*
G01*
X018291800Y-14113993D01*
G01*
X018250216Y-14191792D01*
G01*
X018224608Y-14276209D01*
G01*
X018215962Y-14364000D01*
G01*
X018224608Y-14451791D01*
G01*
X018250216Y-14536208D01*
G01*
X018291800Y-14614007D01*
G01*
X018347763Y-14682198D01*
G01*
X018394369Y-14720446D01*
G01*
X018297758Y-15488785D01*
G01*
X018298752Y-15488910D01*
G01*
X018296000Y-15516856D01*
G01*
X018300323Y-15560751D01*
G01*
X018307021Y-15582829D01*
G01*
X018291800Y-15601376D01*
G01*
X018250216Y-15679175D01*
G01*
X018224608Y-15763592D01*
G01*
X018215962Y-15851382D01*
G01*
X018224608Y-15939173D01*
G01*
X018250216Y-16023590D01*
G01*
X018291800Y-16101389D01*
G01*
X018347763Y-16169580D01*
G01*
X018415955Y-16225544D01*
G01*
X018493754Y-16267128D01*
G01*
X018578171Y-16292736D01*
G01*
X018665962Y-16301382D01*
G37*
D31*
G36*
X006543514Y-15509082D02*
G01*
X006631305Y-15500435D01*
G01*
X006715722Y-15474827D01*
G01*
X006793521Y-15433243D01*
G01*
X006861712Y-15377280D01*
G01*
X006917676Y-15309088D01*
G01*
X006959260Y-15231289D01*
G01*
X006984868Y-15146872D01*
G01*
X006993514Y-15059082D01*
G01*
X006984868Y-14971291D01*
G01*
X006959260Y-14886874D01*
G01*
X006917676Y-14809075D01*
G01*
X006861712Y-14740884D01*
G01*
X006793521Y-14684920D01*
G01*
X006715722Y-14643336D01*
G01*
X006631305Y-14617728D01*
G01*
X006543514Y-14609082D01*
G01*
X006455724Y-14617728D01*
G01*
X006371307Y-14643336D01*
G01*
X006293508Y-14684920D01*
G01*
X006225316Y-14740884D01*
G01*
X006205134Y-14765475D01*
G01*
X005880960Y-14765478D01*
G01*
X005867595Y-14740473D01*
G01*
X005811631Y-14672282D01*
G01*
X005743440Y-14616318D01*
G01*
X005665641Y-14574734D01*
G01*
X005581224Y-14549126D01*
G01*
X005493433Y-14540480D01*
G01*
X005405643Y-14549126D01*
G01*
X005321226Y-14574734D01*
G01*
X005243427Y-14616318D01*
G01*
X005175235Y-14672282D01*
G01*
X005119272Y-14740473D01*
G01*
X005077688Y-14818272D01*
G01*
X005052080Y-14902689D01*
G01*
X005043433Y-14990480D01*
G01*
X005052080Y-15078270D01*
G01*
X005077688Y-15162687D01*
G01*
X005119272Y-15240486D01*
G01*
X005175235Y-15308678D01*
G01*
X005243427Y-15364641D01*
G01*
X005321226Y-15406226D01*
G01*
X005405643Y-15431833D01*
G01*
X005493433Y-15440480D01*
G01*
X005581224Y-15431833D01*
G01*
X005665641Y-15406226D01*
G01*
X005743440Y-15364641D01*
G01*
X005811631Y-15308678D01*
G01*
X005867595Y-15240486D01*
G01*
X005880962Y-15215478D01*
G01*
X006122971Y-15215476D01*
G01*
X006127768Y-15231289D01*
G01*
X006169353Y-15309088D01*
G01*
X006225316Y-15377280D01*
G01*
X006293508Y-15433243D01*
G01*
X006371307Y-15474827D01*
G01*
X006455724Y-15500435D01*
G01*
X006543514Y-15509082D01*
G37*
D31*
G36*
X007115000Y-17664000D02*
G01*
X007202791Y-17655353D01*
G01*
X007287208Y-17629746D01*
G01*
X007365007Y-17588161D01*
G01*
X007433198Y-17532198D01*
G01*
X007489161Y-17464007D01*
G01*
X007530746Y-17386208D01*
G01*
X007552169Y-17315583D01*
G01*
X007749540Y-17118212D01*
G01*
X008002501Y-16865251D01*
G01*
X008255461Y-16612290D01*
G01*
X008508422Y-16359330D01*
G01*
X008761383Y-16106369D01*
G01*
X009014343Y-15853409D01*
G01*
X009267304Y-15600448D01*
G01*
X009417752Y-15450000D01*
G01*
X009643246Y-15450000D01*
G01*
X010013716Y-15450000D01*
G01*
X010384185Y-15450000D01*
G01*
X010754654Y-15450000D01*
G01*
X011125123Y-15450000D01*
G01*
X011495592Y-15450000D01*
G01*
X011866062Y-15450000D01*
G01*
X012236531Y-15450000D01*
G01*
X012327553Y-15450000D01*
G01*
X012356993Y-15474161D01*
G01*
X012434792Y-15515746D01*
G01*
X012519209Y-15541353D01*
G01*
X012607000Y-15550000D01*
G01*
X012694791Y-15541353D01*
G01*
X012779208Y-15515746D01*
G01*
X012857007Y-15474161D01*
G01*
X012925198Y-15418198D01*
G01*
X012981161Y-15350007D01*
G01*
X013022746Y-15272208D01*
G01*
X013048353Y-15187791D01*
G01*
X013057000Y-15100000D01*
G01*
X013048353Y-15012209D01*
G01*
X013022746Y-14927792D01*
G01*
X012981161Y-14849993D01*
G01*
X012925198Y-14781802D01*
G01*
X012857007Y-14725839D01*
G01*
X012779208Y-14684254D01*
G01*
X012694791Y-14658647D01*
G01*
X012607000Y-14650000D01*
G01*
X012519209Y-14658647D01*
G01*
X012434792Y-14684254D01*
G01*
X012356993Y-14725839D01*
G01*
X012327553Y-14750000D01*
G01*
X012236531Y-14750000D01*
G01*
X011866062Y-14750000D01*
G01*
X011495592Y-14750000D01*
G01*
X011125123Y-14750000D01*
G01*
X010754654Y-14750000D01*
G01*
X010384185Y-14750000D01*
G01*
X010013716Y-14750000D01*
G01*
X009643246Y-14750000D01*
G01*
X009272777Y-14750000D01*
G01*
X009204496Y-14756725D01*
G01*
X009138838Y-14776642D01*
G01*
X009078328Y-14808986D01*
G01*
X009025290Y-14852513D01*
G01*
X008772329Y-15105473D01*
G01*
X008519369Y-15358434D01*
G01*
X008266408Y-15611394D01*
G01*
X008013447Y-15864355D01*
G01*
X007760487Y-16117316D01*
G01*
X007507526Y-16370276D01*
G01*
X007254565Y-16623237D01*
G01*
X007113672Y-16764131D01*
G01*
X007027209Y-16772647D01*
G01*
X006942792Y-16798254D01*
G01*
X006864993Y-16839839D01*
G01*
X006796802Y-16895802D01*
G01*
X006740839Y-16963993D01*
G01*
X006699254Y-17041792D01*
G01*
X006673647Y-17126209D01*
G01*
X006665000Y-17214000D01*
G01*
X006673647Y-17301791D01*
G01*
X006699254Y-17386208D01*
G01*
X006740839Y-17464007D01*
G01*
X006796802Y-17532198D01*
G01*
X006864993Y-17588161D01*
G01*
X006942792Y-17629746D01*
G01*
X007027209Y-17655353D01*
G01*
X007115000Y-17664000D01*
G37*
D31*
G36*
X-00350000Y-18950000D02*
G01*
X-00262209Y-18941353D01*
G01*
X-00177792Y-18915746D01*
G01*
X-00099993Y-18874161D01*
G01*
X-00031802Y-18818198D01*
G01*
X000024161Y-18750007D01*
G01*
X000065746Y-18672208D01*
G01*
X000075442Y-18640244D01*
G01*
X000100843Y-18614843D01*
G01*
X000150588Y-18554228D01*
G01*
X000187552Y-18485073D01*
G01*
X000210314Y-18410036D01*
G01*
X000218000Y-18332000D01*
G01*
X000218000Y-16218666D01*
G01*
X000233746Y-16189208D01*
G01*
X000259353Y-16104791D01*
G01*
X000268000Y-16017000D01*
G01*
X000259353Y-15929209D01*
G01*
X000233746Y-15844792D01*
G01*
X000192161Y-15766993D01*
G01*
X000136198Y-15698802D01*
G01*
X000068007Y-15642839D01*
G01*
X-00009792Y-15601254D01*
G01*
X-00094209Y-15575647D01*
G01*
X-00182000Y-15567000D01*
G01*
X-00269791Y-15575647D01*
G01*
X-00354208Y-15601254D01*
G01*
X-00432007Y-15642839D01*
G01*
X-00500198Y-15698802D01*
G01*
X-00556161Y-15766993D01*
G01*
X-00597746Y-15844792D01*
G01*
X-00623353Y-15929209D01*
G01*
X-00632000Y-16017000D01*
G01*
X-00623353Y-16104791D01*
G01*
X-00597746Y-16189208D01*
G01*
X-00582000Y-16218666D01*
G01*
X-00582000Y-18116214D01*
G01*
X-00600007Y-18125839D01*
G01*
X-00668198Y-18181802D01*
G01*
X-00724161Y-18249993D01*
G01*
X-00765746Y-18327792D01*
G01*
X-00791353Y-18412209D01*
G01*
X-00800000Y-18500000D01*
G01*
X-00791353Y-18587791D01*
G01*
X-00765746Y-18672208D01*
G01*
X-00724161Y-18750007D01*
G01*
X-00668198Y-18818198D01*
G01*
X-00600007Y-18874161D01*
G01*
X-00522208Y-18915746D01*
G01*
X-00437791Y-18941353D01*
G01*
X-00350000Y-18950000D01*
G37*
D31*
G36*
X020889058Y-18809798D02*
G01*
X020976848Y-18801152D01*
G01*
X021061265Y-18775544D01*
G01*
X021139064Y-18733960D01*
G01*
X021181874Y-18698827D01*
G01*
X021226246Y-18697126D01*
G01*
X021550023Y-18684711D01*
G01*
X021873800Y-18672296D01*
G01*
X022197578Y-18659881D01*
G01*
X022197537Y-18658821D01*
G01*
X022252449Y-18653413D01*
G01*
X022318106Y-18633496D01*
G01*
X022378617Y-18601153D01*
G01*
X022431655Y-18557626D01*
G01*
X022713771Y-18275509D01*
G01*
X022995887Y-17993393D01*
G01*
X023207043Y-17782238D01*
G01*
X023266791Y-17776353D01*
G01*
X023351208Y-17750746D01*
G01*
X023429007Y-17709161D01*
G01*
X023497198Y-17653198D01*
G01*
X023553161Y-17585007D01*
G01*
X023594746Y-17507208D01*
G01*
X023620353Y-17422791D01*
G01*
X023629000Y-17335000D01*
G01*
X023620353Y-17247209D01*
G01*
X023594746Y-17162792D01*
G01*
X023553161Y-17084993D01*
G01*
X023497198Y-17016802D01*
G01*
X023429007Y-16960839D01*
G01*
X023351208Y-16919254D01*
G01*
X023266791Y-16893647D01*
G01*
X023179000Y-16885000D01*
G01*
X023091209Y-16893647D01*
G01*
X023006792Y-16919254D01*
G01*
X022928993Y-16960839D01*
G01*
X022860802Y-17016802D01*
G01*
X022804839Y-17084993D01*
G01*
X022763254Y-17162792D01*
G01*
X022737647Y-17247209D01*
G01*
X022736066Y-17263265D01*
G01*
X022500913Y-17498418D01*
G01*
X022218796Y-17780535D01*
G01*
X022033680Y-17965651D01*
G01*
X021846979Y-17972810D01*
G01*
X021523202Y-17985225D01*
G01*
X021199424Y-17997640D01*
G01*
X021155732Y-17999315D01*
G01*
X021139064Y-17985637D01*
G01*
X021061265Y-17944053D01*
G01*
X020976848Y-17918445D01*
G01*
X020889058Y-17909798D01*
G01*
X020801267Y-17918445D01*
G01*
X020716850Y-17944053D01*
G01*
X020639051Y-17985637D01*
G01*
X020570860Y-18041600D01*
G01*
X020514896Y-18109792D01*
G01*
X020473312Y-18187591D01*
G01*
X020447704Y-18272008D01*
G01*
X020439058Y-18359798D01*
G01*
X020447704Y-18447589D01*
G01*
X020473312Y-18532006D01*
G01*
X020514896Y-18609805D01*
G01*
X020570860Y-18677997D01*
G01*
X020639051Y-18733960D01*
G01*
X020716850Y-18775544D01*
G01*
X020801267Y-18801152D01*
G01*
X020889058Y-18809798D01*
G37*
D31*
G36*
X009250000Y-26150000D02*
G01*
X009474354Y-26127903D01*
G01*
X009690086Y-26062461D01*
G01*
X009888906Y-25956190D01*
G01*
X010063173Y-25813173D01*
G01*
X010206190Y-25638906D01*
G01*
X010312461Y-25440086D01*
G01*
X010377903Y-25224354D01*
G01*
X010400000Y-25000000D01*
G01*
X010377903Y-24775646D01*
G01*
X010312461Y-24559914D01*
G01*
X010206190Y-24361094D01*
G01*
X010063173Y-24186827D01*
G01*
X009888906Y-24043810D01*
G01*
X009690086Y-23937539D01*
G01*
X009475000Y-23872293D01*
G01*
X009475000Y-23023360D01*
G01*
X013705664Y-18792696D01*
G01*
X013752130Y-18806791D01*
G01*
X013839921Y-18815438D01*
G01*
X013927712Y-18806791D01*
G01*
X014012128Y-18781184D01*
G01*
X014089927Y-18739599D01*
G01*
X014158119Y-18683636D01*
G01*
X014214082Y-18615444D01*
G01*
X014255667Y-18537645D01*
G01*
X014281274Y-18453228D01*
G01*
X014289921Y-18365438D01*
G01*
X014281274Y-18277647D01*
G01*
X014255667Y-18193230D01*
G01*
X014214082Y-18115431D01*
G01*
X014158119Y-18047240D01*
G01*
X014089927Y-17991276D01*
G01*
X014012128Y-17949692D01*
G01*
X013927712Y-17924084D01*
G01*
X013839921Y-17915438D01*
G01*
X013752130Y-17924084D01*
G01*
X013667713Y-17949692D01*
G01*
X013589914Y-17991276D01*
G01*
X013521723Y-18047240D01*
G01*
X013465760Y-18115431D01*
G01*
X013424175Y-18193230D01*
G01*
X013398567Y-18277647D01*
G01*
X013389921Y-18365438D01*
G01*
X013398567Y-18453228D01*
G01*
X013400934Y-18461030D01*
G01*
X009090901Y-22771063D01*
G01*
X009062919Y-22805159D01*
G01*
X009042127Y-22844059D01*
G01*
X009029323Y-22886267D01*
G01*
X009025000Y-22930162D01*
G01*
X009025000Y-23872293D01*
G01*
X008809914Y-23937539D01*
G01*
X008611094Y-24043810D01*
G01*
X008436827Y-24186827D01*
G01*
X008293810Y-24361094D01*
G01*
X008187539Y-24559914D01*
G01*
X008122097Y-24775646D01*
G01*
X008100000Y-25000000D01*
G01*
X008122097Y-25224354D01*
G01*
X008187539Y-25440086D01*
G01*
X008293810Y-25638906D01*
G01*
X008436827Y-25813173D01*
G01*
X008611094Y-25956190D01*
G01*
X008809914Y-26062461D01*
G01*
X009025646Y-26127903D01*
G01*
X009250000Y-26150000D01*
G37*
D31*
G36*
X-17489644Y-25110277D02*
G01*
X-17401853Y-25101630D01*
G01*
X-17317436Y-25076022D01*
G01*
X-17239637Y-25034438D01*
G01*
X-17171446Y-24978475D01*
G01*
X-17115482Y-24910283D01*
G01*
X-17073898Y-24832484D01*
G01*
X-17048290Y-24748067D01*
G01*
X-17039644Y-24660277D01*
G01*
X-17048290Y-24572486D01*
G01*
X-17057739Y-24541336D01*
G01*
X-16497901Y-23981498D01*
G01*
X-16469919Y-23947402D01*
G01*
X-16449127Y-23908503D01*
G01*
X-16436323Y-23866294D01*
G01*
X-16432000Y-23822399D01*
G01*
X-16432000Y-20687568D01*
G01*
X-16406993Y-20674202D01*
G01*
X-16338802Y-20618239D01*
G01*
X-16282839Y-20550047D01*
G01*
X-16241254Y-20472248D01*
G01*
X-16215647Y-20387831D01*
G01*
X-16207000Y-20300041D01*
G01*
X-16215647Y-20212250D01*
G01*
X-16241254Y-20127833D01*
G01*
X-16282839Y-20050034D01*
G01*
X-16338802Y-19981843D01*
G01*
X-16406993Y-19925879D01*
G01*
X-16484792Y-19884295D01*
G01*
X-16569209Y-19858687D01*
G01*
X-16657000Y-19850041D01*
G01*
X-16744791Y-19858687D01*
G01*
X-16829208Y-19884295D01*
G01*
X-16907007Y-19925879D01*
G01*
X-16975198Y-19981843D01*
G01*
X-17031161Y-20050034D01*
G01*
X-17072746Y-20127833D01*
G01*
X-17098353Y-20212250D01*
G01*
X-17107000Y-20300041D01*
G01*
X-17098353Y-20387831D01*
G01*
X-17072746Y-20472248D01*
G01*
X-17031161Y-20550047D01*
G01*
X-16975198Y-20618239D01*
G01*
X-16907007Y-20674202D01*
G01*
X-16882000Y-20687568D01*
G01*
X-16882000Y-23729201D01*
G01*
X-17378735Y-24225936D01*
G01*
X-17401853Y-24218923D01*
G01*
X-17489644Y-24210277D01*
G01*
X-17577434Y-24218923D01*
G01*
X-17661851Y-24244531D01*
G01*
X-17739650Y-24286115D01*
G01*
X-17807842Y-24342079D01*
G01*
X-17863805Y-24410270D01*
G01*
X-17905390Y-24488069D01*
G01*
X-17930997Y-24572486D01*
G01*
X-17939644Y-24660277D01*
G01*
X-17930997Y-24748067D01*
G01*
X-17905390Y-24832484D01*
G01*
X-17863805Y-24910283D01*
G01*
X-17807842Y-24978475D01*
G01*
X-17739650Y-25034438D01*
G01*
X-17661851Y-25076022D01*
G01*
X-17577434Y-25101630D01*
G01*
X-17489644Y-25110277D01*
G37*
D31*
G36*
X-40000000Y-29030000D02*
G01*
X-39213786Y-28952565D01*
G01*
X-38457786Y-28723235D01*
G01*
X-37761052Y-28350823D01*
G01*
X-37150360Y-27849640D01*
G01*
X-36649177Y-27238948D01*
G01*
X-36276765Y-26542214D01*
G01*
X-36047435Y-25786214D01*
G01*
X-35970000Y-25000000D01*
G01*
X-36047435Y-24213786D01*
G01*
X-36276765Y-23457786D01*
G01*
X-36649177Y-22761052D01*
G01*
X-37150360Y-22150360D01*
G01*
X-37761052Y-21649177D01*
G01*
X-38457786Y-21276765D01*
G01*
X-39213786Y-21047435D01*
G01*
X-40000000Y-20970000D01*
G01*
X-40786214Y-21047435D01*
G01*
X-41542214Y-21276765D01*
G01*
X-42238948Y-21649177D01*
G01*
X-42849640Y-22150360D01*
G01*
X-43350823Y-22761052D01*
G01*
X-43723235Y-23457786D01*
G01*
X-43952565Y-24213786D01*
G01*
X-44030000Y-25000000D01*
G01*
X-43952565Y-25786214D01*
G01*
X-43723235Y-26542214D01*
G01*
X-43350823Y-27238948D01*
G01*
X-42849640Y-27849640D01*
G01*
X-42238948Y-28350823D01*
G01*
X-41542214Y-28723235D01*
G01*
X-40786214Y-28952565D01*
G01*
X-40000000Y-29030000D01*
G37*
D31*
G36*
X040000000Y-29030000D02*
G01*
X040786214Y-28952565D01*
G01*
X041542214Y-28723235D01*
G01*
X042238948Y-28350823D01*
G01*
X042849640Y-27849640D01*
G01*
X043350823Y-27238948D01*
G01*
X043723235Y-26542214D01*
G01*
X043952565Y-25786214D01*
G01*
X044030000Y-25000000D01*
G01*
X043952565Y-24213786D01*
G01*
X043723235Y-23457786D01*
G01*
X043350823Y-22761052D01*
G01*
X042849640Y-22150360D01*
G01*
X042238948Y-21649177D01*
G01*
X041542214Y-21276765D01*
G01*
X040786214Y-21047435D01*
G01*
X040000000Y-20970000D01*
G01*
X039213786Y-21047435D01*
G01*
X038457786Y-21276765D01*
G01*
X037761052Y-21649177D01*
G01*
X037150360Y-22150360D01*
G01*
X036649177Y-22761052D01*
G01*
X036276765Y-23457786D01*
G01*
X036047435Y-24213786D01*
G01*
X035970000Y-25000000D01*
G01*
X036047435Y-25786214D01*
G01*
X036276765Y-26542214D01*
G01*
X036649177Y-27238948D01*
G01*
X037150360Y-27849640D01*
G01*
X037761052Y-28350823D01*
G01*
X038457786Y-28723235D01*
G01*
X039213786Y-28952565D01*
G01*
X040000000Y-29030000D01*
G37*
D31*
G36*
X-03318000Y-23309995D02*
G01*
X-03230209Y-23301348D01*
G01*
X-03145792Y-23275741D01*
G01*
X-03067993Y-23234156D01*
G01*
X-02999802Y-23178193D01*
G01*
X-02943839Y-23110002D01*
G01*
X-02902254Y-23032203D01*
G01*
X-02876647Y-22947786D01*
G01*
X-02868000Y-22859995D01*
G01*
X-02876647Y-22772204D01*
G01*
X-02902254Y-22687787D01*
G01*
X-02943839Y-22609988D01*
G01*
X-02999802Y-22541797D01*
G01*
X-03067993Y-22485834D01*
G01*
X-03145792Y-22444249D01*
G01*
X-03177756Y-22434553D01*
G01*
X-03825000Y-21787309D01*
G01*
X-03825000Y-21701666D01*
G01*
X-03809254Y-21672208D01*
G01*
X-03783647Y-21587791D01*
G01*
X-03775000Y-21500000D01*
G01*
X-03783647Y-21412209D01*
G01*
X-03809254Y-21327792D01*
G01*
X-03850839Y-21249993D01*
G01*
X-03906802Y-21181802D01*
G01*
X-03974993Y-21125839D01*
G01*
X-04052792Y-21084254D01*
G01*
X-04137209Y-21058647D01*
G01*
X-04225000Y-21050000D01*
G01*
X-04312791Y-21058647D01*
G01*
X-04397208Y-21084254D01*
G01*
X-04475007Y-21125839D01*
G01*
X-04543198Y-21181802D01*
G01*
X-04599161Y-21249993D01*
G01*
X-04640746Y-21327792D01*
G01*
X-04666353Y-21412209D01*
G01*
X-04675000Y-21500000D01*
G01*
X-04666353Y-21587791D01*
G01*
X-04640746Y-21672208D01*
G01*
X-04625000Y-21701666D01*
G01*
X-04625000Y-21952995D01*
G01*
X-04617314Y-22031031D01*
G01*
X-04594552Y-22106068D01*
G01*
X-04557588Y-22175223D01*
G01*
X-04507843Y-22235838D01*
G01*
X-03743442Y-23000239D01*
G01*
X-03733746Y-23032203D01*
G01*
X-03692161Y-23110002D01*
G01*
X-03636198Y-23178193D01*
G01*
X-03568007Y-23234156D01*
G01*
X-03490208Y-23275741D01*
G01*
X-03405791Y-23301348D01*
G01*
X-03318000Y-23309995D01*
G37*
D31*
G36*
X-20978271Y-23632891D02*
G01*
X-20890481Y-23624244D01*
G01*
X-20806064Y-23598636D01*
G01*
X-20728265Y-23557052D01*
G01*
X-20660073Y-23501089D01*
G01*
X-20604110Y-23432897D01*
G01*
X-20562526Y-23355098D01*
G01*
X-20536918Y-23270681D01*
G01*
X-20528271Y-23182891D01*
G01*
X-20536918Y-23095100D01*
G01*
X-20562526Y-23010683D01*
G01*
X-20604110Y-22932884D01*
G01*
X-20609667Y-22926113D01*
G01*
X-20340266Y-22350510D01*
G01*
X-20292112Y-22345767D01*
G01*
X-20207695Y-22320160D01*
G01*
X-20129896Y-22278575D01*
G01*
X-20061705Y-22222612D01*
G01*
X-20005742Y-22154421D01*
G01*
X-19964157Y-22076622D01*
G01*
X-19938549Y-21992205D01*
G01*
X-19929903Y-21904414D01*
G01*
X-19938549Y-21816623D01*
G01*
X-19964157Y-21732206D01*
G01*
X-20005742Y-21654407D01*
G01*
X-20061705Y-21586216D01*
G01*
X-20129896Y-21530253D01*
G01*
X-20207695Y-21488668D01*
G01*
X-20292112Y-21463061D01*
G01*
X-20379903Y-21454414D01*
G01*
X-20467693Y-21463061D01*
G01*
X-20552110Y-21488668D01*
G01*
X-20629909Y-21530253D01*
G01*
X-20698101Y-21586216D01*
G01*
X-20754064Y-21654407D01*
G01*
X-20795649Y-21732206D01*
G01*
X-20821256Y-21816623D01*
G01*
X-20829903Y-21904414D01*
G01*
X-20821256Y-21992205D01*
G01*
X-20795649Y-22076622D01*
G01*
X-20754064Y-22154421D01*
G01*
X-20748507Y-22161192D01*
G01*
X-21017908Y-22736795D01*
G01*
X-21066062Y-22741537D01*
G01*
X-21150479Y-22767145D01*
G01*
X-21228278Y-22808729D01*
G01*
X-21296470Y-22864693D01*
G01*
X-21352433Y-22932884D01*
G01*
X-21394017Y-23010683D01*
G01*
X-21419625Y-23095100D01*
G01*
X-21428271Y-23182891D01*
G01*
X-21419625Y-23270681D01*
G01*
X-21394017Y-23355098D01*
G01*
X-21352433Y-23432897D01*
G01*
X-21296470Y-23501089D01*
G01*
X-21228278Y-23557052D01*
G01*
X-21150479Y-23598636D01*
G01*
X-21066062Y-23624244D01*
G01*
X-20978271Y-23632891D01*
G37*
D31*
G36*
X021250000Y-26150000D02*
G01*
X021474354Y-26127903D01*
G01*
X021690086Y-26062461D01*
G01*
X021888906Y-25956190D01*
G01*
X022063173Y-25813173D01*
G01*
X022206190Y-25638906D01*
G01*
X022312461Y-25440086D01*
G01*
X022377903Y-25224354D01*
G01*
X022400000Y-25000000D01*
G01*
X022377903Y-24775646D01*
G01*
X022312461Y-24559914D01*
G01*
X022206190Y-24361094D01*
G01*
X022063173Y-24186827D01*
G01*
X021888906Y-24043810D01*
G01*
X021690086Y-23937539D01*
G01*
X021474354Y-23872097D01*
G01*
X021250000Y-23850000D01*
G01*
X021025646Y-23872097D01*
G01*
X020809914Y-23937539D01*
G01*
X020611094Y-24043810D01*
G01*
X020436827Y-24186827D01*
G01*
X020293810Y-24361094D01*
G01*
X020187539Y-24559914D01*
G01*
X020122097Y-24775646D01*
G01*
X020100000Y-25000000D01*
G01*
X020122097Y-25224354D01*
G01*
X020187539Y-25440086D01*
G01*
X020293810Y-25638906D01*
G01*
X020436827Y-25813173D01*
G01*
X020611094Y-25956190D01*
G01*
X020809914Y-26062461D01*
G01*
X021025646Y-26127903D01*
G01*
X021250000Y-26150000D01*
G37*
%LPD*%
D31*
G36*
X-02991357Y-00635332D02*
G01*
X-00804505Y-00316831D01*
G01*
X-00536818Y-00277844D01*
G01*
X-00569220Y-00251252D01*
G01*
X-00625183Y-00183061D01*
G01*
X-00666768Y-00105262D01*
G01*
X-00692375Y-00020845D01*
G01*
X-00701022Y000066946D01*
G01*
X-00696860Y000109204D01*
G01*
X-02703932Y001544775D01*
G01*
X-02716689Y001537956D01*
G01*
X-02801106Y001512348D01*
G01*
X-02888896Y001503702D01*
G01*
X-02976687Y001512348D01*
G01*
X-03061104Y001537956D01*
G01*
X-03138903Y001579540D01*
G01*
X-03207094Y001635504D01*
G01*
X-03263058Y001703695D01*
G01*
X-03304642Y001781494D01*
G01*
X-03330250Y001865911D01*
G01*
X-03338896Y001953702D01*
G01*
X-03330250Y002041492D01*
G01*
X-03304642Y002125909D01*
G01*
X-03263058Y002203708D01*
G01*
X-03207094Y002271900D01*
G01*
X-03138903Y002327863D01*
G01*
X-03061104Y002369447D01*
G01*
X-02976687Y002395055D01*
G01*
X-02888896Y002403702D01*
G01*
X-02801106Y002395055D01*
G01*
X-02716689Y002369447D01*
G01*
X-02638890Y002327863D01*
G01*
X-02570698Y002271900D01*
G01*
X-02514735Y002203708D01*
G01*
X-02473151Y002125909D01*
G01*
X-02447543Y002041492D01*
G01*
X-02438896Y001953702D01*
G01*
X-02443058Y001911444D01*
G01*
X-00435986Y000475873D01*
G01*
X-00423229Y000482691D01*
G01*
X-00338812Y000508299D01*
G01*
X-00251022Y000516946D01*
G01*
X-00163231Y000508299D01*
G01*
X-00083677Y000484166D01*
G01*
X-00082315Y000497995D01*
G01*
X-00075623Y000520056D01*
G01*
X-00266376Y000706249D01*
G01*
X-00266200Y000706429D01*
G01*
X-00268312Y000708162D01*
G01*
X-00280232Y000722687D01*
G01*
X-00281041Y000722003D01*
G01*
X-00943906Y001506115D01*
G01*
X-02444917Y003281683D01*
G01*
X-03823644Y003620901D01*
G01*
X-03784254Y003547208D01*
G01*
X-03758647Y003462791D01*
G01*
X-03750000Y003375000D01*
G01*
X-03758647Y003287209D01*
G01*
X-03784254Y003202792D01*
G01*
X-03825839Y003124993D01*
G01*
X-03881802Y003056802D01*
G01*
X-03949993Y003000839D01*
G01*
X-04027792Y002959254D01*
G01*
X-04112209Y002933647D01*
G01*
X-04128846Y002932008D01*
G01*
X-04158236Y002888305D01*
G01*
X-04158309Y002888354D01*
G01*
X-04195816Y002842652D01*
G01*
X-04242224Y002804566D01*
G01*
X-04295171Y002776265D01*
G01*
X-04314832Y002770301D01*
G01*
X-04437259Y002604354D01*
G01*
X-04638268Y002331892D01*
G01*
X-04691409Y002054921D01*
G01*
X-04757697Y001709431D01*
G01*
X-04795493Y001512439D01*
G01*
X-04781393Y001465959D01*
G01*
X-04775869Y001409870D01*
G01*
X-04781201Y001355732D01*
G01*
X-04781019Y001355697D01*
G01*
X-04847307Y001010207D01*
G01*
X-04848895Y001001932D01*
G01*
X-04821784Y000968897D01*
G01*
X-04780199Y000891098D01*
G01*
X-04754592Y000806681D01*
G01*
X-04745945Y000718890D01*
G01*
X-04754592Y000631100D01*
G01*
X-04780199Y000546683D01*
G01*
X-04821784Y000468884D01*
G01*
X-04877747Y000400692D01*
G01*
X-04945939Y000344729D01*
G01*
X-05023738Y000303145D01*
G01*
X-05108154Y000277537D01*
G01*
X-05195945Y000268890D01*
G01*
X-05283736Y000277537D01*
G01*
X-05368153Y000303145D01*
G01*
X-05445952Y000344729D01*
G01*
X-05514143Y000400692D01*
G01*
X-05570106Y000468884D01*
G01*
X-05611691Y000546683D01*
G01*
X-05637298Y000631100D01*
G01*
X-05645945Y000718890D01*
G01*
X-05637298Y000806681D01*
G01*
X-05611691Y000891098D01*
G01*
X-05570106Y000968897D01*
G01*
X-05514143Y001037088D01*
G01*
X-05445952Y001093052D01*
G01*
X-05413580Y001110355D01*
G01*
X-05412007Y001118554D01*
G01*
X-05378021Y001295686D01*
G01*
X-05403299Y001282175D01*
G01*
X-05487716Y001256567D01*
G01*
X-05575507Y001247921D01*
G01*
X-05627433Y001253035D01*
G01*
X-06782327Y-00290066D01*
G01*
X-06783015Y-00289551D01*
G01*
X-06803364Y-00314346D01*
G01*
X-06903364Y-00414346D01*
G01*
X-07003364Y-00514346D01*
G01*
X-07037460Y-00542328D01*
G01*
X-07076359Y-00563120D01*
G01*
X-07118568Y-00575924D01*
G01*
X-07162463Y-00580247D01*
G01*
X-07262463Y-00580247D01*
G01*
X-07306358Y-00575924D01*
G01*
X-07317554Y-00572528D01*
G01*
X-07317762Y-00573346D01*
G01*
X-07390912Y-00554799D01*
G01*
X-07536508Y-00552854D01*
G01*
X-07604193Y-00571180D01*
G01*
X-07604450Y-00570232D01*
G01*
X-07619100Y-00574676D01*
G01*
X-07660176Y-00578722D01*
G01*
X-07660173Y-00578982D01*
G01*
X-07759641Y-00580230D01*
G01*
X-07759644Y-00579969D01*
G01*
X-07762463Y-00580247D01*
G01*
X-07862463Y-00580247D01*
G01*
X-07906358Y-00575924D01*
G01*
X-07931676Y-00568244D01*
G01*
X-07931997Y-00569233D01*
G01*
X-08330853Y-00439626D01*
G01*
X-07583689Y-01170656D01*
G01*
X-02991357Y-00635332D01*
G37*
%LPC*%
D31*
G36*
X-04275000Y-00350000D02*
G01*
X-04187209Y-00341353D01*
G01*
X-04102792Y-00315746D01*
G01*
X-04024993Y-00274161D01*
G01*
X-03956802Y-00218198D01*
G01*
X-03900839Y-00150007D01*
G01*
X-03859254Y-00072208D01*
G01*
X-03833647Y000012209D01*
G01*
X-03826776Y000081968D01*
G01*
X-03780619Y000135025D01*
G01*
X-03545406Y000385070D01*
G01*
X-03546053Y000385678D01*
G01*
X-03509325Y000430431D01*
G01*
X-03488774Y000468880D01*
G01*
X-03487377Y000468181D01*
G01*
X-03412704Y000617319D01*
G01*
X-03349993Y000650839D01*
G01*
X-03281802Y000706802D01*
G01*
X-03225839Y000774993D01*
G01*
X-03184254Y000852792D01*
G01*
X-03158647Y000937209D01*
G01*
X-03150000Y001025000D01*
G01*
X-03158647Y001112791D01*
G01*
X-03184254Y001197208D01*
G01*
X-03225839Y001275007D01*
G01*
X-03281802Y001343198D01*
G01*
X-03349993Y001399161D01*
G01*
X-03427792Y001440746D01*
G01*
X-03512209Y001466353D01*
G01*
X-03600000Y001475000D01*
G01*
X-03687791Y001466353D01*
G01*
X-03772208Y001440746D01*
G01*
X-03850007Y001399161D01*
G01*
X-03918198Y001343198D01*
G01*
X-03974161Y001275007D01*
G01*
X-04015746Y001197208D01*
G01*
X-04041353Y001112791D01*
G01*
X-04050000Y001025000D01*
G01*
X-04041353Y000937209D01*
G01*
X-04039099Y000929778D01*
G01*
X-04090367Y000827384D01*
G01*
X-04295150Y000609687D01*
G01*
X-04294503Y000609079D01*
G01*
X-04303113Y000598588D01*
G01*
X-04304276Y000599599D01*
G01*
X-04354213Y000542198D01*
G01*
X-04362791Y000541353D01*
G01*
X-04447208Y000515746D01*
G01*
X-04525007Y000474161D01*
G01*
X-04593198Y000418198D01*
G01*
X-04649161Y000350007D01*
G01*
X-04690746Y000272208D01*
G01*
X-04716353Y000187791D01*
G01*
X-04725000Y000100000D01*
G01*
X-04716353Y000012209D01*
G01*
X-04690746Y-00072208D01*
G01*
X-04649161Y-00150007D01*
G01*
X-04593198Y-00218198D01*
G01*
X-04525007Y-00274161D01*
G01*
X-04447208Y-00315746D01*
G01*
X-04362791Y-00341353D01*
G01*
X-04275000Y-00350000D01*
G37*
%LPD*%
%ADD32C,1.199998*%
D32*
X-43574130Y-04325112D03*
X-43574130Y-04325112D02*
X-42974131Y-04325112D01*
X-42974131Y-04325112D03*
D32*
X-39494306Y-04325112D03*
X-39494306Y-04325112D02*
X-38694308Y-04325112D01*
X-38694308Y-04325112D03*
D32*
X-39494306Y004325112D03*
X-39494306Y004325112D02*
X-38694308Y004325112D01*
X-38694308Y004325112D03*
D32*
X-43574130Y004325112D03*
X-43574130Y004325112D02*
X-42974131Y004325112D01*
X-42974131Y004325112D03*
D28*
X007750000Y017000000D03*
D28*
X004250000Y017000000D03*
D28*
X019750000Y017000000D03*
D28*
X016250000Y017000000D03*
D28*
X031750000Y020000000D03*
D28*
X028250000Y020000000D03*
D28*
X009250000Y-25000000D03*
D28*
X012750000Y-25000000D03*
D28*
X021250000Y-25000000D03*
D28*
X024750000Y-25000000D03*
D10*
X022400000Y-08000000D02*
X022400000Y-03625237D01*
D10*
X022400000Y-03625237D02*
X022806237Y-03219000D01*
D10*
X022806237Y-03219000D02*
X022900000Y-03219000D01*
D10*
X012679000Y-04800000D02*
X012736534Y-04742466D01*
D10*
X012736534Y-04742466D02*
X012832609Y-04742466D01*
D10*
X012832609Y-04742466D02*
X023781000Y006205925D01*
D10*
X023781000Y006205925D02*
X023781000Y008419000D01*
D10*
X002211584Y012796938D02*
X002247128Y012832485D01*
D10*
X002247128Y012832485D02*
X003349616Y013934973D01*
D10*
X003349616Y013934973D02*
X006219405Y014074973D01*
D10*
X015323000Y006179000D02*
X013868165Y006179000D01*
D10*
X013868165Y006179000D02*
X013737914Y006048748D01*
D10*
X013737914Y006048748D02*
X013647748Y006048748D01*
D10*
X013647748Y006048748D02*
X013606000Y006007000D01*
D10*
X-27200000Y013600000D02*
X-27200000Y011683000D01*
D10*
X-27200000Y011683000D02*
X-26966277Y011449277D01*
D10*
X-26966277Y011449277D02*
X-26960000Y011443000D01*
D10*
X-41085000Y-02113000D02*
X-41085000Y-04278700D01*
D10*
X-41085000Y-04278700D02*
X-40156000Y-05207700D01*
D10*
X-40156000Y-05207700D02*
X-37997570Y-05207700D01*
D10*
X-37997570Y-05207700D02*
X-36873170Y-06332100D01*
D10*
X-36873170Y-06332100D02*
X-36873170Y-06361830D01*
D10*
X-36873170Y-06361830D02*
X-36740000Y-06495000D01*
D10*
X018665962Y-15851382D02*
X018589018Y-15773018D01*
D10*
X018589018Y-15773018D02*
X018589018Y-15584873D01*
D10*
X018589018Y-15584873D02*
X018521000Y-15516856D01*
D10*
X018521000Y-15516856D02*
X018665962Y-14364000D01*
D10*
X015345382Y-15512691D02*
X015431186Y-15497186D01*
D10*
X015431186Y-15497186D02*
X015431186Y-15429505D01*
D10*
X015431186Y-15429505D02*
X015384000Y-15382320D01*
D10*
X015384000Y-15382320D02*
X015334039Y-14200000D01*
D10*
X013839921Y-18365438D02*
X013803321Y-18421618D01*
D10*
X013803321Y-18421618D02*
X013758544Y-18421618D01*
D10*
X013758544Y-18421618D02*
X009250000Y-22930162D01*
D10*
X009250000Y-22930162D02*
X009250000Y-25000000D01*
D10*
X-29054000Y001840000D02*
X-29054000Y004037972D01*
D10*
X-29054000Y004037972D02*
X-28664344Y004427628D01*
D10*
X-28664344Y004427628D02*
X-28664344Y004440656D01*
D10*
X-28664344Y004440656D02*
X-28553000Y004552000D01*
D10*
X-32699387Y-00004084D02*
X-32657356Y001671470D01*
D10*
X-32657356Y001671470D02*
X-32397984Y001930843D01*
D10*
X-32397984Y001930843D02*
X-32397984Y001935028D01*
D10*
X-32397984Y001935028D02*
X-32432223Y002079727D01*
D10*
X-15600000Y010919000D02*
X-15596438Y010915438D01*
D10*
X-15596438Y010915438D02*
X-15596438Y010708851D01*
D10*
X-15596438Y010708851D02*
X-15596438Y009111438D01*
D10*
X-15596438Y009111438D02*
X-11899999Y005204382D01*
D10*
X-10110398Y004803806D02*
X-10390818Y013647540D01*
D10*
X-10390818Y013647540D02*
X-14227950Y017628950D01*
D10*
X-14227950Y017628950D02*
X-14313000Y017714000D01*
D10*
X-10199430Y-04299942D02*
X-10165042Y-04163359D01*
D10*
X-10165042Y-04163359D02*
X-09521794Y-04806607D01*
D10*
X-09521794Y-04806607D02*
X-09357851Y-04902124D01*
D10*
X-09357851Y-04902124D02*
X-09268506Y-05059214D01*
D10*
X-09268506Y-05059214D02*
X-09197192Y-05214917D01*
D10*
X-09197192Y-05214917D02*
X-08873927Y-05614284D01*
D10*
X-08873927Y-05614284D02*
X-08721044Y-05560825D01*
D10*
X-08721044Y-05560825D02*
X-08500000Y-05750000D01*
D10*
X-08500000Y-05750000D02*
X-08453806Y-05781515D01*
D10*
X-08453806Y-05781515D02*
X-02622876Y-05781515D01*
D10*
X-02622876Y-05781515D02*
X-02329039Y-06075353D01*
D10*
X-02329039Y-06075353D02*
X-02208191Y-06065004D01*
D10*
X-11086778Y-04861411D02*
X-10930007Y-05046662D01*
D10*
X-10930007Y-05046662D02*
X-10946045Y-05053837D01*
D10*
X-10946045Y-05053837D02*
X-11050370Y-05254467D01*
D10*
X-11050370Y-05254467D02*
X-11045538Y-05521620D01*
D10*
X-11045538Y-05521620D02*
X-11030839Y-05539009D01*
D10*
X-11030839Y-05539009D02*
X-10811822Y-05964172D01*
D10*
X-10811822Y-05964172D02*
X-10800000Y-06015969D01*
D10*
X-10800000Y-06015969D02*
X-10820987Y-08445371D01*
D10*
X-10820987Y-08445371D02*
X-07202358Y-12178041D01*
D10*
X-07202358Y-12178041D02*
X-06317561Y-12110909D01*
D10*
X-06317561Y-12110909D02*
X-04851429Y-13593279D01*
D10*
X-04851429Y-13593279D02*
X-02118162Y-13500566D01*
D10*
X-02118162Y-13500566D02*
X-00154460Y-11676863D01*
D10*
X-00154460Y-11676863D02*
X000878235Y-11676863D01*
D10*
X000878235Y-11676863D02*
X002917697Y-13716326D01*
D10*
X002917697Y-13716326D02*
X002989100Y-13716326D01*
D10*
X002989100Y-13716326D02*
X003028920Y-13714019D01*
D10*
X005493433Y-14990480D02*
X006425394Y-14990474D01*
D10*
X006425394Y-14990474D02*
X006478594Y-15043674D01*
D10*
X006478594Y-15043674D02*
X006521978Y-15043674D01*
D10*
X006521978Y-15043674D02*
X006543514Y-15059082D01*
D10*
X-10776287Y-02556431D02*
X-10831657Y-02576872D01*
D10*
X-10831657Y-02576872D02*
X-10112463Y-01801135D01*
D10*
X-10112463Y-01801135D02*
X-08953266Y-00550801D01*
D10*
X-08953266Y-00550801D02*
X-08513811Y-00575400D01*
D10*
X-08513811Y-00575400D02*
X-07664292Y-01406575D01*
D10*
X-07664292Y-01406575D02*
X-02962085Y-00858443D01*
D10*
X-02962085Y-00858443D02*
X-00772078Y-00539482D01*
D10*
X-00772078Y-00539482D02*
X-00107866Y-00442744D01*
D10*
X-00107866Y-00442744D02*
X000827912Y-00430221D01*
D10*
X000827912Y-00430221D02*
X001078072Y-00411357D01*
D10*
X001078072Y-00411357D02*
X003478339Y000475616D01*
D10*
X-13060000Y-08906000D02*
X-10909343Y-08906000D01*
D10*
X-10909343Y-08906000D02*
X-06421054Y-13394289D01*
D10*
X-06421054Y-13394289D02*
X-05887749Y-13927594D01*
D10*
X-05887749Y-13927594D02*
X-01942290Y-13926141D01*
D10*
X-01942290Y-13926141D02*
X-01314585Y-13289511D01*
D10*
X-01314585Y-13289511D02*
X001891250Y-13299125D01*
D10*
X001891250Y-13299125D02*
X002810954Y-14245485D01*
D10*
X002810954Y-14245485D02*
X003256190Y-14232717D01*
D10*
X003256190Y-14232717D02*
X006226012Y-14227086D01*
D10*
X006226012Y-14227086D02*
X017671774Y-02781323D01*
D10*
X017671774Y-02781323D02*
X017671774Y-02760226D01*
D10*
X017671774Y-02760226D02*
X017755000Y-02677000D01*
D10*
X-11825206Y-02439615D02*
X-11789921Y-02021152D01*
D10*
X-11789921Y-02021152D02*
X-10112463Y-00343694D01*
D10*
X-10112463Y-00343694D02*
X-08978442Y000790326D01*
D10*
X-08978442Y000790326D02*
X-08727479Y000790326D01*
D10*
X-08727479Y000790326D02*
X-08588163Y001087622D01*
D10*
X-08588163Y001087622D02*
X-05729748Y003500078D01*
D10*
X-05729748Y003500078D02*
X-05747247Y004394753D01*
D10*
X-05747247Y004394753D02*
X-04147247Y005994753D01*
D10*
X-04147247Y005994753D02*
X-02569113Y007572887D01*
D10*
X-02569113Y007572887D02*
X-02606602Y007656000D01*
D10*
X-11846000Y-17614000D02*
X-07637172Y-17614000D01*
D10*
X-07637172Y-17614000D02*
X-04621949Y-14598777D01*
D10*
X-04621949Y-14598777D02*
X-04654391Y-14598777D01*
D10*
X-04654391Y-14598777D02*
X-04787732Y-14465435D01*
D10*
X-03198648Y-09899446D02*
X-03227552Y-09046982D01*
D10*
X-03227552Y-09046982D02*
X006114042Y000444315D01*
D10*
X006114042Y000444315D02*
X006267009Y004123449D01*
D10*
X006267009Y004123449D02*
X006281176Y004137617D01*
D10*
X006281176Y004137617D02*
X006383617Y004137617D01*
D10*
X006383617Y004137617D02*
X006435000Y004189000D01*
D10*
X-15884167Y-04462572D02*
X-19390713Y-00956287D01*
D10*
X-19390713Y-00956287D02*
X-19390713Y012650034D01*
D10*
X-19390713Y012650034D02*
X-19390713Y012784287D01*
D10*
X-19390713Y012784287D02*
X-19387593Y012882003D01*
D10*
X-15463208Y-02672722D02*
X-15286842Y-04159875D01*
D10*
X-15286842Y-04159875D02*
X-15286925Y-04992283D01*
D10*
X-15286925Y-04992283D02*
X-19342561Y-04960402D01*
D10*
X-19342561Y-04960402D02*
X-19754341Y-04541920D01*
D10*
X-19754341Y-04541920D02*
X-19887080Y-04541920D01*
D10*
X-19887080Y-04541920D02*
X-19957000Y-04472000D01*
D10*
X-22053412Y-03544634D02*
X-22720343Y-03554749D01*
D10*
X-22720343Y-03554749D02*
X-22964832Y-03799238D01*
D10*
X-22964832Y-03799238D02*
X-23005149Y-03799238D01*
D10*
X-23005149Y-03799238D02*
X-23090602Y-03882729D01*
D10*
X-14344539Y001116278D02*
X-13873387Y001757488D01*
D10*
X-13873387Y001757488D02*
X-13925560Y002090318D01*
D10*
X-13925560Y002090318D02*
X-14715362Y004240125D01*
D10*
X-14715362Y004240125D02*
X-14887690Y004376387D01*
D10*
X-14887690Y004376387D02*
X-15866245Y004240125D01*
D10*
X-15866245Y004240125D02*
X-16841673Y003164521D01*
D10*
X-14431252Y001884906D02*
X-15925633Y003194359D01*
D10*
X-02888896Y001953702D02*
X-00251022Y000066946D01*
D10*
X-00362463Y-01055247D02*
X-00362463Y-02955247D01*
D10*
X-05575507Y001697921D02*
X-06962463Y-00155247D01*
D10*
X-06962463Y-00155247D02*
X-07062463Y-00255247D01*
D10*
X-07062463Y-00255247D02*
X-07162463Y-00355247D01*
D10*
X-07162463Y-00355247D02*
X-07262463Y-00355247D01*
D10*
X-07262463Y-00355247D02*
X-07361354Y-00330174D01*
D10*
X-07361354Y-00330174D02*
X-07564953Y-00327455D01*
D10*
X-07564953Y-00327455D02*
X-07662995Y-00354000D01*
D10*
X-07662995Y-00354000D02*
X-07762463Y-00355247D01*
D10*
X-07762463Y-00355247D02*
X-07862463Y-00355247D01*
D10*
X-07862463Y-00355247D02*
X-08512463Y-00144032D01*
D10*
X-08512463Y-00144032D02*
X-09042405Y-00152409D01*
D10*
X-09042405Y-00152409D02*
X-10112463Y-01185648D01*
D10*
X-10112463Y-01185648D02*
X-11303770Y-02335963D01*
D10*
X-11303770Y-02335963D02*
X-11297709Y-02495241D01*
D10*
X-11297709Y-02495241D02*
X-11307807Y-02555074D01*
D10*
X-11307807Y-02555074D02*
X-11316583Y-04224536D01*
D10*
X-11316583Y-04224536D02*
X-18184607Y-11092878D01*
D10*
X-18184607Y-11092878D02*
X-23213685Y-11092804D01*
D10*
X-23213685Y-11092804D02*
X-23343750Y-11137500D01*
D10*
X-23343750Y-11137500D02*
X-23906250Y-11700000D01*
D10*
X-23906250Y-11700000D02*
X-23824453Y-16812525D01*
D10*
X-07449943Y001361272D02*
X-05562686Y003145128D01*
D10*
X-05562686Y003145128D02*
X-04291055Y003967611D01*
D10*
X-04291055Y003967611D02*
X-02320241Y003482719D01*
D10*
X-02320241Y003482719D02*
X-00772078Y001651374D01*
D10*
X-00772078Y001651374D02*
X-00109213Y000867261D01*
D10*
X-00109213Y000867261D02*
X000359038Y000410204D01*
D10*
X000877783Y000100030D02*
X003277815Y000998960D01*
D10*
X003277815Y000998960D02*
X003687495Y001007100D01*
D10*
X003687495Y001007100D02*
X003998041Y000700067D01*
D10*
X003998041Y000700067D02*
X004008447Y000271738D01*
D10*
X004008447Y000271738D02*
X002981121Y-00812172D01*
D10*
X-04855827Y-01848654D02*
X-01708790Y-04005247D01*
D10*
X-01708790Y-04005247D02*
X-00999990Y-04024760D01*
D10*
X002949997Y-09889079D02*
X002801000Y-08216100D01*
D10*
X002801000Y-08216100D02*
X002856243Y-08160856D01*
D10*
X002856243Y-08160856D02*
X002864022Y-08167916D01*
D10*
X-20379903Y-21904414D02*
X-20978271Y-23182891D01*
D10*
X-13253758Y-16175226D02*
X-10459328Y-13380789D01*
D10*
X-10459328Y-13380789D02*
X-08233476Y-13380789D01*
D10*
X-08233476Y-13380789D02*
X-08233476Y-13246476D01*
D10*
X-08233476Y-13246476D02*
X-08219000Y-13232000D01*
D10*
X-07561383Y-10101629D02*
X-07561383Y-08767802D01*
D10*
X-07561383Y-08767802D02*
X-07674646Y-08654539D01*
D10*
X-07674646Y-08654539D02*
X-07674646Y-08510354D01*
D10*
X-07674646Y-08510354D02*
X-07693912Y-08484996D01*
D10*
X-16657000Y-20300041D02*
X-16657000Y-23822399D01*
D10*
X-16657000Y-23822399D02*
X-17399677Y-24565076D01*
D10*
X-17399677Y-24565076D02*
X-17399677Y-24575677D01*
D10*
X-17399677Y-24575677D02*
X-17489644Y-24660277D01*
D10*
X-12901000Y-20025000D02*
X-12901000Y-17923041D01*
D10*
X-12901000Y-17923041D02*
X-09262019Y-14284060D01*
D10*
X-09262019Y-14284060D02*
X-07307594Y-14284060D01*
D10*
X-07307594Y-14284060D02*
X-07275949Y-14252415D01*
D10*
X-07275949Y-14252415D02*
X-07050415Y-14252415D01*
D10*
X-07050415Y-14252415D02*
X-07042000Y-14244000D01*
D10*
X-07548980Y-10966151D02*
X-09238510Y-09276621D01*
D10*
X-09238510Y-09276621D02*
X-09238510Y-07669368D01*
D10*
X-09238510Y-07669368D02*
X-09238510Y-07559490D01*
D10*
X-09238510Y-07559490D02*
X-09249537Y-07548486D01*
D10*
X-02257211Y-21582433D02*
X-02262793Y-21477157D01*
D10*
X-02262793Y-21477157D02*
X-02258960Y-21473329D01*
D10*
X-02258960Y-21473329D02*
X-00551228Y-23185157D01*
D10*
X-00551228Y-23185157D02*
X-00556990Y-24513578D01*
D10*
X-02257211Y-21582433D02*
X-02265651Y-21474958D01*
D10*
X-02265651Y-21474958D02*
X-02184605Y-21474958D01*
D10*
X-02184605Y-21474958D02*
X-01105148Y-20395501D01*
D10*
X-01105148Y-20395501D02*
X-01086107Y-13815199D01*
D10*
X-00914077Y-10374993D02*
X-00880241Y-10410488D01*
D10*
X-00880241Y-10410488D02*
X-00880232Y-10418133D01*
D10*
X-00880232Y-10418133D02*
X-04377537Y-10427659D01*
D10*
X-04377537Y-10427659D02*
X-09491210Y-05686127D01*
D11*
X-14319090Y000066472D02*
X-14120113Y000246878D01*
D11*
X-14120113Y000246878D02*
X-13921137Y000427284D01*
D11*
X-13921137Y000427284D02*
X-13722161Y000607690D01*
D11*
X-13722161Y000607690D02*
X-13523184Y000788095D01*
D11*
X-13523184Y000788095D02*
X-13324208Y000968501D01*
D11*
X-13324208Y000968501D02*
X-13125232Y001148907D01*
D11*
X-13125232Y001148907D02*
X-12926255Y001329313D01*
D11*
X-12926255Y001329313D02*
X-12727279Y001509719D01*
D11*
X-12727279Y001509719D02*
X-12528302Y001690125D01*
D11*
X-12550053Y-00293236D02*
X-12789178Y-00451556D01*
D11*
X-12789178Y-00451556D02*
X-13028302Y-00609875D01*
D11*
X-13028302Y-00609875D02*
X-13292850Y-00666779D01*
D11*
X-13292850Y-00666779D02*
X-13557398Y-00723683D01*
D11*
X-13557398Y-00723683D02*
X-13821946Y-00780586D01*
D11*
X-13821946Y-00780586D02*
X-14086494Y-00837490D01*
D11*
X-14086494Y-00837490D02*
X-14351042Y-00894394D01*
D11*
X-14351042Y-00894394D02*
X-14615590Y-00951298D01*
D11*
X-14615590Y-00951298D02*
X-14875000Y-01000000D01*
D11*
X-12528302Y002490125D02*
X-12653302Y002690125D01*
D11*
X-12653302Y002690125D02*
X-12778302Y002890125D01*
D11*
X-12778302Y002890125D02*
X-12903302Y003090125D01*
D11*
X-12903302Y003090125D02*
X-13028302Y003290125D01*
D11*
X-13028302Y003290125D02*
X-13203302Y003465125D01*
D11*
X-13203302Y003465125D02*
X-13378302Y003640125D01*
D11*
X-13378302Y003640125D02*
X-13553302Y003815125D01*
D11*
X-13553302Y003815125D02*
X-13728302Y003990125D01*
D11*
X-07825000Y002500000D02*
X-07488967Y002731727D01*
D11*
X-07488967Y002731727D02*
X-07309745Y002912399D01*
D11*
X-07309745Y002912399D02*
X-07130522Y003093072D01*
D11*
X-07130522Y003093072D02*
X-06951300Y003273744D01*
D11*
X-06951300Y003273744D02*
X-06772077Y003454416D01*
D11*
X-08362463Y002044753D02*
X-08391423Y002316218D01*
D11*
X-08391423Y002316218D02*
X-08420383Y002587684D01*
D11*
X-08420383Y002587684D02*
X-08449343Y002859150D01*
D11*
X-08449343Y002859150D02*
X-08478302Y003130615D01*
D11*
X-08478302Y003130615D02*
X-08495383Y003290723D01*
D11*
X-08495383Y003290723D02*
X-08512463Y003450831D01*
D11*
X-08512463Y003450831D02*
X-08773318Y003450792D01*
D11*
X-08773318Y003450792D02*
X-09034173Y003450752D01*
D11*
X-09034173Y003450752D02*
X-09295027Y003450712D01*
D11*
X-09295027Y003450712D02*
X-09555882Y003450672D01*
D11*
X-09555882Y003450672D02*
X-09816737Y003450632D01*
D11*
X-09816737Y003450632D02*
X-10077592Y003450592D01*
D11*
X-10077592Y003450592D02*
X-10186090Y003183936D01*
D11*
X-10186090Y003183936D02*
X-10294589Y002917281D01*
D11*
X-10294589Y002917281D02*
X-10403088Y002650625D01*
D11*
X-10403088Y002650625D02*
X-10511587Y002383969D01*
D11*
X-10511587Y002383969D02*
X-10620086Y002117313D01*
D11*
X-10620086Y002117313D02*
X-10728585Y001850658D01*
D11*
X-10728585Y001850658D02*
X-10837084Y001584002D01*
D11*
X-10837084Y001584002D02*
X-10945583Y001317346D01*
D11*
X-10945583Y001317346D02*
X-11054082Y001050690D01*
D11*
X-11054082Y001050690D02*
X-11162581Y000784035D01*
D11*
X-11162581Y000784035D02*
X-11271080Y000517379D01*
D11*
X-11271080Y000517379D02*
X-11379579Y000250723D01*
D11*
X-11379579Y000250723D02*
X-11488078Y-00015933D01*
D11*
X-11488078Y-00015933D02*
X-11550000Y-00600000D01*
D11*
X-11550000Y-00600000D02*
X-12000124Y-01236458D01*
D12*
X-04275000Y000100000D02*
X-04040216Y000369876D01*
D12*
X-04040216Y000369876D02*
X-03800339Y000624880D01*
D12*
X-03800339Y000624880D02*
X-03600000Y001025000D01*
D12*
X-26616601Y-07594869D02*
X-26682845Y-07661113D01*
D12*
X-26682845Y-07661113D02*
X-26725432Y-07661113D01*
D12*
X-26725432Y-07661113D02*
X-26830319Y-07766000D01*
D12*
X-26830319Y-07766000D02*
X-27950000Y-07800000D01*
D12*
X-13848000Y-05879000D02*
X-13908206Y-05818794D01*
D12*
X-13908206Y-05818794D02*
X-13908206Y-05691476D01*
D12*
X-13908206Y-05691476D02*
X-13907298Y-05308576D01*
D12*
X-13907298Y-05308576D02*
X-13906389Y-04925676D01*
D12*
X-13906389Y-04925676D02*
X-13905481Y-04542775D01*
D12*
X-13905481Y-04542775D02*
X-13904573Y-04159875D01*
D12*
X-13904573Y-04159875D02*
X-13852914Y-03766447D01*
D12*
X-13852914Y-03766447D02*
X-13801255Y-03373020D01*
D12*
X-13801255Y-03373020D02*
X-13749596Y-02979592D01*
D12*
X-13749596Y-02979592D02*
X-13697938Y-02586164D01*
D12*
X-13697938Y-02586164D02*
X-13646279Y-02192736D01*
D12*
X-13646279Y-02192736D02*
X-13375051Y-01910294D01*
D12*
X-13375051Y-01910294D02*
X-13103823Y-01627852D01*
D13*
X-13103823Y-01627852D02*
X-12832595Y-01345409D01*
D10*
X-12832595Y-01345409D02*
X-12561367Y-01062967D01*
D10*
X-12561367Y-01062967D02*
X-12290139Y-00780524D01*
D10*
X-12290139Y-00780524D02*
X-12018911Y-00498082D01*
D14*
X-12018911Y-00498082D02*
X-12014871Y-00202241D01*
D15*
X-12014871Y-00202241D02*
X-12010831Y000093600D01*
D15*
X-12010831Y000093600D02*
X-12006790Y000389441D01*
D16*
X-05195945Y000718890D02*
X-05129657Y001064380D01*
D16*
X-05129657Y001064380D02*
X-05063369Y001409870D01*
D17*
X-05063369Y001409870D02*
X-04997081Y001755360D01*
D17*
X-04997081Y001755360D02*
X-04930793Y002100851D01*
D17*
X-04930793Y002100851D02*
X-04864505Y002446341D01*
D18*
X-04864505Y002446341D02*
X-04638436Y002752772D01*
D18*
X-04638436Y002752772D02*
X-04412367Y003059203D01*
D19*
X-04412367Y003059203D02*
X-04200000Y003375000D01*
D12*
X-04139471Y008237894D02*
X-04508055Y008235986D01*
D12*
X-04508055Y008235986D02*
X-04876638Y008234079D01*
D12*
X-04876638Y008234079D02*
X-05245222Y008232171D01*
D12*
X-05245222Y008232171D02*
X-05613805Y008230263D01*
D12*
X-05613805Y008230263D02*
X-05982388Y008228355D01*
D12*
X-05982388Y008228355D02*
X-06350972Y008226447D01*
D12*
X-06350972Y008226447D02*
X-06719555Y008224539D01*
D12*
X-06719555Y008224539D02*
X-07088139Y008222631D01*
D12*
X-07088139Y008222631D02*
X-07456722Y008220724D01*
D12*
X-07456722Y008220724D02*
X-07825305Y008218816D01*
D12*
X-07825305Y008218816D02*
X-08193889Y008216908D01*
D12*
X-08193889Y008216908D02*
X-08562472Y008215000D01*
D12*
X-08562472Y008215000D02*
X-08593236Y008245764D01*
D12*
X-08593236Y008245764D02*
X-08622000Y008217000D01*
D12*
X020889058Y-18359798D02*
X021212835Y-18347383D01*
D12*
X021212835Y-18347383D02*
X021536612Y-18334968D01*
D12*
X021536612Y-18334968D02*
X021860390Y-18322553D01*
D12*
X021860390Y-18322553D02*
X022184167Y-18310138D01*
D12*
X022184167Y-18310138D02*
X022466284Y-18028022D01*
D12*
X022466284Y-18028022D02*
X022748400Y-17745906D01*
D12*
X022748400Y-17745906D02*
X023030516Y-17463789D01*
D12*
X023030516Y-17463789D02*
X023050211Y-17463789D01*
D12*
X023050211Y-17463789D02*
X023179000Y-17335000D01*
D12*
X-00805000Y-09062000D02*
X-01140248Y-09062000D01*
D12*
X-01140248Y-09062000D02*
X-01475496Y-09062000D01*
D12*
X-01475496Y-09062000D02*
X-01810744Y-09062000D01*
D12*
X-01810744Y-09062000D02*
X-02145992Y-09062000D01*
D12*
X-02145992Y-09062000D02*
X-02481240Y-09062000D01*
D12*
X-02481240Y-09062000D02*
X-02532902Y-09113662D01*
D12*
X-02532902Y-09113662D02*
X-02558151Y-09113662D01*
D12*
X-02558151Y-09113662D02*
X-02550000Y-09200000D01*
D12*
X-16789777Y012060776D02*
X-16761270Y012032270D01*
D12*
X-16761270Y012032270D02*
X-16756965Y012032270D01*
D12*
X-16756965Y012032270D02*
X-16427791Y012032270D01*
D12*
X-16427791Y012032270D02*
X-16098617Y012032270D01*
D12*
X-16098617Y012032270D02*
X-15769444Y012032270D01*
D12*
X-15769444Y012032270D02*
X-15440270Y012032270D01*
D12*
X-15440270Y012032270D02*
X-15220846Y011812846D01*
D12*
X-15220846Y011812846D02*
X-15001423Y011593423D01*
D12*
X-15001423Y011593423D02*
X-14782000Y011374000D01*
D12*
X012607000Y-15100000D02*
X012236531Y-15100000D01*
D12*
X012236531Y-15100000D02*
X011866062Y-15100000D01*
D12*
X011866062Y-15100000D02*
X011495592Y-15100000D01*
D12*
X011495592Y-15100000D02*
X011125123Y-15100000D01*
D12*
X011125123Y-15100000D02*
X010754654Y-15100000D01*
D12*
X010754654Y-15100000D02*
X010384185Y-15100000D01*
D12*
X010384185Y-15100000D02*
X010013716Y-15100000D01*
D12*
X010013716Y-15100000D02*
X009643246Y-15100000D01*
D12*
X009643246Y-15100000D02*
X009272777Y-15100000D01*
D12*
X009272777Y-15100000D02*
X009019817Y-15352961D01*
D12*
X009019817Y-15352961D02*
X008766856Y-15605921D01*
D12*
X008766856Y-15605921D02*
X008513895Y-15858882D01*
D12*
X008513895Y-15858882D02*
X008260935Y-16111842D01*
D12*
X008260935Y-16111842D02*
X008007974Y-16364803D01*
D12*
X008007974Y-16364803D02*
X007755013Y-16617764D01*
D12*
X007755013Y-16617764D02*
X007502053Y-16870724D01*
D12*
X007502053Y-16870724D02*
X007249092Y-17123685D01*
D12*
X007249092Y-17123685D02*
X007205315Y-17123685D01*
D12*
X007205315Y-17123685D02*
X007115000Y-17214000D01*
D12*
X-24303400Y-11231113D02*
X-24349155Y-11255669D01*
D12*
X-24349155Y-11255669D02*
X-24349176Y-11647224D01*
D12*
X-24349176Y-11647224D02*
X-24349197Y-12038778D01*
D12*
X-24349197Y-12038778D02*
X-24349218Y-12430333D01*
D12*
X-24349218Y-12430333D02*
X-24349239Y-12821888D01*
D12*
X-24349239Y-12821888D02*
X-24349260Y-13213443D01*
D12*
X-24349260Y-13213443D02*
X-24349281Y-13604998D01*
D12*
X-24349281Y-13604998D02*
X-24349302Y-13996553D01*
D12*
X-24349302Y-13996553D02*
X-24349323Y-14388107D01*
D12*
X-24349323Y-14388107D02*
X-24349344Y-14779662D01*
D12*
X-24349344Y-14779662D02*
X-24349365Y-15171217D01*
D12*
X-24349365Y-15171217D02*
X-24349386Y-15562772D01*
D12*
X-24349386Y-15562772D02*
X-24349407Y-15954327D01*
D12*
X-24349407Y-15954327D02*
X-24600000Y-17400000D01*
D12*
X-24600000Y-17400000D02*
X-24349512Y-17912101D01*
D12*
X-24349512Y-17912101D02*
X-24349533Y-18303656D01*
D12*
X-24349533Y-18303656D02*
X-24349554Y-18695211D01*
D12*
X-24349554Y-18695211D02*
X-24349575Y-19086765D01*
D12*
X-24349575Y-19086765D02*
X-24349596Y-19478320D01*
D12*
X-24349596Y-19478320D02*
X-24349617Y-19869875D01*
D12*
X-24349617Y-19869875D02*
X-24349638Y-20261430D01*
D12*
X-24349638Y-20261430D02*
X-24349659Y-20652985D01*
D12*
X-24349659Y-20652985D02*
X-24349680Y-21044540D01*
D12*
X-24349680Y-21044540D02*
X-24349701Y-21436095D01*
D12*
X-24349701Y-21436095D02*
X-24349722Y-21827649D01*
D12*
X-24349722Y-21827649D02*
X-24349744Y-22219204D01*
D12*
X-24349744Y-22219204D02*
X-24327957Y-22423043D01*
D12*
X-24327957Y-22423043D02*
X-24047277Y-22703723D01*
D12*
X-24047277Y-22703723D02*
X-23766598Y-22984402D01*
D12*
X-23766598Y-22984402D02*
X-23742000Y-23009000D01*
D20*
X-18329000Y-22671000D02*
X-18329000Y-22645281D01*
D20*
X-18329000Y-22645281D02*
X-22964904Y-18009377D01*
D20*
X-22964904Y-18009377D02*
X-22964904Y-12260096D01*
D20*
X-22964904Y-12260096D02*
X-23300000Y-11925000D01*
D20*
X-27512000Y-01097000D02*
X-27478589Y-01063589D01*
D20*
X-27478589Y-01063589D02*
X-27478589Y-01002766D01*
D20*
X-27478589Y-01002766D02*
X-27129223Y-00653400D01*
D20*
X-27129223Y-00653400D02*
X-26779857Y-00304034D01*
D20*
X-26779857Y-00304034D02*
X-26430491Y000045333D01*
D20*
X-26430491Y000045333D02*
X-26081125Y000394699D01*
D20*
X-26081125Y000394699D02*
X-25731759Y000744065D01*
D20*
X-25731759Y000744065D02*
X-25382393Y001093431D01*
D20*
X-25382393Y001093431D02*
X-25033027Y001442797D01*
D20*
X-25033027Y001442797D02*
X-24683661Y001792163D01*
D20*
X-24683661Y001792163D02*
X-24334295Y002141529D01*
D20*
X-24334295Y002141529D02*
X-23984929Y002490895D01*
D20*
X-23984929Y002490895D02*
X-23635562Y002840261D01*
D20*
X-23635562Y002840261D02*
X-23286196Y003189627D01*
D20*
X-23286196Y003189627D02*
X-22936830Y003538993D01*
D20*
X-22936830Y003538993D02*
X-22587464Y003888359D01*
D20*
X-22587464Y003888359D02*
X-22238098Y004237725D01*
D20*
X-22238098Y004237725D02*
X-21888732Y004587091D01*
D20*
X-21888732Y004587091D02*
X-21539366Y004936458D01*
D20*
X-21539366Y004936458D02*
X-21190000Y005285824D01*
D20*
X-21190000Y005285824D02*
X-21190000Y005729420D01*
D20*
X-21190000Y005729420D02*
X-21190000Y006173017D01*
D20*
X-21190000Y006173017D02*
X-21190000Y006616613D01*
D20*
X-21190000Y006616613D02*
X-21190000Y007060210D01*
D20*
X-21190000Y007060210D02*
X-21190000Y007503807D01*
D20*
X-21190000Y007503807D02*
X-21190000Y007947403D01*
D20*
X-21190000Y007947403D02*
X-21190000Y008391000D01*
D20*
X-37225869Y-02410616D02*
X-39400000Y-00236485D01*
D20*
X-39400000Y-00236485D02*
X-39400000Y002075000D01*
D20*
X-30975000Y002100000D02*
X-31019162Y001967838D01*
D20*
X-31019162Y001967838D02*
X-31019162Y001876802D01*
D20*
X-31019162Y001876802D02*
X-31242235Y002099875D01*
D20*
X-31242235Y002099875D02*
X-31465308Y002322948D01*
D20*
X-31465308Y002322948D02*
X-31465308Y002732355D01*
D20*
X-31465308Y002732355D02*
X-31465308Y003141762D01*
D20*
X-31465308Y003141762D02*
X-31962912Y003141762D01*
D20*
X-31962912Y003141762D02*
X-32460516Y003141762D01*
D20*
X-32460516Y003141762D02*
X-32958121Y003141762D01*
D20*
X-32958121Y003141762D02*
X-33455725Y003141762D01*
D20*
X-33455725Y003141762D02*
X-33953329Y003141762D01*
D20*
X-33953329Y003141762D02*
X-34450934Y003141762D01*
D20*
X-34450934Y003141762D02*
X-34948538Y003141762D01*
D20*
X-34948538Y003141762D02*
X-35446142Y003141762D01*
D20*
X-35446142Y003141762D02*
X-35943747Y003141762D01*
D20*
X-35943747Y003141762D02*
X-37000000Y003500000D01*
D20*
X-37000000Y003500000D02*
X-38232522Y002873403D01*
D20*
X-38232522Y002873403D02*
X-38530881Y002605045D01*
D20*
X-38530881Y002605045D02*
X-38829239Y002336686D01*
D20*
X-38829239Y002336686D02*
X-39127597Y002068328D01*
D20*
X-39127597Y002068328D02*
X-39950000Y002100000D01*
D20*
X-39500000Y001250000D02*
X-38250000Y002500000D01*
D20*
X-38250000Y002500000D02*
X-38250000Y002750000D01*
D20*
X-38250000Y002750000D02*
X-37500000Y003500000D01*
D20*
X-37500000Y003500000D02*
X-37500000Y004500000D01*
D20*
X-37500000Y004500000D02*
X-37250000Y004750000D01*
D20*
X-37250000Y004750000D02*
X-37250000Y005000000D01*
D20*
X-37250000Y005000000D02*
X-37200000Y005000000D01*
D20*
X-37225000Y-03000000D02*
X-37250869Y-02829336D01*
D20*
X-37250869Y-02829336D02*
X-37275869Y-03248056D01*
D20*
X-37275869Y-03248056D02*
X-37300869Y-03666777D01*
D20*
X-37300869Y-03666777D02*
X-37325869Y-04085497D01*
D20*
X-37325869Y-04085497D02*
X-37350868Y-04504217D01*
D20*
X-37350868Y-04504217D02*
X-37375868Y-04922937D01*
D20*
X-37375868Y-04922937D02*
X-37115419Y-05183386D01*
D20*
X-37115419Y-05183386D02*
X-36854969Y-05443836D01*
D20*
X-36854969Y-05443836D02*
X-36849407Y-05443836D01*
D20*
X-36849407Y-05443836D02*
X-36688962Y-05604281D01*
D10*
X-13021634Y008206107D02*
X-12966259Y008243957D01*
D10*
X-12966259Y008243957D02*
X-12854030Y008243957D01*
D10*
X-12854030Y008243957D02*
X-12844987Y008253000D01*
D10*
X-12844987Y008253000D02*
X-10859000Y008253000D01*
D10*
X-31915000Y-02150099D02*
X-31915000Y-04306457D01*
D10*
X-31915000Y-04306457D02*
X-31961086Y-04352543D01*
D10*
X-31961086Y-04352543D02*
X-31961086Y-04452161D01*
D10*
X-31961086Y-04452161D02*
X-31915960Y-04497287D01*
D10*
X-16228327Y-02430198D02*
X-16328302Y-00909875D01*
D10*
X-16128302Y001790125D02*
X-16228302Y001690125D01*
D10*
X-16228302Y001690125D02*
X-16328302Y001590125D01*
D10*
X-16328302Y001590125D02*
X-16528302Y001390125D01*
D10*
X-16528302Y001390125D02*
X-16528302Y001290125D01*
D10*
X-16528302Y001290125D02*
X-16528302Y001090125D01*
D10*
X-16528302Y001090125D02*
X-16528302Y000990125D01*
D10*
X-16528302Y000990125D02*
X-16528302Y000890125D01*
D10*
X-16528302Y000890125D02*
X-16129743Y000056224D01*
D10*
X-06573254Y005938686D02*
X-06582036Y005929904D01*
D10*
X-06582036Y005929904D02*
X-06641825Y005870115D01*
D10*
X-06641825Y005870115D02*
X-09620002Y005903462D01*
D10*
X-30284873Y-02135100D02*
X-30262185Y-03012397D01*
D10*
X-30262185Y-03012397D02*
X-30095057Y-03179525D01*
D10*
X-30095057Y-03179525D02*
X-30095057Y-03186442D01*
D10*
X-30095057Y-03186442D02*
X-29991072Y-03305533D01*
D10*
X-15649991Y-21964000D02*
X-15778000Y-23707028D01*
D10*
X-15778000Y-23707028D02*
X-16666020Y-24595048D01*
D10*
X-16666020Y-24595048D02*
X-16666020Y-24762020D01*
D10*
X-16666020Y-24762020D02*
X-16684356Y-24785723D01*
D10*
X019192000Y-18850000D02*
X019543864Y-18850000D01*
D10*
X019543864Y-18850000D02*
X020708515Y-17685349D01*
D10*
X020708515Y-17685349D02*
X020714651Y-17685349D01*
D10*
X020714651Y-17685349D02*
X020796991Y-17547529D01*
D10*
X-18019676Y-20395316D02*
X-18629850Y-20385780D01*
D10*
X-18629850Y-20385780D02*
X-18922446Y-20093183D01*
D10*
X-18922446Y-20093183D02*
X-18924101Y-20093183D01*
D10*
X-18924101Y-20093183D02*
X-19005286Y-20023937D01*
D10*
X-24643552Y-08812466D02*
X-24639641Y-08816377D01*
D10*
X-24639641Y-08816377D02*
X-24590336Y-08816377D01*
D10*
X-24590336Y-08816377D02*
X-24409845Y-08635886D01*
D10*
X-24409845Y-08635886D02*
X-21880882Y-08635886D01*
D10*
X-12031961Y001093840D02*
X-12552888Y000609293D01*
D10*
X-12552888Y000609293D02*
X-13104436Y-00167100D01*
D10*
X-13104436Y-00167100D02*
X-14336010Y-00479440D01*
D10*
X-14336010Y-00479440D02*
X-16129743Y000056224D01*
D10*
X-09283205Y-01999997D02*
X-09426263Y-01928829D01*
D10*
X-09426263Y-01928829D02*
X-09426263Y-02624119D01*
D10*
X-09426263Y-02624119D02*
X-10487000Y-03684856D01*
D10*
X-10487000Y-03684856D02*
X-10487627Y-03758489D01*
D10*
X-10487627Y-03758489D02*
X-10652121Y-03959763D01*
D10*
X-10652121Y-03959763D02*
X-10735004Y-04198758D01*
D10*
X-10735004Y-04198758D02*
X-10711857Y-04469321D01*
D10*
X-10711857Y-04469321D02*
X-10570704Y-04697937D01*
D10*
X-10570704Y-04697937D02*
X-10311256Y-04834227D01*
D10*
X-10311256Y-04834227D02*
X-10279044Y-05175905D01*
D10*
X-10279044Y-05175905D02*
X-10523044Y-05378333D01*
D10*
X-09283205Y-01999997D02*
X-09363599Y-01866165D01*
D10*
X-09363599Y-01866165D02*
X-08755285Y-02474479D01*
D10*
X-08755285Y-02474479D02*
X-08704865Y-04988700D01*
D10*
X-37211022Y002592000D02*
X-37308000Y-01045850D01*
D10*
X-37308000Y-01045850D02*
X-35992031Y-02361820D01*
D10*
X-35992031Y-02361820D02*
X-35992031Y-02496031D01*
D10*
X-35992031Y-02496031D02*
X-36030000Y-02534000D01*
D10*
X-04616529Y007577106D02*
X-04624301Y007575699D01*
D10*
X-04624301Y007575699D02*
X-04822497Y007575699D01*
D10*
X-04822497Y007575699D02*
X-04953196Y007445000D01*
D10*
X-04953196Y007445000D02*
X-09395000Y007445000D01*
D10*
X-07457667Y-00853934D02*
X-06049716Y-00670492D01*
D10*
X-06049716Y-00670492D02*
X-04632999Y000503565D01*
D10*
X-04632999Y000503565D02*
X-04461606Y001646893D01*
D10*
X-02560013Y002953143D02*
X-04340949Y002223621D01*
D10*
X-20963656Y-03903029D02*
X-20992430Y-03931802D01*
D10*
X-20992430Y-03931802D02*
X-20992430Y-04008599D01*
D10*
X-20992430Y-04008599D02*
X-21880882Y-04897051D01*
D10*
X-21880882Y-04897051D02*
X-21880882Y-08635886D01*
D10*
X-05638979Y-14783985D02*
X-05655462Y-14783538D01*
D10*
X-05655462Y-14783538D02*
X-05702796Y-14783538D01*
D10*
X-05702796Y-14783538D02*
X-05798488Y-14879230D01*
D10*
X-05798488Y-14879230D02*
X-08161942Y-14879230D01*
D10*
X-27001000Y-12302422D02*
X-27001000Y-12296199D01*
D10*
X-27001000Y-12296199D02*
X-26900000Y-12397199D01*
D10*
X-26900000Y-12397199D02*
X-26900000Y-19000000D01*
D20*
X-04225000Y-21500000D02*
X-04225000Y-21952995D01*
D20*
X-04225000Y-21952995D02*
X-03318000Y-22859995D01*
D20*
X-00350000Y-18500000D02*
X-00182000Y-18332000D01*
D20*
X-00182000Y-18332000D02*
X-00182000Y-16017000D01*
D20*
X-04900000Y-18950000D02*
X-03000000Y-21800000D01*
D20*
X-03000000Y-21800000D02*
X-03000000Y-21875000D01*
D20*
X-03000000Y-21875000D02*
X-02750000Y-22125000D01*
D20*
X-02750000Y-22125000D02*
X-01926517Y-22681819D01*
D20*
X019750000Y017000000D02*
X028750000Y017000000D01*
D20*
X028750000Y017000000D02*
X031750000Y020000000D01*
D20*
X004025000Y-06691000D02*
X002400000Y-07600000D01*
D20*
X002400000Y-07600000D02*
X001774897Y-08225103D01*
D20*
X001774897Y-08225103D02*
X001774897Y-08516288D01*
D20*
X001774897Y-08516288D02*
X001774897Y-08725103D01*
D20*
X001774897Y-08725103D02*
X-00250000Y-10750000D01*
D20*
X-00250000Y-10750000D02*
X-01326197Y-11624773D01*
D20*
X-01326197Y-11624773D02*
X-01670763Y-11970160D01*
D20*
X-01670763Y-11970160D02*
X-02015329Y-12315547D01*
D20*
X-02015329Y-12315547D02*
X-02359895Y-12660934D01*
D20*
X-02359895Y-12660934D02*
X-02704461Y-13006321D01*
D20*
X-02704461Y-13006321D02*
X-03181752Y-13006427D01*
D20*
X-03181752Y-13006427D02*
X-03659042Y-13006534D01*
D20*
X-03659042Y-13006534D02*
X-04136332Y-13006640D01*
D20*
X-04136332Y-13006640D02*
X-04613622Y-13006746D01*
D20*
X007750000Y017000000D02*
X007750000Y016504956D01*
D20*
X007750000Y016504956D02*
X007750000Y016009912D01*
D20*
X007750000Y016009912D02*
X007750000Y015514869D01*
D20*
X007750000Y015514869D02*
X007750000Y015019825D01*
D20*
X007750000Y015019825D02*
X007750000Y014524781D01*
D20*
X007750000Y014524781D02*
X007750000Y014029737D01*
D20*
X007750000Y014029737D02*
X007750000Y013534694D01*
D20*
X007750000Y013534694D02*
X007750000Y013039650D01*
D20*
X007750000Y013039650D02*
X007750000Y012544606D01*
D20*
X007750000Y012544606D02*
X007750000Y012049562D01*
D20*
X007750000Y012049562D02*
X007750000Y011554519D01*
D20*
X007750000Y011554519D02*
X007750000Y011059475D01*
D20*
X007750000Y011059475D02*
X007750000Y010564431D01*
D20*
X007750000Y010564431D02*
X007750000Y010069387D01*
D20*
X007750000Y010069387D02*
X007750000Y009574344D01*
D20*
X007750000Y009574344D02*
X007750000Y009079300D01*
D20*
X007750000Y009079300D02*
X007750000Y008584256D01*
D20*
X007750000Y008584256D02*
X007750000Y008089212D01*
D20*
X007750000Y008089212D02*
X007750000Y007594168D01*
D20*
X007750000Y007594168D02*
X007750000Y007099125D01*
D20*
X007750000Y007099125D02*
X007750000Y006604081D01*
D20*
X007750000Y006604081D02*
X007750000Y006109037D01*
D20*
X007750000Y006109037D02*
X007750000Y005613993D01*
D20*
X007750000Y005613993D02*
X007750000Y005118950D01*
D20*
X007750000Y005118950D02*
X007750000Y004623906D01*
D20*
X007750000Y004623906D02*
X007750000Y004128862D01*
D20*
X007750000Y004128862D02*
X007750000Y003633818D01*
D20*
X007750000Y003633818D02*
X007750000Y003138775D01*
D20*
X007750000Y003138775D02*
X007750000Y002643731D01*
D20*
X007750000Y002643731D02*
X007750000Y002148687D01*
D20*
X007750000Y002148687D02*
X007750000Y001653643D01*
D20*
X007750000Y001653643D02*
X007750000Y001158599D01*
D20*
X007750000Y001158599D02*
X007750000Y000663556D01*
D20*
X007750000Y000663556D02*
X007750000Y000168512D01*
D20*
X007750000Y000168512D02*
X007750000Y-00326532D01*
D20*
X007750000Y-00326532D02*
X008070559Y-00647090D01*
D20*
X008070559Y-00647090D02*
X008391117Y-00967649D01*
D20*
X008391117Y-00967649D02*
X008711676Y-01288208D01*
D20*
X008711676Y-01288208D02*
X009032234Y-01608766D01*
D20*
X009032234Y-01608766D02*
X009352793Y-01929325D01*
D20*
X009352793Y-01929325D02*
X009673352Y-02249884D01*
D20*
X009673352Y-02249884D02*
X009993910Y-02570442D01*
D20*
X009993910Y-02570442D02*
X009993910Y-02593910D01*
D20*
X009993910Y-02593910D02*
X010000000Y-02600000D01*
D30*
X022400000Y-08000000D03*
D30*
X022900000Y-03219000D03*
D30*
X012679000Y-04800000D03*
D30*
X023781000Y008419000D03*
D30*
X002211584Y012796938D03*
D30*
X006219405Y014074973D03*
D30*
X015323000Y006179000D03*
D30*
X013606000Y006007000D03*
D30*
X-27200000Y013600000D03*
D30*
X-26960000Y011443000D03*
D30*
X-41085000Y-02113000D03*
D30*
X-36740000Y-06495000D03*
D30*
X018665962Y-15851382D03*
D30*
X018665962Y-14364000D03*
D30*
X015345382Y-15512691D03*
D30*
X015334039Y-14200000D03*
D30*
X013839921Y-18365438D03*
D30*
X-29054000Y001840000D03*
D30*
X-28553000Y004552000D03*
D30*
X-32699387Y-00004084D03*
D30*
X-32432223Y002079727D03*
D30*
X-15600000Y010919000D03*
D30*
X-11899999Y005204382D03*
D30*
X-10110398Y004803806D03*
D30*
X-14313000Y017714000D03*
D30*
X-10199430Y-04299942D03*
D30*
X-02208191Y-06065004D03*
D30*
X-11086778Y-04861411D03*
D30*
X003028920Y-13714019D03*
D30*
X005493433Y-14990480D03*
D30*
X006543514Y-15059082D03*
D30*
X-10776287Y-02556431D03*
D30*
X003478339Y000475616D03*
D30*
X-13060000Y-08906000D03*
D30*
X017755000Y-02677000D03*
D30*
X-11825206Y-02439615D03*
D30*
X-02606602Y007656000D03*
D30*
X-11846000Y-17614000D03*
D30*
X-04787732Y-14465435D03*
D30*
X-03198648Y-09899446D03*
D30*
X006435000Y004189000D03*
D30*
X-15884167Y-04462572D03*
D30*
X-19387593Y012882003D03*
D30*
X-15463208Y-02672722D03*
D30*
X-19957000Y-04472000D03*
D30*
X-22053412Y-03544634D03*
D30*
X-23090602Y-03882729D03*
D30*
X-14344539Y001116278D03*
D30*
X-16841673Y003164521D03*
D30*
X-14431252Y001884906D03*
D30*
X-15925633Y003194359D03*
D30*
X-02888896Y001953702D03*
D30*
X-00251022Y000066946D03*
D30*
X-00362463Y-01055247D03*
D30*
X-00362463Y-02955247D03*
D30*
X-05575507Y001697921D03*
D30*
X-23824453Y-16812525D03*
D30*
X-07449943Y001361272D03*
D30*
X000359038Y000410204D03*
D30*
X000877783Y000100030D03*
D30*
X002981121Y-00812172D03*
D30*
X-04855827Y-01848654D03*
D30*
X-00999990Y-04024760D03*
D30*
X002949997Y-09889079D03*
D30*
X002864022Y-08167916D03*
D30*
X-20379903Y-21904414D03*
D30*
X-20978271Y-23182891D03*
D30*
X-13253758Y-16175226D03*
D30*
X-08219000Y-13232000D03*
D30*
X-07561383Y-10101629D03*
D30*
X-07693912Y-08484996D03*
D30*
X-16657000Y-20300041D03*
D30*
X-17489644Y-24660277D03*
D30*
X-12901000Y-20025000D03*
D30*
X-07042000Y-14244000D03*
D30*
X-07548980Y-10966151D03*
D30*
X-09249537Y-07548486D03*
D30*
X-02257211Y-21582433D03*
D30*
X-00556990Y-24513578D03*
D30*
X-01086107Y-13815199D03*
D30*
X-00914077Y-10374993D03*
D30*
X-09491210Y-05686127D03*
D30*
X-14319090Y000066472D03*
D30*
X-12528302Y001690125D03*
D30*
X-12550053Y-00293236D03*
D30*
X-14875000Y-01000000D03*
D30*
X-12528302Y002490125D03*
D30*
X-13728302Y003990125D03*
D30*
X-07825000Y002500000D03*
D30*
X-06772077Y003454416D03*
D30*
X-08362463Y002044753D03*
D30*
X-12000124Y-01236458D03*
D30*
X-04275000Y000100000D03*
D30*
X-03600000Y001025000D03*
D30*
X-26616601Y-07594869D03*
D30*
X-27950000Y-07800000D03*
D30*
X-13848000Y-05879000D03*
D30*
X-12006790Y000389441D03*
D30*
X-05195945Y000718890D03*
D30*
X-04200000Y003375000D03*
D30*
X-04139471Y008237894D03*
D30*
X-08622000Y008217000D03*
D30*
X020889058Y-18359798D03*
D30*
X023179000Y-17335000D03*
D30*
X-00805000Y-09062000D03*
D30*
X-02550000Y-09200000D03*
D30*
X-16789777Y012060776D03*
D30*
X-14782000Y011374000D03*
D30*
X012607000Y-15100000D03*
D30*
X007115000Y-17214000D03*
D30*
X-24303400Y-11231113D03*
D30*
X-23742000Y-23009000D03*
D30*
X-18329000Y-22671000D03*
D30*
X-23300000Y-11925000D03*
D30*
X-27512000Y-01097000D03*
D30*
X-21190000Y008391000D03*
D30*
X-37225869Y-02410616D03*
D30*
X-39400000Y002075000D03*
D30*
X-30975000Y002100000D03*
D30*
X-39950000Y002100000D03*
D30*
X-39500000Y001250000D03*
D30*
X-37200000Y005000000D03*
D30*
X-37225000Y-03000000D03*
D30*
X-36688962Y-05604281D03*
D30*
X-13021634Y008206107D03*
D30*
X-10859000Y008253000D03*
D30*
X-31915000Y-02150099D03*
D30*
X-31915960Y-04497287D03*
D30*
X-16228327Y-02430198D03*
D30*
X-16328302Y-00909875D03*
D30*
X-16128302Y001790125D03*
D30*
X-16129743Y000056224D03*
D30*
X-06573254Y005938686D03*
D30*
X-09620002Y005903462D03*
D30*
X-30284873Y-02135100D03*
D30*
X-29991072Y-03305533D03*
D30*
X-15649991Y-21964000D03*
D30*
X-16684356Y-24785723D03*
D30*
X019192000Y-18850000D03*
D30*
X020796991Y-17547529D03*
D30*
X-18019676Y-20395316D03*
D30*
X-19005286Y-20023937D03*
D30*
X-24643552Y-08812466D03*
D30*
X-21880882Y-08635886D03*
D30*
X-12031961Y001093840D03*
D30*
X-09283205Y-01999997D03*
D30*
X-10523044Y-05378333D03*
D30*
X-08704865Y-04988700D03*
D30*
X-37211022Y002592000D03*
D30*
X-36030000Y-02534000D03*
D30*
X-04616529Y007577106D03*
D30*
X-09395000Y007445000D03*
D30*
X-07457667Y-00853934D03*
D30*
X-04461606Y001646893D03*
D30*
X-02560013Y002953143D03*
D30*
X-04340949Y002223621D03*
D30*
X-20963656Y-03903029D03*
D30*
X-05638979Y-14783985D03*
D30*
X-08161942Y-14879230D03*
D30*
X-27001000Y-12302422D03*
D30*
X-26900000Y-19000000D03*
D30*
X-04225000Y-21500000D03*
D30*
X-03318000Y-22859995D03*
D30*
X-00350000Y-18500000D03*
D30*
X-00182000Y-16017000D03*
D30*
X-04900000Y-18950000D03*
D30*
X-01926517Y-22681819D03*
D30*
X004025000Y-06691000D03*
D30*
X-04613622Y-13006746D03*
D30*
X010000000Y-02600000D03*
%LPC*%
D23*
X-39594433Y002899918D03*
%LPD*%
%LPC*%
D23*
X-39594433Y-02899918D03*
%LPD*%
%LPC*%
D29*
X-40000000Y-25000000D03*
%LPD*%
%LPC*%
D29*
X040000000Y-25000000D03*
%LPD*%
%LPC*%
D29*
X040000000Y025000000D03*
%LPD*%
%LPC*%
D29*
X-40000000Y025000000D03*
%LPD*%
M02*