%TF.GenerationSoftware,tscircuit,circuit-json-to-gerber,0.0.104*%
%TF.CreationDate,2026-09-29T10:55:38.131Z*%
%TF.SameCoordinates,Original*%
%TF.FileFunction,Other,Fab,Top*%
%TF.FilePolarity,Positive*%
%FSLAX46Y46*%
%MOMM*%
G04 Gerber Fmt 4.6, Leading zero omitted, Abs format (unit mm)*
G04 Created by tscircuit (builder) date 2026-09-29T10:55:38.131Z*
G01*
%LPD*%
G75*
G04 APERTURE MACROS START*
%AMHORZPILL*
0 Horizontal pill (stadium) shape macro*
0 Parameters:*
0 $1 = Total width*
0 $2 = Total height*
0 $3 = Circle diameter (equal to height)*
0 $4 = Circle center offset
0 21 = Center Line(Exposure, Width, Height, Center X, Center Y, Rotation)*
0 1 = Circle(Exposure, Diameter, Center X, Center Y, Rotation)*
21,1,$1-$3,$2,0.0,0.0,0.0*
1,1,$3,0.0-$4,0.0*
1,1,$3,$4,0.0*%
%AMVERTPILL*
0 Vertical pill (stadium) shape macro*
0 Parameters:*
0 $1 = Total width*
0 $2 = Total height*
0 $3 = Circle diameter (equal to width)*
0 $4 = Circle center offset
0 21 = Center Line(Exposure, Width, Height, Center X, Center Y, Rotation)*
21,1,$1,$2-$3,0.0,0.0,0.0*
1,1,$3,0.0,0.0-$4*
1,1,$3,0.0,$4*%
%AMROUNDRECT*
0 Rectangle with rounded corners*
0 $1 Corner radius*
0 $2 $3 $4 $5 $6 $7 $8 $9 X,Y Position of each corner*
0 Polygon box body*
4,1,4,$2,$3,$4,$5,$6,$7,$8,$9,$2,$3,0*
0 Circles for rounded corners*
1,1,$1+$1,$2,$3*
1,1,$1+$1,$4,$5*
1,1,$1+$1,$6,$7*
1,1,$1+$1,$8,$9*
0 Rectangles between the rounded corners*
20,1,$1+$1,$2,$3,$4,$5,0*
20,1,$1+$1,$4,$5,$6,$7,0*
20,1,$1+$1,$6,$7,$8,$9,0*
20,1,$1+$1,$8,$9,$2,$3,0*%
G04 APERTURE MACROS END*
G04 aperture START LIST*
%ADD10C,0.150000*%
%ADD11C,0.350012*%
%ADD12C,0.500000*%
%ADD13C,0.187500*%
%ADD14C,0.237500*%
%ADD15C,0.250000*%
%ADD16C,0.200000*%
%ADD17C,0.300000*%
%ADD18C,0.262500*%
%ADD19C,0.275000*%
%ADD20C,0.200000*%
%ADD21C,0.225000*%
%ADD22C,0.287500*%
%ADD23C,0.400000*%
%ADD24C,0.212500*%
%ADD25C,0.200337*%
%ADD26C,0.325000*%
%ADD27C,0.312500*%
%ADD28C,0.231335*%
%ADD29C,0.208291*%
%ADD30C,0.208291*%
%ADD31C,0.162500*%
%ADD32C,0.206349*%
%ADD33C,0.300000*%
%ADD34C,0.350000*%
%ADD35C,0.200225*%
%ADD36C,0.218470*%
%ADD37C,0.362500*%
%ADD38C,0.200033*%
%ADD39C,0.218279*%
%ADD40C,0.337500*%
%ADD41C,0.200080*%
%ADD42C,0.175000*%
%ADD43C,0.425000*%
%ADD44C,0.450000*%
%ADD45C,0.375000*%
%ADD46C,0.437500*%
%ADD47C,0.280010*%
%ADD48C,0.350000*%
%ADD49C,0.475000*%
%ADD50C,0.100000*%
%ADD51C,0.090000*%
%ADD52C,0.254000*%
%ADD53C,0.072000*%
%ADD54C,0.080000*%
%TD*%
G04 aperture END LIST*
D50*
X-04326210Y-18673790D02*
X-01673790Y-18673790D01*
D50*
X-01673790Y-21326210D02*
X-04326210Y-21326210D01*
D51*
X-03832137Y-17518897D02*
X-03831396Y-17783413D01*
X-03831396Y-17783413D02*
X-03826292Y-17855369D01*
X-03826292Y-17855369D02*
X-03813235Y-17908669D01*
X-03813235Y-17908669D02*
X-03788202Y-17949210D01*
X-03788202Y-17949210D02*
X-03755452Y-17976016D01*
X-03755452Y-17976016D02*
X-03706527Y-17995376D01*
X-03706527Y-17995376D02*
X-03644794Y-18002697D01*
X-03644794Y-18002697D02*
X-03601465Y-17995368D01*
X-03601465Y-17995368D02*
X-03565928Y-17976060D01*
X-03565928Y-17976060D02*
X-03544661Y-17953440D01*
X-03544661Y-17953440D02*
X-03535531Y-17938570D01*
X-03535531Y-17938570D02*
X-03521563Y-17900659D01*
X-03521563Y-17900659D02*
X-03515042Y-17850438D01*
X-03515042Y-17850438D02*
X-03511530Y-17519612D01*
X-03140426Y-17518897D02*
X-02819137Y-17518897D01*
X-02819137Y-17518897D02*
X-02843346Y-17533391D01*
X-02843346Y-17533391D02*
X-02856074Y-17542985D01*
X-02856074Y-17542985D02*
X-02885870Y-17571478D01*
X-02885870Y-17571478D02*
X-02902053Y-17591095D01*
X-02902053Y-17591095D02*
X-02918505Y-17614772D01*
X-02918505Y-17614772D02*
X-02934780Y-17642869D01*
X-02934780Y-17642869D02*
X-02950440Y-17675743D01*
X-02950440Y-17675743D02*
X-02965043Y-17713756D01*
X-02965043Y-17713756D02*
X-02978145Y-17757267D01*
X-02978145Y-17757267D02*
X-02989309Y-17806635D01*
X-02989309Y-17806635D02*
X-03001446Y-17892455D01*
X-03001446Y-17892455D02*
X-03006729Y-17993479D01*
D51*
X-18641637Y-19279697D02*
X-18640896Y-19544213D01*
X-18640896Y-19544213D02*
X-18635792Y-19616169D01*
X-18635792Y-19616169D02*
X-18622735Y-19669469D01*
X-18622735Y-19669469D02*
X-18597702Y-19710010D01*
X-18597702Y-19710010D02*
X-18564952Y-19736816D01*
X-18564952Y-19736816D02*
X-18516027Y-19756176D01*
X-18516027Y-19756176D02*
X-18454294Y-19763497D01*
X-18454294Y-19763497D02*
X-18410965Y-19756168D01*
X-18410965Y-19756168D02*
X-18375428Y-19736860D01*
X-18375428Y-19736860D02*
X-18354161Y-19714240D01*
X-18354161Y-19714240D02*
X-18345031Y-19699370D01*
X-18345031Y-19699370D02*
X-18331063Y-19661459D01*
X-18331063Y-19661459D02*
X-18324542Y-19611238D01*
X-18324542Y-19611238D02*
X-18321030Y-19280412D01*
X-17799267Y-19270469D02*
X-17852521Y-19280134D01*
X-17852521Y-19280134D02*
X-17901020Y-19303935D01*
X-17901020Y-19303935D02*
X-17935254Y-19357488D01*
X-17935254Y-19357488D02*
X-17921941Y-19405090D01*
X-17921941Y-19405090D02*
X-17882001Y-19441535D01*
X-17882001Y-19441535D02*
X-17840159Y-19467567D01*
X-17840159Y-19467567D02*
X-17735553Y-19506245D01*
X-17735553Y-19506245D02*
X-17670887Y-19541946D01*
X-17670887Y-19541946D02*
X-17631898Y-19584342D01*
X-17631898Y-19584342D02*
X-17623339Y-19644588D01*
X-17623339Y-19644588D02*
X-17645211Y-19703347D01*
X-17645211Y-19703347D02*
X-17692760Y-19739048D01*
X-17692760Y-19739048D02*
X-17762180Y-19762850D01*
X-17762180Y-19762850D02*
X-17815434Y-19761362D01*
X-17815434Y-19761362D02*
X-17878197Y-19740536D01*
X-17878197Y-19740536D02*
X-17928598Y-19707066D01*
X-17928598Y-19707066D02*
X-17955225Y-19657977D01*
X-17955225Y-19657977D02*
X-17953323Y-19608886D01*
X-17953323Y-19608886D02*
X-17928598Y-19559797D01*
X-17928598Y-19559797D02*
X-17873442Y-19515914D01*
X-17873442Y-19515914D02*
X-17818286Y-19496575D01*
X-17818286Y-19496575D02*
X-17748867Y-19474262D01*
X-17748867Y-19474262D02*
X-17680397Y-19437816D01*
X-17680397Y-19437816D02*
X-17659476Y-19402859D01*
X-17659476Y-19402859D02*
X-17658525Y-19344099D01*
X-17658525Y-19344099D02*
X-17682299Y-19301704D01*
X-17682299Y-19301704D02*
X-17730798Y-19275672D01*
X-17730798Y-19275672D02*
X-17799267Y-19270469D01*
D50*
X001726211Y-09473790D02*
X000273789Y-09473790D01*
X000273789Y-10505411D01*
D50*
X001726211Y-12526210D02*
X000273789Y-12526210D01*
X000273789Y-11494589D01*
D50*
X001726211Y-10544603D02*
X001726211Y-11455397D01*
D51*
X000383763Y-08315697D02*
X000384504Y-08580212D01*
X000384504Y-08580212D02*
X000389608Y-08652169D01*
X000389608Y-08652169D02*
X000402665Y-08705469D01*
X000402665Y-08705469D02*
X000427698Y-08746010D01*
X000427698Y-08746010D02*
X000460448Y-08772816D01*
X000460448Y-08772816D02*
X000509373Y-08792176D01*
X000509373Y-08792176D02*
X000571107Y-08799497D01*
X000571107Y-08799497D02*
X000614435Y-08792168D01*
X000614435Y-08792168D02*
X000649972Y-08772860D01*
X000649972Y-08772860D02*
X000671239Y-08750240D01*
X000671239Y-08750240D02*
X000680370Y-08735370D01*
X000680370Y-08735370D02*
X000694337Y-08697459D01*
X000694337Y-08697459D02*
X000700858Y-08647238D01*
X000700858Y-08647238D02*
X000704370Y-08316412D01*
X001383118Y-08432468D02*
X001369118Y-08369468D01*
X001369118Y-08369468D02*
X001341118Y-08334468D01*
X001341118Y-08334468D02*
X001299118Y-08313468D01*
X001299118Y-08313468D02*
X001243118Y-08306469D01*
X001243118Y-08306469D02*
X001187118Y-08313468D01*
X001187118Y-08313468D02*
X001138118Y-08334468D01*
X001138118Y-08334468D02*
X001103118Y-08369468D01*
X001103118Y-08369468D02*
X001089118Y-08418468D01*
X001089118Y-08418468D02*
X001103118Y-08467468D01*
X001103118Y-08467468D02*
X001138118Y-08502468D01*
X001138118Y-08502468D02*
X001187118Y-08523468D01*
X001187118Y-08523468D02*
X001243118Y-08530468D01*
X001243118Y-08530468D02*
X001299118Y-08516468D01*
X001299118Y-08516468D02*
X001341118Y-08488468D01*
X001341118Y-08488468D02*
X001369118Y-08460468D01*
X001369118Y-08460468D02*
X001383118Y-08432468D01*
X001382418Y-08433168D02*
X001329218Y-08571768D01*
X001329218Y-08571768D02*
X001292118Y-08670468D01*
X001292118Y-08670468D02*
X001261318Y-08741868D01*
X001261318Y-08741868D02*
X001236118Y-08796468D01*
D50*
X-07110011Y-22069998D02*
X-06903814Y-22069998D01*
X-06903814Y-17917556D01*
X-07100004Y-17919994D01*
D50*
X-10899996Y-17930002D02*
X-11095500Y-17929900D01*
X-11095500Y-22082800D01*
X-10880006Y-22080006D01*
D51*
X-12243103Y-20626544D02*
X-11768521Y-20626544D01*
X-11768521Y-20626544D02*
X-11768521Y-20310723D01*
X-12146885Y-19833002D02*
X-12243103Y-19720162D01*
X-12243103Y-19720162D02*
X-11768524Y-19720162D01*
D50*
X-13500018Y-03240989D02*
X-13403168Y-03240989D01*
X-13144063Y-03500069D01*
D50*
X-12931185Y-03500069D02*
X-13500018Y-02931185D01*
D50*
X-12931185Y-03500069D02*
X-13500018Y-03500069D01*
D50*
X-06500083Y-02931185D02*
X-06500083Y-03400044D01*
X-06500083Y-03500069D01*
X-07068916Y-03500069D01*
D50*
X-07068916Y003499942D02*
X-06500083Y003499942D01*
X-06500083Y002931084D01*
D50*
X-13500018Y002931084D02*
X-13500018Y003499942D01*
X-12931185Y003499942D01*
D50*
X-13500018Y-03500069D02*
X-13500018Y-02931185D01*
D50*
X-13500145Y-03240989D02*
X-13403295Y-03240989D01*
X-13144215Y-03500069D01*
D50*
X-12931312Y-03500069D02*
X-13500145Y-02931185D01*
D50*
X-12931312Y-03500069D02*
X-13500145Y-03500069D01*
D50*
X-06500210Y-02931185D02*
X-06500210Y-03400044D01*
X-06500210Y-03500069D01*
X-07069043Y-03500069D01*
D50*
X-07069043Y003499917D02*
X-06500210Y003499917D01*
X-06500210Y002931084D01*
D50*
X-13500145Y002931084D02*
X-13500145Y003499917D01*
X-12931312Y003499917D01*
D50*
X-13500145Y-03500069D02*
X-13500145Y-02931185D01*
D51*
X-15019325Y-00781845D02*
X-14754810Y-00781104D01*
X-14754810Y-00781104D02*
X-14682853Y-00776000D01*
X-14682853Y-00776000D02*
X-14629553Y-00762943D01*
X-14629553Y-00762943D02*
X-14589012Y-00737910D01*
X-14589012Y-00737910D02*
X-14562206Y-00705160D01*
X-14562206Y-00705160D02*
X-14542846Y-00656235D01*
X-14542846Y-00656235D02*
X-14535525Y-00594501D01*
X-14535525Y-00594501D02*
X-14542854Y-00551173D01*
X-14542854Y-00551173D02*
X-14562162Y-00515636D01*
X-14562162Y-00515636D02*
X-14584782Y-00494369D01*
X-14584782Y-00494369D02*
X-14599652Y-00485238D01*
X-14599652Y-00485238D02*
X-14637563Y-00471271D01*
X-14637563Y-00471271D02*
X-14687784Y-00464750D01*
X-14687784Y-00464750D02*
X-15018610Y-00461238D01*
X-14923107Y000014090D02*
X-15019325Y000126930D01*
X-15019325Y000126930D02*
X-14544746Y000126930D01*
D50*
X-19823601Y-07138704D02*
X-24176399Y-07138704D01*
X-24176399Y-01861296D01*
X-19823601Y-01861296D01*
X-19823601Y-07138704D01*
D51*
X-27503703Y-05230537D02*
X-27239188Y-05229796D01*
X-27239188Y-05229796D02*
X-27167231Y-05224692D01*
X-27167231Y-05224692D02*
X-27113931Y-05211635D01*
X-27113931Y-05211635D02*
X-27073390Y-05186602D01*
X-27073390Y-05186602D02*
X-27046584Y-05153852D01*
X-27046584Y-05153852D02*
X-27027224Y-05104927D01*
X-27027224Y-05104927D02*
X-27019903Y-05043194D01*
X-27019903Y-05043194D02*
X-27027232Y-04999865D01*
X-27027232Y-04999865D02*
X-27046540Y-04964328D01*
X-27046540Y-04964328D02*
X-27069160Y-04943061D01*
X-27069160Y-04943061D02*
X-27084030Y-04933930D01*
X-27084030Y-04933930D02*
X-27121941Y-04919963D01*
X-27121941Y-04919963D02*
X-27172162Y-04913442D01*
X-27172162Y-04913442D02*
X-27502988Y-04909930D01*
X-27418916Y-04511614D02*
X-27453795Y-04500965D01*
X-27453795Y-04500965D02*
X-27486324Y-04469500D01*
X-27486324Y-04469500D02*
X-27508383Y-04417934D01*
X-27508383Y-04417934D02*
X-27512931Y-04384837D01*
X-27512931Y-04384837D02*
X-27508741Y-04327577D01*
X-27508741Y-04327577D02*
X-27489907Y-04284622D01*
X-27489907Y-04284622D02*
X-27461024Y-04261133D01*
X-27461024Y-04261133D02*
X-27427461Y-04252696D01*
X-27427461Y-04252696D02*
X-27405136Y-04253256D01*
X-27405136Y-04253256D02*
X-27367766Y-04263338D01*
X-27367766Y-04263338D02*
X-27295108Y-04307100D01*
X-27295108Y-04307100D02*
X-27156893Y-04417306D01*
X-27156893Y-04417306D02*
X-27029769Y-04533187D01*
X-27029769Y-04533187D02*
X-27029769Y-04223177D01*
D50*
X-25588065Y-10500380D02*
X-28387145Y-10500380D01*
D50*
X-28387145Y-10500380D02*
X-28387145Y-09499620D01*
X-25588065Y-09499620D01*
X-25588065Y-10500380D01*
D50*
X-28779549Y-11521460D02*
X-28902738Y-11396371D01*
X-28778279Y-11272546D01*
X-28653821Y-11396371D01*
X-28777009Y-11521460D01*
D51*
X-27870491Y-06985497D02*
X-27869750Y-07250012D01*
X-27869750Y-07250012D02*
X-27864646Y-07321969D01*
X-27864646Y-07321969D02*
X-27851589Y-07375269D01*
X-27851589Y-07375269D02*
X-27826556Y-07415810D01*
X-27826556Y-07415810D02*
X-27793806Y-07442616D01*
X-27793806Y-07442616D02*
X-27744881Y-07461976D01*
X-27744881Y-07461976D02*
X-27683147Y-07469297D01*
X-27683147Y-07469297D02*
X-27639819Y-07461968D01*
X-27639819Y-07461968D02*
X-27604282Y-07442660D01*
X-27604282Y-07442660D02*
X-27583015Y-07420040D01*
X-27583015Y-07420040D02*
X-27573885Y-07405170D01*
X-27573885Y-07405170D02*
X-27559917Y-07367259D01*
X-27559917Y-07367259D02*
X-27553396Y-07317038D01*
X-27553396Y-07317038D02*
X-27549884Y-06986212D01*
X-27171730Y-07037351D02*
X-27145446Y-07016743D01*
X-27145446Y-07016743D02*
X-27103557Y-06994664D01*
X-27103557Y-06994664D02*
X-27050168Y-06976269D01*
X-27050168Y-06976269D02*
X-26984461Y-06979943D01*
X-26984461Y-06979943D02*
X-26926965Y-06998344D01*
X-26926965Y-06998344D02*
X-26885896Y-07031463D01*
X-26885896Y-07031463D02*
X-26861255Y-07071944D01*
X-26861255Y-07071944D02*
X-26869469Y-07116104D01*
X-26869469Y-07116104D02*
X-26902324Y-07149224D01*
X-26902324Y-07149224D02*
X-26959820Y-07174984D01*
X-26959820Y-07174984D02*
X-27025529Y-07189704D01*
X-27025529Y-07189704D02*
X-27083023Y-07197064D01*
X-27083023Y-07197064D02*
X-27025529Y-07204424D01*
X-27025529Y-07204424D02*
X-26959820Y-07222824D01*
X-26959820Y-07222824D02*
X-26902324Y-07252264D01*
X-26902324Y-07252264D02*
X-26865362Y-07292745D01*
X-26865362Y-07292745D02*
X-26857149Y-07336905D01*
X-26857149Y-07336905D02*
X-26873576Y-07384746D01*
X-26873576Y-07384746D02*
X-26910537Y-07425225D01*
X-26910537Y-07425225D02*
X-26968034Y-07458346D01*
X-26968034Y-07458346D02*
X-27011566Y-07468650D01*
X-27011566Y-07468650D02*
X-27082202Y-07467178D01*
X-27082202Y-07467178D02*
X-27139697Y-07458346D01*
X-27139697Y-07458346D02*
X-27179122Y-07446570D01*
D50*
X-29460811Y-00889203D02*
X-29460811Y000889203D01*
D50*
X-32539189Y-00889203D02*
X-32539189Y000889203D01*
D51*
X-31794037Y002836703D02*
X-31793296Y002572188D01*
X-31793296Y002572188D02*
X-31788192Y002500231D01*
X-31788192Y002500231D02*
X-31775135Y002446931D01*
X-31775135Y002446931D02*
X-31750102Y002406390D01*
X-31750102Y002406390D02*
X-31717352Y002379584D01*
X-31717352Y002379584D02*
X-31668427Y002360224D01*
X-31668427Y002360224D02*
X-31606694Y002352903D01*
X-31606694Y002352903D02*
X-31563365Y002360232D01*
X-31563365Y002360232D02*
X-31527828Y002379540D01*
X-31527828Y002379540D02*
X-31506561Y002402160D01*
X-31506561Y002402160D02*
X-31497431Y002417030D01*
X-31497431Y002417030D02*
X-31483463Y002454941D01*
X-31483463Y002454941D02*
X-31476942Y002505162D01*
X-31476942Y002505162D02*
X-31473430Y002835988D01*
X-30859454Y002836703D02*
X-31118220Y002519461D01*
X-31118220Y002519461D02*
X-30765143Y002519461D01*
X-30862473Y002621683D02*
X-30862473Y002362121D01*
D50*
X-34499999Y-04999998D02*
X-33510009Y-04999998D01*
X-33510009Y-03000002D01*
X-34489991Y-03000002D01*
X-34499999Y-03010010D01*
X-34499999Y-04999998D01*
D51*
X-36684303Y-04705137D02*
X-36419788Y-04704396D01*
X-36419788Y-04704396D02*
X-36347831Y-04699292D01*
X-36347831Y-04699292D02*
X-36294531Y-04686235D01*
X-36294531Y-04686235D02*
X-36253990Y-04661202D01*
X-36253990Y-04661202D02*
X-36227184Y-04628452D01*
X-36227184Y-04628452D02*
X-36207824Y-04579527D01*
X-36207824Y-04579527D02*
X-36200503Y-04517793D01*
X-36200503Y-04517793D02*
X-36207832Y-04474465D01*
X-36207832Y-04474465D02*
X-36227140Y-04438928D01*
X-36227140Y-04438928D02*
X-36249760Y-04417661D01*
X-36249760Y-04417661D02*
X-36264630Y-04408530D01*
X-36264630Y-04408530D02*
X-36302541Y-04394563D01*
X-36302541Y-04394563D02*
X-36352762Y-04388042D01*
X-36352762Y-04388042D02*
X-36683588Y-04384530D01*
X-36684303Y-04011034D02*
X-36443709Y-04011034D01*
X-36443709Y-04011034D02*
X-36475350Y-03876141D01*
X-36475350Y-03876141D02*
X-36463449Y-03779827D01*
X-36463449Y-03779827D02*
X-36441968Y-03741499D01*
X-36441968Y-03741499D02*
X-36411488Y-03714880D01*
X-36411488Y-03714880D02*
X-36328419Y-03694529D01*
X-36328419Y-03694529D02*
X-36285266Y-03704154D01*
X-36285266Y-03704154D02*
X-36251302Y-03729408D01*
X-36251302Y-03729408D02*
X-36219759Y-03779035D01*
X-36219759Y-03779035D02*
X-36203164Y-03836388D01*
X-36203164Y-03836388D02*
X-36200503Y-03890321D01*
X-36200503Y-03890321D02*
X-36209163Y-03935739D01*
X-36209163Y-03935739D02*
X-36226144Y-03972452D01*
X-36226144Y-03972452D02*
X-36261075Y-04011034D01*
X-36684303Y-04011034D02*
X-36684303Y-03694529D01*
D50*
X018539189Y-15889203D02*
X018539189Y-14110797D01*
D50*
X015460811Y-15889203D02*
X015460811Y-14110797D01*
D51*
X016205963Y-12163297D02*
X016206704Y-12427812D01*
X016206704Y-12427812D02*
X016211808Y-12499769D01*
X016211808Y-12499769D02*
X016224865Y-12553069D01*
X016224865Y-12553069D02*
X016249898Y-12593610D01*
X016249898Y-12593610D02*
X016282648Y-12620416D01*
X016282648Y-12620416D02*
X016331573Y-12639776D01*
X016331573Y-12639776D02*
X016393307Y-12647097D01*
X016393307Y-12647097D02*
X016436635Y-12639768D01*
X016436635Y-12639768D02*
X016472172Y-12620460D01*
X016472172Y-12620460D02*
X016493439Y-12597840D01*
X016493439Y-12597840D02*
X016502570Y-12582970D01*
X016502570Y-12582970D02*
X016516537Y-12545059D01*
X016516537Y-12545059D02*
X016523058Y-12494838D01*
X016523058Y-12494838D02*
X016526570Y-12164012D01*
X017147584Y-12154069D02*
X017086603Y-12173137D01*
X017086603Y-12173137D02*
X017030111Y-12192069D01*
X017030111Y-12192069D02*
X016982132Y-12225727D01*
X016982132Y-12225727D02*
X016944831Y-12261278D01*
X016944831Y-12261278D02*
X016916353Y-12323895D01*
X016916353Y-12323895D02*
X016896774Y-12382587D01*
X016896774Y-12382587D02*
X016894685Y-12443101D01*
X016894685Y-12443101D02*
X016893215Y-12503404D01*
X016893215Y-12503404D02*
X016908614Y-12548281D01*
X016908614Y-12548281D02*
X016923318Y-12576329D01*
X016923318Y-12576329D02*
X016958141Y-12612792D01*
X016958141Y-12612792D02*
X016995287Y-12637334D01*
X016995287Y-12637334D02*
X017052553Y-12646450D01*
X017052553Y-12646450D02*
X017116784Y-12642944D01*
X017116784Y-12642944D02*
X017167086Y-12620506D01*
X017167086Y-12620506D02*
X017202683Y-12590354D01*
X017202683Y-12590354D02*
X017222030Y-12548983D01*
X017222030Y-12548983D02*
X017223578Y-12513922D01*
X017223578Y-12513922D02*
X017212744Y-12476759D01*
X017212744Y-12476759D02*
X017196493Y-12445204D01*
X017196493Y-12445204D02*
X017171729Y-12419260D01*
X017171729Y-12419260D02*
X017137679Y-12403132D01*
X017137679Y-12403132D02*
X017090472Y-12392614D01*
X017090472Y-12392614D02*
X017045588Y-12390511D01*
X017045588Y-12390511D02*
X016998382Y-12397523D01*
X016998382Y-12397523D02*
X016949629Y-12422765D01*
X016949629Y-12422765D02*
X016924092Y-12448710D01*
X016924092Y-12448710D02*
X016893059Y-12480404D01*
D50*
X-42175759Y004468978D02*
X-40312846Y004468978D01*
D50*
X-45894141Y-04471010D02*
X-45894141Y004468978D01*
X-44412838Y004468978D01*
D50*
X-42176114Y-04471010D02*
X-40312491Y-04471010D01*
D50*
X-45894141Y-04471010D02*
X-44412483Y-04471010D01*
D51*
X-36511096Y000334471D02*
X-36868934Y000333788D01*
X-36868934Y000333788D02*
X-36913716Y000340330D01*
X-36913716Y000340330D02*
X-36937951Y000352745D01*
X-36937951Y000352745D02*
X-36957223Y000370153D01*
X-36957223Y000370153D02*
X-36971984Y000390991D01*
X-36971984Y000390991D02*
X-36989767Y000436736D01*
X-36989767Y000436736D02*
X-36994896Y000477502D01*
X-36994896Y000477502D02*
X-36988945Y000532757D01*
X-36988945Y000532757D02*
X-36972617Y000573492D01*
X-36972617Y000573492D02*
X-36956799Y000593308D01*
X-36956799Y000593308D02*
X-36937617Y000607758D01*
X-36937617Y000607758D02*
X-36915572Y000617283D01*
X-36915572Y000617283D02*
X-36891162Y000622315D01*
X-36891162Y000622315D02*
X-36864888Y000623291D01*
X-36607314Y-00157092D02*
X-36511096Y-00269932D01*
X-36511096Y-00269932D02*
X-36985675Y-00269932D01*
D50*
X-37794000Y-09202239D02*
X-37794000Y-12758239D01*
D50*
X-32206000Y-09222000D02*
X-32206000Y-12778000D01*
D50*
X-36270000Y-13032000D02*
X-37540000Y-13032000D01*
D50*
X-33730000Y-13032000D02*
X-32460000Y-13032000D01*
D50*
X-37540000Y-08968000D02*
X-36234948Y-08968000D01*
D50*
X-32460000Y-08968000D02*
X-33730000Y-08968000D01*
D50*
X-35000000Y-11000000D02*
X-35224506Y-11092994D01*
X-35317500Y-11317500D01*
X-35224506Y-11542006D01*
X-35000000Y-11635000D01*
D50*
X-35000000Y-11000000D02*
X-34775494Y-10907006D01*
X-34682500Y-10682500D01*
X-34775494Y-10457994D01*
X-35000000Y-10365000D01*
D51*
X-35631554Y-07807697D02*
X-35631554Y-08282279D01*
X-35628139Y-07810925D02*
X-35331114Y-07810925D01*
X-35628139Y-08043374D02*
X-35378911Y-08043374D01*
X-34845702Y-07903915D02*
X-34732862Y-07807697D01*
X-34732862Y-07807697D02*
X-34732862Y-08282276D01*
D50*
X-01221517Y-05028596D02*
X-04578737Y-05028596D01*
X-04578737Y-00971404D01*
X-01221517Y-00971404D01*
X-01221517Y-05028596D01*
D50*
X-02650115Y-05257196D02*
X-00992917Y-05257196D01*
X-00992917Y-03399999D01*
D51*
X-05736830Y-03793705D02*
X-05524632Y-03601160D01*
X-05736156Y-03397562D02*
X-05523285Y-03599884D01*
X-05523285Y-03599884D02*
X-05262248Y-03592658D01*
X-05640612Y-02960002D02*
X-05736830Y-02847162D01*
X-05736830Y-02847162D02*
X-05262251Y-02847162D01*
D50*
X-30000760Y015800860D02*
X-28100840Y015800860D01*
X-27199140Y014899160D01*
X-27199140Y013100840D01*
X-28199900Y012100080D01*
X-29899160Y012100080D01*
X-30800860Y013001780D01*
X-30800860Y015000760D01*
X-30000760Y015800860D01*
D50*
X-27724920Y016550160D02*
X-26829849Y015655089D01*
D50*
X-26449840Y015168400D02*
X-26449840Y012831600D01*
D50*
X-26829849Y012344911D02*
X-27724920Y011449840D01*
D50*
X-31550160Y015168400D02*
X-31550160Y012831600D01*
D50*
X-31170151Y012344911D02*
X-30275080Y011449840D01*
D50*
X-30275080Y016550160D02*
X-31170151Y015655089D01*
D50*
X-30275080Y011449840D02*
X-27724920Y011449840D01*
D50*
X-30275080Y016550160D02*
X-27724920Y016550160D01*
D51*
X-29699952Y017685767D02*
X-29752749Y017753566D01*
X-29752749Y017753566D02*
X-29877897Y017760331D01*
X-29877897Y017760331D02*
X-29948042Y017711505D01*
X-29948042Y017711505D02*
X-29976680Y017621923D01*
X-29976680Y017621923D02*
X-29964819Y017577691D01*
X-29964819Y017577691D02*
X-29920440Y017539485D01*
X-29920440Y017539485D02*
X-29744582Y017508677D01*
X-29744582Y017508677D02*
X-29685421Y017472261D01*
X-29685421Y017472261D02*
X-29663468Y017409273D01*
X-29663468Y017409273D02*
X-29692386Y017310762D01*
X-29692386Y017310762D02*
X-29780710Y017267950D01*
X-29780710Y017267950D02*
X-29894273Y017271137D01*
X-29894273Y017271137D02*
X-29956380Y017305873D01*
X-29956380Y017305873D02*
X-29991251Y017387566D01*
X-29346026Y017751103D02*
X-29290167Y017282536D01*
X-29290167Y017282536D02*
X-29146387Y017609781D01*
X-29146387Y017609781D02*
X-28992347Y017276521D01*
X-28992347Y017276521D02*
X-28924590Y017751103D01*
X-28499676Y017654885D02*
X-28386836Y017751103D01*
X-28386836Y017751103D02*
X-28386836Y017276524D01*
D50*
X-30000760Y-17199140D02*
X-28100840Y-17199140D01*
X-27199140Y-18100840D01*
X-27199140Y-19899160D01*
X-28199900Y-20899920D01*
X-29899160Y-20899920D01*
X-30800860Y-19998220D01*
X-30800860Y-17999240D01*
X-30000760Y-17199140D01*
D50*
X-27724920Y-16449840D02*
X-26829849Y-17344911D01*
D50*
X-26449840Y-17831600D02*
X-26449840Y-20168400D01*
D50*
X-26829849Y-20655089D02*
X-27724920Y-21550160D01*
D50*
X-31550160Y-17831600D02*
X-31550160Y-20168400D01*
D50*
X-31170151Y-20655089D02*
X-30275080Y-21550160D01*
D50*
X-30275080Y-16449840D02*
X-31170151Y-17344911D01*
D50*
X-30275080Y-21550160D02*
X-27724920Y-21550160D01*
D50*
X-30275080Y-16449840D02*
X-27724920Y-16449840D01*
D51*
X-29699952Y-15314233D02*
X-29752749Y-15246434D01*
X-29752749Y-15246434D02*
X-29877897Y-15239669D01*
X-29877897Y-15239669D02*
X-29948042Y-15288496D01*
X-29948042Y-15288496D02*
X-29976680Y-15378077D01*
X-29976680Y-15378077D02*
X-29964819Y-15422309D01*
X-29964819Y-15422309D02*
X-29920440Y-15460515D01*
X-29920440Y-15460515D02*
X-29744582Y-15491323D01*
X-29744582Y-15491323D02*
X-29685421Y-15527739D01*
X-29685421Y-15527739D02*
X-29663468Y-15590727D01*
X-29663468Y-15590727D02*
X-29692386Y-15689239D01*
X-29692386Y-15689239D02*
X-29780710Y-15732050D01*
X-29780710Y-15732050D02*
X-29894273Y-15728863D01*
X-29894273Y-15728863D02*
X-29956380Y-15694127D01*
X-29956380Y-15694127D02*
X-29991251Y-15612434D01*
X-29346026Y-15248897D02*
X-29290167Y-15717464D01*
X-29290167Y-15717464D02*
X-29146387Y-15390219D01*
X-29146387Y-15390219D02*
X-28992347Y-15723479D01*
X-28992347Y-15723479D02*
X-28924590Y-15248897D01*
X-28576688Y-15333684D02*
X-28566039Y-15298805D01*
X-28566039Y-15298805D02*
X-28534574Y-15266276D01*
X-28534574Y-15266276D02*
X-28483008Y-15244217D01*
X-28483008Y-15244217D02*
X-28449911Y-15239669D01*
X-28449911Y-15239669D02*
X-28392651Y-15243859D01*
X-28392651Y-15243859D02*
X-28349696Y-15262694D01*
X-28349696Y-15262694D02*
X-28326207Y-15291576D01*
X-28326207Y-15291576D02*
X-28317770Y-15325139D01*
X-28317770Y-15325139D02*
X-28318330Y-15347464D01*
X-28318330Y-15347464D02*
X-28328412Y-15384834D01*
X-28328412Y-15384834D02*
X-28372174Y-15457492D01*
X-28372174Y-15457492D02*
X-28482380Y-15595707D01*
X-28482380Y-15595707D02*
X-28598261Y-15722832D01*
X-28598261Y-15722832D02*
X-28288251Y-15722832D01*
D50*
X-28800000Y019499999D02*
X-29200000Y019100000D01*
X-29299999Y019000000D01*
X-29200000Y018899746D01*
X-28800000Y018499747D01*
D50*
X-28800000Y019499999D02*
X-28800000Y018499747D01*
D50*
X-28556770Y017982730D02*
X-27007370Y017982730D01*
X-27007370Y020014730D01*
X-28556770Y020014730D01*
D50*
X-29344170Y017957330D02*
X-30817370Y017957330D01*
X-31223770Y018363730D01*
X-31223770Y019633730D01*
X-30842770Y020014730D01*
X-29318770Y020014730D01*
D51*
X-30441786Y021175033D02*
X-30441786Y020700451D01*
X-30441786Y020700451D02*
X-30125965Y020700451D01*
X-29746487Y021175033D02*
X-29746487Y020700451D01*
X-29746487Y021175033D02*
X-29437160Y021175033D01*
X-29746487Y020937743D02*
X-29529959Y020937743D01*
X-29746487Y020700451D02*
X-29437160Y020700451D01*
X-29065372Y020700451D02*
X-29060203Y021165175D01*
X-29060203Y021165175D02*
X-28990638Y021175033D01*
X-28990638Y021175033D02*
X-28937346Y021173887D01*
X-28937346Y021173887D02*
X-28850783Y021150475D01*
X-28850783Y021150475D02*
X-28786767Y021099917D01*
X-28786767Y021099917D02*
X-28750166Y021031842D01*
X-28750166Y021031842D02*
X-28735576Y020961256D01*
X-28735576Y020961256D02*
X-28734171Y020908111D01*
X-28734171Y020908111D02*
X-28740844Y020862563D01*
X-28740844Y020862563D02*
X-28754497Y020824037D01*
X-28754497Y020824037D02*
X-28798326Y020765744D01*
X-28798326Y020765744D02*
X-28856841Y020728633D01*
X-28856841Y020728633D02*
X-28952848Y020702627D01*
X-28952848Y020702627D02*
X-29065372Y020700451D01*
X-28264140Y021078815D02*
X-28151300Y021175033D01*
X-28151300Y021175033D02*
X-28151300Y020700454D01*
D52*
X-28059006Y018444070D02*
X-28059006Y019544068D01*
X-27859007Y019544068D01*
X-27859007Y018444070D01*
X-28059006Y018444070D01*
D52*
X-28505640Y019059588D02*
X-27405642Y019059588D01*
X-27405642Y018859589D01*
X-28505640Y018859589D01*
X-28505640Y019059588D01*
D52*
X-29494360Y018890704D02*
X-30594358Y018890704D01*
X-30594358Y019090703D01*
X-29494360Y019090703D01*
X-29494360Y018890704D01*
D50*
X-20800000Y019499999D02*
X-21200000Y019100000D01*
X-21299999Y019000000D01*
X-21200000Y018899746D01*
X-20800000Y018499747D01*
D50*
X-20800000Y019499999D02*
X-20800000Y018499747D01*
D50*
X-20556770Y017982730D02*
X-19007370Y017982730D01*
X-19007370Y020014730D01*
X-20556770Y020014730D01*
D50*
X-21344170Y017957330D02*
X-22817370Y017957330D01*
X-23223770Y018363730D01*
X-23223770Y019633730D01*
X-22842770Y020014730D01*
X-21318770Y020014730D01*
D51*
X-22441786Y021175033D02*
X-22441786Y020700451D01*
X-22441786Y020700451D02*
X-22125965Y020700451D01*
X-21746487Y021175033D02*
X-21746487Y020700451D01*
X-21746487Y021175033D02*
X-21437160Y021175033D01*
X-21746487Y020937743D02*
X-21529959Y020937743D01*
X-21746487Y020700451D02*
X-21437160Y020700451D01*
X-21065372Y020700451D02*
X-21060203Y021165175D01*
X-21060203Y021165175D02*
X-20990638Y021175033D01*
X-20990638Y021175033D02*
X-20937346Y021173887D01*
X-20937346Y021173887D02*
X-20850783Y021150475D01*
X-20850783Y021150475D02*
X-20786767Y021099917D01*
X-20786767Y021099917D02*
X-20750166Y021031842D01*
X-20750166Y021031842D02*
X-20735576Y020961256D01*
X-20735576Y020961256D02*
X-20734171Y020908111D01*
X-20734171Y020908111D02*
X-20740844Y020862563D01*
X-20740844Y020862563D02*
X-20754497Y020824037D01*
X-20754497Y020824037D02*
X-20798326Y020765744D01*
X-20798326Y020765744D02*
X-20856841Y020728633D01*
X-20856841Y020728633D02*
X-20952848Y020702627D01*
X-20952848Y020702627D02*
X-21065372Y020700451D01*
X-20341152Y021090246D02*
X-20330503Y021125125D01*
X-20330503Y021125125D02*
X-20299038Y021157654D01*
X-20299038Y021157654D02*
X-20247472Y021179713D01*
X-20247472Y021179713D02*
X-20214375Y021184261D01*
X-20214375Y021184261D02*
X-20157115Y021180071D01*
X-20157115Y021180071D02*
X-20114160Y021161236D01*
X-20114160Y021161236D02*
X-20090671Y021132354D01*
X-20090671Y021132354D02*
X-20082234Y021098791D01*
X-20082234Y021098791D02*
X-20082794Y021076466D01*
X-20082794Y021076466D02*
X-20092876Y021039096D01*
X-20092876Y021039096D02*
X-20136638Y020966438D01*
X-20136638Y020966438D02*
X-20246844Y020828223D01*
X-20246844Y020828223D02*
X-20362725Y020701098D01*
X-20362725Y020701098D02*
X-20052715Y020701098D01*
D52*
X-20059006Y018444070D02*
X-20059006Y019544068D01*
X-19859007Y019544068D01*
X-19859007Y018444070D01*
X-20059006Y018444070D01*
D52*
X-20505640Y019059588D02*
X-19405642Y019059588D01*
X-19405642Y018859589D01*
X-20505640Y018859589D01*
X-20505640Y019059588D01*
D52*
X-21494360Y018890704D02*
X-22594358Y018890704D01*
X-22594358Y019090703D01*
X-21494360Y019090703D01*
X-21494360Y018890704D01*
D50*
X015726211Y009526210D02*
X014273789Y009526210D01*
X014273789Y008494589D01*
D50*
X015726211Y006473790D02*
X014273789Y006473790D01*
X014273789Y007505411D01*
D50*
X015726211Y008455397D02*
X015726211Y007544603D01*
D51*
X014531053Y010138431D02*
X014470161Y010160248D01*
X014470161Y010160248D02*
X014414501Y010226628D01*
X014414501Y010226628D02*
X014373338Y010451940D01*
X014373338Y010451940D02*
X014412545Y010620576D01*
X014412545Y010620576D02*
X014460650Y010668607D01*
X014460650Y010668607D02*
X014543939Y010693531D01*
X014543939Y010693531D02*
X014622356Y010663613D01*
X014622356Y010663613D02*
X014668268Y010608938D01*
X014668268Y010608938D02*
X014707585Y010403528D01*
X014707585Y010403528D02*
X014688018Y010273843D01*
X014688018Y010273843D02*
X014653146Y010198894D01*
X014653146Y010198894D02*
X014591208Y010147842D01*
X014591208Y010147842D02*
X014531053Y010138431D01*
X014572205Y010303109D02*
X014714794Y010124543D01*
X015179698Y010588085D02*
X015292538Y010684303D01*
X015292538Y010684303D02*
X015292538Y010209724D01*
D50*
X015726211Y002526210D02*
X014273789Y002526210D01*
X014273789Y001494589D01*
D50*
X015726211Y-00526210D02*
X014273789Y-00526210D01*
X014273789Y000505411D01*
D50*
X015726211Y001455397D02*
X015726211Y000544603D01*
D51*
X014531053Y003138431D02*
X014470161Y003160248D01*
X014470161Y003160248D02*
X014414501Y003226628D01*
X014414501Y003226628D02*
X014373338Y003451940D01*
X014373338Y003451940D02*
X014412545Y003620576D01*
X014412545Y003620576D02*
X014460650Y003668607D01*
X014460650Y003668607D02*
X014543939Y003693531D01*
X014543939Y003693531D02*
X014622356Y003663613D01*
X014622356Y003663613D02*
X014668268Y003608938D01*
X014668268Y003608938D02*
X014707585Y003403528D01*
X014707585Y003403528D02*
X014688018Y003273843D01*
X014688018Y003273843D02*
X014653146Y003198894D01*
X014653146Y003198894D02*
X014591208Y003147842D01*
X014591208Y003147842D02*
X014531053Y003138431D01*
X014572205Y003303109D02*
X014714794Y003124543D01*
X015102686Y003599516D02*
X015113335Y003634395D01*
X015113335Y003634395D02*
X015144800Y003666924D01*
X015144800Y003666924D02*
X015196366Y003688983D01*
X015196366Y003688983D02*
X015229463Y003693531D01*
X015229463Y003693531D02*
X015286723Y003689341D01*
X015286723Y003689341D02*
X015329678Y003670507D01*
X015329678Y003670507D02*
X015353167Y003641624D01*
X015353167Y003641624D02*
X015361604Y003608061D01*
X015361604Y003608061D02*
X015361044Y003585736D01*
X015361044Y003585736D02*
X015350962Y003548366D01*
X015350962Y003548366D02*
X015307200Y003475708D01*
X015307200Y003475708D02*
X015196994Y003337493D01*
X015196994Y003337493D02*
X015081113Y003210369D01*
X015081113Y003210369D02*
X015391123Y003210369D01*
D50*
X003726211Y009526210D02*
X002273789Y009526210D01*
X002273789Y008494589D01*
D50*
X003726211Y006473790D02*
X002273789Y006473790D01*
X002273789Y007505411D01*
D50*
X003726211Y008455397D02*
X003726211Y007544603D01*
D51*
X002531053Y010138431D02*
X002470161Y010160248D01*
X002470161Y010160248D02*
X002414501Y010226628D01*
X002414501Y010226628D02*
X002373338Y010451940D01*
X002373338Y010451940D02*
X002412545Y010620576D01*
X002412545Y010620576D02*
X002460650Y010668607D01*
X002460650Y010668607D02*
X002543939Y010693531D01*
X002543939Y010693531D02*
X002622356Y010663613D01*
X002622356Y010663613D02*
X002668268Y010608938D01*
X002668268Y010608938D02*
X002707586Y010403528D01*
X002707586Y010403528D02*
X002688018Y010273843D01*
X002688018Y010273843D02*
X002653147Y010198894D01*
X002653147Y010198894D02*
X002591208Y010147842D01*
X002591208Y010147842D02*
X002531053Y010138431D01*
X002572206Y010303109D02*
X002714794Y010124543D01*
X003082524Y010632449D02*
X003108808Y010653057D01*
X003108808Y010653057D02*
X003150697Y010675136D01*
X003150697Y010675136D02*
X003204085Y010693531D01*
X003204085Y010693531D02*
X003269793Y010689857D01*
X003269793Y010689857D02*
X003327289Y010671456D01*
X003327289Y010671456D02*
X003368358Y010638337D01*
X003368358Y010638337D02*
X003392999Y010597856D01*
X003392999Y010597856D02*
X003384785Y010553696D01*
X003384785Y010553696D02*
X003351930Y010520576D01*
X003351930Y010520576D02*
X003294434Y010494816D01*
X003294434Y010494816D02*
X003228725Y010480096D01*
X003228725Y010480096D02*
X003171231Y010472736D01*
X003171231Y010472736D02*
X003228725Y010465376D01*
X003228725Y010465376D02*
X003294434Y010446976D01*
X003294434Y010446976D02*
X003351930Y010417536D01*
X003351930Y010417536D02*
X003388892Y010377055D01*
X003388892Y010377055D02*
X003397105Y010332895D01*
X003397105Y010332895D02*
X003380678Y010285054D01*
X003380678Y010285054D02*
X003343717Y010244575D01*
X003343717Y010244575D02*
X003286220Y010211454D01*
X003286220Y010211454D02*
X003242688Y010201150D01*
X003242688Y010201150D02*
X003172052Y010202622D01*
X003172052Y010202622D02*
X003114557Y010211454D01*
X003114557Y010211454D02*
X003075132Y010223230D01*
D50*
X015726211Y-04473790D02*
X014273789Y-04473790D01*
X014273789Y-05505411D01*
D50*
X015726211Y-07526210D02*
X014273789Y-07526210D01*
X014273789Y-06494589D01*
D50*
X015726211Y-05544603D02*
X015726211Y-06455397D01*
D51*
X014531053Y-03861569D02*
X014470161Y-03839752D01*
X014470161Y-03839752D02*
X014414501Y-03773372D01*
X014414501Y-03773372D02*
X014373338Y-03548060D01*
X014373338Y-03548060D02*
X014412545Y-03379424D01*
X014412545Y-03379424D02*
X014460650Y-03331393D01*
X014460650Y-03331393D02*
X014543939Y-03306469D01*
X014543939Y-03306469D02*
X014622356Y-03336387D01*
X014622356Y-03336387D02*
X014668268Y-03391062D01*
X014668268Y-03391062D02*
X014707585Y-03596472D01*
X014707585Y-03596472D02*
X014688018Y-03726157D01*
X014688018Y-03726157D02*
X014653146Y-03801106D01*
X014653146Y-03801106D02*
X014591208Y-03852158D01*
X014591208Y-03852158D02*
X014531053Y-03861569D01*
X014572205Y-03696891D02*
X014714794Y-03875457D01*
X015318346Y-03315697D02*
X015059580Y-03632939D01*
X015059580Y-03632939D02*
X015412657Y-03632939D01*
X015315327Y-03530717D02*
X015315327Y-03790279D01*
D50*
X021726211Y-04473790D02*
X020273789Y-04473790D01*
X020273789Y-05505411D01*
D50*
X021726211Y-07526210D02*
X020273789Y-07526210D01*
X020273789Y-06494589D01*
D50*
X021726211Y-05544603D02*
X021726211Y-06455397D01*
D51*
X020531053Y-03861569D02*
X020470161Y-03839752D01*
X020470161Y-03839752D02*
X020414501Y-03773372D01*
X020414501Y-03773372D02*
X020373338Y-03548060D01*
X020373338Y-03548060D02*
X020412545Y-03379424D01*
X020412545Y-03379424D02*
X020460650Y-03331393D01*
X020460650Y-03331393D02*
X020543939Y-03306469D01*
X020543939Y-03306469D02*
X020622356Y-03336387D01*
X020622356Y-03336387D02*
X020668268Y-03391062D01*
X020668268Y-03391062D02*
X020707586Y-03596472D01*
X020707586Y-03596472D02*
X020688018Y-03726157D01*
X020688018Y-03726157D02*
X020653147Y-03801106D01*
X020653147Y-03801106D02*
X020591208Y-03852158D01*
X020591208Y-03852158D02*
X020531053Y-03861569D01*
X020572206Y-03696891D02*
X020714794Y-03875457D01*
X021077866Y-03315697D02*
X021077866Y-03556291D01*
X021077866Y-03556291D02*
X021212759Y-03524650D01*
X021212759Y-03524650D02*
X021309073Y-03536551D01*
X021309073Y-03536551D02*
X021347401Y-03558032D01*
X021347401Y-03558032D02*
X021374020Y-03588512D01*
X021374020Y-03588512D02*
X021394371Y-03671581D01*
X021394371Y-03671581D02*
X021384746Y-03714734D01*
X021384746Y-03714734D02*
X021359492Y-03748698D01*
X021359492Y-03748698D02*
X021309865Y-03780241D01*
X021309865Y-03780241D02*
X021252512Y-03796836D01*
X021252512Y-03796836D02*
X021198579Y-03799497D01*
X021198579Y-03799497D02*
X021153161Y-03790837D01*
X021153161Y-03790837D02*
X021116448Y-03773856D01*
X021116448Y-03773856D02*
X021077866Y-03738925D01*
X021077866Y-03315697D02*
X021394371Y-03315697D01*
D53*
X010969812Y016871758D02*
X010969266Y017158028D01*
X010969266Y017158028D02*
X010974500Y017193854D01*
X010974500Y017193854D02*
X010984431Y017213242D01*
X010984431Y017213242D02*
X010998358Y017228659D01*
X010998358Y017228659D02*
X011015028Y017240468D01*
X011015028Y017240468D02*
X011051624Y017254695D01*
X011051624Y017254695D02*
X011084237Y017258798D01*
X011084237Y017258798D02*
X011128441Y017254037D01*
X011128441Y017254037D02*
X011161029Y017240975D01*
X011161029Y017240975D02*
X011176881Y017228320D01*
X011176881Y017228320D02*
X011188442Y017212975D01*
X011188442Y017212975D02*
X011196061Y017195339D01*
X011196061Y017195339D02*
X011200087Y017175810D01*
X011200087Y017175810D02*
X011200868Y017154791D01*
X010638171Y016939587D02*
X010629652Y016911684D01*
X010629652Y016911684D02*
X010604480Y016885661D01*
X010604480Y016885661D02*
X010563227Y016868014D01*
X010563227Y016868014D02*
X010536750Y016864375D01*
X010536750Y016864375D02*
X010490941Y016867727D01*
X010490941Y016867727D02*
X010456578Y016882795D01*
X010456578Y016882795D02*
X010437786Y016905901D01*
X010437786Y016905901D02*
X010431036Y016932751D01*
X010431036Y016932751D02*
X010431484Y016950611D01*
X010431484Y016950611D02*
X010439551Y016980508D01*
X010439551Y016980508D02*
X010474560Y017038633D01*
X010474560Y017038633D02*
X010562725Y017149205D01*
X010562725Y017149205D02*
X010655430Y017250905D01*
X010655430Y017250905D02*
X010407421Y017250905D01*
D53*
X022969812Y016871758D02*
X022969266Y017158028D01*
X022969266Y017158028D02*
X022974500Y017193854D01*
X022974500Y017193854D02*
X022984431Y017213242D01*
X022984431Y017213242D02*
X022998358Y017228659D01*
X022998358Y017228659D02*
X023015028Y017240468D01*
X023015028Y017240468D02*
X023051624Y017254695D01*
X023051624Y017254695D02*
X023084237Y017258798D01*
X023084237Y017258798D02*
X023128441Y017254037D01*
X023128441Y017254037D02*
X023161029Y017240975D01*
X023161029Y017240975D02*
X023176881Y017228320D01*
X023176881Y017228320D02*
X023188442Y017212975D01*
X023188442Y017212975D02*
X023196061Y017195339D01*
X023196061Y017195339D02*
X023200087Y017175810D01*
X023200087Y017175810D02*
X023200868Y017154791D01*
X022654301Y016913241D02*
X022633274Y016896754D01*
X022633274Y016896754D02*
X022599762Y016879091D01*
X022599762Y016879091D02*
X022557052Y016864375D01*
X022557052Y016864375D02*
X022504486Y016867315D01*
X022504486Y016867315D02*
X022458489Y016882035D01*
X022458489Y016882035D02*
X022425634Y016908531D01*
X022425634Y016908531D02*
X022405921Y016940915D01*
X022405921Y016940915D02*
X022412492Y016976243D01*
X022412492Y016976243D02*
X022438776Y017002740D01*
X022438776Y017002740D02*
X022484773Y017023348D01*
X022484773Y017023348D02*
X022537340Y017035123D01*
X022537340Y017035123D02*
X022583335Y017041012D01*
X022583335Y017041012D02*
X022537340Y017046899D01*
X022537340Y017046899D02*
X022484773Y017061620D01*
X022484773Y017061620D02*
X022438776Y017085172D01*
X022438776Y017085172D02*
X022409207Y017117556D01*
X022409207Y017117556D02*
X022402636Y017152884D01*
X022402636Y017152884D02*
X022415778Y017191157D01*
X022415778Y017191157D02*
X022445347Y017223540D01*
X022445347Y017223540D02*
X022491344Y017250037D01*
X022491344Y017250037D02*
X022526169Y017258280D01*
X022526169Y017258280D02*
X022582678Y017257102D01*
X022582678Y017257102D02*
X022628674Y017250037D01*
X022628674Y017250037D02*
X022660214Y017240616D01*
D53*
X034969812Y019871758D02*
X034969266Y020158028D01*
X034969266Y020158028D02*
X034974500Y020193854D01*
X034974500Y020193854D02*
X034984431Y020213242D01*
X034984431Y020213242D02*
X034998358Y020228659D01*
X034998358Y020228659D02*
X035015028Y020240468D01*
X035015028Y020240468D02*
X035051624Y020254695D01*
X035051624Y020254695D02*
X035084237Y020258798D01*
X035084237Y020258798D02*
X035128441Y020254037D01*
X035128441Y020254037D02*
X035161029Y020240975D01*
X035161029Y020240975D02*
X035176881Y020228320D01*
X035176881Y020228320D02*
X035188442Y020212975D01*
X035188442Y020212975D02*
X035196061Y020195339D01*
X035196061Y020195339D02*
X035200087Y020175810D01*
X035200087Y020175810D02*
X035200868Y020154791D01*
X034465643Y019871758D02*
X034672656Y020125551D01*
X034672656Y020125551D02*
X034390195Y020125551D01*
X034468059Y020043774D02*
X034468059Y020251423D01*
D53*
X006030188Y-24871758D02*
X006030734Y-25158028D01*
X006030734Y-25158028D02*
X006025500Y-25193854D01*
X006025500Y-25193854D02*
X006015569Y-25213242D01*
X006015569Y-25213242D02*
X006001642Y-25228659D01*
X006001642Y-25228659D02*
X005984972Y-25240468D01*
X005984972Y-25240468D02*
X005948376Y-25254695D01*
X005948376Y-25254695D02*
X005915763Y-25258798D01*
X005915763Y-25258798D02*
X005871559Y-25254037D01*
X005871559Y-25254037D02*
X005838971Y-25240975D01*
X005838971Y-25240975D02*
X005823119Y-25228320D01*
X005823119Y-25228320D02*
X005811558Y-25212975D01*
X005811558Y-25212975D02*
X005803939Y-25195339D01*
X005803939Y-25195339D02*
X005799913Y-25175810D01*
X005799913Y-25175810D02*
X005799132Y-25154791D01*
X006341973Y-24871758D02*
X006341973Y-25064233D01*
X006341973Y-25064233D02*
X006449887Y-25038920D01*
X006449887Y-25038920D02*
X006526938Y-25048441D01*
X006526938Y-25048441D02*
X006557601Y-25065626D01*
X006557601Y-25065626D02*
X006578896Y-25090009D01*
X006578896Y-25090009D02*
X006595177Y-25156465D01*
X006595177Y-25156465D02*
X006587477Y-25190987D01*
X006587477Y-25190987D02*
X006567273Y-25218158D01*
X006567273Y-25218158D02*
X006527572Y-25243393D01*
X006527572Y-25243393D02*
X006481689Y-25256669D01*
X006481689Y-25256669D02*
X006438543Y-25258798D01*
X006438543Y-25258798D02*
X006402209Y-25251870D01*
X006402209Y-25251870D02*
X006372838Y-25238284D01*
X006372838Y-25238284D02*
X006341973Y-25210340D01*
X006341973Y-24871758D02*
X006595177Y-24871758D01*
D53*
X018030188Y-24871758D02*
X018030734Y-25158028D01*
X018030734Y-25158028D02*
X018025500Y-25193854D01*
X018025500Y-25193854D02*
X018015569Y-25213242D01*
X018015569Y-25213242D02*
X018001642Y-25228659D01*
X018001642Y-25228659D02*
X017984972Y-25240468D01*
X017984972Y-25240468D02*
X017948376Y-25254695D01*
X017948376Y-25254695D02*
X017915763Y-25258798D01*
X017915763Y-25258798D02*
X017871559Y-25254037D01*
X017871559Y-25254037D02*
X017838971Y-25240975D01*
X017838971Y-25240975D02*
X017823119Y-25228320D01*
X017823119Y-25228320D02*
X017811558Y-25212975D01*
X017811558Y-25212975D02*
X017803939Y-25195339D01*
X017803939Y-25195339D02*
X017799913Y-25175810D01*
X017799913Y-25175810D02*
X017799132Y-25154791D01*
X018539987Y-24864375D02*
X018491202Y-24879630D01*
X018491202Y-24879630D02*
X018446009Y-24894775D01*
X018446009Y-24894775D02*
X018407625Y-24921702D01*
X018407625Y-24921702D02*
X018377785Y-24950143D01*
X018377785Y-24950143D02*
X018355003Y-25000236D01*
X018355003Y-25000236D02*
X018339339Y-25047190D01*
X018339339Y-25047190D02*
X018337668Y-25095601D01*
X018337668Y-25095601D02*
X018336492Y-25143843D01*
X018336492Y-25143843D02*
X018348811Y-25179745D01*
X018348811Y-25179745D02*
X018360574Y-25202184D01*
X018360574Y-25202184D02*
X018388433Y-25231353D01*
X018388433Y-25231353D02*
X018418149Y-25250988D01*
X018418149Y-25250988D02*
X018463962Y-25258280D01*
X018463962Y-25258280D02*
X018515347Y-25255475D01*
X018515347Y-25255475D02*
X018555589Y-25237525D01*
X018555589Y-25237525D02*
X018584067Y-25213403D01*
X018584067Y-25213403D02*
X018599544Y-25180306D01*
X018599544Y-25180306D02*
X018600782Y-25152258D01*
X018600782Y-25152258D02*
X018592115Y-25122527D01*
X018592115Y-25122527D02*
X018579114Y-25097283D01*
X018579114Y-25097283D02*
X018559304Y-25076528D01*
X018559304Y-25076528D02*
X018532063Y-25063626D01*
X018532063Y-25063626D02*
X018494298Y-25055211D01*
X018494298Y-25055211D02*
X018458390Y-25053529D01*
X018458390Y-25053529D02*
X018420626Y-25059138D01*
X018420626Y-25059138D02*
X018381623Y-25079332D01*
X018381623Y-25079332D02*
X018361193Y-25100088D01*
X018361193Y-25100088D02*
X018336368Y-25125443D01*
D50*
X-33573788Y005339397D02*
X-32614913Y005339397D01*
X-32614913Y006660603D01*
X-33573788Y006660603D01*
D50*
X-34426212Y005339397D02*
X-35385087Y005339397D01*
X-35385087Y006660603D01*
X-34426212Y006660603D01*
D51*
X-34680314Y007349522D02*
X-34680314Y007808411D01*
X-34680314Y007808411D02*
X-34545763Y007820703D01*
X-34545763Y007820703D02*
X-34451325Y007816593D01*
X-34451325Y007816593D02*
X-34394356Y007803965D01*
X-34394356Y007803965D02*
X-34370401Y007793670D01*
X-34370401Y007793670D02*
X-34350686Y007780270D01*
X-34350686Y007780270D02*
X-34336121Y007763428D01*
X-34336121Y007763428D02*
X-34323278Y007717757D01*
X-34323278Y007717757D02*
X-34324483Y007677255D01*
X-34324483Y007677255D02*
X-34337628Y007647928D01*
X-34337628Y007647928D02*
X-34361220Y007627837D01*
X-34361220Y007627837D02*
X-34393767Y007615041D01*
X-34393767Y007615041D02*
X-34456115Y007605283D01*
X-34456115Y007605283D02*
X-34671395Y007597661D01*
X-34492614Y007578286D02*
X-34307754Y007346121D01*
X-33858402Y007724485D02*
X-33745562Y007820703D01*
X-33745562Y007820703D02*
X-33745562Y007346124D01*
D50*
X-35573788Y-08160603D02*
X-34614913Y-08160603D01*
X-34614913Y-06839397D01*
X-35573788Y-06839397D01*
D50*
X-36426212Y-08160603D02*
X-37385087Y-08160603D01*
X-37385087Y-06839397D01*
X-36426212Y-06839397D01*
D51*
X-36680314Y-06150478D02*
X-36680314Y-05691589D01*
X-36680314Y-05691589D02*
X-36545763Y-05679297D01*
X-36545763Y-05679297D02*
X-36451325Y-05683407D01*
X-36451325Y-05683407D02*
X-36394356Y-05696035D01*
X-36394356Y-05696035D02*
X-36370401Y-05706330D01*
X-36370401Y-05706330D02*
X-36350686Y-05719730D01*
X-36350686Y-05719730D02*
X-36336121Y-05736572D01*
X-36336121Y-05736572D02*
X-36323278Y-05782243D01*
X-36323278Y-05782243D02*
X-36324483Y-05822745D01*
X-36324483Y-05822745D02*
X-36337628Y-05852072D01*
X-36337628Y-05852072D02*
X-36361220Y-05872163D01*
X-36361220Y-05872163D02*
X-36393767Y-05884959D01*
X-36393767Y-05884959D02*
X-36456115Y-05894717D01*
X-36456115Y-05894717D02*
X-36671395Y-05902339D01*
X-36492614Y-05921714D02*
X-36307754Y-06153879D01*
X-35935414Y-05764084D02*
X-35924765Y-05729205D01*
X-35924765Y-05729205D02*
X-35893300Y-05696676D01*
X-35893300Y-05696676D02*
X-35841734Y-05674617D01*
X-35841734Y-05674617D02*
X-35808637Y-05670069D01*
X-35808637Y-05670069D02*
X-35751377Y-05674259D01*
X-35751377Y-05674259D02*
X-35708422Y-05693094D01*
X-35708422Y-05693094D02*
X-35684933Y-05721976D01*
X-35684933Y-05721976D02*
X-35676496Y-05755539D01*
X-35676496Y-05755539D02*
X-35677056Y-05777864D01*
X-35677056Y-05777864D02*
X-35687138Y-05815234D01*
X-35687138Y-05815234D02*
X-35730900Y-05887892D01*
X-35730900Y-05887892D02*
X-35841106Y-06026107D01*
X-35841106Y-06026107D02*
X-35956987Y-06153231D01*
X-35956987Y-06153231D02*
X-35646977Y-06153231D01*
D50*
X-17339397Y001426212D02*
X-17339397Y002385087D01*
X-18660603Y002385087D01*
X-18660603Y001426212D01*
D50*
X-17339397Y000573788D02*
X-17339397Y-00385087D01*
X-18660603Y-00385087D01*
X-18660603Y000573788D01*
D51*
X-19349522Y000319686D02*
X-19808411Y000319686D01*
X-19808411Y000319686D02*
X-19820703Y000454237D01*
X-19820703Y000454237D02*
X-19816593Y000548675D01*
X-19816593Y000548675D02*
X-19803965Y000605644D01*
X-19803965Y000605644D02*
X-19793670Y000629599D01*
X-19793670Y000629599D02*
X-19780270Y000649314D01*
X-19780270Y000649314D02*
X-19763428Y000663879D01*
X-19763428Y000663879D02*
X-19717757Y000676722D01*
X-19717757Y000676722D02*
X-19677255Y000675517D01*
X-19677255Y000675517D02*
X-19647928Y000662372D01*
X-19647928Y000662372D02*
X-19627837Y000638780D01*
X-19627837Y000638780D02*
X-19615041Y000606234D01*
X-19615041Y000606234D02*
X-19605283Y000543885D01*
X-19605283Y000543885D02*
X-19597661Y000328605D01*
X-19578286Y000507386D02*
X-19346121Y000692246D01*
X-19768849Y001044424D02*
X-19789457Y001070708D01*
X-19789457Y001070708D02*
X-19811536Y001112597D01*
X-19811536Y001112597D02*
X-19829931Y001165986D01*
X-19829931Y001165986D02*
X-19826257Y001231693D01*
X-19826257Y001231693D02*
X-19807856Y001289189D01*
X-19807856Y001289189D02*
X-19774737Y001330258D01*
X-19774737Y001330258D02*
X-19734256Y001354899D01*
X-19734256Y001354899D02*
X-19690096Y001346685D01*
X-19690096Y001346685D02*
X-19656976Y001313830D01*
X-19656976Y001313830D02*
X-19631216Y001256334D01*
X-19631216Y001256334D02*
X-19616496Y001190625D01*
X-19616496Y001190625D02*
X-19609136Y001133131D01*
X-19609136Y001133131D02*
X-19601776Y001190625D01*
X-19601776Y001190625D02*
X-19583376Y001256334D01*
X-19583376Y001256334D02*
X-19553936Y001313830D01*
X-19553936Y001313830D02*
X-19513455Y001350792D01*
X-19513455Y001350792D02*
X-19469295Y001359005D01*
X-19469295Y001359005D02*
X-19421454Y001342578D01*
X-19421454Y001342578D02*
X-19380975Y001305617D01*
X-19380975Y001305617D02*
X-19347854Y001248120D01*
X-19347854Y001248120D02*
X-19337550Y001204588D01*
X-19337550Y001204588D02*
X-19339022Y001133952D01*
X-19339022Y001133952D02*
X-19347854Y001076457D01*
X-19347854Y001076457D02*
X-19359630Y001037032D01*
D50*
X-17339397Y005426212D02*
X-17339397Y006385087D01*
X-18660603Y006385087D01*
X-18660603Y005426212D01*
D50*
X-17339397Y004573788D02*
X-17339397Y003614913D01*
X-18660603Y003614913D01*
X-18660603Y004573788D01*
D51*
X-19349522Y004319686D02*
X-19808411Y004319686D01*
X-19808411Y004319686D02*
X-19820703Y004454237D01*
X-19820703Y004454237D02*
X-19816593Y004548675D01*
X-19816593Y004548675D02*
X-19803965Y004605644D01*
X-19803965Y004605644D02*
X-19793670Y004629599D01*
X-19793670Y004629599D02*
X-19780270Y004649314D01*
X-19780270Y004649314D02*
X-19763428Y004663879D01*
X-19763428Y004663879D02*
X-19717757Y004676722D01*
X-19717757Y004676722D02*
X-19677255Y004675517D01*
X-19677255Y004675517D02*
X-19647928Y004662372D01*
X-19647928Y004662372D02*
X-19627837Y004638780D01*
X-19627837Y004638780D02*
X-19615041Y004606234D01*
X-19615041Y004606234D02*
X-19605283Y004543885D01*
X-19605283Y004543885D02*
X-19597661Y004328605D01*
X-19578286Y004507386D02*
X-19346121Y004692246D01*
X-19820703Y005280246D02*
X-19503461Y005021480D01*
X-19503461Y005021480D02*
X-19503461Y005374557D01*
X-19605683Y005277227D02*
X-19346121Y005277227D01*
D50*
X-19573788Y011339397D02*
X-18614913Y011339397D01*
X-18614913Y012660603D01*
X-19573788Y012660603D01*
D50*
X-20426212Y011339397D02*
X-21385087Y011339397D01*
X-21385087Y012660603D01*
X-20426212Y012660603D01*
D51*
X-20680314Y013349522D02*
X-20680314Y013808411D01*
X-20680314Y013808411D02*
X-20545763Y013820703D01*
X-20545763Y013820703D02*
X-20451325Y013816593D01*
X-20451325Y013816593D02*
X-20394356Y013803965D01*
X-20394356Y013803965D02*
X-20370401Y013793670D01*
X-20370401Y013793670D02*
X-20350686Y013780270D01*
X-20350686Y013780270D02*
X-20336121Y013763428D01*
X-20336121Y013763428D02*
X-20323278Y013717757D01*
X-20323278Y013717757D02*
X-20324483Y013677255D01*
X-20324483Y013677255D02*
X-20337628Y013647928D01*
X-20337628Y013647928D02*
X-20361220Y013627837D01*
X-20361220Y013627837D02*
X-20393766Y013615041D01*
X-20393766Y013615041D02*
X-20456116Y013605283D01*
X-20456116Y013605283D02*
X-20671395Y013597661D01*
X-20492614Y013578286D02*
X-20307754Y013346121D01*
X-19960234Y013820703D02*
X-19960234Y013580109D01*
X-19960234Y013580109D02*
X-19825342Y013611750D01*
X-19825342Y013611750D02*
X-19729027Y013599849D01*
X-19729027Y013599849D02*
X-19690699Y013578368D01*
X-19690699Y013578368D02*
X-19664080Y013547888D01*
X-19664080Y013547888D02*
X-19643729Y013464819D01*
X-19643729Y013464819D02*
X-19653354Y013421666D01*
X-19653354Y013421666D02*
X-19678608Y013387702D01*
X-19678608Y013387702D02*
X-19728235Y013356159D01*
X-19728235Y013356159D02*
X-19785589Y013339564D01*
X-19785589Y013339564D02*
X-19839521Y013336903D01*
X-19839521Y013336903D02*
X-19884939Y013345563D01*
X-19884939Y013345563D02*
X-19921652Y013362544D01*
X-19921652Y013362544D02*
X-19960234Y013397475D01*
X-19960234Y013820703D02*
X-19643729Y013820703D01*
D50*
X-25426212Y010660603D02*
X-26385087Y010660603D01*
X-26385087Y009339397D01*
X-25426212Y009339397D01*
D50*
X-24573788Y010660603D02*
X-23614913Y010660603D01*
X-23614913Y009339397D01*
X-24573788Y009339397D01*
D51*
X-24319686Y008650478D02*
X-24319686Y008191589D01*
X-24319686Y008191589D02*
X-24454237Y008179297D01*
X-24454237Y008179297D02*
X-24548675Y008183407D01*
X-24548675Y008183407D02*
X-24605644Y008196035D01*
X-24605644Y008196035D02*
X-24629599Y008206330D01*
X-24629599Y008206330D02*
X-24649314Y008219730D01*
X-24649314Y008219730D02*
X-24663879Y008236572D01*
X-24663879Y008236572D02*
X-24676722Y008282243D01*
X-24676722Y008282243D02*
X-24675517Y008322745D01*
X-24675517Y008322745D02*
X-24662372Y008352072D01*
X-24662372Y008352072D02*
X-24638780Y008372163D01*
X-24638780Y008372163D02*
X-24606234Y008384959D01*
X-24606234Y008384959D02*
X-24543885Y008394717D01*
X-24543885Y008394717D02*
X-24328605Y008402339D01*
X-24507386Y008421714D02*
X-24692246Y008653879D01*
X-25287284Y008170069D02*
X-25226303Y008189137D01*
X-25226303Y008189137D02*
X-25169811Y008208069D01*
X-25169811Y008208069D02*
X-25121832Y008241727D01*
X-25121832Y008241727D02*
X-25084531Y008277278D01*
X-25084531Y008277278D02*
X-25056053Y008339895D01*
X-25056053Y008339895D02*
X-25036474Y008398587D01*
X-25036474Y008398587D02*
X-25034385Y008459101D01*
X-25034385Y008459101D02*
X-25032915Y008519404D01*
X-25032915Y008519404D02*
X-25048314Y008564281D01*
X-25048314Y008564281D02*
X-25063018Y008592329D01*
X-25063018Y008592329D02*
X-25097841Y008628792D01*
X-25097841Y008628792D02*
X-25134987Y008653334D01*
X-25134987Y008653334D02*
X-25192253Y008662450D01*
X-25192253Y008662450D02*
X-25256484Y008658944D01*
X-25256484Y008658944D02*
X-25306786Y008636506D01*
X-25306786Y008636506D02*
X-25342383Y008606354D01*
X-25342383Y008606354D02*
X-25361730Y008564983D01*
X-25361730Y008564983D02*
X-25363278Y008529922D01*
X-25363278Y008529922D02*
X-25352444Y008492759D01*
X-25352444Y008492759D02*
X-25336193Y008461204D01*
X-25336193Y008461204D02*
X-25311429Y008435260D01*
X-25311429Y008435260D02*
X-25277379Y008419132D01*
X-25277379Y008419132D02*
X-25230172Y008408614D01*
X-25230172Y008408614D02*
X-25185288Y008406511D01*
X-25185288Y008406511D02*
X-25138082Y008413523D01*
X-25138082Y008413523D02*
X-25089329Y008438766D01*
X-25089329Y008438766D02*
X-25063792Y008464710D01*
X-25063792Y008464710D02*
X-25032759Y008496404D01*
D50*
X-00839397Y001426212D02*
X-00839397Y002385087D01*
X-02160603Y002385087D01*
X-02160603Y001426212D01*
D50*
X-00839397Y000573788D02*
X-00839397Y-00385087D01*
X-02160603Y-00385087D01*
X-02160603Y000573788D01*
D51*
X-02849522Y000319686D02*
X-03308411Y000319686D01*
X-03308411Y000319686D02*
X-03320703Y000454237D01*
X-03320703Y000454237D02*
X-03316593Y000548675D01*
X-03316593Y000548675D02*
X-03303965Y000605644D01*
X-03303965Y000605644D02*
X-03293670Y000629599D01*
X-03293670Y000629599D02*
X-03280270Y000649314D01*
X-03280270Y000649314D02*
X-03263428Y000663879D01*
X-03263428Y000663879D02*
X-03217757Y000676722D01*
X-03217757Y000676722D02*
X-03177255Y000675517D01*
X-03177255Y000675517D02*
X-03147928Y000662372D01*
X-03147928Y000662372D02*
X-03127837Y000638780D01*
X-03127837Y000638780D02*
X-03115041Y000606234D01*
X-03115041Y000606234D02*
X-03105283Y000543885D01*
X-03105283Y000543885D02*
X-03097661Y000328605D01*
X-03078286Y000507386D02*
X-02846121Y000692246D01*
X-03320703Y001037374D02*
X-03320703Y001358663D01*
X-03320703Y001358663D02*
X-03306209Y001334455D01*
X-03306209Y001334455D02*
X-03296615Y001321726D01*
X-03296615Y001321726D02*
X-03268122Y001291930D01*
X-03268122Y001291930D02*
X-03248505Y001275747D01*
X-03248505Y001275747D02*
X-03224828Y001259296D01*
X-03224828Y001259296D02*
X-03196731Y001243021D01*
X-03196731Y001243021D02*
X-03163857Y001227360D01*
X-03163857Y001227360D02*
X-03125844Y001212757D01*
X-03125844Y001212757D02*
X-03082333Y001199655D01*
X-03082333Y001199655D02*
X-03032965Y001188491D01*
X-03032965Y001188491D02*
X-02947145Y001176354D01*
X-02947145Y001176354D02*
X-02846121Y001171071D01*
D50*
X001573788Y-06339397D02*
X000614913Y-06339397D01*
X000614913Y-07660603D01*
X001573788Y-07660603D01*
D50*
X002426212Y-06339397D02*
X003385087Y-06339397D01*
X003385087Y-07660603D01*
X002426212Y-07660603D01*
D51*
X002680314Y-08349522D02*
X002680314Y-08808411D01*
X002680314Y-08808411D02*
X002545763Y-08820703D01*
X002545763Y-08820703D02*
X002451325Y-08816593D01*
X002451325Y-08816593D02*
X002394356Y-08803965D01*
X002394356Y-08803965D02*
X002370401Y-08793670D01*
X002370401Y-08793670D02*
X002350686Y-08780270D01*
X002350686Y-08780270D02*
X002336121Y-08763428D01*
X002336121Y-08763428D02*
X002323278Y-08717757D01*
X002323278Y-08717757D02*
X002324483Y-08677255D01*
X002324483Y-08677255D02*
X002337628Y-08647928D01*
X002337628Y-08647928D02*
X002361220Y-08627837D01*
X002361220Y-08627837D02*
X002393767Y-08615041D01*
X002393767Y-08615041D02*
X002456116Y-08605283D01*
X002456116Y-08605283D02*
X002671395Y-08597661D01*
X002492614Y-08578286D02*
X002307754Y-08346121D01*
X001811967Y-08829931D02*
X001865221Y-08820266D01*
X001865221Y-08820266D02*
X001913720Y-08796465D01*
X001913720Y-08796465D02*
X001947954Y-08742913D01*
X001947954Y-08742913D02*
X001934641Y-08695310D01*
X001934641Y-08695310D02*
X001894701Y-08658865D01*
X001894701Y-08658865D02*
X001852858Y-08632833D01*
X001852858Y-08632833D02*
X001748253Y-08594156D01*
X001748253Y-08594156D02*
X001683587Y-08558454D01*
X001683587Y-08558454D02*
X001644598Y-08516058D01*
X001644598Y-08516058D02*
X001636039Y-08455812D01*
X001636039Y-08455812D02*
X001657911Y-08397053D01*
X001657911Y-08397053D02*
X001705460Y-08361352D01*
X001705460Y-08361352D02*
X001774880Y-08337550D01*
X001774880Y-08337550D02*
X001828134Y-08339038D01*
X001828134Y-08339038D02*
X001890897Y-08359864D01*
X001890897Y-08359864D02*
X001941298Y-08393334D01*
X001941298Y-08393334D02*
X001967924Y-08442424D01*
X001967924Y-08442424D02*
X001966023Y-08491514D01*
X001966023Y-08491514D02*
X001941298Y-08540603D01*
X001941298Y-08540603D02*
X001886142Y-08584486D01*
X001886142Y-08584486D02*
X001830986Y-08603825D01*
X001830986Y-08603825D02*
X001761567Y-08626139D01*
X001761567Y-08626139D02*
X001693097Y-08662584D01*
X001693097Y-08662584D02*
X001672176Y-08697541D01*
X001672176Y-08697541D02*
X001671225Y-08756301D01*
X001671225Y-08756301D02*
X001694999Y-08798696D01*
X001694999Y-08798696D02*
X001743498Y-08824729D01*
X001743498Y-08824729D02*
X001811967Y-08829931D01*
D50*
X-25426212Y023660603D02*
X-26385087Y023660603D01*
X-26385087Y022339397D01*
X-25426212Y022339397D01*
D50*
X-24573788Y023660603D02*
X-23614913Y023660603D01*
X-23614913Y022339397D01*
X-24573788Y022339397D01*
D51*
X-24319686Y021650478D02*
X-24319686Y021191589D01*
X-24319686Y021191589D02*
X-24454237Y021179297D01*
X-24454237Y021179297D02*
X-24548675Y021183407D01*
X-24548675Y021183407D02*
X-24605644Y021196035D01*
X-24605644Y021196035D02*
X-24629599Y021206330D01*
X-24629599Y021206330D02*
X-24649314Y021219730D01*
X-24649314Y021219730D02*
X-24663879Y021236572D01*
X-24663879Y021236572D02*
X-24676722Y021282243D01*
X-24676722Y021282243D02*
X-24675517Y021322745D01*
X-24675517Y021322745D02*
X-24662372Y021352072D01*
X-24662372Y021352072D02*
X-24638780Y021372163D01*
X-24638780Y021372163D02*
X-24606234Y021384959D01*
X-24606234Y021384959D02*
X-24543884Y021394717D01*
X-24543884Y021394717D02*
X-24328605Y021402339D01*
X-24507386Y021421714D02*
X-24692246Y021653879D01*
X-25345018Y021296068D02*
X-25331018Y021233068D01*
X-25331018Y021233068D02*
X-25303018Y021198068D01*
X-25303018Y021198068D02*
X-25261018Y021177068D01*
X-25261018Y021177068D02*
X-25205018Y021170069D01*
X-25205018Y021170069D02*
X-25149018Y021177068D01*
X-25149018Y021177068D02*
X-25100018Y021198068D01*
X-25100018Y021198068D02*
X-25065018Y021233068D01*
X-25065018Y021233068D02*
X-25051018Y021282068D01*
X-25051018Y021282068D02*
X-25065018Y021331068D01*
X-25065018Y021331068D02*
X-25100018Y021366068D01*
X-25100018Y021366068D02*
X-25149018Y021387068D01*
X-25149018Y021387068D02*
X-25205018Y021394068D01*
X-25205018Y021394068D02*
X-25261018Y021380068D01*
X-25261018Y021380068D02*
X-25303018Y021352068D01*
X-25303018Y021352068D02*
X-25331018Y021324068D01*
X-25331018Y021324068D02*
X-25345018Y021296068D01*
X-25344318Y021296768D02*
X-25291118Y021435368D01*
X-25291118Y021435368D02*
X-25254018Y021534068D01*
X-25254018Y021534068D02*
X-25223218Y021605468D01*
X-25223218Y021605468D02*
X-25198018Y021660068D01*
D50*
X-17426212Y019660603D02*
X-18385087Y019660603D01*
X-18385087Y018339397D01*
X-17426212Y018339397D01*
D50*
X-16573788Y019660603D02*
X-15614913Y019660603D01*
X-15614913Y018339397D01*
X-16573788Y018339397D01*
D51*
X-15973660Y017650478D02*
X-15973660Y017191589D01*
X-15973660Y017191589D02*
X-16108211Y017179297D01*
X-16108211Y017179297D02*
X-16202649Y017183407D01*
X-16202649Y017183407D02*
X-16259618Y017196035D01*
X-16259618Y017196035D02*
X-16283573Y017206330D01*
X-16283573Y017206330D02*
X-16303288Y017219730D01*
X-16303288Y017219730D02*
X-16317853Y017236572D01*
X-16317853Y017236572D02*
X-16330696Y017282243D01*
X-16330696Y017282243D02*
X-16329491Y017322745D01*
X-16329491Y017322745D02*
X-16316346Y017352072D01*
X-16316346Y017352072D02*
X-16292754Y017372163D01*
X-16292754Y017372163D02*
X-16260208Y017384959D01*
X-16260208Y017384959D02*
X-16197858Y017394717D01*
X-16197858Y017394717D02*
X-15982579Y017402339D01*
X-16161360Y017421714D02*
X-16346220Y017653879D01*
X-16795572Y017275515D02*
X-16908412Y017179297D01*
X-16908412Y017179297D02*
X-16908412Y017653876D01*
X-17544044Y017170069D02*
X-17477941Y017187970D01*
X-17477941Y017187970D02*
X-17418755Y017242515D01*
X-17418755Y017242515D02*
X-17386472Y017321709D01*
X-17386472Y017321709D02*
X-17378785Y017439155D01*
X-17378785Y017439155D02*
X-17397233Y017537623D01*
X-17397233Y017537623D02*
X-17444889Y017619224D01*
X-17444889Y017619224D02*
X-17513299Y017662450D01*
X-17513299Y017662450D02*
X-17574790Y017662450D01*
X-17574790Y017662450D02*
X-17643201Y017619224D01*
X-17643201Y017619224D02*
X-17690856Y017537623D01*
X-17690856Y017537623D02*
X-17709304Y017439155D01*
X-17709304Y017439155D02*
X-17701618Y017321709D01*
X-17701618Y017321709D02*
X-17669334Y017242515D01*
X-17669334Y017242515D02*
X-17610148Y017187970D01*
X-17610148Y017187970D02*
X-17544044Y017170069D01*
D50*
X008426212Y007339397D02*
X009385087Y007339397D01*
X009385087Y008660603D01*
X008426212Y008660603D01*
D50*
X007573788Y007339397D02*
X006614913Y007339397D01*
X006614913Y008660603D01*
X007573788Y008660603D01*
D51*
X006973660Y009349522D02*
X006973660Y009808411D01*
X006973660Y009808411D02*
X007108211Y009820703D01*
X007108211Y009820703D02*
X007202649Y009816593D01*
X007202649Y009816593D02*
X007259618Y009803965D01*
X007259618Y009803965D02*
X007283573Y009793670D01*
X007283573Y009793670D02*
X007303288Y009780270D01*
X007303288Y009780270D02*
X007317853Y009763428D01*
X007317853Y009763428D02*
X007330696Y009717757D01*
X007330696Y009717757D02*
X007329491Y009677255D01*
X007329491Y009677255D02*
X007316346Y009647928D01*
X007316346Y009647928D02*
X007292754Y009627837D01*
X007292754Y009627837D02*
X007260208Y009615041D01*
X007260208Y009615041D02*
X007197859Y009605283D01*
X007197859Y009605283D02*
X006982579Y009597661D01*
X007161360Y009578286D02*
X007346220Y009346121D01*
X007795572Y009724485D02*
X007908412Y009820703D01*
X007908412Y009820703D02*
X007908412Y009346124D01*
X008487624Y009724485D02*
X008600464Y009820703D01*
X008600464Y009820703D02*
X008600464Y009346124D01*
D50*
X012426212Y004339397D02*
X013385087Y004339397D01*
X013385087Y005660603D01*
X012426212Y005660603D01*
D50*
X011573788Y004339397D02*
X010614913Y004339397D01*
X010614913Y005660603D01*
X011573788Y005660603D01*
D51*
X010973660Y006349522D02*
X010973660Y006808411D01*
X010973660Y006808411D02*
X011108211Y006820703D01*
X011108211Y006820703D02*
X011202649Y006816593D01*
X011202649Y006816593D02*
X011259618Y006803965D01*
X011259618Y006803965D02*
X011283573Y006793670D01*
X011283573Y006793670D02*
X011303288Y006780270D01*
X011303288Y006780270D02*
X011317853Y006763428D01*
X011317853Y006763428D02*
X011330696Y006717757D01*
X011330696Y006717757D02*
X011329491Y006677255D01*
X011329491Y006677255D02*
X011316346Y006647928D01*
X011316346Y006647928D02*
X011292754Y006627837D01*
X011292754Y006627837D02*
X011260207Y006615041D01*
X011260207Y006615041D02*
X011197858Y006605283D01*
X011197858Y006605283D02*
X010982579Y006597661D01*
X011161360Y006578286D02*
X011346220Y006346121D01*
X011795572Y006724485D02*
X011908412Y006820703D01*
X011908412Y006820703D02*
X011908412Y006346124D01*
X012410612Y006735916D02*
X012421261Y006770795D01*
X012421261Y006770795D02*
X012452726Y006803324D01*
X012452726Y006803324D02*
X012504292Y006825383D01*
X012504292Y006825383D02*
X012537389Y006829931D01*
X012537389Y006829931D02*
X012594649Y006825741D01*
X012594649Y006825741D02*
X012637604Y006806907D01*
X012637604Y006806907D02*
X012661093Y006778024D01*
X012661093Y006778024D02*
X012669530Y006744461D01*
X012669530Y006744461D02*
X012668970Y006722136D01*
X012668970Y006722136D02*
X012658888Y006684766D01*
X012658888Y006684766D02*
X012615126Y006612108D01*
X012615126Y006612108D02*
X012504920Y006473893D01*
X012504920Y006473893D02*
X012389039Y006346769D01*
X012389039Y006346769D02*
X012699049Y006346769D01*
D50*
X008426212Y000339397D02*
X009385087Y000339397D01*
X009385087Y001660603D01*
X008426212Y001660603D01*
D50*
X007573788Y000339397D02*
X006614913Y000339397D01*
X006614913Y001660603D01*
X007573788Y001660603D01*
D51*
X006973660Y002349522D02*
X006973660Y002808411D01*
X006973660Y002808411D02*
X007108211Y002820703D01*
X007108211Y002820703D02*
X007202649Y002816593D01*
X007202649Y002816593D02*
X007259618Y002803965D01*
X007259618Y002803965D02*
X007283573Y002793670D01*
X007283573Y002793670D02*
X007303288Y002780270D01*
X007303288Y002780270D02*
X007317853Y002763428D01*
X007317853Y002763428D02*
X007330696Y002717757D01*
X007330696Y002717757D02*
X007329491Y002677255D01*
X007329491Y002677255D02*
X007316346Y002647928D01*
X007316346Y002647928D02*
X007292754Y002627837D01*
X007292754Y002627837D02*
X007260208Y002615041D01*
X007260208Y002615041D02*
X007197859Y002605283D01*
X007197859Y002605283D02*
X006982579Y002597661D01*
X007161360Y002578286D02*
X007346220Y002346121D01*
X007795572Y002724485D02*
X007908412Y002820703D01*
X007908412Y002820703D02*
X007908412Y002346124D01*
X008390450Y002768849D02*
X008416734Y002789457D01*
X008416734Y002789457D02*
X008458623Y002811536D01*
X008458623Y002811536D02*
X008512012Y002829931D01*
X008512012Y002829931D02*
X008577719Y002826257D01*
X008577719Y002826257D02*
X008635215Y002807856D01*
X008635215Y002807856D02*
X008676284Y002774737D01*
X008676284Y002774737D02*
X008700925Y002734256D01*
X008700925Y002734256D02*
X008692711Y002690096D01*
X008692711Y002690096D02*
X008659856Y002656976D01*
X008659856Y002656976D02*
X008602360Y002631216D01*
X008602360Y002631216D02*
X008536651Y002616496D01*
X008536651Y002616496D02*
X008479157Y002609136D01*
X008479157Y002609136D02*
X008536651Y002601776D01*
X008536651Y002601776D02*
X008602360Y002583376D01*
X008602360Y002583376D02*
X008659856Y002553936D01*
X008659856Y002553936D02*
X008696818Y002513455D01*
X008696818Y002513455D02*
X008705031Y002469295D01*
X008705031Y002469295D02*
X008688604Y002421454D01*
X008688604Y002421454D02*
X008651643Y002380975D01*
X008651643Y002380975D02*
X008594146Y002347854D01*
X008594146Y002347854D02*
X008550614Y002337550D01*
X008550614Y002337550D02*
X008479978Y002339022D01*
X008479978Y002339022D02*
X008422483Y002347854D01*
X008422483Y002347854D02*
X008383058Y002359630D01*
D50*
X012426212Y-02660603D02*
X013385087Y-02660603D01*
X013385087Y-01339397D01*
X012426212Y-01339397D01*
D50*
X011573788Y-02660603D02*
X010614913Y-02660603D01*
X010614913Y-01339397D01*
X011573788Y-01339397D01*
D51*
X010973660Y-00650478D02*
X010973660Y-00191589D01*
X010973660Y-00191589D02*
X011108211Y-00179297D01*
X011108211Y-00179297D02*
X011202649Y-00183407D01*
X011202649Y-00183407D02*
X011259618Y-00196035D01*
X011259618Y-00196035D02*
X011283573Y-00206330D01*
X011283573Y-00206330D02*
X011303288Y-00219730D01*
X011303288Y-00219730D02*
X011317853Y-00236572D01*
X011317853Y-00236572D02*
X011330696Y-00282243D01*
X011330696Y-00282243D02*
X011329491Y-00322745D01*
X011329491Y-00322745D02*
X011316346Y-00352072D01*
X011316346Y-00352072D02*
X011292754Y-00372163D01*
X011292754Y-00372163D02*
X011260207Y-00384959D01*
X011260207Y-00384959D02*
X011197858Y-00394717D01*
X011197858Y-00394717D02*
X010982579Y-00402339D01*
X011161360Y-00421714D02*
X011346220Y-00653879D01*
X011795572Y-00275515D02*
X011908412Y-00179297D01*
X011908412Y-00179297D02*
X011908412Y-00653876D01*
X012626272Y-00179297D02*
X012367506Y-00496539D01*
X012367506Y-00496539D02*
X012720583Y-00496539D01*
X012623253Y-00394317D02*
X012623253Y-00653879D01*
D50*
X-00573788Y007339397D02*
X000385087Y007339397D01*
X000385087Y008660603D01*
X-00573788Y008660603D01*
D50*
X-01426212Y007339397D02*
X-02385087Y007339397D01*
X-02385087Y008660603D01*
X-01426212Y008660603D01*
D51*
X-02026340Y009349522D02*
X-02026340Y009808411D01*
X-02026340Y009808411D02*
X-01891789Y009820703D01*
X-01891789Y009820703D02*
X-01797351Y009816593D01*
X-01797351Y009816593D02*
X-01740382Y009803965D01*
X-01740382Y009803965D02*
X-01716427Y009793670D01*
X-01716427Y009793670D02*
X-01696712Y009780270D01*
X-01696712Y009780270D02*
X-01682147Y009763428D01*
X-01682147Y009763428D02*
X-01669304Y009717757D01*
X-01669304Y009717757D02*
X-01670509Y009677255D01*
X-01670509Y009677255D02*
X-01683654Y009647928D01*
X-01683654Y009647928D02*
X-01707246Y009627837D01*
X-01707246Y009627837D02*
X-01739793Y009615041D01*
X-01739793Y009615041D02*
X-01802142Y009605283D01*
X-01802142Y009605283D02*
X-02017421Y009597661D01*
X-01838640Y009578286D02*
X-01653780Y009346121D01*
X-01204428Y009724485D02*
X-01091588Y009820703D01*
X-01091588Y009820703D02*
X-01091588Y009346124D01*
X-00614208Y009820703D02*
X-00614208Y009580109D01*
X-00614208Y009580109D02*
X-00479316Y009611750D01*
X-00479316Y009611750D02*
X-00383001Y009599849D01*
X-00383001Y009599849D02*
X-00344673Y009578368D01*
X-00344673Y009578368D02*
X-00318054Y009547888D01*
X-00318054Y009547888D02*
X-00297703Y009464819D01*
X-00297703Y009464819D02*
X-00307328Y009421666D01*
X-00307328Y009421666D02*
X-00332582Y009387702D01*
X-00332582Y009387702D02*
X-00382209Y009356159D01*
X-00382209Y009356159D02*
X-00439563Y009339564D01*
X-00439563Y009339564D02*
X-00493495Y009336903D01*
X-00493495Y009336903D02*
X-00538913Y009345563D01*
X-00538913Y009345563D02*
X-00575626Y009362544D01*
X-00575626Y009362544D02*
X-00614208Y009397475D01*
X-00614208Y009820703D02*
X-00297703Y009820703D01*
D50*
X003426212Y003339397D02*
X004385087Y003339397D01*
X004385087Y004660603D01*
X003426212Y004660603D01*
D50*
X002573788Y003339397D02*
X001614913Y003339397D01*
X001614913Y004660603D01*
X002573788Y004660603D01*
D51*
X001973660Y005349522D02*
X001973660Y005808411D01*
X001973660Y005808411D02*
X002108211Y005820703D01*
X002108211Y005820703D02*
X002202649Y005816593D01*
X002202649Y005816593D02*
X002259618Y005803965D01*
X002259618Y005803965D02*
X002283573Y005793670D01*
X002283573Y005793670D02*
X002303288Y005780270D01*
X002303288Y005780270D02*
X002317853Y005763428D01*
X002317853Y005763428D02*
X002330696Y005717757D01*
X002330696Y005717757D02*
X002329491Y005677255D01*
X002329491Y005677255D02*
X002316346Y005647928D01*
X002316346Y005647928D02*
X002292754Y005627837D01*
X002292754Y005627837D02*
X002260208Y005615041D01*
X002260208Y005615041D02*
X002197858Y005605283D01*
X002197858Y005605283D02*
X001982579Y005597661D01*
X002161360Y005578286D02*
X002346220Y005346121D01*
X002795572Y005724485D02*
X002908412Y005820703D01*
X002908412Y005820703D02*
X002908412Y005346124D01*
X003633310Y005829931D02*
X003572329Y005810863D01*
X003572329Y005810863D02*
X003515837Y005791931D01*
X003515837Y005791931D02*
X003467858Y005758273D01*
X003467858Y005758273D02*
X003430557Y005722722D01*
X003430557Y005722722D02*
X003402079Y005660105D01*
X003402079Y005660105D02*
X003382500Y005601413D01*
X003382500Y005601413D02*
X003380411Y005540899D01*
X003380411Y005540899D02*
X003378941Y005480596D01*
X003378941Y005480596D02*
X003394340Y005435719D01*
X003394340Y005435719D02*
X003409044Y005407671D01*
X003409044Y005407671D02*
X003443867Y005371208D01*
X003443867Y005371208D02*
X003481013Y005346666D01*
X003481013Y005346666D02*
X003538279Y005337550D01*
X003538279Y005337550D02*
X003602510Y005341056D01*
X003602510Y005341056D02*
X003652812Y005363494D01*
X003652812Y005363494D02*
X003688409Y005393646D01*
X003688409Y005393646D02*
X003707756Y005435018D01*
X003707756Y005435018D02*
X003709304Y005470078D01*
X003709304Y005470078D02*
X003698470Y005507241D01*
X003698470Y005507241D02*
X003682219Y005538796D01*
X003682219Y005538796D02*
X003657455Y005564740D01*
X003657455Y005564740D02*
X003623405Y005580868D01*
X003623405Y005580868D02*
X003576198Y005591386D01*
X003576198Y005591386D02*
X003531314Y005593489D01*
X003531314Y005593489D02*
X003484108Y005586477D01*
X003484108Y005586477D02*
X003435355Y005561235D01*
X003435355Y005561235D02*
X003409818Y005535290D01*
X003409818Y005535290D02*
X003378785Y005503596D01*
D50*
X010926212Y-06660603D02*
X011885087Y-06660603D01*
X011885087Y-05339397D01*
X010926212Y-05339397D01*
D50*
X010073788Y-06660603D02*
X009114913Y-06660603D01*
X009114913Y-05339397D01*
X010073788Y-05339397D01*
D51*
X009473660Y-04650478D02*
X009473660Y-04191589D01*
X009473660Y-04191589D02*
X009608211Y-04179297D01*
X009608211Y-04179297D02*
X009702649Y-04183407D01*
X009702649Y-04183407D02*
X009759618Y-04196035D01*
X009759618Y-04196035D02*
X009783573Y-04206330D01*
X009783573Y-04206330D02*
X009803288Y-04219730D01*
X009803288Y-04219730D02*
X009817853Y-04236572D01*
X009817853Y-04236572D02*
X009830696Y-04282243D01*
X009830696Y-04282243D02*
X009829491Y-04322745D01*
X009829491Y-04322745D02*
X009816346Y-04352072D01*
X009816346Y-04352072D02*
X009792754Y-04372163D01*
X009792754Y-04372163D02*
X009760207Y-04384959D01*
X009760207Y-04384959D02*
X009697858Y-04394717D01*
X009697858Y-04394717D02*
X009482579Y-04402339D01*
X009661360Y-04421714D02*
X009846220Y-04653879D01*
X010295572Y-04275515D02*
X010408412Y-04179297D01*
X010408412Y-04179297D02*
X010408412Y-04653876D01*
X010883400Y-04179297D02*
X011204689Y-04179297D01*
X011204689Y-04179297D02*
X011180481Y-04193791D01*
X011180481Y-04193791D02*
X011167752Y-04203385D01*
X011167752Y-04203385D02*
X011137956Y-04231878D01*
X011137956Y-04231878D02*
X011121773Y-04251495D01*
X011121773Y-04251495D02*
X011105321Y-04275172D01*
X011105321Y-04275172D02*
X011089047Y-04303269D01*
X011089047Y-04303269D02*
X011073386Y-04336143D01*
X011073386Y-04336143D02*
X011058783Y-04374156D01*
X011058783Y-04374156D02*
X011045681Y-04417667D01*
X011045681Y-04417667D02*
X011034517Y-04467035D01*
X011034517Y-04467035D02*
X011022380Y-04552855D01*
X011022380Y-04552855D02*
X011017097Y-04653879D01*
D50*
X020426212Y-02660603D02*
X021385087Y-02660603D01*
X021385087Y-01339397D01*
X020426212Y-01339397D01*
D50*
X019573788Y-02660603D02*
X018614913Y-02660603D01*
X018614913Y-01339397D01*
X019573788Y-01339397D01*
D51*
X018973660Y-00650478D02*
X018973660Y-00191589D01*
X018973660Y-00191589D02*
X019108211Y-00179297D01*
X019108211Y-00179297D02*
X019202649Y-00183407D01*
X019202649Y-00183407D02*
X019259618Y-00196035D01*
X019259618Y-00196035D02*
X019283573Y-00206330D01*
X019283573Y-00206330D02*
X019303288Y-00219730D01*
X019303288Y-00219730D02*
X019317853Y-00236572D01*
X019317853Y-00236572D02*
X019330696Y-00282243D01*
X019330696Y-00282243D02*
X019329491Y-00322745D01*
X019329491Y-00322745D02*
X019316346Y-00352072D01*
X019316346Y-00352072D02*
X019292754Y-00372163D01*
X019292754Y-00372163D02*
X019260208Y-00384959D01*
X019260208Y-00384959D02*
X019197859Y-00394717D01*
X019197859Y-00394717D02*
X018982579Y-00402339D01*
X019161360Y-00421714D02*
X019346220Y-00653879D01*
X019795572Y-00275515D02*
X019908412Y-00179297D01*
X019908412Y-00179297D02*
X019908412Y-00653876D01*
X020534059Y-00170069D02*
X020480805Y-00179734D01*
X020480805Y-00179734D02*
X020432306Y-00203535D01*
X020432306Y-00203535D02*
X020398072Y-00257087D01*
X020398072Y-00257087D02*
X020411385Y-00304690D01*
X020411385Y-00304690D02*
X020451325Y-00341135D01*
X020451325Y-00341135D02*
X020493168Y-00367167D01*
X020493168Y-00367167D02*
X020597773Y-00405844D01*
X020597773Y-00405844D02*
X020662439Y-00441546D01*
X020662439Y-00441546D02*
X020701428Y-00483942D01*
X020701428Y-00483942D02*
X020709987Y-00544188D01*
X020709987Y-00544188D02*
X020688115Y-00602947D01*
X020688115Y-00602947D02*
X020640567Y-00638648D01*
X020640567Y-00638648D02*
X020571146Y-00662450D01*
X020571146Y-00662450D02*
X020517892Y-00660962D01*
X020517892Y-00660962D02*
X020455129Y-00640136D01*
X020455129Y-00640136D02*
X020404728Y-00606666D01*
X020404728Y-00606666D02*
X020378102Y-00557576D01*
X020378102Y-00557576D02*
X020380003Y-00508486D01*
X020380003Y-00508486D02*
X020404728Y-00459397D01*
X020404728Y-00459397D02*
X020459884Y-00415514D01*
X020459884Y-00415514D02*
X020515040Y-00396175D01*
X020515040Y-00396175D02*
X020584459Y-00373861D01*
X020584459Y-00373861D02*
X020652929Y-00337416D01*
X020652929Y-00337416D02*
X020673850Y-00302459D01*
X020673850Y-00302459D02*
X020674801Y-00243699D01*
X020674801Y-00243699D02*
X020651027Y-00201304D01*
X020651027Y-00201304D02*
X020602528Y-00175271D01*
X020602528Y-00175271D02*
X020534059Y-00170069D01*
D50*
X025926212Y-06660603D02*
X026885087Y-06660603D01*
X026885087Y-05339397D01*
X025926212Y-05339397D01*
D50*
X025073788Y-06660603D02*
X024114913Y-06660603D01*
X024114913Y-05339397D01*
X025073788Y-05339397D01*
D51*
X024473660Y-04650478D02*
X024473660Y-04191589D01*
X024473660Y-04191589D02*
X024608211Y-04179297D01*
X024608211Y-04179297D02*
X024702649Y-04183407D01*
X024702649Y-04183407D02*
X024759618Y-04196035D01*
X024759618Y-04196035D02*
X024783573Y-04206330D01*
X024783573Y-04206330D02*
X024803288Y-04219730D01*
X024803288Y-04219730D02*
X024817853Y-04236572D01*
X024817853Y-04236572D02*
X024830696Y-04282243D01*
X024830696Y-04282243D02*
X024829491Y-04322745D01*
X024829491Y-04322745D02*
X024816346Y-04352072D01*
X024816346Y-04352072D02*
X024792754Y-04372163D01*
X024792754Y-04372163D02*
X024760208Y-04384959D01*
X024760208Y-04384959D02*
X024697859Y-04394717D01*
X024697859Y-04394717D02*
X024482579Y-04402339D01*
X024661360Y-04421714D02*
X024846220Y-04653879D01*
X025295572Y-04275515D02*
X025408412Y-04179297D01*
X025408412Y-04179297D02*
X025408412Y-04653876D01*
X026191044Y-04296068D02*
X026177044Y-04233068D01*
X026177044Y-04233068D02*
X026149044Y-04198068D01*
X026149044Y-04198068D02*
X026107044Y-04177068D01*
X026107044Y-04177068D02*
X026051044Y-04170069D01*
X026051044Y-04170069D02*
X025995044Y-04177068D01*
X025995044Y-04177068D02*
X025946044Y-04198068D01*
X025946044Y-04198068D02*
X025911044Y-04233068D01*
X025911044Y-04233068D02*
X025897044Y-04282068D01*
X025897044Y-04282068D02*
X025911044Y-04331068D01*
X025911044Y-04331068D02*
X025946044Y-04366068D01*
X025946044Y-04366068D02*
X025995044Y-04387068D01*
X025995044Y-04387068D02*
X026051044Y-04394068D01*
X026051044Y-04394068D02*
X026107044Y-04380068D01*
X026107044Y-04380068D02*
X026149044Y-04352068D01*
X026149044Y-04352068D02*
X026177044Y-04324068D01*
X026177044Y-04324068D02*
X026191044Y-04296068D01*
X026190344Y-04296768D02*
X026137144Y-04435368D01*
X026137144Y-04435368D02*
X026100044Y-04534068D01*
X026100044Y-04534068D02*
X026069244Y-04605468D01*
X026069244Y-04605468D02*
X026044044Y-04660068D01*
D50*
X010573788Y-12339397D02*
X009614913Y-12339397D01*
X009614913Y-13660603D01*
X010573788Y-13660603D01*
D50*
X011426212Y-12339397D02*
X012385087Y-12339397D01*
X012385087Y-13660603D01*
X011426212Y-13660603D01*
D51*
X012026340Y-14349522D02*
X012026340Y-14808411D01*
X012026340Y-14808411D02*
X011891789Y-14820703D01*
X011891789Y-14820703D02*
X011797351Y-14816593D01*
X011797351Y-14816593D02*
X011740382Y-14803965D01*
X011740382Y-14803965D02*
X011716427Y-14793670D01*
X011716427Y-14793670D02*
X011696712Y-14780270D01*
X011696712Y-14780270D02*
X011682147Y-14763428D01*
X011682147Y-14763428D02*
X011669304Y-14717757D01*
X011669304Y-14717757D02*
X011670509Y-14677255D01*
X011670509Y-14677255D02*
X011683654Y-14647928D01*
X011683654Y-14647928D02*
X011707246Y-14627837D01*
X011707246Y-14627837D02*
X011739793Y-14615041D01*
X011739793Y-14615041D02*
X011802142Y-14605283D01*
X011802142Y-14605283D02*
X012017421Y-14597661D01*
X011838640Y-14578286D02*
X011653780Y-14346121D01*
X011281440Y-14735916D02*
X011270791Y-14770795D01*
X011270791Y-14770795D02*
X011239326Y-14803324D01*
X011239326Y-14803324D02*
X011187760Y-14825383D01*
X011187760Y-14825383D02*
X011154663Y-14829931D01*
X011154663Y-14829931D02*
X011097403Y-14825741D01*
X011097403Y-14825741D02*
X011054448Y-14806906D01*
X011054448Y-14806906D02*
X011030959Y-14778024D01*
X011030959Y-14778024D02*
X011022522Y-14744461D01*
X011022522Y-14744461D02*
X011023082Y-14722136D01*
X011023082Y-14722136D02*
X011033164Y-14684766D01*
X011033164Y-14684766D02*
X011076926Y-14612108D01*
X011076926Y-14612108D02*
X011187132Y-14473893D01*
X011187132Y-14473893D02*
X011303013Y-14346768D01*
X011303013Y-14346768D02*
X010993003Y-14346768D01*
X010455957Y-14829931D02*
X010522059Y-14812030D01*
X010522059Y-14812030D02*
X010581245Y-14757485D01*
X010581245Y-14757485D02*
X010613528Y-14678291D01*
X010613528Y-14678291D02*
X010621215Y-14560845D01*
X010621215Y-14560845D02*
X010602767Y-14462377D01*
X010602767Y-14462377D02*
X010555111Y-14380776D01*
X010555111Y-14380776D02*
X010486701Y-14337550D01*
X010486701Y-14337550D02*
X010425210Y-14337550D01*
X010425210Y-14337550D02*
X010356799Y-14380776D01*
X010356799Y-14380776D02*
X010309144Y-14462377D01*
X010309144Y-14462377D02*
X010290696Y-14560845D01*
X010290696Y-14560845D02*
X010298382Y-14678291D01*
X010298382Y-14678291D02*
X010330666Y-14757485D01*
X010330666Y-14757485D02*
X010389852Y-14812030D01*
X010389852Y-14812030D02*
X010455957Y-14829931D01*
D50*
X007426212Y-16660603D02*
X008385087Y-16660603D01*
X008385087Y-15339397D01*
X007426212Y-15339397D01*
D50*
X006573788Y-16660603D02*
X005614913Y-16660603D01*
X005614913Y-15339397D01*
X006573788Y-15339397D01*
D51*
X005973660Y-14650478D02*
X005973660Y-14191589D01*
X005973660Y-14191589D02*
X006108211Y-14179297D01*
X006108211Y-14179297D02*
X006202649Y-14183407D01*
X006202649Y-14183407D02*
X006259618Y-14196035D01*
X006259618Y-14196035D02*
X006283573Y-14206330D01*
X006283573Y-14206330D02*
X006303288Y-14219730D01*
X006303288Y-14219730D02*
X006317853Y-14236572D01*
X006317853Y-14236572D02*
X006330696Y-14282243D01*
X006330696Y-14282243D02*
X006329491Y-14322745D01*
X006329491Y-14322745D02*
X006316346Y-14352072D01*
X006316346Y-14352072D02*
X006292754Y-14372163D01*
X006292754Y-14372163D02*
X006260208Y-14384959D01*
X006260208Y-14384959D02*
X006197859Y-14394717D01*
X006197859Y-14394717D02*
X005982579Y-14402339D01*
X006161360Y-14421714D02*
X006346220Y-14653879D01*
X006718560Y-14264084D02*
X006729209Y-14229205D01*
X006729209Y-14229205D02*
X006760674Y-14196676D01*
X006760674Y-14196676D02*
X006812240Y-14174617D01*
X006812240Y-14174617D02*
X006845337Y-14170069D01*
X006845337Y-14170069D02*
X006902597Y-14174259D01*
X006902597Y-14174259D02*
X006945552Y-14193094D01*
X006945552Y-14193094D02*
X006969041Y-14221976D01*
X006969041Y-14221976D02*
X006977478Y-14255539D01*
X006977478Y-14255539D02*
X006976918Y-14277864D01*
X006976918Y-14277864D02*
X006966836Y-14315234D01*
X006966836Y-14315234D02*
X006923074Y-14387892D01*
X006923074Y-14387892D02*
X006812868Y-14526107D01*
X006812868Y-14526107D02*
X006696987Y-14653232D01*
X006696987Y-14653232D02*
X007006997Y-14653232D01*
X007487624Y-14275515D02*
X007600464Y-14179297D01*
X007600464Y-14179297D02*
X007600464Y-14653876D01*
D50*
X022426212Y-13660603D02*
X023385087Y-13660603D01*
X023385087Y-12339397D01*
X022426212Y-12339397D01*
D50*
X021573788Y-13660603D02*
X020614913Y-13660603D01*
X020614913Y-12339397D01*
X021573788Y-12339397D01*
D51*
X020973660Y-11650478D02*
X020973660Y-11191589D01*
X020973660Y-11191589D02*
X021108211Y-11179297D01*
X021108211Y-11179297D02*
X021202649Y-11183407D01*
X021202649Y-11183407D02*
X021259618Y-11196035D01*
X021259618Y-11196035D02*
X021283573Y-11206330D01*
X021283573Y-11206330D02*
X021303288Y-11219730D01*
X021303288Y-11219730D02*
X021317853Y-11236572D01*
X021317853Y-11236572D02*
X021330696Y-11282243D01*
X021330696Y-11282243D02*
X021329491Y-11322745D01*
X021329491Y-11322745D02*
X021316346Y-11352072D01*
X021316346Y-11352072D02*
X021292754Y-11372163D01*
X021292754Y-11372163D02*
X021260208Y-11384959D01*
X021260208Y-11384959D02*
X021197859Y-11394717D01*
X021197859Y-11394717D02*
X020982579Y-11402339D01*
X021161360Y-11421714D02*
X021346220Y-11653879D01*
X021718560Y-11264084D02*
X021729209Y-11229205D01*
X021729209Y-11229205D02*
X021760674Y-11196676D01*
X021760674Y-11196676D02*
X021812240Y-11174617D01*
X021812240Y-11174617D02*
X021845337Y-11170069D01*
X021845337Y-11170069D02*
X021902597Y-11174259D01*
X021902597Y-11174259D02*
X021945552Y-11193094D01*
X021945552Y-11193094D02*
X021969041Y-11221976D01*
X021969041Y-11221976D02*
X021977478Y-11255539D01*
X021977478Y-11255539D02*
X021976918Y-11277864D01*
X021976918Y-11277864D02*
X021966836Y-11315234D01*
X021966836Y-11315234D02*
X021923074Y-11387892D01*
X021923074Y-11387892D02*
X021812868Y-11526107D01*
X021812868Y-11526107D02*
X021696987Y-11653232D01*
X021696987Y-11653232D02*
X022006997Y-11653232D01*
X022410612Y-11264084D02*
X022421261Y-11229205D01*
X022421261Y-11229205D02*
X022452726Y-11196676D01*
X022452726Y-11196676D02*
X022504292Y-11174617D01*
X022504292Y-11174617D02*
X022537389Y-11170069D01*
X022537389Y-11170069D02*
X022594649Y-11174259D01*
X022594649Y-11174259D02*
X022637604Y-11193094D01*
X022637604Y-11193094D02*
X022661093Y-11221976D01*
X022661093Y-11221976D02*
X022669530Y-11255539D01*
X022669530Y-11255539D02*
X022668970Y-11277864D01*
X022668970Y-11277864D02*
X022658888Y-11315234D01*
X022658888Y-11315234D02*
X022615126Y-11387892D01*
X022615126Y-11387892D02*
X022504920Y-11526107D01*
X022504920Y-11526107D02*
X022389039Y-11653232D01*
X022389039Y-11653232D02*
X022699049Y-11653232D01*
D50*
X026426212Y-16660603D02*
X027385087Y-16660603D01*
X027385087Y-15339397D01*
X026426212Y-15339397D01*
D50*
X025573788Y-16660603D02*
X024614913Y-16660603D01*
X024614913Y-15339397D01*
X025573788Y-15339397D01*
D51*
X024973660Y-14650478D02*
X024973660Y-14191589D01*
X024973660Y-14191589D02*
X025108211Y-14179297D01*
X025108211Y-14179297D02*
X025202649Y-14183407D01*
X025202649Y-14183407D02*
X025259618Y-14196035D01*
X025259618Y-14196035D02*
X025283573Y-14206330D01*
X025283573Y-14206330D02*
X025303288Y-14219730D01*
X025303288Y-14219730D02*
X025317853Y-14236572D01*
X025317853Y-14236572D02*
X025330696Y-14282243D01*
X025330696Y-14282243D02*
X025329491Y-14322745D01*
X025329491Y-14322745D02*
X025316346Y-14352072D01*
X025316346Y-14352072D02*
X025292754Y-14372163D01*
X025292754Y-14372163D02*
X025260208Y-14384959D01*
X025260208Y-14384959D02*
X025197859Y-14394717D01*
X025197859Y-14394717D02*
X024982579Y-14402339D01*
X025161360Y-14421714D02*
X025346220Y-14653879D01*
X025718560Y-14264084D02*
X025729209Y-14229205D01*
X025729209Y-14229205D02*
X025760674Y-14196676D01*
X025760674Y-14196676D02*
X025812240Y-14174617D01*
X025812240Y-14174617D02*
X025845337Y-14170069D01*
X025845337Y-14170069D02*
X025902597Y-14174259D01*
X025902597Y-14174259D02*
X025945552Y-14193094D01*
X025945552Y-14193094D02*
X025969041Y-14221976D01*
X025969041Y-14221976D02*
X025977478Y-14255539D01*
X025977478Y-14255539D02*
X025976918Y-14277864D01*
X025976918Y-14277864D02*
X025966836Y-14315234D01*
X025966836Y-14315234D02*
X025923074Y-14387892D01*
X025923074Y-14387892D02*
X025812868Y-14526107D01*
X025812868Y-14526107D02*
X025696987Y-14653232D01*
X025696987Y-14653232D02*
X026006997Y-14653232D01*
X026390450Y-14231151D02*
X026416734Y-14210543D01*
X026416734Y-14210543D02*
X026458623Y-14188464D01*
X026458623Y-14188464D02*
X026512012Y-14170069D01*
X026512012Y-14170069D02*
X026577719Y-14173743D01*
X026577719Y-14173743D02*
X026635215Y-14192144D01*
X026635215Y-14192144D02*
X026676284Y-14225263D01*
X026676284Y-14225263D02*
X026700925Y-14265744D01*
X026700925Y-14265744D02*
X026692711Y-14309904D01*
X026692711Y-14309904D02*
X026659856Y-14343024D01*
X026659856Y-14343024D02*
X026602360Y-14368784D01*
X026602360Y-14368784D02*
X026536651Y-14383504D01*
X026536651Y-14383504D02*
X026479157Y-14390865D01*
X026479157Y-14390865D02*
X026536651Y-14398224D01*
X026536651Y-14398224D02*
X026602360Y-14416625D01*
X026602360Y-14416625D02*
X026659856Y-14446064D01*
X026659856Y-14446064D02*
X026696818Y-14486545D01*
X026696818Y-14486545D02*
X026705031Y-14530705D01*
X026705031Y-14530705D02*
X026688604Y-14578546D01*
X026688604Y-14578546D02*
X026651643Y-14619025D01*
X026651643Y-14619025D02*
X026594146Y-14652146D01*
X026594146Y-14652146D02*
X026550614Y-14662450D01*
X026550614Y-14662450D02*
X026479978Y-14660978D01*
X026479978Y-14660978D02*
X026422483Y-14652146D01*
X026422483Y-14652146D02*
X026383058Y-14640370D01*
D50*
X-18573788Y009339397D02*
X-17614913Y009339397D01*
X-17614913Y010660603D01*
X-18573788Y010660603D01*
D50*
X-19426212Y009339397D02*
X-20385087Y009339397D01*
X-20385087Y010660603D01*
X-19426212Y010660603D01*
D51*
X-20026340Y011349522D02*
X-20026340Y011808411D01*
X-20026340Y011808411D02*
X-19891789Y011820703D01*
X-19891789Y011820703D02*
X-19797351Y011816593D01*
X-19797351Y011816593D02*
X-19740382Y011803965D01*
X-19740382Y011803965D02*
X-19716427Y011793670D01*
X-19716427Y011793670D02*
X-19696712Y011780270D01*
X-19696712Y011780270D02*
X-19682147Y011763428D01*
X-19682147Y011763428D02*
X-19669304Y011717757D01*
X-19669304Y011717757D02*
X-19670509Y011677255D01*
X-19670509Y011677255D02*
X-19683654Y011647928D01*
X-19683654Y011647928D02*
X-19707246Y011627837D01*
X-19707246Y011627837D02*
X-19739792Y011615041D01*
X-19739792Y011615041D02*
X-19802141Y011605283D01*
X-19802141Y011605283D02*
X-20017421Y011597661D01*
X-19838640Y011578286D02*
X-19653780Y011346121D01*
X-19281440Y011735916D02*
X-19270791Y011770795D01*
X-19270791Y011770795D02*
X-19239326Y011803324D01*
X-19239326Y011803324D02*
X-19187760Y011825383D01*
X-19187760Y011825383D02*
X-19154663Y011829931D01*
X-19154663Y011829931D02*
X-19097403Y011825741D01*
X-19097403Y011825741D02*
X-19054448Y011806907D01*
X-19054448Y011806907D02*
X-19030959Y011778024D01*
X-19030959Y011778024D02*
X-19022522Y011744461D01*
X-19022522Y011744461D02*
X-19023082Y011722136D01*
X-19023082Y011722136D02*
X-19033164Y011684766D01*
X-19033164Y011684766D02*
X-19076926Y011612108D01*
X-19076926Y011612108D02*
X-19187132Y011473893D01*
X-19187132Y011473893D02*
X-19303013Y011346769D01*
X-19303013Y011346769D02*
X-18993003Y011346769D01*
X-18373728Y011820703D02*
X-18632494Y011503461D01*
X-18632494Y011503461D02*
X-18279417Y011503461D01*
X-18376747Y011605683D02*
X-18376747Y011346121D01*
D50*
X-14573788Y009339397D02*
X-13614913Y009339397D01*
X-13614913Y010660603D01*
X-14573788Y010660603D01*
D50*
X-15426212Y009339397D02*
X-16385087Y009339397D01*
X-16385087Y010660603D01*
X-15426212Y010660603D01*
D51*
X-16026340Y011349522D02*
X-16026340Y011808411D01*
X-16026340Y011808411D02*
X-15891789Y011820703D01*
X-15891789Y011820703D02*
X-15797351Y011816593D01*
X-15797351Y011816593D02*
X-15740382Y011803965D01*
X-15740382Y011803965D02*
X-15716427Y011793670D01*
X-15716427Y011793670D02*
X-15696712Y011780270D01*
X-15696712Y011780270D02*
X-15682147Y011763428D01*
X-15682147Y011763428D02*
X-15669304Y011717757D01*
X-15669304Y011717757D02*
X-15670509Y011677255D01*
X-15670509Y011677255D02*
X-15683654Y011647928D01*
X-15683654Y011647928D02*
X-15707246Y011627837D01*
X-15707246Y011627837D02*
X-15739793Y011615041D01*
X-15739793Y011615041D02*
X-15802142Y011605283D01*
X-15802142Y011605283D02*
X-16017421Y011597661D01*
X-15838640Y011578286D02*
X-15653780Y011346121D01*
X-15281440Y011735916D02*
X-15270791Y011770795D01*
X-15270791Y011770795D02*
X-15239326Y011803324D01*
X-15239326Y011803324D02*
X-15187760Y011825383D01*
X-15187760Y011825383D02*
X-15154663Y011829931D01*
X-15154663Y011829931D02*
X-15097403Y011825741D01*
X-15097403Y011825741D02*
X-15054448Y011806907D01*
X-15054448Y011806907D02*
X-15030959Y011778024D01*
X-15030959Y011778024D02*
X-15022522Y011744461D01*
X-15022522Y011744461D02*
X-15023082Y011722136D01*
X-15023082Y011722136D02*
X-15033164Y011684766D01*
X-15033164Y011684766D02*
X-15076926Y011612108D01*
X-15076926Y011612108D02*
X-15187132Y011473893D01*
X-15187132Y011473893D02*
X-15303013Y011346769D01*
X-15303013Y011346769D02*
X-14993003Y011346769D01*
X-14614208Y011820703D02*
X-14614208Y011580109D01*
X-14614208Y011580109D02*
X-14479316Y011611750D01*
X-14479316Y011611750D02*
X-14383001Y011599849D01*
X-14383001Y011599849D02*
X-14344673Y011578368D01*
X-14344673Y011578368D02*
X-14318054Y011547888D01*
X-14318054Y011547888D02*
X-14297703Y011464819D01*
X-14297703Y011464819D02*
X-14307328Y011421666D01*
X-14307328Y011421666D02*
X-14332582Y011387702D01*
X-14332582Y011387702D02*
X-14382209Y011356159D01*
X-14382209Y011356159D02*
X-14439563Y011339564D01*
X-14439563Y011339564D02*
X-14493495Y011336903D01*
X-14493495Y011336903D02*
X-14538913Y011345563D01*
X-14538913Y011345563D02*
X-14575626Y011362544D01*
X-14575626Y011362544D02*
X-14614208Y011397475D01*
X-14614208Y011820703D02*
X-14297703Y011820703D01*
D50*
X-35721385Y010497535D02*
X-35221386Y010497535D01*
D50*
X-35873811Y009652757D02*
X-35873811Y010345161D01*
D50*
X-35221386Y009500357D02*
X-35721385Y009500357D01*
D50*
X-34278615Y009502490D02*
X-34778614Y009502490D01*
D50*
X-34778614Y010499618D02*
X-34278615Y010499618D01*
D50*
X-34126189Y010347269D02*
X-34126189Y009654839D01*
D50*
X-34278615Y010499643D02*
X-34170852Y010455006D01*
X-34126215Y010347243D01*
D50*
X-34126215Y009654839D02*
X-34170852Y009547076D01*
X-34278615Y009502439D01*
D50*
X-35721385Y009500357D02*
X-35829148Y009544994D01*
X-35873785Y009652757D01*
D50*
X-35873785Y010345161D02*
X-35829148Y010452924D01*
X-35721385Y010497561D01*
D51*
X-35309014Y011564107D02*
X-35330454Y011616363D01*
X-35330454Y011616363D02*
X-35369785Y011653361D01*
X-35369785Y011653361D02*
X-35444271Y011677531D01*
X-35444271Y011677531D02*
X-35499313Y011670150D01*
X-35499313Y011670150D02*
X-35547818Y011645376D01*
X-35547818Y011645376D02*
X-35595182Y011588198D01*
X-35595182Y011588198D02*
X-35628253Y011438109D01*
X-35628253Y011438109D02*
X-35602301Y011287231D01*
X-35602301Y011287231D02*
X-35563585Y011226472D01*
X-35563585Y011226472D02*
X-35523334Y011198039D01*
X-35523334Y011198039D02*
X-35444919Y011185150D01*
X-35444919Y011185150D02*
X-35376581Y011201625D01*
X-35376581Y011201625D02*
X-35325981Y011249701D01*
X-35325981Y011249701D02*
X-35309014Y011317555D01*
X-34833002Y011572085D02*
X-34720162Y011668303D01*
X-34720162Y011668303D02*
X-34720162Y011193724D01*
D50*
X-28721385Y-06502465D02*
X-28221386Y-06502465D01*
D50*
X-28873811Y-07347243D02*
X-28873811Y-06654839D01*
D50*
X-28221386Y-07499643D02*
X-28721385Y-07499643D01*
D50*
X-27278615Y-07497510D02*
X-27778614Y-07497510D01*
D50*
X-27778614Y-06500382D02*
X-27278615Y-06500382D01*
D50*
X-27126189Y-06652731D02*
X-27126189Y-07345161D01*
D50*
X-27278615Y-06500357D02*
X-27170852Y-06544994D01*
X-27126215Y-06652757D01*
D50*
X-27126215Y-07345161D02*
X-27170852Y-07452924D01*
X-27278615Y-07497561D01*
D50*
X-28721385Y-07499643D02*
X-28829148Y-07455006D01*
X-28873785Y-07347243D01*
D50*
X-28873785Y-06654839D02*
X-28829148Y-06547076D01*
X-28721385Y-06502439D01*
D51*
X-28309014Y-05435893D02*
X-28330455Y-05383637D01*
X-28330455Y-05383637D02*
X-28369785Y-05346639D01*
X-28369785Y-05346639D02*
X-28444271Y-05322469D01*
X-28444271Y-05322469D02*
X-28499313Y-05329850D01*
X-28499313Y-05329850D02*
X-28547818Y-05354624D01*
X-28547818Y-05354624D02*
X-28595182Y-05411802D01*
X-28595182Y-05411802D02*
X-28628253Y-05561891D01*
X-28628253Y-05561891D02*
X-28602301Y-05712769D01*
X-28602301Y-05712769D02*
X-28563585Y-05773528D01*
X-28563585Y-05773528D02*
X-28523334Y-05801961D01*
X-28523334Y-05801961D02*
X-28444919Y-05814850D01*
X-28444919Y-05814850D02*
X-28376581Y-05798375D01*
X-28376581Y-05798375D02*
X-28325981Y-05750299D01*
X-28325981Y-05750299D02*
X-28309014Y-05682446D01*
X-27910014Y-05416484D02*
X-27899365Y-05381605D01*
X-27899365Y-05381605D02*
X-27867900Y-05349076D01*
X-27867900Y-05349076D02*
X-27816334Y-05327017D01*
X-27816334Y-05327017D02*
X-27783237Y-05322469D01*
X-27783237Y-05322469D02*
X-27725977Y-05326659D01*
X-27725977Y-05326659D02*
X-27683022Y-05345494D01*
X-27683022Y-05345494D02*
X-27659533Y-05374376D01*
X-27659533Y-05374376D02*
X-27651096Y-05407939D01*
X-27651096Y-05407939D02*
X-27651656Y-05430264D01*
X-27651656Y-05430264D02*
X-27661738Y-05467634D01*
X-27661738Y-05467634D02*
X-27705500Y-05540292D01*
X-27705500Y-05540292D02*
X-27815706Y-05678507D01*
X-27815706Y-05678507D02*
X-27931587Y-05805632D01*
X-27931587Y-05805632D02*
X-27621577Y-05805632D01*
D50*
X-20988802Y-09096395D02*
X-22398807Y-09096395D01*
D50*
X-22398807Y-10903605D02*
X-20988802Y-10903605D01*
D50*
X-20836402Y-10751205D02*
X-20836402Y-09248795D01*
D50*
X-24611198Y-09096395D02*
X-23201193Y-09096395D01*
D50*
X-23201193Y-10903605D02*
X-24611198Y-10903605D01*
D50*
X-24763598Y-10751205D02*
X-24763598Y-09248795D01*
D50*
X-20988802Y-10903605D02*
X-20881039Y-10858968D01*
X-20836402Y-10751205D01*
D50*
X-20836402Y-09248795D02*
X-20881039Y-09141032D01*
X-20988802Y-09096395D01*
D50*
X-24611198Y-10903605D02*
X-24718961Y-10858968D01*
X-24763598Y-10751205D01*
D50*
X-24763598Y-09248795D02*
X-24718961Y-09141032D01*
X-24611198Y-09096395D01*
D51*
X-23109014Y-08029493D02*
X-23130455Y-07977237D01*
X-23130455Y-07977237D02*
X-23169785Y-07940239D01*
X-23169785Y-07940239D02*
X-23244271Y-07916069D01*
X-23244271Y-07916069D02*
X-23299313Y-07923450D01*
X-23299313Y-07923450D02*
X-23347818Y-07948224D01*
X-23347818Y-07948224D02*
X-23395182Y-08005402D01*
X-23395182Y-08005402D02*
X-23428253Y-08155491D01*
X-23428253Y-08155491D02*
X-23402301Y-08306369D01*
X-23402301Y-08306369D02*
X-23363585Y-08367128D01*
X-23363585Y-08367128D02*
X-23323334Y-08395561D01*
X-23323334Y-08395561D02*
X-23244919Y-08408450D01*
X-23244919Y-08408450D02*
X-23176581Y-08391975D01*
X-23176581Y-08391975D02*
X-23125981Y-08343899D01*
X-23125981Y-08343899D02*
X-23109014Y-08276045D01*
X-22730176Y-07977151D02*
X-22703892Y-07956543D01*
X-22703892Y-07956543D02*
X-22662003Y-07934464D01*
X-22662003Y-07934464D02*
X-22608615Y-07916069D01*
X-22608615Y-07916069D02*
X-22542907Y-07919743D01*
X-22542907Y-07919743D02*
X-22485411Y-07938144D01*
X-22485411Y-07938144D02*
X-22444342Y-07971263D01*
X-22444342Y-07971263D02*
X-22419701Y-08011744D01*
X-22419701Y-08011744D02*
X-22427915Y-08055904D01*
X-22427915Y-08055904D02*
X-22460770Y-08089024D01*
X-22460770Y-08089024D02*
X-22518266Y-08114784D01*
X-22518266Y-08114784D02*
X-22583975Y-08129504D01*
X-22583975Y-08129504D02*
X-22641469Y-08136865D01*
X-22641469Y-08136865D02*
X-22583975Y-08144224D01*
X-22583975Y-08144224D02*
X-22518266Y-08162625D01*
X-22518266Y-08162625D02*
X-22460770Y-08192064D01*
X-22460770Y-08192064D02*
X-22423808Y-08232545D01*
X-22423808Y-08232545D02*
X-22415595Y-08276705D01*
X-22415595Y-08276705D02*
X-22432022Y-08324546D01*
X-22432022Y-08324546D02*
X-22468983Y-08365025D01*
X-22468983Y-08365025D02*
X-22526480Y-08398146D01*
X-22526480Y-08398146D02*
X-22570012Y-08408450D01*
X-22570012Y-08408450D02*
X-22640648Y-08406978D01*
X-22640648Y-08406978D02*
X-22698143Y-08398146D01*
X-22698143Y-08398146D02*
X-22737568Y-08386370D01*
D50*
X-13497535Y005278615D02*
X-13497535Y005778614D01*
D50*
X-12652757Y005126189D02*
X-13345161Y005126189D01*
D50*
X-12500357Y005778614D02*
X-12500357Y005278615D01*
D50*
X-12502490Y006721385D02*
X-12502490Y006221386D01*
D50*
X-13499618Y006221386D02*
X-13499618Y006721385D01*
D50*
X-13347269Y006873811D02*
X-12654839Y006873811D01*
D50*
X-13499643Y006721385D02*
X-13455006Y006829148D01*
X-13347243Y006873785D01*
D50*
X-12654839Y006873785D02*
X-12547076Y006829148D01*
X-12502439Y006721385D01*
D50*
X-12500357Y005278615D02*
X-12544994Y005170852D01*
X-12652757Y005126215D01*
D50*
X-13345161Y005126215D02*
X-13452924Y005170852D01*
X-13497561Y005278615D01*
D51*
X-14564107Y005690986D02*
X-14616363Y005669545D01*
X-14616363Y005669545D02*
X-14653361Y005630215D01*
X-14653361Y005630215D02*
X-14677531Y005555729D01*
X-14677531Y005555729D02*
X-14670150Y005500687D01*
X-14670150Y005500687D02*
X-14645376Y005452182D01*
X-14645376Y005452182D02*
X-14588198Y005404818D01*
X-14588198Y005404818D02*
X-14438109Y005371747D01*
X-14438109Y005371747D02*
X-14287231Y005397699D01*
X-14287231Y005397699D02*
X-14226472Y005436415D01*
X-14226472Y005436415D02*
X-14198039Y005476666D01*
X-14198039Y005476666D02*
X-14185150Y005555081D01*
X-14185150Y005555081D02*
X-14201625Y005623419D01*
X-14201625Y005623419D02*
X-14249701Y005674019D01*
X-14249701Y005674019D02*
X-14317555Y005690986D01*
X-14668303Y006305646D02*
X-14351061Y006046880D01*
X-14351061Y006046880D02*
X-14351061Y006399957D01*
X-14453283Y006302627D02*
X-14193721Y006302627D01*
D50*
X-15497535Y005278615D02*
X-15497535Y005778614D01*
D50*
X-14652757Y005126189D02*
X-15345161Y005126189D01*
D50*
X-14500357Y005778614D02*
X-14500357Y005278615D01*
D50*
X-14502490Y006721385D02*
X-14502490Y006221386D01*
D50*
X-15499618Y006221386D02*
X-15499618Y006721385D01*
D50*
X-15347269Y006873811D02*
X-14654839Y006873811D01*
D50*
X-15499643Y006721385D02*
X-15455006Y006829148D01*
X-15347243Y006873785D01*
D50*
X-14654839Y006873785D02*
X-14547076Y006829148D01*
X-14502439Y006721385D01*
D50*
X-14500357Y005278615D02*
X-14544994Y005170852D01*
X-14652757Y005126215D01*
D50*
X-15345161Y005126215D02*
X-15452924Y005170852D01*
X-15497561Y005278615D01*
D51*
X-16564107Y005690986D02*
X-16616363Y005669545D01*
X-16616363Y005669545D02*
X-16653361Y005630215D01*
X-16653361Y005630215D02*
X-16677531Y005555729D01*
X-16677531Y005555729D02*
X-16670150Y005500687D01*
X-16670150Y005500687D02*
X-16645376Y005452182D01*
X-16645376Y005452182D02*
X-16588198Y005404818D01*
X-16588198Y005404818D02*
X-16438109Y005371747D01*
X-16438109Y005371747D02*
X-16287231Y005397699D01*
X-16287231Y005397699D02*
X-16226472Y005436415D01*
X-16226472Y005436415D02*
X-16198039Y005476666D01*
X-16198039Y005476666D02*
X-16185150Y005555081D01*
X-16185150Y005555081D02*
X-16201625Y005623419D01*
X-16201625Y005623419D02*
X-16249701Y005674019D01*
X-16249701Y005674019D02*
X-16317555Y005690986D01*
X-16668303Y006065166D02*
X-16427709Y006065166D01*
X-16427709Y006065166D02*
X-16459350Y006200058D01*
X-16459350Y006200058D02*
X-16447449Y006296373D01*
X-16447449Y006296373D02*
X-16425968Y006334701D01*
X-16425968Y006334701D02*
X-16395488Y006361320D01*
X-16395488Y006361320D02*
X-16312419Y006381671D01*
X-16312419Y006381671D02*
X-16269266Y006372046D01*
X-16269266Y006372046D02*
X-16235302Y006346792D01*
X-16235302Y006346792D02*
X-16203759Y006297165D01*
X-16203759Y006297165D02*
X-16187164Y006239811D01*
X-16187164Y006239811D02*
X-16184503Y006185879D01*
X-16184503Y006185879D02*
X-16193163Y006140461D01*
X-16193163Y006140461D02*
X-16210144Y006103748D01*
X-16210144Y006103748D02*
X-16245075Y006065166D01*
X-16668303Y006065166D02*
X-16668303Y006381671D01*
D50*
X-11297535Y-07221385D02*
X-11297535Y-06721386D01*
D50*
X-10452757Y-07373811D02*
X-11145161Y-07373811D01*
D50*
X-10300357Y-06721386D02*
X-10300357Y-07221385D01*
D50*
X-10302490Y-05778615D02*
X-10302490Y-06278614D01*
D50*
X-11299618Y-06278614D02*
X-11299618Y-05778615D01*
D50*
X-11147269Y-05626189D02*
X-10454839Y-05626189D01*
D50*
X-11299643Y-05778615D02*
X-11255006Y-05670852D01*
X-11147243Y-05626215D01*
D50*
X-10454839Y-05626215D02*
X-10347076Y-05670852D01*
X-10302439Y-05778615D01*
D50*
X-10300357Y-07221385D02*
X-10344994Y-07329148D01*
X-10452757Y-07373785D01*
D50*
X-11145161Y-07373785D02*
X-11252924Y-07329148D01*
X-11297561Y-07221385D01*
D51*
X-12364107Y-06809014D02*
X-12416363Y-06830455D01*
X-12416363Y-06830455D02*
X-12453361Y-06869785D01*
X-12453361Y-06869785D02*
X-12477531Y-06944271D01*
X-12477531Y-06944271D02*
X-12470150Y-06999313D01*
X-12470150Y-06999313D02*
X-12445376Y-07047818D01*
X-12445376Y-07047818D02*
X-12388198Y-07095182D01*
X-12388198Y-07095182D02*
X-12238109Y-07128253D01*
X-12238109Y-07128253D02*
X-12087230Y-07102301D01*
X-12087230Y-07102301D02*
X-12026472Y-07063585D01*
X-12026472Y-07063585D02*
X-11998039Y-07023334D01*
X-11998039Y-07023334D02*
X-11985150Y-06944919D01*
X-11985150Y-06944919D02*
X-12001625Y-06876581D01*
X-12001625Y-06876581D02*
X-12049701Y-06825981D01*
X-12049701Y-06825981D02*
X-12117554Y-06809014D01*
X-12477531Y-06187316D02*
X-12458463Y-06248297D01*
X-12458463Y-06248297D02*
X-12439531Y-06304789D01*
X-12439531Y-06304789D02*
X-12405873Y-06352768D01*
X-12405873Y-06352768D02*
X-12370322Y-06390069D01*
X-12370322Y-06390069D02*
X-12307705Y-06418547D01*
X-12307705Y-06418547D02*
X-12249013Y-06438126D01*
X-12249013Y-06438126D02*
X-12188499Y-06440215D01*
X-12188499Y-06440215D02*
X-12128196Y-06441685D01*
X-12128196Y-06441685D02*
X-12083319Y-06426286D01*
X-12083319Y-06426286D02*
X-12055271Y-06411582D01*
X-12055271Y-06411582D02*
X-12018808Y-06376759D01*
X-12018808Y-06376759D02*
X-11994266Y-06339613D01*
X-11994266Y-06339613D02*
X-11985150Y-06282347D01*
X-11985150Y-06282347D02*
X-11988656Y-06218116D01*
X-11988656Y-06218116D02*
X-12011094Y-06167814D01*
X-12011094Y-06167814D02*
X-12041246Y-06132217D01*
X-12041246Y-06132217D02*
X-12082617Y-06112870D01*
X-12082617Y-06112870D02*
X-12117678Y-06111322D01*
X-12117678Y-06111322D02*
X-12154841Y-06122156D01*
X-12154841Y-06122156D02*
X-12186396Y-06138407D01*
X-12186396Y-06138407D02*
X-12212340Y-06163171D01*
X-12212340Y-06163171D02*
X-12228468Y-06197221D01*
X-12228468Y-06197221D02*
X-12238986Y-06244428D01*
X-12238986Y-06244428D02*
X-12241089Y-06289312D01*
X-12241089Y-06289312D02*
X-12234077Y-06336518D01*
X-12234077Y-06336518D02*
X-12208834Y-06385271D01*
X-12208834Y-06385271D02*
X-12182890Y-06410808D01*
X-12182890Y-06410808D02*
X-12151196Y-06441841D01*
D50*
X-08997535Y-07121385D02*
X-08997535Y-06621386D01*
D50*
X-08152757Y-07273811D02*
X-08845161Y-07273811D01*
D50*
X-08000357Y-06621386D02*
X-08000357Y-07121385D01*
D50*
X-08002490Y-05678615D02*
X-08002490Y-06178614D01*
D50*
X-08999618Y-06178614D02*
X-08999618Y-05678615D01*
D50*
X-08847269Y-05526189D02*
X-08154839Y-05526189D01*
D50*
X-08999643Y-05678615D02*
X-08955006Y-05570852D01*
X-08847243Y-05526215D01*
D50*
X-08154839Y-05526215D02*
X-08047076Y-05570852D01*
X-08002439Y-05678615D01*
D50*
X-08000357Y-07121385D02*
X-08044994Y-07229148D01*
X-08152757Y-07273785D01*
D50*
X-08845161Y-07273785D02*
X-08952924Y-07229148D01*
X-08997561Y-07121385D01*
D51*
X-10064107Y-06709014D02*
X-10116363Y-06730455D01*
X-10116363Y-06730455D02*
X-10153361Y-06769785D01*
X-10153361Y-06769785D02*
X-10177531Y-06844271D01*
X-10177531Y-06844271D02*
X-10170150Y-06899313D01*
X-10170150Y-06899313D02*
X-10145376Y-06947818D01*
X-10145376Y-06947818D02*
X-10088198Y-06995182D01*
X-10088198Y-06995182D02*
X-09938109Y-07028253D01*
X-09938109Y-07028253D02*
X-09787231Y-07002301D01*
X-09787231Y-07002301D02*
X-09726472Y-06963585D01*
X-09726472Y-06963585D02*
X-09698039Y-06923334D01*
X-09698039Y-06923334D02*
X-09685150Y-06844919D01*
X-09685150Y-06844919D02*
X-09701625Y-06776581D01*
X-09701625Y-06776581D02*
X-09749701Y-06725981D01*
X-09749701Y-06725981D02*
X-09817555Y-06709014D01*
X-10168303Y-06337226D02*
X-10168303Y-06015937D01*
X-10168303Y-06015937D02*
X-10153809Y-06040146D01*
X-10153809Y-06040146D02*
X-10144215Y-06052874D01*
X-10144215Y-06052874D02*
X-10115722Y-06082670D01*
X-10115722Y-06082670D02*
X-10096105Y-06098853D01*
X-10096105Y-06098853D02*
X-10072428Y-06115305D01*
X-10072428Y-06115305D02*
X-10044331Y-06131580D01*
X-10044331Y-06131580D02*
X-10011457Y-06147240D01*
X-10011457Y-06147240D02*
X-09973444Y-06161843D01*
X-09973444Y-06161843D02*
X-09929933Y-06174945D01*
X-09929933Y-06174945D02*
X-09880565Y-06186109D01*
X-09880565Y-06186109D02*
X-09794745Y-06198246D01*
X-09794745Y-06198246D02*
X-09693721Y-06203529D01*
D50*
X-04097535Y001278615D02*
X-04097535Y001778614D01*
D50*
X-03252757Y001126189D02*
X-03945161Y001126189D01*
D50*
X-03100357Y001778614D02*
X-03100357Y001278615D01*
D50*
X-03102490Y002721385D02*
X-03102490Y002221386D01*
D50*
X-04099618Y002221386D02*
X-04099618Y002721385D01*
D50*
X-03947269Y002873811D02*
X-03254839Y002873811D01*
D50*
X-04099643Y002721385D02*
X-04055006Y002829148D01*
X-03947243Y002873785D01*
D50*
X-03254839Y002873785D02*
X-03147076Y002829148D01*
X-03102439Y002721385D01*
D50*
X-03100357Y001278615D02*
X-03144994Y001170852D01*
X-03252757Y001126215D01*
D50*
X-03945161Y001126215D02*
X-04052924Y001170852D01*
X-04097561Y001278615D01*
D51*
X-05164107Y001690986D02*
X-05216363Y001669546D01*
X-05216363Y001669546D02*
X-05253361Y001630215D01*
X-05253361Y001630215D02*
X-05277531Y001555729D01*
X-05277531Y001555729D02*
X-05270150Y001500687D01*
X-05270150Y001500687D02*
X-05245376Y001452182D01*
X-05245376Y001452182D02*
X-05188198Y001404818D01*
X-05188198Y001404818D02*
X-05038109Y001371747D01*
X-05038109Y001371747D02*
X-04887231Y001397699D01*
X-04887231Y001397699D02*
X-04826472Y001436415D01*
X-04826472Y001436415D02*
X-04798039Y001476666D01*
X-04798039Y001476666D02*
X-04785150Y001555081D01*
X-04785150Y001555081D02*
X-04801625Y001623419D01*
X-04801625Y001623419D02*
X-04849701Y001674019D01*
X-04849701Y001674019D02*
X-04917555Y001690986D01*
X-05277531Y002213433D02*
X-05267866Y002160179D01*
X-05267866Y002160179D02*
X-05244065Y002111680D01*
X-05244065Y002111680D02*
X-05190513Y002077446D01*
X-05190513Y002077446D02*
X-05142910Y002090759D01*
X-05142910Y002090759D02*
X-05106465Y002130699D01*
X-05106465Y002130699D02*
X-05080433Y002172542D01*
X-05080433Y002172542D02*
X-05041756Y002277147D01*
X-05041756Y002277147D02*
X-05006054Y002341813D01*
X-05006054Y002341813D02*
X-04963658Y002380802D01*
X-04963658Y002380802D02*
X-04903412Y002389361D01*
X-04903412Y002389361D02*
X-04844653Y002367489D01*
X-04844653Y002367489D02*
X-04808952Y002319941D01*
X-04808952Y002319941D02*
X-04785150Y002250520D01*
X-04785150Y002250520D02*
X-04786638Y002197266D01*
X-04786638Y002197266D02*
X-04807464Y002134503D01*
X-04807464Y002134503D02*
X-04840934Y002084102D01*
X-04840934Y002084102D02*
X-04890024Y002057476D01*
X-04890024Y002057476D02*
X-04939114Y002059377D01*
X-04939114Y002059377D02*
X-04988203Y002084102D01*
X-04988203Y002084102D02*
X-05032086Y002139258D01*
X-05032086Y002139258D02*
X-05051425Y002194414D01*
X-05051425Y002194414D02*
X-05073739Y002263833D01*
X-05073739Y002263833D02*
X-05110184Y002332303D01*
X-05110184Y002332303D02*
X-05145141Y002353224D01*
X-05145141Y002353224D02*
X-05203901Y002354175D01*
X-05203901Y002354175D02*
X-05246296Y002330401D01*
X-05246296Y002330401D02*
X-05272329Y002281902D01*
X-05272329Y002281902D02*
X-05277531Y002213433D01*
D50*
X-04897535Y003778615D02*
X-04897535Y004278614D01*
D50*
X-04052757Y003626189D02*
X-04745161Y003626189D01*
D50*
X-03900357Y004278614D02*
X-03900357Y003778615D01*
D50*
X-03902490Y005221385D02*
X-03902490Y004721386D01*
D50*
X-04899618Y004721386D02*
X-04899618Y005221385D01*
D50*
X-04747269Y005373811D02*
X-04054839Y005373811D01*
D50*
X-04899643Y005221385D02*
X-04855006Y005329148D01*
X-04747243Y005373785D01*
D50*
X-04054839Y005373785D02*
X-03947076Y005329148D01*
X-03902439Y005221385D01*
D50*
X-03900357Y003778615D02*
X-03944994Y003670852D01*
X-04052757Y003626215D01*
D50*
X-04745161Y003626215D02*
X-04852924Y003670852D01*
X-04897561Y003778615D01*
D51*
X-05964107Y004190986D02*
X-06016363Y004169545D01*
X-06016363Y004169545D02*
X-06053361Y004130215D01*
X-06053361Y004130215D02*
X-06077531Y004055729D01*
X-06077531Y004055729D02*
X-06070150Y004000687D01*
X-06070150Y004000687D02*
X-06045376Y003952182D01*
X-06045376Y003952182D02*
X-05988198Y003904818D01*
X-05988198Y003904818D02*
X-05838109Y003871747D01*
X-05838109Y003871747D02*
X-05687231Y003897699D01*
X-05687231Y003897699D02*
X-05626472Y003936415D01*
X-05626472Y003936415D02*
X-05598039Y003976666D01*
X-05598039Y003976666D02*
X-05585150Y004055081D01*
X-05585150Y004055081D02*
X-05601625Y004123419D01*
X-05601625Y004123419D02*
X-05649701Y004174019D01*
X-05649701Y004174019D02*
X-05717555Y004190986D01*
X-05951532Y004870418D02*
X-06014532Y004856418D01*
X-06014532Y004856418D02*
X-06049532Y004828418D01*
X-06049532Y004828418D02*
X-06070532Y004786418D01*
X-06070532Y004786418D02*
X-06077531Y004730418D01*
X-06077531Y004730418D02*
X-06070532Y004674418D01*
X-06070532Y004674418D02*
X-06049532Y004625418D01*
X-06049532Y004625418D02*
X-06014532Y004590418D01*
X-06014532Y004590418D02*
X-05965532Y004576418D01*
X-05965532Y004576418D02*
X-05916532Y004590418D01*
X-05916532Y004590418D02*
X-05881532Y004625418D01*
X-05881532Y004625418D02*
X-05860532Y004674418D01*
X-05860532Y004674418D02*
X-05853532Y004730418D01*
X-05853532Y004730418D02*
X-05867532Y004786418D01*
X-05867532Y004786418D02*
X-05895532Y004828418D01*
X-05895532Y004828418D02*
X-05923532Y004856418D01*
X-05923532Y004856418D02*
X-05951532Y004870418D01*
X-05950832Y004869718D02*
X-05812232Y004816518D01*
X-05812232Y004816518D02*
X-05713532Y004779418D01*
X-05713532Y004779418D02*
X-05642132Y004748618D01*
X-05642132Y004748618D02*
X-05587532Y004723418D01*
D50*
X-07797535Y004778615D02*
X-07797535Y005278614D01*
D50*
X-06952757Y004626189D02*
X-07645161Y004626189D01*
D50*
X-06800357Y005278614D02*
X-06800357Y004778615D01*
D50*
X-06802490Y006221385D02*
X-06802490Y005721386D01*
D50*
X-07799618Y005721386D02*
X-07799618Y006221385D01*
D50*
X-07647269Y006373811D02*
X-06954839Y006373811D01*
D50*
X-07799643Y006221385D02*
X-07755006Y006329148D01*
X-07647243Y006373785D01*
D50*
X-06954839Y006373785D02*
X-06847076Y006329148D01*
X-06802439Y006221385D01*
D50*
X-06800357Y004778615D02*
X-06844994Y004670852D01*
X-06952757Y004626215D01*
D50*
X-07645161Y004626215D02*
X-07752924Y004670852D01*
X-07797561Y004778615D01*
D51*
X-08864107Y004844960D02*
X-08916363Y004823519D01*
X-08916363Y004823519D02*
X-08953361Y004784189D01*
X-08953361Y004784189D02*
X-08977531Y004709703D01*
X-08977531Y004709703D02*
X-08970150Y004654661D01*
X-08970150Y004654661D02*
X-08945376Y004606156D01*
X-08945376Y004606156D02*
X-08888198Y004558792D01*
X-08888198Y004558792D02*
X-08738109Y004525721D01*
X-08738109Y004525721D02*
X-08587231Y004551673D01*
X-08587231Y004551673D02*
X-08526472Y004590389D01*
X-08526472Y004590389D02*
X-08498039Y004630640D01*
X-08498039Y004630640D02*
X-08485150Y004709055D01*
X-08485150Y004709055D02*
X-08501625Y004777393D01*
X-08501625Y004777393D02*
X-08549701Y004827993D01*
X-08549701Y004827993D02*
X-08617555Y004844960D01*
X-08872085Y005320972D02*
X-08968303Y005433812D01*
X-08968303Y005433812D02*
X-08493724Y005433812D01*
X-08977531Y006069443D02*
X-08959631Y006003341D01*
X-08959631Y006003341D02*
X-08905085Y005944155D01*
X-08905085Y005944155D02*
X-08825891Y005911872D01*
X-08825891Y005911872D02*
X-08708445Y005904185D01*
X-08708445Y005904185D02*
X-08609977Y005922633D01*
X-08609977Y005922633D02*
X-08528376Y005970289D01*
X-08528376Y005970289D02*
X-08485150Y006038699D01*
X-08485150Y006038699D02*
X-08485150Y006100190D01*
X-08485150Y006100190D02*
X-08528376Y006168601D01*
X-08528376Y006168601D02*
X-08609977Y006216256D01*
X-08609977Y006216256D02*
X-08708445Y006234704D01*
X-08708445Y006234704D02*
X-08825891Y006227018D01*
X-08825891Y006227018D02*
X-08905085Y006194734D01*
X-08905085Y006194734D02*
X-08959631Y006135548D01*
X-08959631Y006135548D02*
X-08977531Y006069443D01*
D50*
X-09397535Y004778615D02*
X-09397535Y005278614D01*
D50*
X-08552757Y004626189D02*
X-09245161Y004626189D01*
D50*
X-08400357Y005278614D02*
X-08400357Y004778615D01*
D50*
X-08402490Y006221385D02*
X-08402490Y005721386D01*
D50*
X-09399618Y005721386D02*
X-09399618Y006221385D01*
D50*
X-09247269Y006373811D02*
X-08554839Y006373811D01*
D50*
X-09399643Y006221385D02*
X-09355006Y006329148D01*
X-09247243Y006373785D01*
D50*
X-08554839Y006373785D02*
X-08447076Y006329148D01*
X-08402439Y006221385D01*
D50*
X-08400357Y004778615D02*
X-08444994Y004670852D01*
X-08552757Y004626215D01*
D50*
X-09245161Y004626215D02*
X-09352924Y004670852D01*
X-09397561Y004778615D01*
D51*
X-10464107Y004844960D02*
X-10516363Y004823519D01*
X-10516363Y004823519D02*
X-10553361Y004784189D01*
X-10553361Y004784189D02*
X-10577531Y004709703D01*
X-10577531Y004709703D02*
X-10570150Y004654661D01*
X-10570150Y004654661D02*
X-10545376Y004606156D01*
X-10545376Y004606156D02*
X-10488198Y004558792D01*
X-10488198Y004558792D02*
X-10338109Y004525721D01*
X-10338109Y004525721D02*
X-10187231Y004551673D01*
X-10187231Y004551673D02*
X-10126472Y004590389D01*
X-10126472Y004590389D02*
X-10098039Y004630640D01*
X-10098039Y004630640D02*
X-10085150Y004709055D01*
X-10085150Y004709055D02*
X-10101625Y004777393D01*
X-10101625Y004777393D02*
X-10149701Y004827993D01*
X-10149701Y004827993D02*
X-10217555Y004844960D01*
X-10472085Y005320972D02*
X-10568303Y005433812D01*
X-10568303Y005433812D02*
X-10093724Y005433812D01*
X-10472085Y006013024D02*
X-10568303Y006125864D01*
X-10568303Y006125864D02*
X-10093724Y006125864D01*
D50*
X-15697535Y001778615D02*
X-15697535Y002278614D01*
D50*
X-14852757Y001626189D02*
X-15545161Y001626189D01*
D50*
X-14700357Y002278614D02*
X-14700357Y001778615D01*
D50*
X-14702490Y003221385D02*
X-14702490Y002721386D01*
D50*
X-15699618Y002721386D02*
X-15699618Y003221385D01*
D50*
X-15547269Y003373811D02*
X-14854839Y003373811D01*
D50*
X-15699643Y003221385D02*
X-15655006Y003329148D01*
X-15547243Y003373785D01*
D50*
X-14854839Y003373785D02*
X-14747076Y003329148D01*
X-14702439Y003221385D01*
D50*
X-14700357Y001778615D02*
X-14744994Y001670852D01*
X-14852757Y001626215D01*
D50*
X-15545161Y001626215D02*
X-15652924Y001670852D01*
X-15697561Y001778615D01*
D51*
X-16764107Y001844960D02*
X-16816363Y001823519D01*
X-16816363Y001823519D02*
X-16853361Y001784189D01*
X-16853361Y001784189D02*
X-16877531Y001709703D01*
X-16877531Y001709703D02*
X-16870150Y001654661D01*
X-16870150Y001654661D02*
X-16845376Y001606156D01*
X-16845376Y001606156D02*
X-16788198Y001558792D01*
X-16788198Y001558792D02*
X-16638109Y001525721D01*
X-16638109Y001525721D02*
X-16487230Y001551673D01*
X-16487230Y001551673D02*
X-16426472Y001590389D01*
X-16426472Y001590389D02*
X-16398039Y001630640D01*
X-16398039Y001630640D02*
X-16385150Y001709055D01*
X-16385150Y001709055D02*
X-16401625Y001777393D01*
X-16401625Y001777393D02*
X-16449701Y001827993D01*
X-16449701Y001827993D02*
X-16517555Y001844960D01*
X-16772085Y002320972D02*
X-16868303Y002433812D01*
X-16868303Y002433812D02*
X-16393724Y002433812D01*
X-16783516Y002936012D02*
X-16818395Y002946661D01*
X-16818395Y002946661D02*
X-16850924Y002978126D01*
X-16850924Y002978126D02*
X-16872983Y003029692D01*
X-16872983Y003029692D02*
X-16877531Y003062789D01*
X-16877531Y003062789D02*
X-16873341Y003120049D01*
X-16873341Y003120049D02*
X-16854507Y003163004D01*
X-16854507Y003163004D02*
X-16825624Y003186493D01*
X-16825624Y003186493D02*
X-16792061Y003194930D01*
X-16792061Y003194930D02*
X-16769736Y003194370D01*
X-16769736Y003194370D02*
X-16732366Y003184288D01*
X-16732366Y003184288D02*
X-16659708Y003140526D01*
X-16659708Y003140526D02*
X-16521493Y003030320D01*
X-16521493Y003030320D02*
X-16394368Y002914439D01*
X-16394368Y002914439D02*
X-16394368Y003224449D01*
D50*
X-16097535Y-01721385D02*
X-16097535Y-01221386D01*
D50*
X-15252757Y-01873811D02*
X-15945161Y-01873811D01*
D50*
X-15100357Y-01221386D02*
X-15100357Y-01721385D01*
D50*
X-15102490Y-00278615D02*
X-15102490Y-00778614D01*
D50*
X-16099618Y-00778614D02*
X-16099618Y-00278615D01*
D50*
X-15947269Y-00126189D02*
X-15254839Y-00126189D01*
D50*
X-16099643Y-00278615D02*
X-16055006Y-00170852D01*
X-15947243Y-00126215D01*
D50*
X-15254839Y-00126215D02*
X-15147076Y-00170852D01*
X-15102439Y-00278615D01*
D50*
X-15100357Y-01721385D02*
X-15144994Y-01829148D01*
X-15252757Y-01873785D01*
D50*
X-15945161Y-01873785D02*
X-16052924Y-01829148D01*
X-16097561Y-01721385D01*
D51*
X-17164107Y-01655040D02*
X-17216363Y-01676481D01*
X-17216363Y-01676481D02*
X-17253361Y-01715811D01*
X-17253361Y-01715811D02*
X-17277531Y-01790297D01*
X-17277531Y-01790297D02*
X-17270150Y-01845339D01*
X-17270150Y-01845339D02*
X-17245376Y-01893844D01*
X-17245376Y-01893844D02*
X-17188198Y-01941208D01*
X-17188198Y-01941208D02*
X-17038109Y-01974279D01*
X-17038109Y-01974279D02*
X-16887231Y-01948327D01*
X-16887231Y-01948327D02*
X-16826472Y-01909611D01*
X-16826472Y-01909611D02*
X-16798039Y-01869360D01*
X-16798039Y-01869360D02*
X-16785150Y-01790945D01*
X-16785150Y-01790945D02*
X-16801625Y-01722607D01*
X-16801625Y-01722607D02*
X-16849701Y-01672007D01*
X-16849701Y-01672007D02*
X-16917554Y-01655040D01*
X-17172085Y-01179028D02*
X-17268303Y-01066188D01*
X-17268303Y-01066188D02*
X-16793724Y-01066188D01*
X-17216449Y-00584150D02*
X-17237057Y-00557866D01*
X-17237057Y-00557866D02*
X-17259136Y-00515977D01*
X-17259136Y-00515977D02*
X-17277531Y-00462588D01*
X-17277531Y-00462588D02*
X-17273857Y-00396881D01*
X-17273857Y-00396881D02*
X-17255456Y-00339385D01*
X-17255456Y-00339385D02*
X-17222337Y-00298316D01*
X-17222337Y-00298316D02*
X-17181856Y-00273675D01*
X-17181856Y-00273675D02*
X-17137696Y-00281889D01*
X-17137696Y-00281889D02*
X-17104576Y-00314744D01*
X-17104576Y-00314744D02*
X-17078816Y-00372240D01*
X-17078816Y-00372240D02*
X-17064096Y-00437949D01*
X-17064096Y-00437949D02*
X-17056736Y-00495443D01*
X-17056736Y-00495443D02*
X-17049376Y-00437949D01*
X-17049376Y-00437949D02*
X-17030976Y-00372240D01*
X-17030976Y-00372240D02*
X-17001536Y-00314744D01*
X-17001536Y-00314744D02*
X-16961055Y-00277782D01*
X-16961055Y-00277782D02*
X-16916895Y-00269569D01*
X-16916895Y-00269569D02*
X-16869054Y-00285996D01*
X-16869054Y-00285996D02*
X-16828575Y-00322957D01*
X-16828575Y-00322957D02*
X-16795454Y-00380454D01*
X-16795454Y-00380454D02*
X-16785150Y-00423986D01*
X-16785150Y-00423986D02*
X-16786622Y-00494622D01*
X-16786622Y-00494622D02*
X-16795454Y-00552117D01*
X-16795454Y-00552117D02*
X-16807230Y-00591542D01*
D50*
X-27778615Y-04997535D02*
X-28278614Y-04997535D01*
D50*
X-27626189Y-04152757D02*
X-27626189Y-04845161D01*
D50*
X-28278614Y-04000357D02*
X-27778615Y-04000357D01*
D50*
X-29221385Y-04002490D02*
X-28721386Y-04002490D01*
D50*
X-28721386Y-04999618D02*
X-29221385Y-04999618D01*
D50*
X-29373811Y-04847269D02*
X-29373811Y-04154839D01*
D50*
X-29221385Y-04999643D02*
X-29329148Y-04955006D01*
X-29373785Y-04847243D01*
D50*
X-29373785Y-04154839D02*
X-29329148Y-04047076D01*
X-29221385Y-04002439D01*
D50*
X-27778615Y-04000357D02*
X-27670852Y-04044994D01*
X-27626215Y-04152757D01*
D50*
X-27626215Y-04845161D02*
X-27670852Y-04952924D01*
X-27778615Y-04997561D01*
D51*
X-27844960Y-06064107D02*
X-27823520Y-06116363D01*
X-27823520Y-06116363D02*
X-27784189Y-06153361D01*
X-27784189Y-06153361D02*
X-27709703Y-06177531D01*
X-27709703Y-06177531D02*
X-27654661Y-06170150D01*
X-27654661Y-06170150D02*
X-27606156Y-06145376D01*
X-27606156Y-06145376D02*
X-27558792Y-06088198D01*
X-27558792Y-06088198D02*
X-27525721Y-05938109D01*
X-27525721Y-05938109D02*
X-27551673Y-05787231D01*
X-27551673Y-05787231D02*
X-27590389Y-05726472D01*
X-27590389Y-05726472D02*
X-27630640Y-05698039D01*
X-27630640Y-05698039D02*
X-27709055Y-05685150D01*
X-27709055Y-05685150D02*
X-27777393Y-05701625D01*
X-27777393Y-05701625D02*
X-27827993Y-05749701D01*
X-27827993Y-05749701D02*
X-27844960Y-05817555D01*
X-28320972Y-06072085D02*
X-28433812Y-06168303D01*
X-28433812Y-06168303D02*
X-28433812Y-05693724D01*
X-29151672Y-06168303D02*
X-28892906Y-05851061D01*
X-28892906Y-05851061D02*
X-29245983Y-05851061D01*
X-29148653Y-05953283D02*
X-29148653Y-05693721D01*
D50*
X-02497535Y-07921385D02*
X-02497535Y-07421386D01*
D50*
X-01652757Y-08073811D02*
X-02345161Y-08073811D01*
D50*
X-01500357Y-07421386D02*
X-01500357Y-07921385D01*
D50*
X-01502490Y-06478615D02*
X-01502490Y-06978614D01*
D50*
X-02499618Y-06978614D02*
X-02499618Y-06478615D01*
D50*
X-02347269Y-06326189D02*
X-01654839Y-06326189D01*
D50*
X-02499643Y-06478615D02*
X-02455006Y-06370852D01*
X-02347243Y-06326215D01*
D50*
X-01654839Y-06326215D02*
X-01547076Y-06370852D01*
X-01502439Y-06478615D01*
D50*
X-01500357Y-07921385D02*
X-01544994Y-08029148D01*
X-01652757Y-08073785D01*
D50*
X-02345161Y-08073785D02*
X-02452924Y-08029148D01*
X-02497561Y-07921385D01*
D51*
X-03564107Y-07855040D02*
X-03616363Y-07876481D01*
X-03616363Y-07876481D02*
X-03653361Y-07915811D01*
X-03653361Y-07915811D02*
X-03677531Y-07990297D01*
X-03677531Y-07990297D02*
X-03670150Y-08045339D01*
X-03670150Y-08045339D02*
X-03645376Y-08093844D01*
X-03645376Y-08093844D02*
X-03588198Y-08141208D01*
X-03588198Y-08141208D02*
X-03438109Y-08174279D01*
X-03438109Y-08174279D02*
X-03287230Y-08148327D01*
X-03287230Y-08148327D02*
X-03226472Y-08109611D01*
X-03226472Y-08109611D02*
X-03198039Y-08069360D01*
X-03198039Y-08069360D02*
X-03185150Y-07990945D01*
X-03185150Y-07990945D02*
X-03201625Y-07922607D01*
X-03201625Y-07922607D02*
X-03249701Y-07872007D01*
X-03249701Y-07872007D02*
X-03317554Y-07855040D01*
X-03572085Y-07379028D02*
X-03668303Y-07266188D01*
X-03668303Y-07266188D02*
X-03193724Y-07266188D01*
X-03668303Y-06788808D02*
X-03427709Y-06788808D01*
X-03427709Y-06788808D02*
X-03459350Y-06653916D01*
X-03459350Y-06653916D02*
X-03447449Y-06557601D01*
X-03447449Y-06557601D02*
X-03425968Y-06519273D01*
X-03425968Y-06519273D02*
X-03395488Y-06492654D01*
X-03395488Y-06492654D02*
X-03312419Y-06472303D01*
X-03312419Y-06472303D02*
X-03269266Y-06481928D01*
X-03269266Y-06481928D02*
X-03235302Y-06507182D01*
X-03235302Y-06507182D02*
X-03203759Y-06556809D01*
X-03203759Y-06556809D02*
X-03187164Y-06614163D01*
X-03187164Y-06614163D02*
X-03184503Y-06668095D01*
X-03184503Y-06668095D02*
X-03193163Y-06713513D01*
X-03193163Y-06713513D02*
X-03210144Y-06750226D01*
X-03210144Y-06750226D02*
X-03245075Y-06788808D01*
X-03668303Y-06788808D02*
X-03668303Y-06472303D01*
D50*
X-00197535Y-02721385D02*
X-00197535Y-02221386D01*
D50*
X000647243Y-02873811D02*
X-00045161Y-02873811D01*
D50*
X000799643Y-02221386D02*
X000799643Y-02721385D01*
D50*
X000797510Y-01278615D02*
X000797510Y-01778614D01*
D50*
X-00199618Y-01778614D02*
X-00199618Y-01278615D01*
D50*
X-00047269Y-01126189D02*
X000645161Y-01126189D01*
D50*
X-00199643Y-01278615D02*
X-00155006Y-01170852D01*
X-00047243Y-01126215D01*
D50*
X000645161Y-01126215D02*
X000752924Y-01170852D01*
X000797561Y-01278615D01*
D50*
X000799643Y-02721385D02*
X000755006Y-02829148D01*
X000647243Y-02873785D01*
D50*
X-00045161Y-02873785D02*
X-00152924Y-02829148D01*
X-00197561Y-02721385D01*
D51*
X-01264107Y-02655040D02*
X-01316363Y-02676481D01*
X-01316363Y-02676481D02*
X-01353361Y-02715811D01*
X-01353361Y-02715811D02*
X-01377531Y-02790297D01*
X-01377531Y-02790297D02*
X-01370150Y-02845339D01*
X-01370150Y-02845339D02*
X-01345376Y-02893844D01*
X-01345376Y-02893844D02*
X-01288198Y-02941208D01*
X-01288198Y-02941208D02*
X-01138109Y-02974279D01*
X-01138109Y-02974279D02*
X-00987230Y-02948327D01*
X-00987230Y-02948327D02*
X-00926472Y-02909611D01*
X-00926472Y-02909611D02*
X-00898039Y-02869360D01*
X-00898039Y-02869360D02*
X-00885150Y-02790945D01*
X-00885150Y-02790945D02*
X-00901625Y-02722607D01*
X-00901625Y-02722607D02*
X-00949701Y-02672007D01*
X-00949701Y-02672007D02*
X-01017554Y-02655040D01*
X-01272085Y-02179028D02*
X-01368303Y-02066188D01*
X-01368303Y-02066188D02*
X-00893724Y-02066188D01*
X-01377531Y-01341290D02*
X-01358463Y-01402271D01*
X-01358463Y-01402271D02*
X-01339531Y-01458763D01*
X-01339531Y-01458763D02*
X-01305873Y-01506742D01*
X-01305873Y-01506742D02*
X-01270322Y-01544043D01*
X-01270322Y-01544043D02*
X-01207705Y-01572521D01*
X-01207705Y-01572521D02*
X-01149013Y-01592100D01*
X-01149013Y-01592100D02*
X-01088499Y-01594189D01*
X-01088499Y-01594189D02*
X-01028196Y-01595659D01*
X-01028196Y-01595659D02*
X-00983319Y-01580260D01*
X-00983319Y-01580260D02*
X-00955271Y-01565556D01*
X-00955271Y-01565556D02*
X-00918808Y-01530733D01*
X-00918808Y-01530733D02*
X-00894266Y-01493587D01*
X-00894266Y-01493587D02*
X-00885150Y-01436321D01*
X-00885150Y-01436321D02*
X-00888656Y-01372090D01*
X-00888656Y-01372090D02*
X-00911094Y-01321788D01*
X-00911094Y-01321788D02*
X-00941246Y-01286191D01*
X-00941246Y-01286191D02*
X-00982617Y-01266844D01*
X-00982617Y-01266844D02*
X-01017678Y-01265296D01*
X-01017678Y-01265296D02*
X-01054841Y-01276130D01*
X-01054841Y-01276130D02*
X-01086396Y-01292381D01*
X-01086396Y-01292381D02*
X-01112340Y-01317145D01*
X-01112340Y-01317145D02*
X-01128468Y-01351195D01*
X-01128468Y-01351195D02*
X-01138986Y-01398402D01*
X-01138986Y-01398402D02*
X-01141089Y-01443286D01*
X-01141089Y-01443286D02*
X-01134077Y-01490492D01*
X-01134077Y-01490492D02*
X-01108834Y-01539245D01*
X-01108834Y-01539245D02*
X-01082890Y-01564782D01*
X-01082890Y-01564782D02*
X-01051196Y-01595815D01*
D50*
X010719813Y-16709574D02*
X009919840Y-16709574D01*
D50*
X011280264Y-16710032D02*
X012080237Y-16710032D01*
D50*
X010719813Y-15289892D02*
X009919840Y-15289892D01*
D50*
X011280264Y-15290375D02*
X012080237Y-15290375D01*
D50*
X009610087Y-16399745D02*
X009610087Y-15599696D01*
D50*
X012390015Y-15600229D02*
X012390015Y-16400253D01*
D50*
X012080186Y-15290375D02*
X012299277Y-15381131D01*
X012390015Y-15600229D01*
D50*
X012390015Y-16400202D02*
X012299268Y-16619285D01*
X012080186Y-16710032D01*
D50*
X009919890Y-16709574D02*
X009700824Y-16618819D01*
X009610087Y-16399745D01*
D50*
X009610087Y-15599772D02*
X009700807Y-15380666D01*
X009919890Y-15289892D01*
D51*
X010319560Y-14232693D02*
X010298119Y-14180437D01*
X010298119Y-14180437D02*
X010258789Y-14143439D01*
X010258789Y-14143439D02*
X010184303Y-14119269D01*
X010184303Y-14119269D02*
X010129261Y-14126650D01*
X010129261Y-14126650D02*
X010080756Y-14151424D01*
X010080756Y-14151424D02*
X010033392Y-14208602D01*
X010033392Y-14208602D02*
X010000321Y-14358691D01*
X010000321Y-14358691D02*
X010026273Y-14509570D01*
X010026273Y-14509570D02*
X010064989Y-14570328D01*
X010064989Y-14570328D02*
X010105240Y-14598761D01*
X010105240Y-14598761D02*
X010183655Y-14611650D01*
X010183655Y-14611650D02*
X010251993Y-14595175D01*
X010251993Y-14595175D02*
X010302593Y-14547099D01*
X010302593Y-14547099D02*
X010319560Y-14479246D01*
X010795572Y-14224715D02*
X010908412Y-14128497D01*
X010908412Y-14128497D02*
X010908412Y-14603076D01*
X011383400Y-14128497D02*
X011704689Y-14128497D01*
X011704689Y-14128497D02*
X011680481Y-14142991D01*
X011680481Y-14142991D02*
X011667752Y-14152585D01*
X011667752Y-14152585D02*
X011637956Y-14181078D01*
X011637956Y-14181078D02*
X011621773Y-14200695D01*
X011621773Y-14200695D02*
X011605321Y-14224372D01*
X011605321Y-14224372D02*
X011589047Y-14252469D01*
X011589047Y-14252469D02*
X011573386Y-14285343D01*
X011573386Y-14285343D02*
X011558783Y-14323356D01*
X011558783Y-14323356D02*
X011545681Y-14366867D01*
X011545681Y-14366867D02*
X011534517Y-14416235D01*
X011534517Y-14416235D02*
X011522380Y-14502055D01*
X011522380Y-14502055D02*
X011517097Y-14603079D01*
D50*
X022280187Y-15290426D02*
X023080160Y-15290426D01*
D50*
X021719736Y-15289968D02*
X020919763Y-15289968D01*
D50*
X022280187Y-16710108D02*
X023080160Y-16710108D01*
D50*
X021719736Y-16709625D02*
X020919763Y-16709625D01*
D50*
X023389913Y-15600255D02*
X023389913Y-16400304D01*
D50*
X020609985Y-16399771D02*
X020609985Y-15599747D01*
D50*
X020919814Y-16709625D02*
X020700723Y-16618869D01*
X020609985Y-16399771D01*
D50*
X020609985Y-15599798D02*
X020700732Y-15380715D01*
X020919814Y-15289968D01*
D50*
X023080110Y-15290426D02*
X023299176Y-15381181D01*
X023389913Y-15600255D01*
D50*
X023389913Y-16400228D02*
X023299193Y-16619334D01*
X023080110Y-16710108D01*
D51*
X022680440Y-17767307D02*
X022701880Y-17819563D01*
X022701880Y-17819563D02*
X022741211Y-17856561D01*
X022741211Y-17856561D02*
X022815697Y-17880731D01*
X022815697Y-17880731D02*
X022870739Y-17873350D01*
X022870739Y-17873350D02*
X022919244Y-17848576D01*
X022919244Y-17848576D02*
X022966608Y-17791398D01*
X022966608Y-17791398D02*
X022999679Y-17641309D01*
X022999679Y-17641309D02*
X022973727Y-17490431D01*
X022973727Y-17490431D02*
X022935011Y-17429672D01*
X022935011Y-17429672D02*
X022894760Y-17401239D01*
X022894760Y-17401239D02*
X022816345Y-17388350D01*
X022816345Y-17388350D02*
X022748007Y-17404825D01*
X022748007Y-17404825D02*
X022697407Y-17452901D01*
X022697407Y-17452901D02*
X022680440Y-17520755D01*
X022204428Y-17775285D02*
X022091588Y-17871503D01*
X022091588Y-17871503D02*
X022091588Y-17396924D01*
X021465941Y-17880731D02*
X021519195Y-17871066D01*
X021519195Y-17871066D02*
X021567694Y-17847265D01*
X021567694Y-17847265D02*
X021601928Y-17793713D01*
X021601928Y-17793713D02*
X021588615Y-17746110D01*
X021588615Y-17746110D02*
X021548675Y-17709665D01*
X021548675Y-17709665D02*
X021506832Y-17683633D01*
X021506832Y-17683633D02*
X021402227Y-17644956D01*
X021402227Y-17644956D02*
X021337561Y-17609254D01*
X021337561Y-17609254D02*
X021298572Y-17566858D01*
X021298572Y-17566858D02*
X021290013Y-17506612D01*
X021290013Y-17506612D02*
X021311885Y-17447853D01*
X021311885Y-17447853D02*
X021359433Y-17412152D01*
X021359433Y-17412152D02*
X021428854Y-17388350D01*
X021428854Y-17388350D02*
X021482108Y-17389838D01*
X021482108Y-17389838D02*
X021544871Y-17410664D01*
X021544871Y-17410664D02*
X021595272Y-17444134D01*
X021595272Y-17444134D02*
X021621898Y-17493224D01*
X021621898Y-17493224D02*
X021619997Y-17542314D01*
X021619997Y-17542314D02*
X021595272Y-17591403D01*
X021595272Y-17591403D02*
X021540116Y-17635286D01*
X021540116Y-17635286D02*
X021484960Y-17654625D01*
X021484960Y-17654625D02*
X021415541Y-17676939D01*
X021415541Y-17676939D02*
X021347071Y-17713384D01*
X021347071Y-17713384D02*
X021326150Y-17748341D01*
X021326150Y-17748341D02*
X021325199Y-17807101D01*
X021325199Y-17807101D02*
X021348973Y-17849496D01*
X021348973Y-17849496D02*
X021397472Y-17875529D01*
X021397472Y-17875529D02*
X021465941Y-17880731D01*
D50*
X-10290426Y005719813D02*
X-10290426Y004919840D01*
D50*
X-10289968Y006280264D02*
X-10289968Y007080237D01*
D50*
X-11710108Y005719813D02*
X-11710108Y004919840D01*
D50*
X-11709625Y006280264D02*
X-11709625Y007080237D01*
D50*
X-10600255Y004610087D02*
X-11400304Y004610087D01*
D50*
X-11399771Y007390015D02*
X-10599747Y007390015D01*
D50*
X-11709625Y007080186D02*
X-11618869Y007299277D01*
X-11399771Y007390015D01*
D50*
X-10599798Y007390015D02*
X-10380715Y007299268D01*
X-10289968Y007080186D01*
D50*
X-10290426Y004919890D02*
X-10381181Y004700824D01*
X-10600255Y004610087D01*
D50*
X-11400228Y004610087D02*
X-11619334Y004700807D01*
X-11710108Y004919890D01*
D51*
X-12767307Y005319560D02*
X-12819563Y005298119D01*
X-12819563Y005298119D02*
X-12856561Y005258789D01*
X-12856561Y005258789D02*
X-12880731Y005184303D01*
X-12880731Y005184303D02*
X-12873350Y005129261D01*
X-12873350Y005129261D02*
X-12848576Y005080756D01*
X-12848576Y005080756D02*
X-12791398Y005033392D01*
X-12791398Y005033392D02*
X-12641309Y005000321D01*
X-12641309Y005000321D02*
X-12490431Y005026273D01*
X-12490431Y005026273D02*
X-12429672Y005064989D01*
X-12429672Y005064989D02*
X-12401239Y005105240D01*
X-12401239Y005105240D02*
X-12388350Y005183655D01*
X-12388350Y005183655D02*
X-12404825Y005251993D01*
X-12404825Y005251993D02*
X-12452901Y005302593D01*
X-12452901Y005302593D02*
X-12520754Y005319560D01*
X-12775285Y005795572D02*
X-12871503Y005908412D01*
X-12871503Y005908412D02*
X-12396924Y005908412D01*
X-12754732Y006691044D02*
X-12817732Y006677044D01*
X-12817732Y006677044D02*
X-12852732Y006649044D01*
X-12852732Y006649044D02*
X-12873732Y006607044D01*
X-12873732Y006607044D02*
X-12880731Y006551044D01*
X-12880731Y006551044D02*
X-12873732Y006495044D01*
X-12873732Y006495044D02*
X-12852732Y006446044D01*
X-12852732Y006446044D02*
X-12817732Y006411044D01*
X-12817732Y006411044D02*
X-12768732Y006397044D01*
X-12768732Y006397044D02*
X-12719732Y006411044D01*
X-12719732Y006411044D02*
X-12684732Y006446044D01*
X-12684732Y006446044D02*
X-12663732Y006495044D01*
X-12663732Y006495044D02*
X-12656732Y006551044D01*
X-12656732Y006551044D02*
X-12670732Y006607044D01*
X-12670732Y006607044D02*
X-12698732Y006649044D01*
X-12698732Y006649044D02*
X-12726732Y006677044D01*
X-12726732Y006677044D02*
X-12754732Y006691044D01*
X-12754032Y006690344D02*
X-12615432Y006637144D01*
X-12615432Y006637144D02*
X-12516732Y006600044D01*
X-12516732Y006600044D02*
X-12445332Y006569244D01*
X-12445332Y006569244D02*
X-12390732Y006544044D01*
D50*
X001426212Y-23660603D02*
X002385087Y-23660603D01*
X002385087Y-22339397D01*
X001426212Y-22339397D01*
D50*
X000573788Y-23660603D02*
X-00385087Y-23660603D01*
X-00385087Y-22339397D01*
X000573788Y-22339397D01*
D51*
X-00026340Y-21650478D02*
X-00026340Y-21191589D01*
X-00026340Y-21191589D02*
X000108211Y-21179297D01*
X000108211Y-21179297D02*
X000202649Y-21183407D01*
X000202649Y-21183407D02*
X000259618Y-21196035D01*
X000259618Y-21196035D02*
X000283573Y-21206330D01*
X000283573Y-21206330D02*
X000303288Y-21219730D01*
X000303288Y-21219730D02*
X000317853Y-21236572D01*
X000317853Y-21236572D02*
X000330696Y-21282243D01*
X000330696Y-21282243D02*
X000329491Y-21322745D01*
X000329491Y-21322745D02*
X000316346Y-21352072D01*
X000316346Y-21352072D02*
X000292754Y-21372163D01*
X000292754Y-21372163D02*
X000260207Y-21384959D01*
X000260207Y-21384959D02*
X000197858Y-21394717D01*
X000197858Y-21394717D02*
X-00017421Y-21402339D01*
X000161360Y-21421714D02*
X000346220Y-21653879D01*
X000718560Y-21264084D02*
X000729209Y-21229205D01*
X000729209Y-21229205D02*
X000760674Y-21196676D01*
X000760674Y-21196676D02*
X000812240Y-21174617D01*
X000812240Y-21174617D02*
X000845337Y-21170069D01*
X000845337Y-21170069D02*
X000902597Y-21174259D01*
X000902597Y-21174259D02*
X000945552Y-21193094D01*
X000945552Y-21193094D02*
X000969041Y-21221976D01*
X000969041Y-21221976D02*
X000977478Y-21255539D01*
X000977478Y-21255539D02*
X000976918Y-21277864D01*
X000976918Y-21277864D02*
X000966836Y-21315234D01*
X000966836Y-21315234D02*
X000923074Y-21387892D01*
X000923074Y-21387892D02*
X000812868Y-21526107D01*
X000812868Y-21526107D02*
X000696987Y-21653232D01*
X000696987Y-21653232D02*
X001006997Y-21653232D01*
X001633310Y-21170069D02*
X001572329Y-21189137D01*
X001572329Y-21189137D02*
X001515837Y-21208069D01*
X001515837Y-21208069D02*
X001467858Y-21241727D01*
X001467858Y-21241727D02*
X001430557Y-21277278D01*
X001430557Y-21277278D02*
X001402079Y-21339895D01*
X001402079Y-21339895D02*
X001382500Y-21398587D01*
X001382500Y-21398587D02*
X001380411Y-21459101D01*
X001380411Y-21459101D02*
X001378941Y-21519404D01*
X001378941Y-21519404D02*
X001394340Y-21564281D01*
X001394340Y-21564281D02*
X001409044Y-21592329D01*
X001409044Y-21592329D02*
X001443867Y-21628792D01*
X001443867Y-21628792D02*
X001481013Y-21653334D01*
X001481013Y-21653334D02*
X001538279Y-21662450D01*
X001538279Y-21662450D02*
X001602510Y-21658944D01*
X001602510Y-21658944D02*
X001652812Y-21636506D01*
X001652812Y-21636506D02*
X001688409Y-21606354D01*
X001688409Y-21606354D02*
X001707756Y-21564983D01*
X001707756Y-21564983D02*
X001709304Y-21529922D01*
X001709304Y-21529922D02*
X001698470Y-21492759D01*
X001698470Y-21492759D02*
X001682219Y-21461204D01*
X001682219Y-21461204D02*
X001657455Y-21435260D01*
X001657455Y-21435260D02*
X001623405Y-21419132D01*
X001623405Y-21419132D02*
X001576198Y-21408614D01*
X001576198Y-21408614D02*
X001531314Y-21406511D01*
X001531314Y-21406511D02*
X001484108Y-21413523D01*
X001484108Y-21413523D02*
X001435355Y-21438766D01*
X001435355Y-21438766D02*
X001409818Y-21464710D01*
X001409818Y-21464710D02*
X001378785Y-21496404D01*
D50*
X001426212Y-20660603D02*
X002385087Y-20660603D01*
X002385087Y-19339397D01*
X001426212Y-19339397D01*
D50*
X000573788Y-20660603D02*
X-00385087Y-20660603D01*
X-00385087Y-19339397D01*
X000573788Y-19339397D01*
D51*
X-00026340Y-18650478D02*
X-00026340Y-18191589D01*
X-00026340Y-18191589D02*
X000108211Y-18179297D01*
X000108211Y-18179297D02*
X000202649Y-18183407D01*
X000202649Y-18183407D02*
X000259618Y-18196035D01*
X000259618Y-18196035D02*
X000283573Y-18206330D01*
X000283573Y-18206330D02*
X000303288Y-18219730D01*
X000303288Y-18219730D02*
X000317853Y-18236572D01*
X000317853Y-18236572D02*
X000330696Y-18282243D01*
X000330696Y-18282243D02*
X000329491Y-18322745D01*
X000329491Y-18322745D02*
X000316346Y-18352072D01*
X000316346Y-18352072D02*
X000292754Y-18372163D01*
X000292754Y-18372163D02*
X000260207Y-18384959D01*
X000260207Y-18384959D02*
X000197858Y-18394717D01*
X000197858Y-18394717D02*
X-00017421Y-18402339D01*
X000161360Y-18421714D02*
X000346220Y-18653879D01*
X000718560Y-18264084D02*
X000729209Y-18229205D01*
X000729209Y-18229205D02*
X000760674Y-18196676D01*
X000760674Y-18196676D02*
X000812240Y-18174617D01*
X000812240Y-18174617D02*
X000845337Y-18170069D01*
X000845337Y-18170069D02*
X000902597Y-18174259D01*
X000902597Y-18174259D02*
X000945552Y-18193094D01*
X000945552Y-18193094D02*
X000969041Y-18221976D01*
X000969041Y-18221976D02*
X000977478Y-18255539D01*
X000977478Y-18255539D02*
X000976918Y-18277864D01*
X000976918Y-18277864D02*
X000966836Y-18315234D01*
X000966836Y-18315234D02*
X000923074Y-18387892D01*
X000923074Y-18387892D02*
X000812868Y-18526107D01*
X000812868Y-18526107D02*
X000696987Y-18653232D01*
X000696987Y-18653232D02*
X001006997Y-18653232D01*
X001383400Y-18179297D02*
X001704689Y-18179297D01*
X001704689Y-18179297D02*
X001680481Y-18193791D01*
X001680481Y-18193791D02*
X001667752Y-18203385D01*
X001667752Y-18203385D02*
X001637956Y-18231878D01*
X001637956Y-18231878D02*
X001621773Y-18251495D01*
X001621773Y-18251495D02*
X001605322Y-18275172D01*
X001605322Y-18275172D02*
X001589047Y-18303269D01*
X001589047Y-18303269D02*
X001573386Y-18336143D01*
X001573386Y-18336143D02*
X001558783Y-18374156D01*
X001558783Y-18374156D02*
X001545681Y-18417667D01*
X001545681Y-18417667D02*
X001534517Y-18467035D01*
X001534517Y-18467035D02*
X001522380Y-18552855D01*
X001522380Y-18552855D02*
X001517097Y-18653879D01*
D50*
X003426212Y-17660603D02*
X004385087Y-17660603D01*
X004385087Y-16339397D01*
X003426212Y-16339397D01*
D50*
X002573788Y-17660603D02*
X001614913Y-17660603D01*
X001614913Y-16339397D01*
X002573788Y-16339397D01*
D51*
X001973660Y-15650478D02*
X001973660Y-15191589D01*
X001973660Y-15191589D02*
X002108211Y-15179297D01*
X002108211Y-15179297D02*
X002202649Y-15183407D01*
X002202649Y-15183407D02*
X002259618Y-15196035D01*
X002259618Y-15196035D02*
X002283573Y-15206330D01*
X002283573Y-15206330D02*
X002303288Y-15219730D01*
X002303288Y-15219730D02*
X002317853Y-15236572D01*
X002317853Y-15236572D02*
X002330696Y-15282243D01*
X002330696Y-15282243D02*
X002329491Y-15322745D01*
X002329491Y-15322745D02*
X002316346Y-15352072D01*
X002316346Y-15352072D02*
X002292754Y-15372163D01*
X002292754Y-15372163D02*
X002260208Y-15384959D01*
X002260208Y-15384959D02*
X002197858Y-15394717D01*
X002197858Y-15394717D02*
X001982579Y-15402339D01*
X002161360Y-15421714D02*
X002346220Y-15653879D01*
X002718560Y-15264084D02*
X002729209Y-15229205D01*
X002729209Y-15229205D02*
X002760674Y-15196676D01*
X002760674Y-15196676D02*
X002812240Y-15174617D01*
X002812240Y-15174617D02*
X002845337Y-15170069D01*
X002845337Y-15170069D02*
X002902597Y-15174259D01*
X002902597Y-15174259D02*
X002945552Y-15193094D01*
X002945552Y-15193094D02*
X002969041Y-15221976D01*
X002969041Y-15221976D02*
X002977478Y-15255539D01*
X002977478Y-15255539D02*
X002976918Y-15277864D01*
X002976918Y-15277864D02*
X002966836Y-15315234D01*
X002966836Y-15315234D02*
X002923074Y-15387892D01*
X002923074Y-15387892D02*
X002812868Y-15526107D01*
X002812868Y-15526107D02*
X002696987Y-15653232D01*
X002696987Y-15653232D02*
X003006997Y-15653232D01*
X003534059Y-15170069D02*
X003480805Y-15179734D01*
X003480805Y-15179734D02*
X003432306Y-15203535D01*
X003432306Y-15203535D02*
X003398072Y-15257088D01*
X003398072Y-15257088D02*
X003411385Y-15304690D01*
X003411385Y-15304690D02*
X003451325Y-15341135D01*
X003451325Y-15341135D02*
X003493167Y-15367167D01*
X003493167Y-15367167D02*
X003597773Y-15405845D01*
X003597773Y-15405845D02*
X003662439Y-15441546D01*
X003662439Y-15441546D02*
X003701428Y-15483942D01*
X003701428Y-15483942D02*
X003709987Y-15544188D01*
X003709987Y-15544188D02*
X003688115Y-15602947D01*
X003688115Y-15602947D02*
X003640566Y-15638648D01*
X003640566Y-15638648D02*
X003571146Y-15662450D01*
X003571146Y-15662450D02*
X003517892Y-15660962D01*
X003517892Y-15660962D02*
X003455129Y-15640136D01*
X003455129Y-15640136D02*
X003404728Y-15606666D01*
X003404728Y-15606666D02*
X003378101Y-15557577D01*
X003378101Y-15557577D02*
X003380003Y-15508486D01*
X003380003Y-15508486D02*
X003404728Y-15459397D01*
X003404728Y-15459397D02*
X003459884Y-15415514D01*
X003459884Y-15415514D02*
X003515040Y-15396175D01*
X003515040Y-15396175D02*
X003584459Y-15373862D01*
X003584459Y-15373862D02*
X003652929Y-15337416D01*
X003652929Y-15337416D02*
X003673850Y-15302459D01*
X003673850Y-15302459D02*
X003674801Y-15243699D01*
X003674801Y-15243699D02*
X003651027Y-15201304D01*
X003651027Y-15201304D02*
X003602528Y-15175272D01*
X003602528Y-15175272D02*
X003534059Y-15170069D01*
D50*
X-17573788Y-26660603D02*
X-16614913Y-26660603D01*
X-16614913Y-25339397D01*
X-17573788Y-25339397D01*
D50*
X-18426212Y-26660603D02*
X-19385087Y-26660603D01*
X-19385087Y-25339397D01*
X-18426212Y-25339397D01*
D51*
X-19026340Y-24650478D02*
X-19026340Y-24191589D01*
X-19026340Y-24191589D02*
X-18891789Y-24179297D01*
X-18891789Y-24179297D02*
X-18797351Y-24183407D01*
X-18797351Y-24183407D02*
X-18740382Y-24196035D01*
X-18740382Y-24196035D02*
X-18716427Y-24206330D01*
X-18716427Y-24206330D02*
X-18696712Y-24219730D01*
X-18696712Y-24219730D02*
X-18682147Y-24236572D01*
X-18682147Y-24236572D02*
X-18669304Y-24282243D01*
X-18669304Y-24282243D02*
X-18670509Y-24322745D01*
X-18670509Y-24322745D02*
X-18683654Y-24352072D01*
X-18683654Y-24352072D02*
X-18707246Y-24372163D01*
X-18707246Y-24372163D02*
X-18739792Y-24384959D01*
X-18739792Y-24384959D02*
X-18802141Y-24394717D01*
X-18802141Y-24394717D02*
X-19017421Y-24402339D01*
X-18838640Y-24421714D02*
X-18653780Y-24653879D01*
X-18281440Y-24264084D02*
X-18270791Y-24229205D01*
X-18270791Y-24229205D02*
X-18239326Y-24196676D01*
X-18239326Y-24196676D02*
X-18187760Y-24174617D01*
X-18187760Y-24174617D02*
X-18154663Y-24170069D01*
X-18154663Y-24170069D02*
X-18097403Y-24174259D01*
X-18097403Y-24174259D02*
X-18054448Y-24193094D01*
X-18054448Y-24193094D02*
X-18030959Y-24221976D01*
X-18030959Y-24221976D02*
X-18022522Y-24255539D01*
X-18022522Y-24255539D02*
X-18023082Y-24277864D01*
X-18023082Y-24277864D02*
X-18033164Y-24315234D01*
X-18033164Y-24315234D02*
X-18076926Y-24387892D01*
X-18076926Y-24387892D02*
X-18187132Y-24526107D01*
X-18187132Y-24526107D02*
X-18303013Y-24653232D01*
X-18303013Y-24653232D02*
X-17993003Y-24653232D01*
X-17308956Y-24296068D02*
X-17322956Y-24233068D01*
X-17322956Y-24233068D02*
X-17350956Y-24198068D01*
X-17350956Y-24198068D02*
X-17392956Y-24177068D01*
X-17392956Y-24177068D02*
X-17448956Y-24170069D01*
X-17448956Y-24170069D02*
X-17504956Y-24177068D01*
X-17504956Y-24177068D02*
X-17553956Y-24198068D01*
X-17553956Y-24198068D02*
X-17588956Y-24233068D01*
X-17588956Y-24233068D02*
X-17602956Y-24282068D01*
X-17602956Y-24282068D02*
X-17588956Y-24331068D01*
X-17588956Y-24331068D02*
X-17553956Y-24366068D01*
X-17553956Y-24366068D02*
X-17504956Y-24387068D01*
X-17504956Y-24387068D02*
X-17448956Y-24394068D01*
X-17448956Y-24394068D02*
X-17392956Y-24380068D01*
X-17392956Y-24380068D02*
X-17350956Y-24352068D01*
X-17350956Y-24352068D02*
X-17322956Y-24324068D01*
X-17322956Y-24324068D02*
X-17308956Y-24296068D01*
X-17309656Y-24296768D02*
X-17362856Y-24435368D01*
X-17362856Y-24435368D02*
X-17399956Y-24534068D01*
X-17399956Y-24534068D02*
X-17430756Y-24605468D01*
X-17430756Y-24605468D02*
X-17455956Y-24660068D01*
D50*
X001426212Y-26660603D02*
X002385087Y-26660603D01*
X002385087Y-25339397D01*
X001426212Y-25339397D01*
D50*
X000573788Y-26660603D02*
X-00385087Y-26660603D01*
X-00385087Y-25339397D01*
X000573788Y-25339397D01*
D51*
X-00026340Y-24650478D02*
X-00026340Y-24191589D01*
X-00026340Y-24191589D02*
X000108211Y-24179297D01*
X000108211Y-24179297D02*
X000202649Y-24183407D01*
X000202649Y-24183407D02*
X000259618Y-24196035D01*
X000259618Y-24196035D02*
X000283573Y-24206330D01*
X000283573Y-24206330D02*
X000303288Y-24219730D01*
X000303288Y-24219730D02*
X000317853Y-24236572D01*
X000317853Y-24236572D02*
X000330696Y-24282243D01*
X000330696Y-24282243D02*
X000329491Y-24322745D01*
X000329491Y-24322745D02*
X000316346Y-24352072D01*
X000316346Y-24352072D02*
X000292754Y-24372163D01*
X000292754Y-24372163D02*
X000260207Y-24384959D01*
X000260207Y-24384959D02*
X000197858Y-24394717D01*
X000197858Y-24394717D02*
X-00017421Y-24402339D01*
X000161360Y-24421714D02*
X000346220Y-24653879D01*
X000698398Y-24231151D02*
X000724682Y-24210543D01*
X000724682Y-24210543D02*
X000766571Y-24188464D01*
X000766571Y-24188464D02*
X000819960Y-24170069D01*
X000819960Y-24170069D02*
X000885667Y-24173743D01*
X000885667Y-24173743D02*
X000943163Y-24192144D01*
X000943163Y-24192144D02*
X000984232Y-24225263D01*
X000984232Y-24225263D02*
X001008873Y-24265744D01*
X001008873Y-24265744D02*
X001000659Y-24309904D01*
X001000659Y-24309904D02*
X000967804Y-24343024D01*
X000967804Y-24343024D02*
X000910308Y-24368784D01*
X000910308Y-24368784D02*
X000844599Y-24383504D01*
X000844599Y-24383504D02*
X000787105Y-24390865D01*
X000787105Y-24390865D02*
X000844599Y-24398224D01*
X000844599Y-24398224D02*
X000910308Y-24416625D01*
X000910308Y-24416625D02*
X000967804Y-24446064D01*
X000967804Y-24446064D02*
X001004766Y-24486545D01*
X001004766Y-24486545D02*
X001012979Y-24530705D01*
X001012979Y-24530705D02*
X000996552Y-24578546D01*
X000996552Y-24578546D02*
X000959591Y-24619025D01*
X000959591Y-24619025D02*
X000902094Y-24652146D01*
X000902094Y-24652146D02*
X000858562Y-24662450D01*
X000858562Y-24662450D02*
X000787926Y-24660978D01*
X000787926Y-24660978D02*
X000730431Y-24652146D01*
X000730431Y-24652146D02*
X000691006Y-24640370D01*
X001544044Y-24170069D02*
X001477941Y-24187970D01*
X001477941Y-24187970D02*
X001418755Y-24242515D01*
X001418755Y-24242515D02*
X001386472Y-24321709D01*
X001386472Y-24321709D02*
X001378785Y-24439155D01*
X001378785Y-24439155D02*
X001397233Y-24537623D01*
X001397233Y-24537623D02*
X001444889Y-24619224D01*
X001444889Y-24619224D02*
X001513299Y-24662450D01*
X001513299Y-24662450D02*
X001574790Y-24662450D01*
X001574790Y-24662450D02*
X001643201Y-24619224D01*
X001643201Y-24619224D02*
X001690856Y-24537623D01*
X001690856Y-24537623D02*
X001709304Y-24439155D01*
X001709304Y-24439155D02*
X001701618Y-24321709D01*
X001701618Y-24321709D02*
X001669334Y-24242515D01*
X001669334Y-24242515D02*
X001610148Y-24187970D01*
X001610148Y-24187970D02*
X001544044Y-24170069D01*
D50*
X-02573788Y-12660603D02*
X-01614913Y-12660603D01*
X-01614913Y-11339397D01*
X-02573788Y-11339397D01*
D50*
X-03426212Y-12660603D02*
X-04385087Y-12660603D01*
X-04385087Y-11339397D01*
X-03426212Y-11339397D01*
D51*
X-04026340Y-10650478D02*
X-04026340Y-10191589D01*
X-04026340Y-10191589D02*
X-03891789Y-10179297D01*
X-03891789Y-10179297D02*
X-03797351Y-10183407D01*
X-03797351Y-10183407D02*
X-03740382Y-10196035D01*
X-03740382Y-10196035D02*
X-03716427Y-10206330D01*
X-03716427Y-10206330D02*
X-03696712Y-10219730D01*
X-03696712Y-10219730D02*
X-03682147Y-10236572D01*
X-03682147Y-10236572D02*
X-03669304Y-10282243D01*
X-03669304Y-10282243D02*
X-03670509Y-10322745D01*
X-03670509Y-10322745D02*
X-03683654Y-10352072D01*
X-03683654Y-10352072D02*
X-03707246Y-10372163D01*
X-03707246Y-10372163D02*
X-03739793Y-10384959D01*
X-03739793Y-10384959D02*
X-03802142Y-10394717D01*
X-03802142Y-10394717D02*
X-04017421Y-10402339D01*
X-03838640Y-10421714D02*
X-03653780Y-10653879D01*
X-03301602Y-10231151D02*
X-03275318Y-10210543D01*
X-03275318Y-10210543D02*
X-03233429Y-10188464D01*
X-03233429Y-10188464D02*
X-03180041Y-10170069D01*
X-03180041Y-10170069D02*
X-03114333Y-10173743D01*
X-03114333Y-10173743D02*
X-03056837Y-10192144D01*
X-03056837Y-10192144D02*
X-03015768Y-10225263D01*
X-03015768Y-10225263D02*
X-02991127Y-10265744D01*
X-02991127Y-10265744D02*
X-02999341Y-10309904D01*
X-02999341Y-10309904D02*
X-03032196Y-10343024D01*
X-03032196Y-10343024D02*
X-03089692Y-10368784D01*
X-03089692Y-10368784D02*
X-03155401Y-10383504D01*
X-03155401Y-10383504D02*
X-03212895Y-10390865D01*
X-03212895Y-10390865D02*
X-03155401Y-10398224D01*
X-03155401Y-10398224D02*
X-03089692Y-10416625D01*
X-03089692Y-10416625D02*
X-03032196Y-10446064D01*
X-03032196Y-10446064D02*
X-02995234Y-10486545D01*
X-02995234Y-10486545D02*
X-02987021Y-10530705D01*
X-02987021Y-10530705D02*
X-03003448Y-10578546D01*
X-03003448Y-10578546D02*
X-03040409Y-10619025D01*
X-03040409Y-10619025D02*
X-03097906Y-10652146D01*
X-03097906Y-10652146D02*
X-03141438Y-10662450D01*
X-03141438Y-10662450D02*
X-03212074Y-10660978D01*
X-03212074Y-10660978D02*
X-03269569Y-10652146D01*
X-03269569Y-10652146D02*
X-03308994Y-10640370D01*
X-02512376Y-10275515D02*
X-02399536Y-10179297D01*
X-02399536Y-10179297D02*
X-02399536Y-10653876D01*
D50*
X-21573788Y-22660603D02*
X-20614913Y-22660603D01*
X-20614913Y-21339397D01*
X-21573788Y-21339397D01*
D50*
X-22426212Y-22660603D02*
X-23385087Y-22660603D01*
X-23385087Y-21339397D01*
X-22426212Y-21339397D01*
D51*
X-23026340Y-20650478D02*
X-23026340Y-20191589D01*
X-23026340Y-20191589D02*
X-22891789Y-20179297D01*
X-22891789Y-20179297D02*
X-22797351Y-20183407D01*
X-22797351Y-20183407D02*
X-22740382Y-20196035D01*
X-22740382Y-20196035D02*
X-22716427Y-20206330D01*
X-22716427Y-20206330D02*
X-22696712Y-20219730D01*
X-22696712Y-20219730D02*
X-22682147Y-20236572D01*
X-22682147Y-20236572D02*
X-22669304Y-20282243D01*
X-22669304Y-20282243D02*
X-22670509Y-20322745D01*
X-22670509Y-20322745D02*
X-22683654Y-20352072D01*
X-22683654Y-20352072D02*
X-22707246Y-20372163D01*
X-22707246Y-20372163D02*
X-22739792Y-20384959D01*
X-22739792Y-20384959D02*
X-22802141Y-20394717D01*
X-22802141Y-20394717D02*
X-23017421Y-20402339D01*
X-22838640Y-20421714D02*
X-22653780Y-20653879D01*
X-22301602Y-20231151D02*
X-22275318Y-20210543D01*
X-22275318Y-20210543D02*
X-22233429Y-20188464D01*
X-22233429Y-20188464D02*
X-22180040Y-20170069D01*
X-22180040Y-20170069D02*
X-22114333Y-20173743D01*
X-22114333Y-20173743D02*
X-22056837Y-20192144D01*
X-22056837Y-20192144D02*
X-22015768Y-20225263D01*
X-22015768Y-20225263D02*
X-21991127Y-20265744D01*
X-21991127Y-20265744D02*
X-21999341Y-20309904D01*
X-21999341Y-20309904D02*
X-22032196Y-20343024D01*
X-22032196Y-20343024D02*
X-22089692Y-20368784D01*
X-22089692Y-20368784D02*
X-22155401Y-20383504D01*
X-22155401Y-20383504D02*
X-22212895Y-20390865D01*
X-22212895Y-20390865D02*
X-22155401Y-20398224D01*
X-22155401Y-20398224D02*
X-22089692Y-20416625D01*
X-22089692Y-20416625D02*
X-22032196Y-20446064D01*
X-22032196Y-20446064D02*
X-21995234Y-20486545D01*
X-21995234Y-20486545D02*
X-21987021Y-20530705D01*
X-21987021Y-20530705D02*
X-22003448Y-20578546D01*
X-22003448Y-20578546D02*
X-22040409Y-20619025D01*
X-22040409Y-20619025D02*
X-22097906Y-20652146D01*
X-22097906Y-20652146D02*
X-22141438Y-20662450D01*
X-22141438Y-20662450D02*
X-22212074Y-20660978D01*
X-22212074Y-20660978D02*
X-22269569Y-20652146D01*
X-22269569Y-20652146D02*
X-22308994Y-20640370D01*
X-21589388Y-20264084D02*
X-21578739Y-20229205D01*
X-21578739Y-20229205D02*
X-21547274Y-20196676D01*
X-21547274Y-20196676D02*
X-21495708Y-20174617D01*
X-21495708Y-20174617D02*
X-21462611Y-20170069D01*
X-21462611Y-20170069D02*
X-21405351Y-20174259D01*
X-21405351Y-20174259D02*
X-21362396Y-20193094D01*
X-21362396Y-20193094D02*
X-21338907Y-20221976D01*
X-21338907Y-20221976D02*
X-21330470Y-20255539D01*
X-21330470Y-20255539D02*
X-21331030Y-20277864D01*
X-21331030Y-20277864D02*
X-21341112Y-20315234D01*
X-21341112Y-20315234D02*
X-21384874Y-20387892D01*
X-21384874Y-20387892D02*
X-21495080Y-20526107D01*
X-21495080Y-20526107D02*
X-21610961Y-20653232D01*
X-21610961Y-20653232D02*
X-21300951Y-20653232D01*
D50*
X-21573788Y-25660603D02*
X-20614913Y-25660603D01*
X-20614913Y-24339397D01*
X-21573788Y-24339397D01*
D50*
X-22426212Y-25660603D02*
X-23385087Y-25660603D01*
X-23385087Y-24339397D01*
X-22426212Y-24339397D01*
D51*
X-23026340Y-23650478D02*
X-23026340Y-23191589D01*
X-23026340Y-23191589D02*
X-22891789Y-23179297D01*
X-22891789Y-23179297D02*
X-22797351Y-23183407D01*
X-22797351Y-23183407D02*
X-22740382Y-23196035D01*
X-22740382Y-23196035D02*
X-22716427Y-23206330D01*
X-22716427Y-23206330D02*
X-22696712Y-23219730D01*
X-22696712Y-23219730D02*
X-22682147Y-23236572D01*
X-22682147Y-23236572D02*
X-22669304Y-23282243D01*
X-22669304Y-23282243D02*
X-22670509Y-23322745D01*
X-22670509Y-23322745D02*
X-22683654Y-23352072D01*
X-22683654Y-23352072D02*
X-22707246Y-23372163D01*
X-22707246Y-23372163D02*
X-22739792Y-23384959D01*
X-22739792Y-23384959D02*
X-22802141Y-23394717D01*
X-22802141Y-23394717D02*
X-23017421Y-23402339D01*
X-22838640Y-23421714D02*
X-22653780Y-23653879D01*
X-22301602Y-23231151D02*
X-22275318Y-23210543D01*
X-22275318Y-23210543D02*
X-22233429Y-23188464D01*
X-22233429Y-23188464D02*
X-22180040Y-23170069D01*
X-22180040Y-23170069D02*
X-22114333Y-23173743D01*
X-22114333Y-23173743D02*
X-22056837Y-23192144D01*
X-22056837Y-23192144D02*
X-22015768Y-23225263D01*
X-22015768Y-23225263D02*
X-21991127Y-23265744D01*
X-21991127Y-23265744D02*
X-21999341Y-23309904D01*
X-21999341Y-23309904D02*
X-22032196Y-23343024D01*
X-22032196Y-23343024D02*
X-22089692Y-23368784D01*
X-22089692Y-23368784D02*
X-22155401Y-23383504D01*
X-22155401Y-23383504D02*
X-22212895Y-23390865D01*
X-22212895Y-23390865D02*
X-22155401Y-23398224D01*
X-22155401Y-23398224D02*
X-22089692Y-23416625D01*
X-22089692Y-23416625D02*
X-22032196Y-23446064D01*
X-22032196Y-23446064D02*
X-21995234Y-23486545D01*
X-21995234Y-23486545D02*
X-21987021Y-23530705D01*
X-21987021Y-23530705D02*
X-22003448Y-23578546D01*
X-22003448Y-23578546D02*
X-22040409Y-23619025D01*
X-22040409Y-23619025D02*
X-22097906Y-23652146D01*
X-22097906Y-23652146D02*
X-22141438Y-23662450D01*
X-22141438Y-23662450D02*
X-22212074Y-23660978D01*
X-22212074Y-23660978D02*
X-22269569Y-23652146D01*
X-22269569Y-23652146D02*
X-22308994Y-23640370D01*
X-21609550Y-23231151D02*
X-21583266Y-23210543D01*
X-21583266Y-23210543D02*
X-21541377Y-23188464D01*
X-21541377Y-23188464D02*
X-21487988Y-23170069D01*
X-21487988Y-23170069D02*
X-21422281Y-23173743D01*
X-21422281Y-23173743D02*
X-21364785Y-23192144D01*
X-21364785Y-23192144D02*
X-21323716Y-23225263D01*
X-21323716Y-23225263D02*
X-21299075Y-23265744D01*
X-21299075Y-23265744D02*
X-21307289Y-23309904D01*
X-21307289Y-23309904D02*
X-21340144Y-23343024D01*
X-21340144Y-23343024D02*
X-21397640Y-23368784D01*
X-21397640Y-23368784D02*
X-21463349Y-23383504D01*
X-21463349Y-23383504D02*
X-21520843Y-23390865D01*
X-21520843Y-23390865D02*
X-21463349Y-23398224D01*
X-21463349Y-23398224D02*
X-21397640Y-23416625D01*
X-21397640Y-23416625D02*
X-21340144Y-23446064D01*
X-21340144Y-23446064D02*
X-21303182Y-23486545D01*
X-21303182Y-23486545D02*
X-21294969Y-23530705D01*
X-21294969Y-23530705D02*
X-21311396Y-23578546D01*
X-21311396Y-23578546D02*
X-21348357Y-23619025D01*
X-21348357Y-23619025D02*
X-21405854Y-23652146D01*
X-21405854Y-23652146D02*
X-21449386Y-23662450D01*
X-21449386Y-23662450D02*
X-21520022Y-23660978D01*
X-21520022Y-23660978D02*
X-21577517Y-23652146D01*
X-21577517Y-23652146D02*
X-21616942Y-23640370D01*
D50*
X-03188802Y-23096395D02*
X-04598807Y-23096395D01*
D50*
X-04598807Y-24903605D02*
X-03188802Y-24903605D01*
D50*
X-03036402Y-24751205D02*
X-03036402Y-23248795D01*
D50*
X-06811198Y-23096395D02*
X-05401193Y-23096395D01*
D50*
X-05401193Y-24903605D02*
X-06811198Y-24903605D01*
D50*
X-06963598Y-24751205D02*
X-06963598Y-23248795D01*
D50*
X-03188802Y-24903605D02*
X-03081039Y-24858968D01*
X-03036402Y-24751205D01*
D50*
X-03036402Y-23248795D02*
X-03081039Y-23141032D01*
X-03188802Y-23096395D01*
D50*
X-06811198Y-24903605D02*
X-06918961Y-24858968D01*
X-06963598Y-24751205D01*
D50*
X-06963598Y-23248795D02*
X-06918961Y-23141032D01*
X-06811198Y-23096395D01*
D51*
X-05655040Y-22029493D02*
X-05676481Y-21977237D01*
X-05676481Y-21977237D02*
X-05715811Y-21940239D01*
X-05715811Y-21940239D02*
X-05790297Y-21916069D01*
X-05790297Y-21916069D02*
X-05845339Y-21923450D01*
X-05845339Y-21923450D02*
X-05893844Y-21948224D01*
X-05893844Y-21948224D02*
X-05941208Y-22005402D01*
X-05941208Y-22005402D02*
X-05974279Y-22155491D01*
X-05974279Y-22155491D02*
X-05948327Y-22306370D01*
X-05948327Y-22306370D02*
X-05909611Y-22367128D01*
X-05909611Y-22367128D02*
X-05869360Y-22395561D01*
X-05869360Y-22395561D02*
X-05790945Y-22408450D01*
X-05790945Y-22408450D02*
X-05722607Y-22391975D01*
X-05722607Y-22391975D02*
X-05672007Y-22343899D01*
X-05672007Y-22343899D02*
X-05655040Y-22276046D01*
X-05256040Y-22010084D02*
X-05245391Y-21975205D01*
X-05245391Y-21975205D02*
X-05213926Y-21942676D01*
X-05213926Y-21942676D02*
X-05162360Y-21920617D01*
X-05162360Y-21920617D02*
X-05129263Y-21916069D01*
X-05129263Y-21916069D02*
X-05072003Y-21920259D01*
X-05072003Y-21920259D02*
X-05029048Y-21939094D01*
X-05029048Y-21939094D02*
X-05005559Y-21967976D01*
X-05005559Y-21967976D02*
X-04997122Y-22001539D01*
X-04997122Y-22001539D02*
X-04997682Y-22023864D01*
X-04997682Y-22023864D02*
X-05007764Y-22061234D01*
X-05007764Y-22061234D02*
X-05051526Y-22133892D01*
X-05051526Y-22133892D02*
X-05161732Y-22272107D01*
X-05161732Y-22272107D02*
X-05277613Y-22399232D01*
X-05277613Y-22399232D02*
X-04967603Y-22399232D01*
X-04486976Y-22021515D02*
X-04374136Y-21925297D01*
X-04374136Y-21925297D02*
X-04374136Y-22399876D01*
D50*
X-03188802Y-15096395D02*
X-04598807Y-15096395D01*
D50*
X-04598807Y-16903605D02*
X-03188802Y-16903605D01*
D50*
X-03036402Y-16751205D02*
X-03036402Y-15248795D01*
D50*
X-06811198Y-15096395D02*
X-05401193Y-15096395D01*
D50*
X-05401193Y-16903605D02*
X-06811198Y-16903605D01*
D50*
X-06963598Y-16751205D02*
X-06963598Y-15248795D01*
D50*
X-03188802Y-16903605D02*
X-03081039Y-16858968D01*
X-03036402Y-16751205D01*
D50*
X-03036402Y-15248795D02*
X-03081039Y-15141032D01*
X-03188802Y-15096395D01*
D50*
X-06811198Y-16903605D02*
X-06918961Y-16858968D01*
X-06963598Y-16751205D01*
D50*
X-06963598Y-15248795D02*
X-06918961Y-15141032D01*
X-06811198Y-15096395D01*
D51*
X-05655040Y-14029493D02*
X-05676481Y-13977237D01*
X-05676481Y-13977237D02*
X-05715811Y-13940239D01*
X-05715811Y-13940239D02*
X-05790297Y-13916069D01*
X-05790297Y-13916069D02*
X-05845339Y-13923450D01*
X-05845339Y-13923450D02*
X-05893844Y-13948224D01*
X-05893844Y-13948224D02*
X-05941208Y-14005402D01*
X-05941208Y-14005402D02*
X-05974279Y-14155491D01*
X-05974279Y-14155491D02*
X-05948327Y-14306369D01*
X-05948327Y-14306369D02*
X-05909611Y-14367128D01*
X-05909611Y-14367128D02*
X-05869360Y-14395561D01*
X-05869360Y-14395561D02*
X-05790945Y-14408450D01*
X-05790945Y-14408450D02*
X-05722607Y-14391975D01*
X-05722607Y-14391975D02*
X-05672007Y-14343899D01*
X-05672007Y-14343899D02*
X-05655040Y-14276045D01*
X-05256040Y-14010084D02*
X-05245391Y-13975205D01*
X-05245391Y-13975205D02*
X-05213926Y-13942676D01*
X-05213926Y-13942676D02*
X-05162360Y-13920617D01*
X-05162360Y-13920617D02*
X-05129263Y-13916069D01*
X-05129263Y-13916069D02*
X-05072003Y-13920259D01*
X-05072003Y-13920259D02*
X-05029048Y-13939093D01*
X-05029048Y-13939093D02*
X-05005559Y-13967976D01*
X-05005559Y-13967976D02*
X-04997122Y-14001539D01*
X-04997122Y-14001539D02*
X-04997682Y-14023864D01*
X-04997682Y-14023864D02*
X-05007764Y-14061234D01*
X-05007764Y-14061234D02*
X-05051526Y-14133892D01*
X-05051526Y-14133892D02*
X-05161732Y-14272107D01*
X-05161732Y-14272107D02*
X-05277613Y-14399232D01*
X-05277613Y-14399232D02*
X-04967603Y-14399232D01*
X-04563988Y-14010084D02*
X-04553339Y-13975205D01*
X-04553339Y-13975205D02*
X-04521874Y-13942676D01*
X-04521874Y-13942676D02*
X-04470308Y-13920617D01*
X-04470308Y-13920617D02*
X-04437211Y-13916069D01*
X-04437211Y-13916069D02*
X-04379951Y-13920259D01*
X-04379951Y-13920259D02*
X-04336996Y-13939093D01*
X-04336996Y-13939093D02*
X-04313507Y-13967976D01*
X-04313507Y-13967976D02*
X-04305070Y-14001539D01*
X-04305070Y-14001539D02*
X-04305630Y-14023864D01*
X-04305630Y-14023864D02*
X-04315712Y-14061234D01*
X-04315712Y-14061234D02*
X-04359474Y-14133892D01*
X-04359474Y-14133892D02*
X-04469680Y-14272107D01*
X-04469680Y-14272107D02*
X-04585561Y-14399232D01*
X-04585561Y-14399232D02*
X-04275551Y-14399232D01*
D50*
X-12311198Y-13403605D02*
X-10901193Y-13403605D01*
D50*
X-10901193Y-11596395D02*
X-12311198Y-11596395D01*
D50*
X-12463598Y-11748795D02*
X-12463598Y-13251205D01*
D50*
X-08688802Y-13403605D02*
X-10098807Y-13403605D01*
D50*
X-10098807Y-11596395D02*
X-08688802Y-11596395D01*
D50*
X-08536402Y-11748795D02*
X-08536402Y-13251205D01*
D50*
X-12311198Y-11596395D02*
X-12418961Y-11641032D01*
X-12463598Y-11748795D01*
D50*
X-12463598Y-13251205D02*
X-12418961Y-13358968D01*
X-12311198Y-13403605D01*
D50*
X-08688802Y-11596395D02*
X-08581039Y-11641032D01*
X-08536402Y-11748795D01*
D50*
X-08536402Y-13251205D02*
X-08581039Y-13358968D01*
X-08688802Y-13403605D01*
D51*
X-09844960Y-14470507D02*
X-09823520Y-14522763D01*
X-09823520Y-14522763D02*
X-09784189Y-14559761D01*
X-09784189Y-14559761D02*
X-09709703Y-14583931D01*
X-09709703Y-14583931D02*
X-09654661Y-14576550D01*
X-09654661Y-14576550D02*
X-09606156Y-14551776D01*
X-09606156Y-14551776D02*
X-09558792Y-14494598D01*
X-09558792Y-14494598D02*
X-09525721Y-14344509D01*
X-09525721Y-14344509D02*
X-09551673Y-14193631D01*
X-09551673Y-14193631D02*
X-09590389Y-14132872D01*
X-09590389Y-14132872D02*
X-09630640Y-14104439D01*
X-09630640Y-14104439D02*
X-09709055Y-14091550D01*
X-09709055Y-14091550D02*
X-09777393Y-14108025D01*
X-09777393Y-14108025D02*
X-09827993Y-14156101D01*
X-09827993Y-14156101D02*
X-09844960Y-14223955D01*
X-10243960Y-14489916D02*
X-10254609Y-14524795D01*
X-10254609Y-14524795D02*
X-10286074Y-14557324D01*
X-10286074Y-14557324D02*
X-10337640Y-14579383D01*
X-10337640Y-14579383D02*
X-10370737Y-14583931D01*
X-10370737Y-14583931D02*
X-10427997Y-14579741D01*
X-10427997Y-14579741D02*
X-10470952Y-14560907D01*
X-10470952Y-14560907D02*
X-10494441Y-14532024D01*
X-10494441Y-14532024D02*
X-10502878Y-14498461D01*
X-10502878Y-14498461D02*
X-10502318Y-14476136D01*
X-10502318Y-14476136D02*
X-10492236Y-14438766D01*
X-10492236Y-14438766D02*
X-10448474Y-14366108D01*
X-10448474Y-14366108D02*
X-10338268Y-14227893D01*
X-10338268Y-14227893D02*
X-10222387Y-14100769D01*
X-10222387Y-14100769D02*
X-10532397Y-14100769D01*
X-10915850Y-14522849D02*
X-10942134Y-14543457D01*
X-10942134Y-14543457D02*
X-10984023Y-14565536D01*
X-10984023Y-14565536D02*
X-11037412Y-14583931D01*
X-11037412Y-14583931D02*
X-11103119Y-14580257D01*
X-11103119Y-14580257D02*
X-11160615Y-14561856D01*
X-11160615Y-14561856D02*
X-11201684Y-14528737D01*
X-11201684Y-14528737D02*
X-11226325Y-14488256D01*
X-11226325Y-14488256D02*
X-11218111Y-14444096D01*
X-11218111Y-14444096D02*
X-11185256Y-14410976D01*
X-11185256Y-14410976D02*
X-11127760Y-14385216D01*
X-11127760Y-14385216D02*
X-11062051Y-14370496D01*
X-11062051Y-14370496D02*
X-11004557Y-14363136D01*
X-11004557Y-14363136D02*
X-11062051Y-14355776D01*
X-11062051Y-14355776D02*
X-11127760Y-14337376D01*
X-11127760Y-14337376D02*
X-11185256Y-14307936D01*
X-11185256Y-14307936D02*
X-11222218Y-14267455D01*
X-11222218Y-14267455D02*
X-11230431Y-14223295D01*
X-11230431Y-14223295D02*
X-11214004Y-14175454D01*
X-11214004Y-14175454D02*
X-11177043Y-14134975D01*
X-11177043Y-14134975D02*
X-11119546Y-14101854D01*
X-11119546Y-14101854D02*
X-11076014Y-14091550D01*
X-11076014Y-14091550D02*
X-11005378Y-14093022D01*
X-11005378Y-14093022D02*
X-10947883Y-14101854D01*
X-10947883Y-14101854D02*
X-10908458Y-14113630D01*
D50*
X-00721385Y-14502465D02*
X-00221386Y-14502465D01*
D50*
X-00873811Y-15347243D02*
X-00873811Y-14654839D01*
D50*
X-00221386Y-15499643D02*
X-00721385Y-15499643D01*
D50*
X000721385Y-15497510D02*
X000221386Y-15497510D01*
D50*
X000221386Y-14500382D02*
X000721385Y-14500382D01*
D50*
X000873811Y-14652731D02*
X000873811Y-15345161D01*
D50*
X000721385Y-14500357D02*
X000829148Y-14544994D01*
X000873785Y-14652757D01*
D50*
X000873785Y-15345161D02*
X000829148Y-15452924D01*
X000721385Y-15497561D01*
D50*
X-00721385Y-15499643D02*
X-00829148Y-15455006D01*
X-00873785Y-15347243D01*
D50*
X-00873785Y-14654839D02*
X-00829148Y-14547076D01*
X-00721385Y-14502439D01*
D51*
X-00655040Y-13435893D02*
X-00676481Y-13383637D01*
X-00676481Y-13383637D02*
X-00715811Y-13346639D01*
X-00715811Y-13346639D02*
X-00790297Y-13322469D01*
X-00790297Y-13322469D02*
X-00845339Y-13329850D01*
X-00845339Y-13329850D02*
X-00893844Y-13354624D01*
X-00893844Y-13354624D02*
X-00941208Y-13411802D01*
X-00941208Y-13411802D02*
X-00974279Y-13561891D01*
X-00974279Y-13561891D02*
X-00948327Y-13712770D01*
X-00948327Y-13712770D02*
X-00909611Y-13773528D01*
X-00909611Y-13773528D02*
X-00869360Y-13801961D01*
X-00869360Y-13801961D02*
X-00790945Y-13814850D01*
X-00790945Y-13814850D02*
X-00722607Y-13798375D01*
X-00722607Y-13798375D02*
X-00672007Y-13750299D01*
X-00672007Y-13750299D02*
X-00655040Y-13682446D01*
X-00256040Y-13416484D02*
X-00245391Y-13381605D01*
X-00245391Y-13381605D02*
X-00213926Y-13349076D01*
X-00213926Y-13349076D02*
X-00162360Y-13327017D01*
X-00162360Y-13327017D02*
X-00129263Y-13322469D01*
X-00129263Y-13322469D02*
X-00072003Y-13326659D01*
X-00072003Y-13326659D02*
X-00029048Y-13345494D01*
X-00029048Y-13345494D02*
X-00005559Y-13374376D01*
X-00005559Y-13374376D02*
X000002878Y-13407939D01*
X000002878Y-13407939D02*
X000002318Y-13430264D01*
X000002318Y-13430264D02*
X-00007764Y-13467634D01*
X-00007764Y-13467634D02*
X-00051526Y-13540292D01*
X-00051526Y-13540292D02*
X-00161732Y-13678507D01*
X-00161732Y-13678507D02*
X-00277613Y-13805632D01*
X-00277613Y-13805632D02*
X000032397Y-13805632D01*
X000651672Y-13331697D02*
X000392906Y-13648939D01*
X000392906Y-13648939D02*
X000745983Y-13648939D01*
X000648653Y-13546717D02*
X000648653Y-13806279D01*
D50*
X003278615Y-10502465D02*
X003778614Y-10502465D01*
D50*
X003126189Y-11347243D02*
X003126189Y-10654839D01*
D50*
X003778614Y-11499643D02*
X003278615Y-11499643D01*
D50*
X004721385Y-11497510D02*
X004221386Y-11497510D01*
D50*
X004221386Y-10500382D02*
X004721385Y-10500382D01*
D50*
X004873811Y-10652731D02*
X004873811Y-11345161D01*
D50*
X004721385Y-10500357D02*
X004829148Y-10544994D01*
X004873785Y-10652757D01*
D50*
X004873785Y-11345161D02*
X004829148Y-11452924D01*
X004721385Y-11497561D01*
D50*
X003278615Y-11499643D02*
X003170852Y-11455006D01*
X003126215Y-11347243D01*
D50*
X003126215Y-10654839D02*
X003170852Y-10547076D01*
X003278615Y-10502439D01*
D51*
X003344960Y-09435893D02*
X003323519Y-09383637D01*
X003323519Y-09383637D02*
X003284189Y-09346639D01*
X003284189Y-09346639D02*
X003209703Y-09322469D01*
X003209703Y-09322469D02*
X003154661Y-09329850D01*
X003154661Y-09329850D02*
X003106156Y-09354624D01*
X003106156Y-09354624D02*
X003058792Y-09411802D01*
X003058792Y-09411802D02*
X003025721Y-09561891D01*
X003025721Y-09561891D02*
X003051673Y-09712770D01*
X003051673Y-09712770D02*
X003090389Y-09773528D01*
X003090389Y-09773528D02*
X003130640Y-09801961D01*
X003130640Y-09801961D02*
X003209055Y-09814850D01*
X003209055Y-09814850D02*
X003277393Y-09798375D01*
X003277393Y-09798375D02*
X003327993Y-09750299D01*
X003327993Y-09750299D02*
X003344960Y-09682446D01*
X003743960Y-09416484D02*
X003754609Y-09381605D01*
X003754609Y-09381605D02*
X003786074Y-09349076D01*
X003786074Y-09349076D02*
X003837640Y-09327017D01*
X003837640Y-09327017D02*
X003870737Y-09322469D01*
X003870737Y-09322469D02*
X003927997Y-09326659D01*
X003927997Y-09326659D02*
X003970952Y-09345494D01*
X003970952Y-09345494D02*
X003994441Y-09374376D01*
X003994441Y-09374376D02*
X004002878Y-09407939D01*
X004002878Y-09407939D02*
X004002318Y-09430264D01*
X004002318Y-09430264D02*
X003992236Y-09467634D01*
X003992236Y-09467634D02*
X003948474Y-09540292D01*
X003948474Y-09540292D02*
X003838268Y-09678507D01*
X003838268Y-09678507D02*
X003722387Y-09805632D01*
X003722387Y-09805632D02*
X004032397Y-09805632D01*
X004411192Y-09331697D02*
X004411192Y-09572291D01*
X004411192Y-09572291D02*
X004546085Y-09540650D01*
X004546085Y-09540650D02*
X004642399Y-09552551D01*
X004642399Y-09552551D02*
X004680727Y-09574032D01*
X004680727Y-09574032D02*
X004707346Y-09604512D01*
X004707346Y-09604512D02*
X004727697Y-09687581D01*
X004727697Y-09687581D02*
X004718072Y-09730734D01*
X004718072Y-09730734D02*
X004692818Y-09764698D01*
X004692818Y-09764698D02*
X004643191Y-09796241D01*
X004643191Y-09796241D02*
X004585838Y-09812836D01*
X004585838Y-09812836D02*
X004531905Y-09815497D01*
X004531905Y-09815497D02*
X004486487Y-09806837D01*
X004486487Y-09806837D02*
X004449774Y-09789856D01*
X004449774Y-09789856D02*
X004411192Y-09754925D01*
X004411192Y-09331697D02*
X004727697Y-09331697D01*
D50*
X-15221385Y-22502465D02*
X-14721386Y-22502465D01*
D50*
X-15373811Y-23347243D02*
X-15373811Y-22654839D01*
D50*
X-14721386Y-23499643D02*
X-15221385Y-23499643D01*
D50*
X-13778615Y-23497510D02*
X-14278614Y-23497510D01*
D50*
X-14278614Y-22500382D02*
X-13778615Y-22500382D01*
D50*
X-13626189Y-22652731D02*
X-13626189Y-23345161D01*
D50*
X-13778615Y-22500357D02*
X-13670852Y-22544994D01*
X-13626215Y-22652757D01*
D50*
X-13626215Y-23345161D02*
X-13670852Y-23452924D01*
X-13778615Y-23497561D01*
D50*
X-15221385Y-23499643D02*
X-15329148Y-23455006D01*
X-15373785Y-23347243D01*
D50*
X-15373785Y-22654839D02*
X-15329148Y-22547076D01*
X-15221385Y-22502439D01*
D51*
X-15155040Y-21435893D02*
X-15176481Y-21383637D01*
X-15176481Y-21383637D02*
X-15215811Y-21346639D01*
X-15215811Y-21346639D02*
X-15290297Y-21322469D01*
X-15290297Y-21322469D02*
X-15345339Y-21329850D01*
X-15345339Y-21329850D02*
X-15393844Y-21354624D01*
X-15393844Y-21354624D02*
X-15441208Y-21411802D01*
X-15441208Y-21411802D02*
X-15474279Y-21561891D01*
X-15474279Y-21561891D02*
X-15448327Y-21712770D01*
X-15448327Y-21712770D02*
X-15409611Y-21773528D01*
X-15409611Y-21773528D02*
X-15369360Y-21801961D01*
X-15369360Y-21801961D02*
X-15290945Y-21814850D01*
X-15290945Y-21814850D02*
X-15222607Y-21798375D01*
X-15222607Y-21798375D02*
X-15172007Y-21750299D01*
X-15172007Y-21750299D02*
X-15155040Y-21682446D01*
X-14756040Y-21416484D02*
X-14745391Y-21381605D01*
X-14745391Y-21381605D02*
X-14713926Y-21349076D01*
X-14713926Y-21349076D02*
X-14662360Y-21327017D01*
X-14662360Y-21327017D02*
X-14629263Y-21322469D01*
X-14629263Y-21322469D02*
X-14572003Y-21326659D01*
X-14572003Y-21326659D02*
X-14529048Y-21345494D01*
X-14529048Y-21345494D02*
X-14505559Y-21374376D01*
X-14505559Y-21374376D02*
X-14497122Y-21407939D01*
X-14497122Y-21407939D02*
X-14497682Y-21430264D01*
X-14497682Y-21430264D02*
X-14507764Y-21467634D01*
X-14507764Y-21467634D02*
X-14551526Y-21540292D01*
X-14551526Y-21540292D02*
X-14661732Y-21678507D01*
X-14661732Y-21678507D02*
X-14777613Y-21805632D01*
X-14777613Y-21805632D02*
X-14467603Y-21805632D01*
X-13841290Y-21322469D02*
X-13902271Y-21341537D01*
X-13902271Y-21341537D02*
X-13958763Y-21360469D01*
X-13958763Y-21360469D02*
X-14006742Y-21394127D01*
X-14006742Y-21394127D02*
X-14044043Y-21429678D01*
X-14044043Y-21429678D02*
X-14072521Y-21492295D01*
X-14072521Y-21492295D02*
X-14092100Y-21550987D01*
X-14092100Y-21550987D02*
X-14094189Y-21611501D01*
X-14094189Y-21611501D02*
X-14095659Y-21671804D01*
X-14095659Y-21671804D02*
X-14080260Y-21716681D01*
X-14080260Y-21716681D02*
X-14065556Y-21744729D01*
X-14065556Y-21744729D02*
X-14030733Y-21781192D01*
X-14030733Y-21781192D02*
X-13993587Y-21805734D01*
X-13993587Y-21805734D02*
X-13936321Y-21814850D01*
X-13936321Y-21814850D02*
X-13872090Y-21811344D01*
X-13872090Y-21811344D02*
X-13821788Y-21788906D01*
X-13821788Y-21788906D02*
X-13786191Y-21758754D01*
X-13786191Y-21758754D02*
X-13766844Y-21717383D01*
X-13766844Y-21717383D02*
X-13765296Y-21682322D01*
X-13765296Y-21682322D02*
X-13776130Y-21645159D01*
X-13776130Y-21645159D02*
X-13792381Y-21613604D01*
X-13792381Y-21613604D02*
X-13817145Y-21587660D01*
X-13817145Y-21587660D02*
X-13851195Y-21571532D01*
X-13851195Y-21571532D02*
X-13898402Y-21561014D01*
X-13898402Y-21561014D02*
X-13943286Y-21558911D01*
X-13943286Y-21558911D02*
X-13990492Y-21565923D01*
X-13990492Y-21565923D02*
X-14039245Y-21591166D01*
X-14039245Y-21591166D02*
X-14064782Y-21617110D01*
X-14064782Y-21617110D02*
X-14095815Y-21648804D01*
D54*
X-27949710Y019000000D02*
X-28600000Y019000000D01*
D54*
X-28600000Y019300000D02*
X-29400000Y019000000D01*
X-28600000Y018700000D01*
X-28600000Y019300000D01*
D54*
X-29400000Y019300000D02*
X-29400000Y018700000D01*
D54*
X-29400000Y019000000D02*
X-30050290Y019000000D01*
D54*
X-19949710Y019000000D02*
X-20600000Y019000000D01*
D54*
X-20600000Y019300000D02*
X-21400000Y019000000D01*
X-20600000Y018700000D01*
X-20600000Y019300000D01*
D54*
X-21400000Y019300000D02*
X-21400000Y018700000D01*
D54*
X-21400000Y019000000D02*
X-22050290Y019000000D01*
M02*